<svg id="Capa_1" enable-background="new 0 0 512 512" height="512" viewBox="0 0 512 512" width="512" xmlns="http://www.w3.org/2000/svg"><g><path fill="#11ece5" stroke="#11ece5"  d="m421.824 0h-331.648c-49.723 0-90.176 40.453-90.176 90.176v331.648c0 49.723 40.453 90.176 90.176 90.176h331.648c49.723 0 90.176-40.453 90.176-90.176v-120.905c0-5.533-4.486-10.02-10.02-10.02s-10.02 4.486-10.02 10.02v120.905c0 38.674-31.463 70.137-70.137 70.137h-331.647c-38.674 0-70.137-31.463-70.137-70.137v-331.648c0-38.674 31.463-70.137 70.137-70.137h331.648c38.674 0 70.137 31.463 70.137 70.137v120.885c0 5.533 4.486 10.02 10.02 10.02s10.02-4.486 10.02-10.02v-120.885c-.001-49.723-40.454-90.176-90.177-90.176z"/><circle fill="#11ece5" stroke="#11ece5" cx="501.98" cy="256" r="10"/><path  fill="#11ece5" stroke="#11ece5" d="m399.107 223.426h-110.533v-110.533c0-11.028-8.972-20-20-20h-25.149c-11.028 0-20 8.972-20 20v110.533h-110.532c-11.028 0-20 8.972-20 20v25.148c0 11.028 8.972 20 20 20h110.533v110.533c0 11.028 8.972 20 20 20h25.149c11.028 0 20-8.972 20-20v-110.533h110.533c11.028 0 20-8.972 20-20v-25.148c-.001-11.029-8.972-20-20.001-20zm0 45.148h-120.533c-5.522 0-10 4.478-10 10v120.533h-25.149v-120.533c0-5.522-4.477-10-10-10h-120.532v-25.148h120.533c5.523 0 10-4.478 10-10v-120.533h25.149v120.533c0 5.522 4.478 10 10 10h120.533v25.148z"/></g></svg>