<svg xmlns="http://www.w3.org/2000/svg" xmlns:xlink="http://www.w3.org/1999/xlink" viewBox="0 0 688.37 685.96"><defs><style>.cls-1{fill:#0f1724;}.cls-1,.cls-2,.cls-3,.cls-4,.cls-5,.cls-6,.cls-7{stroke:#fff;stroke-miterlimit:10;stroke-width:8px;}.cls-2{fill:#69f;}.cls-3{fill:#92abcf;}.cls-4{fill:#212c3d;}.cls-5{fill:url(#Dégradé_sans_nom_18);}.cls-6{fill:url(#Dégradé_sans_nom_18-2);}.cls-7{fill:url(#Dégradé_sans_nom_18-3);}</style><linearGradient id="Dégradé_sans_nom_18" x1="-58.76" y1="271.9" x2="281.43" y2="271.9" gradientTransform="matrix(-1, 0, 0, 1, 625.61, 0)" gradientUnits="userSpaceOnUse"><stop offset="0" stop-color="#58a6ff"/><stop offset="0.02" stop-color="#52acfd"/><stop offset="0.13" stop-color="#3ac4f4"/><stop offset="0.26" stop-color="#28d6ed"/><stop offset="0.4" stop-color="#1be2e9"/><stop offset="0.6" stop-color="#13eae6"/><stop offset="1" stop-color="#11ece5"/></linearGradient><linearGradient id="Dégradé_sans_nom_18-2" x1="344.18" y1="387.9" x2="684.37" y2="387.9" gradientTransform="matrix(1, 0, 0, 1, 0, 0)" xlink:href="#Dégradé_sans_nom_18"/><linearGradient id="Dégradé_sans_nom_18-3" x1="-58.76" y1="157.05" x2="281.43" y2="157.05" xlink:href="#Dégradé_sans_nom_18"/></defs><title>Fichier 1</title><g id="Calque_2" data-name="Calque 2"><g id="Logo"><polyline class="cls-1" points="344.18 567.64 4 371.24 4 260.48 344.18 456.88"/><polyline class="cls-2" points="344.18 451.64 4 255.24 4 144.48 344.18 340.88"/><polyline class="cls-1" points="344.18 682.5 4 486.09 4 375.33 344.18 571.74"/><polyline class="cls-3" points="344.18 567.64 684.37 371.24 684.37 260.48 344.18 456.88"/><polyline class="cls-2" points="344.18 451.64 684.37 255.24 684.37 144.48 344.18 340.88"/><polyline class="cls-3" points="344.18 682.5 684.37 486.09 684.37 375.33 344.18 571.74"/><polyline class="cls-4" points="344.18 118.32 4 314.73 4 425.49 344.18 229.08"/><polyline class="cls-4" points="344.18 234.32 4 430.73 4 541.49 344.18 345.08"/><polyline class="cls-4" points="344.18 3.46 4 199.87 4 310.63 344.18 114.23"/><polyline class="cls-5" points="344.18 118.32 684.37 314.73 684.37 425.49 344.18 229.08"/><polyline class="cls-6" points="344.18 234.32 684.37 430.73 684.37 541.49 344.18 345.08"/><polyline class="cls-7" points="344.18 3.46 684.37 199.87 684.37 310.63 344.18 114.23"/></g></g></svg>