<svg xmlns="http://www.w3.org/2000/svg" xmlns:xlink="http://www.w3.org/1999/xlink" viewBox="0 0 166.51 368.9"><defs><style>.cls-1{fill:url(#linear-gradient);}.cls-2{fill:url(#linear-gradient-2);}.cls-3{fill:url(#linear-gradient-3);}.cls-4{fill:url(#linear-gradient-4);}.cls-5{fill:url(#linear-gradient-5);}.cls-6{fill:url(#linear-gradient-6);}.cls-7{fill:url(#linear-gradient-7);}.cls-8{fill:url(#linear-gradient-8);}.cls-9{fill:url(#linear-gradient-9);}.cls-10{fill:url(#linear-gradient-10);}.cls-11{fill:url(#linear-gradient-11);}.cls-12{fill:url(#linear-gradient-12);}.cls-13{fill:url(#linear-gradient-13);}.cls-14{fill:url(#linear-gradient-14);}.cls-15{fill:url(#linear-gradient-15);}.cls-16{fill:url(#linear-gradient-16);}.cls-17{fill:url(#linear-gradient-17);}.cls-18{fill:url(#linear-gradient-18);}.cls-19{fill:url(#linear-gradient-19);}.cls-20{fill:url(#linear-gradient-20);}.cls-21{fill:url(#linear-gradient-21);}.cls-22{fill:url(#linear-gradient-22);}.cls-23{fill:url(#linear-gradient-23);}.cls-24{fill:url(#linear-gradient-24);}.cls-25{fill:url(#linear-gradient-25);}.cls-26{fill:url(#linear-gradient-26);}.cls-27{fill:url(#linear-gradient-27);}.cls-28{fill:url(#linear-gradient-28);}.cls-29{fill:url(#linear-gradient-29);}.cls-30{fill:url(#linear-gradient-30);}.cls-31{fill:url(#linear-gradient-31);}.cls-32{fill:url(#linear-gradient-32);}.cls-33{fill:url(#linear-gradient-33);}.cls-34{fill:url(#linear-gradient-34);}.cls-35{fill:url(#linear-gradient-35);}.cls-36{fill:url(#linear-gradient-36);}.cls-37{fill:url(#linear-gradient-37);}.cls-38{fill:url(#linear-gradient-38);}.cls-39{fill:url(#linear-gradient-39);}.cls-40{fill:url(#linear-gradient-40);}.cls-41{fill:url(#linear-gradient-41);}.cls-42{fill:url(#linear-gradient-42);}.cls-43{fill:url(#linear-gradient-43);}.cls-44{fill:url(#linear-gradient-44);}.cls-45{fill:url(#linear-gradient-45);}.cls-46{fill:url(#linear-gradient-46);}.cls-47{fill:url(#linear-gradient-47);}.cls-48{fill:url(#linear-gradient-48);}.cls-49{fill:url(#linear-gradient-49);}.cls-50{fill:url(#linear-gradient-50);}.cls-51{fill:url(#linear-gradient-51);}.cls-52{fill:url(#linear-gradient-52);}.cls-53{fill:url(#linear-gradient-53);}.cls-54{fill:url(#linear-gradient-54);}.cls-55{fill:url(#linear-gradient-55);}.cls-56{fill:url(#linear-gradient-56);}.cls-57{fill:url(#linear-gradient-57);}.cls-58{fill:url(#linear-gradient-58);}.cls-59{fill:url(#linear-gradient-59);}.cls-60{fill:url(#linear-gradient-60);}.cls-61{fill:url(#linear-gradient-61);}.cls-62{fill:url(#linear-gradient-62);}.cls-63{fill:url(#linear-gradient-63);}.cls-64{fill:url(#linear-gradient-64);}.cls-65{fill:url(#linear-gradient-65);}.cls-66{fill:url(#linear-gradient-66);}.cls-67{fill:url(#linear-gradient-67);}.cls-68{fill:url(#linear-gradient-68);}.cls-69{fill:url(#linear-gradient-69);}.cls-70{fill:url(#linear-gradient-70);}</style><linearGradient id="linear-gradient" x1="162.52" y1="308.22" x2="162.52" y2="51.66" gradientUnits="userSpaceOnUse"><stop offset="0" stop-color="#c1822b"/><stop offset="0.42" stop-color="#ffde7f"/><stop offset="0.51" stop-color="#f5cf72"/><stop offset="0.84" stop-color="#d0983f"/><stop offset="0.99" stop-color="#c1822b"/></linearGradient><linearGradient id="linear-gradient-2" x1="3.99" y1="308.22" x2="3.99" y2="51.66" xlink:href="#linear-gradient"/><linearGradient id="linear-gradient-3" x1="79.5" y1="141.49" x2="91.18" y2="141.49" gradientTransform="matrix(0.79, -0.62, -0.62, -0.79, 85.93, 514.26)" xlink:href="#linear-gradient"/><linearGradient id="linear-gradient-4" x1="31.96" y1="167.46" x2="46.19" y2="167.46" gradientTransform="translate(63.69 190.02) rotate(9.14)" xlink:href="#linear-gradient"/><linearGradient id="linear-gradient-5" x1="24.48" y1="162.38" x2="44.3" y2="162.38" gradientTransform="translate(63.69 190.02) rotate(9.14)" xlink:href="#linear-gradient"/><linearGradient id="linear-gradient-6" x1="22.55" y1="162.03" x2="40.69" y2="162.03" gradientTransform="translate(63.69 190.02) rotate(9.14)" xlink:href="#linear-gradient"/><linearGradient id="linear-gradient-7" x1="236.46" y1="-162.03" x2="243.05" y2="-162.03" gradientTransform="translate(317.95 496.79) rotate(-117.43)" xlink:href="#linear-gradient"/><linearGradient id="linear-gradient-8" x1="255.33" y1="-49.64" x2="275.55" y2="-49.64" gradientTransform="matrix(0.96, 0.28, 0.28, -0.96, -185.87, 225.92)" xlink:href="#linear-gradient"/><linearGradient id="linear-gradient-9" x1="262.62" y1="368.73" x2="276.86" y2="368.73" gradientTransform="matrix(-0.95, 0.3, 0.3, 0.95, 184.75, -89.91)" xlink:href="#linear-gradient"/><linearGradient id="linear-gradient-10" x1="269.58" y1="-52.94" x2="276.14" y2="-52.94" gradientTransform="matrix(0.1, -1, 1, 0.1, 84.1, 639.29)" xlink:href="#linear-gradient"/><linearGradient id="linear-gradient-11" x1="244.62" y1="-56.91" x2="272.82" y2="-56.91" gradientTransform="matrix(0.96, 0.28, 0.28, -0.96, -185.87, 225.92)" xlink:href="#linear-gradient"/><linearGradient id="linear-gradient-12" x1="241.9" y1="-57.52" x2="267.66" y2="-57.52" gradientTransform="matrix(0.96, 0.28, 0.28, -0.96, -185.87, 225.92)" xlink:href="#linear-gradient"/><linearGradient id="linear-gradient-13" x1="237.58" y1="-96.3" x2="265.66" y2="-96.3" gradientTransform="matrix(0.69, 0.72, -0.72, 0.69, -224.01, 219.26)" xlink:href="#linear-gradient"/><linearGradient id="linear-gradient-14" x1="303.65" y1="399.61" x2="323.2" y2="399.61" gradientTransform="translate(-331.84 695.21) rotate(-99.95)" xlink:href="#linear-gradient"/><linearGradient id="linear-gradient-15" x1="217.75" y1="-73.33" x2="227.04" y2="-73.33" gradientTransform="matrix(-0.84, 0.55, 0.55, 0.84, 266.67, 267.09)" xlink:href="#linear-gradient"/><linearGradient id="linear-gradient-16" x1="264.25" y1="-117.25" x2="273.58" y2="-117.25" gradientTransform="matrix(-0.97, 0.26, 0.26, 0.97, 330.41, 376.86)" xlink:href="#linear-gradient"/><linearGradient id="linear-gradient-17" x1="222.91" y1="-106.49" x2="262" y2="-106.49" gradientTransform="matrix(0.69, 0.72, -0.72, 0.69, -224.01, 219.26)" xlink:href="#linear-gradient"/><linearGradient id="linear-gradient-18" x1="219.07" y1="-109.68" x2="254.9" y2="-109.68" gradientTransform="matrix(0.69, 0.72, -0.72, 0.69, -224.01, 219.26)" xlink:href="#linear-gradient"/><linearGradient id="linear-gradient-19" x1="-328.44" y1="463.1" x2="-316.77" y2="463.1" gradientTransform="translate(-439.57 514.26) rotate(-141.75)" xlink:href="#linear-gradient"/><linearGradient id="linear-gradient-20" x1="-480.92" y1="249.96" x2="-466.7" y2="249.96" gradientTransform="matrix(-0.99, 0.16, 0.16, 0.99, -417.32, 190.02)" xlink:href="#linear-gradient"/><linearGradient id="linear-gradient-21" x1="-488.4" y1="244.87" x2="-468.58" y2="244.87" gradientTransform="matrix(-0.99, 0.16, 0.16, 0.99, -417.32, 190.02)" xlink:href="#linear-gradient"/><linearGradient id="linear-gradient-22" x1="-490.33" y1="244.52" x2="-472.19" y2="244.52" gradientTransform="matrix(-0.99, 0.16, 0.16, 0.99, -417.32, 190.02)" xlink:href="#linear-gradient"/><linearGradient id="linear-gradient-23" x1="475.77" y1="-623.15" x2="482.36" y2="-623.15" gradientTransform="matrix(0.46, -0.89, -0.89, -0.46, -671.58, 496.79)" xlink:href="#linear-gradient"/><linearGradient id="linear-gradient-24" x1="-243.79" y1="-193.64" x2="-223.57" y2="-193.64" gradientTransform="matrix(-0.96, 0.28, -0.28, -0.96, -167.76, 225.92)" xlink:href="#linear-gradient"/><linearGradient id="linear-gradient-25" x1="757.54" y1="210.98" x2="771.77" y2="210.98" gradientTransform="matrix(0.95, 0.3, -0.3, 0.95, -538.38, -89.91)" xlink:href="#linear-gradient"/><linearGradient id="linear-gradient-26" x1="219.77" y1="-570.01" x2="226.32" y2="-570.01" gradientTransform="matrix(-0.1, -1, -1, 0.1, -437.73, 639.29)" xlink:href="#linear-gradient"/><linearGradient id="linear-gradient-27" x1="-254.5" y1="-200.91" x2="-226.29" y2="-200.91" gradientTransform="matrix(-0.96, 0.28, -0.28, -0.96, -167.76, 225.92)" xlink:href="#linear-gradient"/><linearGradient id="linear-gradient-28" x1="-257.22" y1="-201.52" x2="-231.46" y2="-201.52" gradientTransform="matrix(-0.96, 0.28, -0.28, -0.96, -167.76, 225.92)" xlink:href="#linear-gradient"/><linearGradient id="linear-gradient-29" x1="-121.46" y1="279.1" x2="-93.38" y2="279.1" gradientTransform="matrix(-0.69, 0.72, 0.72, 0.69, -129.62, 219.26)" xlink:href="#linear-gradient"/><linearGradient id="linear-gradient-30" x1="393.38" y1="-112.09" x2="412.93" y2="-112.09" gradientTransform="matrix(0.17, -0.98, -0.98, -0.17, -21.79, 695.21)" xlink:href="#linear-gradient"/><linearGradient id="linear-gradient-31" x1="652.73" y1="-357.22" x2="662.02" y2="-357.22" gradientTransform="matrix(0.84, 0.55, -0.55, 0.84, -620.3, 267.09)" xlink:href="#linear-gradient"/><linearGradient id="linear-gradient-32" x1="765.58" y1="-253.3" x2="774.91" y2="-253.3" gradientTransform="translate(-684.05 376.86) rotate(15.18)" xlink:href="#linear-gradient"/><linearGradient id="linear-gradient-33" x1="-136.13" y1="268.91" x2="-97.04" y2="268.91" gradientTransform="matrix(-0.69, 0.72, 0.72, 0.69, -129.62, 219.26)" xlink:href="#linear-gradient"/><linearGradient id="linear-gradient-34" x1="-139.96" y1="266.63" x2="-104.13" y2="266.63" gradientTransform="matrix(-0.69, 0.72, 0.72, 0.69, -129.62, 219.26)" xlink:href="#linear-gradient"/><linearGradient id="linear-gradient-35" x1="662.96" y1="879.44" x2="674.64" y2="879.44" gradientTransform="translate(85.93 -1086.09) rotate(38.25)" xlink:href="#linear-gradient"/><linearGradient id="linear-gradient-36" x1="-116.12" y1="-761.55" x2="-101.89" y2="-761.55" gradientTransform="matrix(0.99, -0.16, -0.16, -0.99, 63.69, -761.85)" xlink:href="#linear-gradient"/><linearGradient id="linear-gradient-37" x1="-123.6" y1="-766.63" x2="-103.77" y2="-766.63" gradientTransform="matrix(0.99, -0.16, -0.16, -0.99, 63.69, -761.85)" xlink:href="#linear-gradient"/><linearGradient id="linear-gradient-38" x1="-125.52" y1="-766.98" x2="-107.39" y2="-766.98" gradientTransform="matrix(0.99, -0.16, -0.16, -0.99, 63.69, -761.85)" xlink:href="#linear-gradient"/><linearGradient id="linear-gradient-39" x1="1070.91" y1="272.53" x2="1077.49" y2="272.53" gradientTransform="matrix(-0.46, 0.89, 0.89, 0.46, 317.95, -1068.62)" xlink:href="#linear-gradient"/><linearGradient id="linear-gradient-40" x1="-4.17" y1="854.6" x2="16.05" y2="854.6" gradientTransform="matrix(0.96, -0.28, 0.28, 0.96, -185.87, -797.75)" xlink:href="#linear-gradient"/><linearGradient id="linear-gradient-41" x1="-24.32" y1="-527.13" x2="-10.09" y2="-527.13" gradientTransform="matrix(-0.95, -0.3, 0.3, -0.95, 184.75, -481.92)" xlink:href="#linear-gradient"/><linearGradient id="linear-gradient-42" x1="1206.1" y1="-141.83" x2="1212.65" y2="-141.83" gradientTransform="matrix(0.1, 1, 1, -0.1, 84.1, -1211.12)" xlink:href="#linear-gradient"/><linearGradient id="linear-gradient-43" x1="-14.88" y1="847.33" x2="13.33" y2="847.33" gradientTransform="matrix(0.96, -0.28, 0.28, 0.96, -185.87, -797.75)" xlink:href="#linear-gradient"/><linearGradient id="linear-gradient-44" x1="-17.6" y1="846.72" x2="8.16" y2="846.72" gradientTransform="matrix(0.96, -0.28, 0.28, 0.96, -185.87, -797.75)" xlink:href="#linear-gradient"/><linearGradient id="linear-gradient-45" x1="-441.33" y1="-747.45" x2="-413.25" y2="-747.45" gradientTransform="matrix(0.69, -0.72, -0.72, -0.69, -224.01, -791.09)" xlink:href="#linear-gradient"/><linearGradient id="linear-gradient-46" x1="1230.08" y1="563.41" x2="1249.63" y2="563.41" gradientTransform="matrix(-0.17, 0.98, 0.98, 0.17, -331.84, -1267.04)" xlink:href="#linear-gradient"/><linearGradient id="linear-gradient-47" x1="-297.47" y1="-860.32" x2="-288.18" y2="-860.32" gradientTransform="matrix(-0.84, -0.55, 0.55, -0.84, 266.67, -838.92)" xlink:href="#linear-gradient"/><linearGradient id="linear-gradient-48" x1="16.59" y1="-1024.79" x2="25.92" y2="-1024.79" gradientTransform="translate(330.41 -948.69) rotate(-164.82)" xlink:href="#linear-gradient"/><linearGradient id="linear-gradient-49" x1="-456" y1="-757.65" x2="-416.91" y2="-757.65" gradientTransform="matrix(0.69, -0.72, -0.72, -0.69, -224.01, -791.09)" xlink:href="#linear-gradient"/><linearGradient id="linear-gradient-50" x1="-459.84" y1="-760.4" x2="-424.01" y2="-760.4" gradientTransform="matrix(0.69, -0.72, -0.72, -0.69, -224.01, -791.09)" xlink:href="#linear-gradient"/><linearGradient id="linear-gradient-51" x1="252.93" y1="1202.69" x2="264.6" y2="1202.69" gradientTransform="matrix(-0.79, 0.62, 0.62, 0.79, -439.57, -1086.09)" xlink:href="#linear-gradient"/><linearGradient id="linear-gradient-52" x1="-631.62" y1="-678.63" x2="-617.4" y2="-678.63" gradientTransform="translate(-417.32 -761.85) rotate(-170.86)" xlink:href="#linear-gradient"/><linearGradient id="linear-gradient-53" x1="-639.1" y1="-683.72" x2="-619.28" y2="-683.72" gradientTransform="translate(-417.32 -761.85) rotate(-170.86)" xlink:href="#linear-gradient"/><linearGradient id="linear-gradient-54" x1="-641.03" y1="-684.07" x2="-622.9" y2="-684.07" gradientTransform="translate(-417.32 -761.85) rotate(-170.86)" xlink:href="#linear-gradient"/><linearGradient id="linear-gradient-55" x1="1311.44" y1="-190.95" x2="1318.03" y2="-190.95" gradientTransform="translate(-671.58 -1068.62) rotate(62.57)" xlink:href="#linear-gradient"/><linearGradient id="linear-gradient-56" x1="-505.84" y1="709.86" x2="-485.62" y2="709.86" gradientTransform="matrix(-0.96, -0.28, -0.28, 0.96, -167.76, -797.75)" xlink:href="#linear-gradient"/><linearGradient id="linear-gradient-57" x1="473.13" y1="-685.7" x2="487.36" y2="-685.7" gradientTransform="matrix(0.95, -0.3, -0.3, -0.95, -538.38, -481.92)" xlink:href="#linear-gradient"/><linearGradient id="linear-gradient-58" x1="1156.03" y1="-661.54" x2="1162.58" y2="-661.54" gradientTransform="matrix(-0.1, 1, -1, -0.1, -437.73, -1211.12)" xlink:href="#linear-gradient"/><linearGradient id="linear-gradient-59" x1="-516.55" y1="702.59" x2="-488.34" y2="702.59" gradientTransform="matrix(-0.96, -0.28, -0.28, 0.96, -167.76, -797.75)" xlink:href="#linear-gradient"/><linearGradient id="linear-gradient-60" x1="-519.27" y1="701.98" x2="-493.51" y2="701.98" gradientTransform="matrix(-0.96, -0.28, -0.28, 0.96, -167.76, -797.75)" xlink:href="#linear-gradient"/><linearGradient id="linear-gradient-61" x1="-802.21" y1="-370.13" x2="-774.13" y2="-370.13" gradientTransform="matrix(-0.69, -0.72, 0.72, -0.69, -129.62, -791.09)" xlink:href="#linear-gradient"/><linearGradient id="linear-gradient-62" x1="1320.27" y1="49.09" x2="1339.82" y2="49.09" gradientTransform="translate(-21.79 -1267.04) rotate(80.05)" xlink:href="#linear-gradient"/><linearGradient id="linear-gradient-63" x1="139.73" y1="-1145.67" x2="149.02" y2="-1145.67" gradientTransform="matrix(0.84, -0.55, -0.55, -0.84, -620.3, -838.92)" xlink:href="#linear-gradient"/><linearGradient id="linear-gradient-64" x1="520.49" y1="-1161.53" x2="529.82" y2="-1161.53" gradientTransform="matrix(0.97, -0.26, -0.26, -0.97, -684.05, -948.69)" xlink:href="#linear-gradient"/><linearGradient id="linear-gradient-65" x1="-816.88" y1="-380.32" x2="-777.79" y2="-380.32" gradientTransform="matrix(-0.69, -0.72, 0.72, -0.69, -129.62, -791.09)" xlink:href="#linear-gradient"/><linearGradient id="linear-gradient-66" x1="-820.71" y1="-383.06" x2="-784.88" y2="-383.06" gradientTransform="matrix(-0.69, -0.72, 0.72, -0.69, -129.62, -791.09)" xlink:href="#linear-gradient"/><linearGradient id="linear-gradient-67" x1="3.99" y1="313.7" x2="3.99" y2="305.51" xlink:href="#linear-gradient"/><linearGradient id="linear-gradient-68" x1="162.52" y1="313.7" x2="162.52" y2="305.51" xlink:href="#linear-gradient"/><linearGradient id="linear-gradient-69" x1="3.99" y1="62.77" x2="3.99" y2="54.58" xlink:href="#linear-gradient"/><linearGradient id="linear-gradient-70" x1="162.52" y1="62.77" x2="162.52" y2="54.58" xlink:href="#linear-gradient"/></defs><title>gold</title><g id="Calque_2" data-name="Calque 2"><g id="OBJECTS"><rect class="cls-1" x="160.53" y="58.48" width="3.99" height="249.75"/><rect class="cls-2" x="1.99" y="58.48" width="3.99" height="249.75"/><path class="cls-3" d="M66.23,346c.09.29.93.63.93.63a1.18,1.18,0,0,0-.48,1.35s.88-1.08,1.83-.62,1.39,2.5-.8,3.87c-.13.08-.13.69-.29.76l1.55-.43a3.91,3.91,0,0,0,1.51-3c.12-1.88-1.61-3.44-3.25-4a3.41,3.41,0,0,0,.65,1.27A2.5,2.5,0,0,0,66.23,346Z"/><path class="cls-4" d="M72.15,361.38s-.09,1.83,2.45,1.73,2.37-4.29-.58-4.8a4.87,4.87,0,0,0-5.64,3.9c-.6,2.45,1.79,6.36,6.29,6.66a7.32,7.32,0,0,0,7.88-5.55c.76-3.11.42-6-1.51-8.42,0,0,2,4.4-.56,8.4s-6.3,3.35-7.7,2S71.59,361.68,72.15,361.38Z"/><path class="cls-5" d="M75.74,358s2.23.9,3.28-.57-.23-5.34-4.69-5.6-12.46,3.74-12.46,3.74a15.16,15.16,0,0,1,6.9-4.66c4.37-1.36,9.77.54,11.78,3.09s.87,6.42-1.15,8.54a5.77,5.77,0,0,1-.1-2.44,4.24,4.24,0,0,1-2.53,1.24c-.12-.52.85-1.7.85-1.7A2.08,2.08,0,0,1,75.74,358Z"/><path class="cls-6" d="M59.56,357.72s5.63-5,12.11-4.79,6,3.38,4.79,4.11c1.7.69,3.46-3.54-.64-5.08S63.63,353,59.56,357.72Z"/><path class="cls-7" d="M66.38,357.19A3.48,3.48,0,0,0,62,355.82a5,5,0,0,0-2.31,1.8h.46a4.15,4.15,0,0,1,2.42-1c2.26-.17,3,1.39,2.91,2.3s-1,1.44-1.32,1.31c0,0,.73-.47,0-1.39s-2.31.32-1.69,1.56a2.31,2.31,0,0,0,3.08,1A2.9,2.9,0,0,0,66.38,357.19Z"/><path class="cls-8" d="M50.73,345.35s1-2.41,4.23-.78.4,6.94-3.72,5.85-5.6-4.88-4.86-8.4,6.23-7.12,12.22-4.84A10.23,10.23,0,0,1,65.33,349c-1,4.46-3.19,8-7.15,10,0,0,5.32-4.46,4.47-11.16s-6-8.06-8.71-7.1S50.2,344.63,50.73,345.35Z"/><path class="cls-9" d="M43.18,342.65s.37,1.79-2.16,2.07-3-3.9-.16-4.84a4.91,4.91,0,0,1,6.18,3c1,2.33-.8,6.55-5.22,7.51a7.39,7.39,0,0,1-8.65-4.35c-1.22-3-1.33-5.92.22-8.56a9.43,9.43,0,0,0,1.83,8.24c3.16,3.59,6.74,2.39,7.92.81S43.78,342.87,43.18,342.65Z"/><path class="cls-10" d="M57.59,364.24s.88,0,.75-1.18-2.12-1-2.27.41a2.26,2.26,0,0,0,2,2.48,3,3,0,0,0,3-3.09,3.41,3.41,0,0,0-2.89-3.46,4.59,4.59,0,0,0-4,.94,4.65,4.65,0,0,1,4,0c2,1.07,1.79,2.8,1.16,3.48S57.75,364.48,57.59,364.24Z"/><path class="cls-11" d="M53.26,351.86s3.43.17,3.87,2.7-3.61,6.74-9.51,4.42-13.75-12.25-13.75-12.25a21.09,21.09,0,0,0,6,10.12c4.79,4.35,12.92,5.13,17.09,3s5.09-7.76,3.81-11.69a8.34,8.34,0,0,0-1.64,3.08,5.9,5.9,0,0,0-2.49-3.1c-.47.59,0,2.7,0,2.7A3,3,0,0,0,53.26,351.86Z"/><path class="cls-12" d="M32.24,342.56S36.37,352.4,44.87,356s9.86-.77,8.72-2.44c2.62.12,2.26,6.63-4,6.17S34.54,351.13,32.24,342.56Z"/><path class="cls-13" d="M14.12,330.13s-2.39,2.78,1.76,5.63,9-4,5-8.3-9.78-3.63-13.74-.46-5,12.19,1.82,18a14.83,14.83,0,0,0,19.31.49c5-4,8.05-9.08,7.92-15.14,0,0-2.19,9.35-11.17,12.66s-14.09-2.11-14.61-6S12.87,330,14.12,330.13Z"/><path class="cls-14" d="M14.79,316A10,10,0,0,0,6,308.38v3.06c5.26,1.88,5.88,6.41,4.74,8.68-1.23,2.45-4.28,3.17-4.93,2.59,0,0,2.51-.71,1.21-4S.19,317.63.85,321.69s4.27,5.87,7.84,5.54S16.44,322,14.79,316Z"/><path class="cls-15" d="M42.4,326.22s.56,1.07-1,1.68-2.59-1.95-1-3a3.23,3.23,0,0,1,4.44.86c1,1.31.66,4.28-2,5.64a4.88,4.88,0,0,1-6.23-1.26,6.13,6.13,0,0,1-1.39-5.44,6.22,6.22,0,0,0,2.62,4.88c2.63,1.72,4.68.36,5.15-.84S42.81,326.25,42.4,326.22Z"/><path class="cls-16" d="M42.46,333.78s.19,1.19-1.47,1.3-1.85-2.64,0-3.17a3.21,3.21,0,0,1,4,2.16c.57,1.56-.72,4.27-3.63,4.77a4.82,4.82,0,0,1-5.53-3.08,6.11,6.11,0,0,1,.39-5.6,6.17,6.17,0,0,0,1,5.44c2,2.44,4.34,1.76,5.16.75S42.85,333.94,42.46,333.78Z"/><path class="cls-17" d="M21.59,309.51a30.84,30.84,0,0,0-15.56-1V309c3.95.78,17.52,3.74,23.26,8.55,6.75,5.66,4.05,13.32.59,14.42S24,329,24,329a4,4,0,0,0,1,4.8s-3,.74-3.43,1.7c2.21,1.56,5.52,1,5.52,1s-2.29,2.15-2.82,4c5.79-1,12.34-5.79,12.28-12.2S30.18,312.5,21.59,309.51Z"/><path class="cls-18" d="M31.5,319.5C27.77,313.62,16.65,308.91,6,308.76v.88c5.21.53,12.21,2.11,17.68,6.5,10,8,5.42,12.48,2.57,12.17C28.13,331.41,36.11,326.76,31.5,319.5Z"/><path class="cls-19" d="M99.61,346c-.09.29-.93.63-.93.63a1.18,1.18,0,0,1,.48,1.35s-.87-1.08-1.83-.62-1.39,2.5.8,3.87c.14.08.13.69.29.76l-1.55-.43a3.91,3.91,0,0,1-1.51-3c-.12-1.88,1.61-3.44,3.25-4A3.38,3.38,0,0,1,98,346,2.49,2.49,0,0,1,99.61,346Z"/><path class="cls-20" d="M93.69,361.38s.1,1.83-2.45,1.73-2.37-4.29.58-4.8a4.86,4.86,0,0,1,5.64,3.9c.61,2.45-1.78,6.36-6.29,6.66a7.33,7.33,0,0,1-7.89-5.55c-.76-3.11-.42-6,1.51-8.42,0,0-2,4.4.56,8.4s6.3,3.35,7.7,2S94.24,361.68,93.69,361.38Z"/><path class="cls-21" d="M90.1,358s-2.23.9-3.28-.57.24-5.34,4.69-5.6S104,355.56,104,355.56a15.17,15.17,0,0,0-6.91-4.66c-4.37-1.36-9.76.54-11.78,3.09s-.87,6.42,1.15,8.54a5.77,5.77,0,0,0,.11-2.44,4.24,4.24,0,0,0,2.53,1.24c.12-.52-.85-1.7-.85-1.7A2.08,2.08,0,0,0,90.1,358Z"/><path class="cls-22" d="M106.28,357.72s-5.63-5-12.11-4.79-6,3.38-4.79,4.11c-1.7.69-3.46-3.54.64-5.08S102.21,353,106.28,357.72Z"/><path class="cls-23" d="M99.45,357.19a3.48,3.48,0,0,1,4.34-1.37,5,5,0,0,1,2.31,1.8h-.46a4.16,4.16,0,0,0-2.42-1c-2.26-.17-3,1.39-2.9,2.3s1,1.44,1.31,1.31c0,0-.73-.47,0-1.39s2.31.32,1.68,1.56a2.31,2.31,0,0,1-3.08,1A2.89,2.89,0,0,1,99.45,357.19Z"/><path class="cls-24" d="M115.1,345.35s-1-2.41-4.22-.78-.4,6.94,3.72,5.85,5.59-4.88,4.86-8.4-6.23-7.12-12.22-4.84A10.23,10.23,0,0,0,100.5,349c1,4.46,3.19,8,7.16,10,0,0-5.32-4.46-4.47-11.16s6-8.06,8.71-7.1S115.63,344.63,115.1,345.35Z"/><path class="cls-25" d="M122.65,342.65s-.37,1.79,2.16,2.07,3-3.9.16-4.84a4.91,4.91,0,0,0-6.18,3c-1,2.33.81,6.55,5.22,7.51a7.39,7.39,0,0,0,8.65-4.35c1.22-3,1.33-5.92-.21-8.56a9.42,9.42,0,0,1-1.83,8.24c-3.16,3.59-6.74,2.39-7.92.81S122.06,342.87,122.65,342.65Z"/><path class="cls-26" d="M108.25,364.24s-.88,0-.75-1.18,2.12-1,2.27.41a2.25,2.25,0,0,1-2,2.48,3,3,0,0,1-3-3.09,3.41,3.41,0,0,1,2.89-3.46,4.59,4.59,0,0,1,4,.94,4.65,4.65,0,0,0-4,0c-2,1.07-1.79,2.8-1.16,3.48S108.09,364.48,108.25,364.24Z"/><path class="cls-27" d="M112.58,351.86s-3.43.17-3.87,2.7,3.61,6.74,9.51,4.42S132,346.72,132,346.72a21.08,21.08,0,0,1-6,10.12c-4.79,4.35-12.92,5.13-17.09,3s-5.09-7.76-3.81-11.69a8.33,8.33,0,0,1,1.65,3.08,5.89,5.89,0,0,1,2.49-3.1c.47.59,0,2.7,0,2.7A3,3,0,0,1,112.58,351.86Z"/><path class="cls-28" d="M133.6,342.56S129.46,352.4,121,356s-9.86-.77-8.72-2.44c-2.62.12-2.26,6.63,4,6.17S131.3,351.13,133.6,342.56Z"/><path class="cls-29" d="M151.71,330.13s2.39,2.78-1.76,5.63-9-4-5-8.3,9.78-3.63,13.74-.46,5,12.19-1.82,18a14.83,14.83,0,0,1-19.31.49c-5-4-8.06-9.08-7.92-15.14,0,0,2.18,9.35,11.17,12.66s14.09-2.11,14.61-6S153,330,151.71,330.13Z"/><path class="cls-30" d="M158.78,318.75c-1.29,3.25,1.21,4,1.21,4-.66.58-3.71-.14-4.94-2.59s-.41-7.58,6.16-9.1a11.77,11.77,0,0,1,1.3-.22v-2.42l-.39-.05A10.29,10.29,0,0,0,151,316c-1.65,6,2.52,10.87,6.1,11.2s7.19-1.47,7.84-5.54S160.08,315.49,158.78,318.75Z"/><path class="cls-31" d="M123.44,326.22s-.56,1.07,1,1.68,2.59-1.95,1-3a3.23,3.23,0,0,0-4.44.86c-1,1.31-.66,4.28,2,5.64a4.88,4.88,0,0,0,6.24-1.26,6.13,6.13,0,0,0,1.38-5.44,6.22,6.22,0,0,1-2.62,4.88c-2.63,1.72-4.68.36-5.15-.84S123,326.25,123.44,326.22Z"/><path class="cls-32" d="M123.37,333.78s-.19,1.19,1.48,1.3,1.85-2.64,0-3.17a3.21,3.21,0,0,0-4,2.16c-.56,1.56.72,4.27,3.63,4.77a4.82,4.82,0,0,0,5.53-3.08,6.1,6.1,0,0,0-.39-5.6,6.17,6.17,0,0,1-1,5.44c-2,2.44-4.34,1.76-5.16.75S123,333.94,123.37,333.78Z"/><path class="cls-33" d="M141.86,329s-2.44,4.05-5.91,3-6.17-8.76.59-14.42,24.36-8.76,24.36-8.76a30.76,30.76,0,0,0-16.66.75c-8.59,3-14.84,12.37-14.9,18.78s6.49,11.21,12.28,12.2c-.52-1.84-2.82-4-2.82-4s3.31.55,5.52-1c-.44-1-3.43-1.7-3.43-1.7A4,4,0,0,0,141.86,329Z"/><path class="cls-34" d="M162.52,308.82c-11.37-.71-24.14,4.3-28.18,10.68-4.61,7.27,3.36,11.92,5.21,8.81-2.85.31-7.42-4.15,2.57-12.17,6.5-5.21,15.14-6.46,20.4-6.71Z"/><path class="cls-35" d="M67.56,22.86c.09-.29.93-.63.93-.63A1.18,1.18,0,0,1,68,20.88s.88,1.08,1.84.62,1.39-2.5-.8-3.87c-.13-.08-.13-.69-.29-.76l1.55.43a3.91,3.91,0,0,1,1.51,3c.12,1.87-1.61,3.44-3.25,4a3.41,3.41,0,0,1,.65-1.27A2.5,2.5,0,0,1,67.56,22.86Z"/><path class="cls-36" d="M73.48,7.52s-.1-1.83,2.45-1.73,2.37,4.29-.58,4.8A4.87,4.87,0,0,1,69.7,6.68C69.1,4.23,71.49.33,76,0a7.32,7.32,0,0,1,7.88,5.55c.76,3.11.42,6-1.51,8.42,0,0,2-4.4-.56-8.4s-6.3-3.35-7.7-2S72.92,7.22,73.48,7.52Z"/><path class="cls-37" d="M77.07,10.91s2.23-.9,3.28.57-.24,5.34-4.69,5.6-12.47-3.74-12.47-3.74A15.14,15.14,0,0,0,70.09,18c4.37,1.36,9.77-.54,11.78-3.09s.87-6.42-1.15-8.54a5.78,5.78,0,0,0-.11,2.44,4.24,4.24,0,0,0-2.53-1.23c-.12.51.85,1.7.85,1.7A2.08,2.08,0,0,0,77.07,10.91Z"/><path class="cls-38" d="M60.89,11.18s5.63,5,12.11,4.8,6-3.38,4.79-4.11c1.7-.69,3.46,3.54-.64,5.08S65,15.94,60.89,11.18Z"/><path class="cls-39" d="M67.71,11.71a3.48,3.48,0,0,1-4.34,1.36,4.94,4.94,0,0,1-2.31-1.8h.46a4.17,4.17,0,0,0,2.42,1c2.26.17,3-1.4,2.91-2.3s-1-1.44-1.31-1.32c0,0,.73.47,0,1.39s-2.31-.32-1.68-1.56a2.31,2.31,0,0,1,3.08-1A2.89,2.89,0,0,1,67.71,11.71Z"/><path class="cls-40" d="M52.06,23.56s1,2.41,4.22.78.4-6.94-3.72-5.85-5.59,4.88-4.86,8.4S53.95,34,59.94,31.72a10.23,10.23,0,0,0,6.73-11.85c-1-4.46-3.19-8-7.16-10,0,0,5.32,4.46,4.47,11.16s-6,8.06-8.71,7.1S51.53,24.27,52.06,23.56Z"/><path class="cls-41" d="M44.51,26.25s.37-1.79-2.16-2.07-3,3.9-.16,4.84a4.91,4.91,0,0,0,6.18-3c1-2.34-.8-6.55-5.21-7.51a7.38,7.38,0,0,0-8.65,4.35c-1.22,3-1.33,5.91.22,8.56a9.42,9.42,0,0,1,1.83-8.23c3.16-3.59,6.74-2.4,7.92-.81S45.11,26,44.51,26.25Z"/><path class="cls-42" d="M58.92,4.66s.88,0,.75,1.18-2.12,1-2.27-.41a2.26,2.26,0,0,1,2-2.48,3,3,0,0,1,3,3.09A3.41,3.41,0,0,1,59.54,9.5a4.59,4.59,0,0,1-4-.95,4.65,4.65,0,0,0,4,0c2-1.07,1.79-2.8,1.16-3.48S59.08,4.42,58.92,4.66Z"/><path class="cls-43" d="M54.59,17s3.42-.17,3.87-2.69S54.84,7.6,48.94,9.93,35.2,22.18,35.2,22.18a21.07,21.07,0,0,1,6-10.12C46,7.71,54.13,6.93,58.3,9s5.09,7.76,3.81,11.69a8.32,8.32,0,0,1-1.64-3.08A5.9,5.9,0,0,1,58,20.73c-.47-.59,0-2.7,0-2.7A3,3,0,0,1,54.59,17Z"/><path class="cls-44" d="M33.57,26.34S37.7,16.5,46.2,12.94s9.87.77,8.72,2.44c2.62-.12,2.26-6.63-4-6.17S35.87,17.77,33.57,26.34Z"/><path class="cls-45" d="M15.45,38.77S13.06,36,17.21,33.13s9,4,5,8.3-9.78,3.63-13.74.46-5-12.19,1.82-18a14.84,14.84,0,0,1,19.31-.49c5,4,8.06,9.08,7.92,15.14,0,0-2.19-9.35-11.17-12.66S12.22,28,11.7,31.88,14.2,38.94,15.45,38.77Z"/><path class="cls-46" d="M10,41.67c-3.57-.34-7.19,1.48-7.84,5.54s4.91,6.2,6.21,2.95-1.21-4-1.21-4c.66-.58,3.71.14,4.93,2.59s.42,7.53-6.07,9.07v2.76a10.18,10.18,0,0,0,10.09-7.73C17.77,46.9,13.6,42,10,41.67Z"/><path class="cls-47" d="M43.73,42.68s.56-1.07-1-1.68-2.59,1.95-1,3a3.24,3.24,0,0,0,4.44-.86c1-1.31.66-4.27-2-5.64A4.88,4.88,0,0,0,38,38.79a6.13,6.13,0,0,0-1.39,5.44,6.22,6.22,0,0,1,2.62-4.89c2.63-1.73,4.69-.36,5.15.84S44.14,42.64,43.73,42.68Z"/><path class="cls-48" d="M43.79,35.12s.19-1.19-1.48-1.3-1.85,2.64,0,3.17a3.21,3.21,0,0,0,4-2.17c.57-1.56-.72-4.27-3.63-4.77a4.83,4.83,0,0,0-5.53,3.09,6.1,6.1,0,0,0,.39,5.6,6.17,6.17,0,0,1,1-5.44c2-2.44,4.34-1.75,5.16-.75S44.17,35,43.79,35.12Z"/><path class="cls-49" d="M25.3,39.92s2.44-4.05,5.91-3,6.17,8.76-.58,14.42S6.26,60.14,6.26,60.14a30.76,30.76,0,0,0,16.66-.75c8.59-3,14.84-12.37,14.9-18.78S31.34,29.4,25.54,28.41c.52,1.84,2.82,4,2.82,4s-3.31-.54-5.52,1c.44,1,3.43,1.7,3.43,1.7A4,4,0,0,0,25.3,39.92Z"/><path class="cls-50" d="M27.61,40.59C30.46,40.28,35,44.74,25,52.76c-6,4.77-13.71,6.23-19,6.62v.76c11,.25,22.91-4.62,26.79-10.73C37.44,42.14,29.46,37.49,27.61,40.59Z"/><path class="cls-51" d="M100.94,22.86c-.09-.29-.92-.63-.92-.63a1.18,1.18,0,0,0,.48-1.35s-.87,1.08-1.83.62-1.39-2.5.8-3.87c.14-.08.14-.69.29-.76l-1.55.43a3.9,3.9,0,0,0-1.51,3c-.12,1.87,1.61,3.44,3.25,4a3.39,3.39,0,0,0-.65-1.27A2.5,2.5,0,0,0,100.94,22.86Z"/><path class="cls-52" d="M95,7.52s.09-1.83-2.45-1.73-2.37,4.29.58,4.8a4.87,4.87,0,0,0,5.64-3.91C99.4,4.23,97,.33,92.51,0a7.32,7.32,0,0,0-7.88,5.55c-.76,3.11-.42,6,1.51,8.42,0,0-2-4.4.56-8.4s6.3-3.35,7.7-2S95.57,7.22,95,7.52Z"/><path class="cls-53" d="M91.43,10.91s-2.23-.9-3.28.57.23,5.34,4.69,5.6,12.46-3.74,12.46-3.74A15.14,15.14,0,0,1,98.41,18c-4.37,1.36-9.77-.54-11.78-3.09s-.87-6.42,1.15-8.54a5.79,5.79,0,0,1,.11,2.44,4.23,4.23,0,0,1,2.53-1.23c.12.51-.85,1.7-.85,1.7A2.08,2.08,0,0,1,91.43,10.91Z"/><path class="cls-54" d="M107.61,11.18S102,16.21,95.5,16s-6-3.38-4.79-4.11c-1.7-.69-3.46,3.54.64,5.08S103.54,15.94,107.61,11.18Z"/><path class="cls-55" d="M100.78,11.71a3.48,3.48,0,0,0,4.34,1.36,4.94,4.94,0,0,0,2.31-1.8H107a4.16,4.16,0,0,1-2.42,1c-2.26.17-3-1.4-2.91-2.3s1-1.44,1.31-1.32c0,0-.73.47,0,1.39s2.31-.32,1.69-1.56a2.31,2.31,0,0,0-3.08-1A2.9,2.9,0,0,0,100.78,11.71Z"/><path class="cls-56" d="M116.44,23.56s-1,2.41-4.22.78-.4-6.94,3.72-5.85,5.6,4.88,4.86,8.4-6.23,7.13-12.22,4.84a10.22,10.22,0,0,1-6.73-11.85c.95-4.46,3.19-8,7.15-10,0,0-5.32,4.46-4.47,11.16s6,8.06,8.71,7.1S117,24.27,116.44,23.56Z"/><path class="cls-57" d="M124,26.25s-.37-1.79,2.16-2.07,3,3.9.16,4.84a4.9,4.9,0,0,1-6.18-3c-1-2.34.8-6.55,5.22-7.51A7.38,7.38,0,0,1,134,22.8c1.22,3,1.33,5.91-.21,8.56a9.42,9.42,0,0,0-1.83-8.23c-3.16-3.59-6.74-2.4-7.92-.81S123.39,26,124,26.25Z"/><path class="cls-58" d="M109.58,4.66s-.87,0-.75,1.18,2.12,1,2.28-.41a2.26,2.26,0,0,0-2-2.48,3,3,0,0,0-3,3.09A3.41,3.41,0,0,0,109,9.5a4.6,4.6,0,0,0,4-.95,4.65,4.65,0,0,1-4,0c-2-1.07-1.79-2.8-1.16-3.48S109.42,4.42,109.58,4.66Z"/><path class="cls-59" d="M113.91,17s-3.43-.17-3.87-2.69,3.61-6.75,9.51-4.42S133.3,22.18,133.3,22.18a21.06,21.06,0,0,0-6-10.12c-4.79-4.35-12.92-5.13-17.09-3s-5.09,7.76-3.81,11.69A8.32,8.32,0,0,0,108,17.64a5.89,5.89,0,0,0,2.49,3.1c.47-.59,0-2.7,0-2.7A3,3,0,0,0,113.91,17Z"/><path class="cls-60" d="M134.93,26.34s-4.14-9.84-12.64-13.39-9.86.77-8.72,2.44c-2.62-.12-2.26-6.63,4-6.17S132.63,17.77,134.93,26.34Z"/><path class="cls-61" d="M153,38.77s2.39-2.78-1.76-5.63-9,4-5,8.3,9.78,3.63,13.74.46,5-12.19-1.82-18a14.84,14.84,0,0,0-19.31-.49c-5,4-8.06,9.08-7.92,15.14,0,0,2.18-9.35,11.17-12.66s14.09,2.12,14.61,6S154.29,38.94,153,38.77Z"/><path class="cls-62" d="M162.52,57.87c-6.55-1.52-7.36-6.64-6.13-9.09s4.28-3.17,4.93-2.59c0,0-2.51.71-1.21,4s6.86,1.11,6.21-2.95-4.27-5.87-7.84-5.54-7.75,5.22-6.1,11.2a10.18,10.18,0,0,0,10.14,7.73Z"/><path class="cls-63" d="M124.77,42.68s-.55-1.07,1-1.68,2.59,1.95,1,3a3.24,3.24,0,0,1-4.45-.86c-1-1.31-.66-4.27,2-5.64a4.88,4.88,0,0,1,6.24,1.26,6.14,6.14,0,0,1,1.39,5.44,6.22,6.22,0,0,0-2.62-4.89c-2.63-1.73-4.68-.36-5.14.84S124.35,42.64,124.77,42.68Z"/><path class="cls-64" d="M124.7,35.12s-.19-1.19,1.47-1.3,1.85,2.64,0,3.17a3.21,3.21,0,0,1-4-2.17c-.57-1.56.71-4.27,3.63-4.77a4.83,4.83,0,0,1,5.54,3.09,6.1,6.1,0,0,1-.39,5.6,6.16,6.16,0,0,0-1-5.44c-2-2.44-4.34-1.75-5.16-.75S124.32,35,124.7,35.12Z"/><path class="cls-65" d="M143.2,39.92s-2.44-4.05-5.91-3-6.17,8.76.59,14.42,24.36,8.76,24.36,8.76a30.76,30.76,0,0,1-16.66-.75C137,56.4,130.74,47,130.67,40.61S137.16,29.4,143,28.41c-.52,1.84-2.82,4-2.82,4s3.31-.54,5.52,1c-.44,1-3.44,1.7-3.44,1.7A4,4,0,0,1,143.2,39.92Z"/><path class="cls-66" d="M162.52,59.38c-5.3-.39-13.1-1.83-19.07-6.63-10-8-5.42-12.48-2.57-12.17-1.85-3.1-9.83,1.55-5.21,8.82,3.89,6.13,15.83,11,26.85,10.73Z"/><circle class="cls-67" cx="3.99" cy="309.71" r="3.99"/><circle class="cls-68" cx="162.52" cy="309.71" r="3.99"/><circle class="cls-69" cx="3.99" cy="58.78" r="3.99"/><circle class="cls-70" cx="162.52" cy="58.78" r="3.99"/></g></g></svg>