<svg id="Layer_1" enable-background="new 0 0 509.665 509.665" height="512" viewBox="0 0 509.665 509.665" width="512" xmlns="http://www.w3.org/2000/svg"><g id="XMLID_2145_"><path id="XMLID_2309_" d="m151.879 40.5c29.615-20.67 75.736-9.914 81.305-8.509l8.685 2.191 2.191 8.685c1.525 6.046 14.076 59.902-14.548 88.526-.502.501-1.015.992-1.539 1.474l-71.233-38.726z" fill="#70d840"/><g id="XMLID_2223_"><path id="XMLID_2250_" d="m105.148 0-9.486 28.461c20.781 6.927 34.743 26.298 34.743 48.204v14.188l7.273 6.291 7.727-7.529 10-23.308-10-36.57c-9.694-13.594-23.595-24.183-40.257-29.737z" fill="#954c20"/><path id="XMLID_2246_" d="m160.405 76.665c0-17.275-5.465-33.555-15-46.927v59.877l7.171 8.233 7.829-6.969z" fill="#7e3e19"/></g><g id="XMLID_2156_"><path id="XMLID_2161_" d="m47.779 153.866c-49.852 81.005-49.874 210.456 0 291.498 25.498 41.434 60.169 64.251 97.626 64.251l10-187.55-10-232.45c-37.457 0-72.128 22.818-97.626 64.251z" fill="#be4dd8"/><path id="XMLID_2159_" d="m244.206 155.797c-25.326-42.198-60.926-66.182-98.802-66.182v420c38.056 0 73.195-23.653 98.465-65.603z" fill="#8e4dd5"/></g><path id="XMLID_2301_" d="m325.404 284.833-151.862-100.329c-26.25 26.494-34.53 67.012-23.304 114.16 22.03 92.529 113.549 184.078 206.118 206.117 13.727 3.269 26.893 4.884 39.313 4.884 30.24 0 56.063-9.583 74.843-28.189z" fill="#df5ccb"/><path id="XMLID_2302_" d="m494.422 366.715c-22.03-92.527-113.549-184.078-206.118-206.118-47.326-11.268-87.979-2.888-114.466 23.6-.101.101-.195.206-.295.307l63.935 63.935c11.904 11.904 220.867 220.868 233.035 233.036 30.082-29.794 33.718-73.562 23.909-114.76z" fill="#be4dd8"/><path id="XMLID_2305_" d="m279.904 375.718c46.862 46.863 103.848 65.858 127.278 42.427l-66.778-103.312-102.927-66.394c-23.431 23.432-4.436 80.416 42.427 127.279z" fill="#954c20"/><path id="XMLID_2306_" d="m364.757 290.866c-46.863-46.863-103.848-65.858-127.279-42.427l169.705 169.706c23.431-23.432 4.437-80.417-42.426-127.279z" fill="#7e3e19"/></g></svg>