<svg id="Capa_1" enable-background="new 0 0 512 512" height="512" viewBox="0 0 512 512" width="512" xmlns="http://www.w3.org/2000/svg"><g><g><path d="m150.398 224.66c12.244 10.163 23.68 21.603 34.159 34.124-.258-8.067-.393-16.22-.393-24.442 0-27.186 1.432-53.661 4.179-78.535-16.451-26.347-36.433-47.607-58.721-61.684l-.641-.405c-2.302-1.454-5.224.564-4.678 3.232z" fill="#05e39c"/><path d="m150.398 224.66c11.56 9.595 22.393 20.336 32.387 32.043l-29.444-144.101c-7.553-7.065-15.474-13.272-23.719-18.479l-.641-.405c-2.302-1.454-5.224.564-4.678 3.232z" fill="#0ed290"/><path d="m327.836 234.342c0 9-.162 17.919-.471 26.732 10.344-12.372 21.627-23.683 33.695-33.757l26.637-130.367c.545-2.668-2.376-4.686-4.678-3.232l-.641.405c-22.288 14.077-42.27 35.337-58.721 61.684 2.747 24.875 4.179 51.349 4.179 78.535z" fill="#05e39c"/><path d="m327.376 207.959c13.823-34.14 32.703-63.369 54.988-84.909l5.333-26.101c.545-2.668-2.376-4.686-4.679-3.232l-.641.405c-22.287 14.077-42.269 35.337-58.72 61.684 1.849 16.749 3.098 34.225 3.719 52.153z" fill="#0ed290"/></g><path d="m262.106 477.393c-.001 0 .001 0 0 0-7.205 0-14.382-.944-21.332-2.807l-.074-.02-.075-.008c-5.544-.608-10.999-1.747-16.328-3.36l6.435 36.544c.434 2.462 2.573 4.258 5.073 4.258h40.391c2.5 0 4.639-1.795 5.073-4.258l6.016-34.164c-8.297 2.507-16.765 3.815-25.179 3.815z" fill="#05e39c"/><path d="m255.803 507.742-5.496-31.208c-3.211-.464-6.396-1.107-9.533-1.948l-.074-.02-.075-.008c-5.544-.608-10.999-1.747-16.328-3.36l6.435 36.544c.434 2.462 2.573 4.258 5.073 4.258h25.071c-2.5 0-4.639-1.795-5.073-4.258z" fill="#0ed290"/><g><path d="m243.796 373.754 12.507 46.674 11.901-44.477c11.724-43.756 32.72-83.614 60.201-116.099.282-8.38.431-16.889.431-25.51 0-129.424-32.61-234.342-72.836-234.342s-72.836 104.918-72.836 234.342c0 7.838.122 15.584.356 23.224 27.517 32.501 48.541 72.392 60.276 116.188z" fill="#fedf30"/><g><path d="m263.535 367.772h-15.07c-4.143 0-7.5-3.358-7.5-7.5s3.357-7.5 7.5-7.5h15.07c4.143 0 7.5 3.358 7.5 7.5s-3.357 7.5-7.5 7.5z" fill="#fee97d"/></g><path d="m236.067 349.146c-5.938-33.929-9.329-73.091-9.329-114.804 0-105.005 21.466-193.874 51.049-223.673-6.879-6.929-14.197-10.669-21.787-10.669-40.226 0-72.836 104.918-72.836 234.342 0 7.838.122 15.584.356 23.224 22.267 26.301 40.269 57.444 52.547 91.58z" fill="#fed402"/><path d="m217.035 250.442c0-4.142-3.357-7.5-7.5-7.5h-26.317c.057 5.041.158 10.045.312 15h26.005c4.143 0 7.5-3.358 7.5-7.5z" fill="#fee97d"/><g><g><path d="m212.329 298.331c3.405-.71 5.962-3.726 5.962-7.341 0-4.142-3.357-7.5-7.5-7.5h-7.728c3.226 4.828 6.306 9.786 9.266 14.841z" fill="#fee97d"/><path d="m256.263 420.573.038-4.011-11.54-43.067c-21.719-81.058-74.673-148.427-142.253-180.977l-3.707-1.785c-2.382-1.147-5.01 1.031-4.326 3.584l50.924 190.05c13.628 50.86 52.851 86.547 95.116 91.185l1.976-3.515z" fill="#0ed290"/><path d="m301.136 298.023c2.969-4.959 6.083-9.798 9.309-14.533h-6.725c-4.143 0-7.5 3.358-7.5 7.5 0 3.232 2.049 5.979 4.916 7.033z" fill="#fee97d"/></g></g><g><g><path d="m263.535 43.39h-15.07c-4.143 0-7.5-3.358-7.5-7.5s3.357-7.5 7.5-7.5h15.07c4.143 0 7.5 3.358 7.5 7.5s-3.357 7.5-7.5 7.5z" fill="#fee97d"/></g><g><path d="m263.535 83.938h-15.07c-4.143 0-7.5-3.358-7.5-7.5s3.357-7.5 7.5-7.5h15.07c4.143 0 7.5 3.358 7.5 7.5s-3.357 7.5-7.5 7.5z" fill="#fee97d"/></g><g><path d="m263.535 124.486h-15.07c-4.143 0-7.5-3.358-7.5-7.5s3.357-7.5 7.5-7.5h15.07c4.143 0 7.5 3.358 7.5 7.5s-3.357 7.5-7.5 7.5z" fill="#fee97d"/></g><g><path d="m263.535 165.034h-15.07c-4.143 0-7.5-3.358-7.5-7.5s3.357-7.5 7.5-7.5h15.07c4.143 0 7.5 3.358 7.5 7.5s-3.357 7.5-7.5 7.5z" fill="#fee97d"/></g><g><path d="m263.535 205.581h-15.07c-4.143 0-7.5-3.358-7.5-7.5s3.357-7.5 7.5-7.5h15.07c4.143 0 7.5 3.358 7.5 7.5s-3.357 7.5-7.5 7.5z" fill="#fee97d"/></g><g><path d="m263.535 246.129h-15.07c-4.143 0-7.5-3.358-7.5-7.5s3.357-7.5 7.5-7.5h15.07c4.143 0 7.5 3.358 7.5 7.5s-3.357 7.5-7.5 7.5z" fill="#fee97d"/></g><g><path d="m263.535 286.677h-15.07c-4.143 0-7.5-3.358-7.5-7.5s3.357-7.5 7.5-7.5h15.07c4.143 0 7.5 3.358 7.5 7.5s-3.357 7.5-7.5 7.5z" fill="#fee97d"/></g><g><path d="m263.535 327.225h-15.07c-4.143 0-7.5-3.358-7.5-7.5s3.357-7.5 7.5-7.5h15.07c4.143 0 7.5 3.358 7.5 7.5s-3.357 7.5-7.5 7.5z" fill="#fee97d"/></g></g></g><g><path d="m243.151 465.702c-28.795-14.656-52.72-43.875-62.758-81.335l-46.495-173.523c-10.041-6.947-20.523-13.092-31.39-18.326l-3.707-1.785c-2.382-1.147-5.01 1.031-4.326 3.584l50.924 190.05c13.628 50.861 52.851 86.549 95.116 91.184z" fill="#00c285"/><g><path d="m409.491 194.716c-67.58 32.55-120.534 99.919-142.253 180.977l-26.723 99.859c52.701 14.121 109.151-25.79 126.085-88.987l50.924-190.05c.684-2.553-1.945-4.731-4.326-3.584z" fill="#0ed290"/></g><g><path d="m301.338 384.061c18.033-67.3 57.61-125.141 109.2-161.474l6.986-26.071c.684-2.553-1.945-4.731-4.326-3.584l-3.706 1.785c-67.58 32.55-120.534 99.919-142.253 180.977l-26.723 99.859c11.944 3.2 24.079 3.617 35.905 1.625z" fill="#00c285"/></g></g><g fill="#fee97d"><g><path d="m294.965 209.894c0 4.142 3.357 7.5 7.5 7.5h26.18c-.112-5.047-.276-10.047-.486-15h-25.695c-4.142 0-7.499 3.358-7.499 7.5z"/><path d="m295.767 95.751h18.967c-1.179-5.163-2.419-10.172-3.722-15h-15.244c-4.143 0-7.5 3.358-7.5 7.5s3.356 7.5 7.499 7.5z"/><path d="m299.115 121.299c-4.143 0-7.5 3.358-7.5 7.5s3.357 7.5 7.5 7.5h23.054c-.731-5.102-1.518-10.104-2.357-15z"/><path d="m303.72 161.847c-4.143 0-7.5 3.358-7.5 7.5s3.357 7.5 7.5 7.5h22.904c-.397-5.069-.848-10.069-1.346-15z"/><path d="m302.465 242.942c-4.143 0-7.5 3.358-7.5 7.5s3.357 7.5 7.5 7.5h26.005c.154-4.955.256-9.959.312-15z"/></g><g><path d="m217.035 209.894c0-4.142-3.357-7.5-7.5-7.5h-25.695c-.21 4.953-.373 9.953-.486 15h26.18c4.144 0 7.501-3.358 7.501-7.5z"/><path d="m216.233 95.751c4.143 0 7.5-3.358 7.5-7.5s-3.357-7.5-7.5-7.5h-15.244c-1.303 4.828-2.543 9.837-3.722 15z"/><path d="m212.885 121.299h-20.697c-.84 4.896-1.626 9.898-2.357 15h23.054c4.143 0 7.5-3.358 7.5-7.5s-3.358-7.5-7.5-7.5z"/><path d="m210.791 161.847h-24.069c-.498 4.931-.949 9.931-1.346 15h25.415c4.143 0 7.5-3.358 7.5-7.5s-3.357-7.5-7.5-7.5z"/></g></g></g></svg>