<svg id="Layer_1" enable-background="new 0 0 509.223 509.223" height="512" viewBox="0 0 509.223 509.223" width="512" xmlns="http://www.w3.org/2000/svg"><g id="XMLID_147_"><path id="XMLID_170_" d="m461.594 104.06-1.942-9.882-9.882-1.942c-2.49-.49-50.552-9.598-90.499 6.538l-14.039 35.466 75.708 91.984 14.227-1.546c.368-.354.747-.698 1.106-1.058 40.341-40.341 25.954-116.345 25.321-119.56z" fill="#00cb75"/><path id="XMLID_167_" d="m59.444 92.235-9.882 1.942-1.943 9.882c-.633 3.215-15.018 79.22 25.312 119.551.362.363.745.71 1.115 1.066l43.228-25.454 35.63-64.069-2.367-36.139c-40.063-16.468-88.592-7.271-91.093-6.779z" fill="#70d840"/><path id="XMLID_164_" d="m164.438 63.178-8.687 2.191-2.189 8.687c-.293 1.162-7.115 28.755-2.116 54.826.414 2.156.904 4.243 1.458 6.272l53.036 21.801 33.667-21.188 3.617-65.733c-29.64-18.419-73.373-8.221-78.786-6.856z" fill="#ace233"/><path id="XMLID_161_" d="m355.652 74.057-2.189-8.687-8.687-2.191c-4.809-1.213-39.861-9.398-68.408 1.703-4.402 10.847-15.261 33.842-15.261 33.842l8.5 37.021 29 32.479 57.703-33.069c.554-2.03 1.044-4.119 1.458-6.275 5-26.068-1.823-53.662-2.116-54.823z" fill="#70d840"/><path id="XMLID_160_" d="m239.607 99.443v36.325l7.5 4.455 7.5-6.001 10-38.667-10-54.655c-9.693 17.727-15 37.823-15 58.543z" fill="#954c20"/><path id="XMLID_157_" d="m290.913 0c-15.239 10.839-27.558 24.905-36.306 40.901v93.322l5.5 9 9.5-7.479v-36.3c0-29.727 14.465-57.763 38.694-74.997z" fill="#7e3e19"/><path id="XMLID_154_" d="m209.607 149.243c-12.883-9.665-28.653-15.02-45-15.02-43.7 0-78.352 37.446-74.746 81.159-10.951 4.748-20.736 12.095-28.365 21.433-22.565 27.621-22.445 67.34 0 94.815 7.629 9.338 17.414 16.685 28.365 21.432-2.639 31.994 15.381 62.161 45 75-3.606 43.733 31.066 81.16 74.746 81.16 16.348 0 32.117-5.354 45-15.02l10-196.314-10-163.666c-16.348.001-32.118 5.356-45 15.021z" fill="#ff6326"/><path id="XMLID_148_" d="m419.352 215.383c3.627-43.706-31.056-81.16-74.745-81.16-16.348 0-32.118 5.355-45 15.019-12.882-9.664-28.652-15.019-45-15.019v359.98c12.882 9.665 28.652 15.02 45 15.02 43.685 0 78.37-37.449 74.745-81.16 29.7-12.874 47.644-43.113 45-75 27.793-12.048 45.255-39.255 45.255-68.84 0-29.573-17.454-56.789-45.255-68.84z" fill="#ff1f3d"/></g></svg>