<svg id="Capa_1" enable-background="new 0 0 512 512" height="512" viewBox="0 0 512 512" width="512" xmlns="http://www.w3.org/2000/svg"><g><g><g><path d="m57.197 175.638c.159-13.738 4.349-26.52 11.448-37.22-3.164-7.906-4.923-16.52-4.923-25.542 0-3.24.241-6.423.676-9.545-35.335 3.536-62.924 33.355-62.924 69.621 0 12.745 3.424 24.683 9.378 34.975 9.973-16.558 26.703-28.593 46.345-32.289z" fill="#05e39c"/><g><path d="m126.15 107.472c16.475 0 31.919 5.681 44.167 15.952-.541-3.453-.836-6.974-.836-10.547 0-17.19 6.336-32.919 16.777-45.01-12.836-15.259-32.062-24.964-53.562-24.964-38.646 0-69.974 31.328-69.974 69.974 0 9.418 1.873 18.396 5.247 26.597 12.255-19.219 33.747-32.002 58.181-32.002z" fill="#00c285"/><path d="m106.871 110.234c-.154-1.897-.247-3.812-.247-5.749 0-26.135 14.339-48.909 35.569-60.924-3.107-.422-6.274-.659-9.497-.659-38.646 0-69.974 31.328-69.974 69.974 0 9.418 1.873 18.396 5.247 26.597 8.898-13.955 22.668-24.504 38.902-29.239z" fill="#07b27b"/><path d="m181.525 135.322.802 1.079.802-1.079c13.166-17.699 33.349-27.85 55.374-27.85 37.761 0 68.517 30.507 68.954 68.167 19.641 3.696 36.372 15.731 46.346 32.289 5.954-10.292 9.378-22.23 9.378-34.976 0-33.598-23.683-61.653-55.263-68.412-4.124-34.713-33.64-61.638-69.463-61.638-38.646 0-69.974 31.328-69.974 69.974 0 3.252.228 6.45.657 9.583 4.59 3.679 8.756 7.982 12.387 12.863z" fill="#00c285"/><g><path d="m182.327 134.725c7.886-10.6 18.701-18.889 31.247-23.675 4.736-30.6 29.292-54.641 60.145-58.6-10.355-6.06-22.398-9.547-35.264-9.547-38.646 0-69.974 31.328-69.974 69.974 0 2.789.178 5.536.495 8.24 5.043 3.909 9.541 8.486 13.351 13.608z" fill="#07b27b"/></g></g></g><path d="m286.388 328.843c0-5.902 1.212-11.525 3.397-16.638-13.981-.966-27.04-6.049-37.795-14.571l-49.149 51.572c-1.059 1.111-2.931.362-2.931-1.173v-37.891c-5.652 1.471-11.548 2.238-17.583 2.238s-11.931-.767-17.583-2.238v37.891c0 1.535-1.872 2.284-2.931 1.173l-49.149-51.572c-12.002 9.509-26.871 14.746-42.69 14.746-2.866 0-5.686-.196-8.462-.538l86.283 88.422c.563.577.879 1.352.879 2.158v63.583c0 1.707 1.384 3.091 3.091 3.091h61.126c1.707 0 3.091-1.384 3.091-3.091v-63.584c0-.807.315-1.581.879-2.158l69.533-71.257c-.002-.053-.006-.107-.006-.163z" fill="#dbf4b2"/><path d="m179.407 466.007v-63.583c0-.807-.315-1.581-.879-2.158l-88.587-90.784c-6.37 1.906-13.078 2.9-19.967 2.9-2.866 0-5.686-.196-8.462-.538l86.283 88.422c.563.577.879 1.352.879 2.158v63.583c0 1.707 1.384 3.091 3.091 3.091h30.734c-1.708 0-3.092-1.384-3.092-3.091z" fill="#d1f19e"/><path d="m69.974 174.433c22.024 0 42.208 10.151 55.375 27.85l.802 1.079.802-1.079c13.167-17.699 33.349-27.85 55.374-27.85s42.208 10.151 55.374 27.85l.802 1.079.802-1.079c13.166-17.699 33.349-27.85 55.374-27.85 4.719 0 9.327.479 13.782 1.386-.339-38.355-31.523-69.347-69.958-69.347-23.01 0-43.423 11.109-56.176 28.253-12.754-17.144-33.167-28.253-56.177-28.253-38.435 0-69.619 30.991-69.958 69.346 4.455-.907 9.064-1.385 13.782-1.385z" fill="#0ed290"/><path d="m69.974 174.433c10.506 0 20.591 2.315 29.697 6.652-.101-1.534-.165-3.079-.165-4.638 0-31.086 20.278-57.423 48.322-66.543-6.826-2.223-14.11-3.431-21.677-3.431-38.435 0-69.619 30.991-69.958 69.346 4.454-.908 9.063-1.386 13.781-1.386z" fill="#00c285"/><path d="m322.552 286.829 1.166-.174-.362-1.122c-1.366-4.233-2.058-8.62-2.058-13.036 0-23.285 18.831-42.246 42.062-42.475-6.247-32.241-34.614-56.59-68.681-56.59-23.01 0-43.423 11.109-56.176 28.253-12.754-17.144-33.166-28.253-56.176-28.253s-43.423 11.109-56.176 28.253c-12.754-17.144-33.166-28.253-56.176-28.253-38.647 0-69.975 31.329-69.975 69.974s31.328 69.974 69.974 69.974c23.01 0 43.423-11.109 56.176-28.253 12.754 17.144 33.166 28.253 56.176 28.253s43.423-11.109 56.176-28.253c11.775 15.829 30.081 26.505 50.93 28.052 5.495-13.674 17.926-24.084 33.12-26.35z" fill="#05e39c"/><g><path d="m52.054 243.406c0-29.451 18.204-54.635 43.966-64.96-8.051-3.232-16.839-5.014-26.046-5.014-38.646 0-69.974 31.329-69.974 69.974s31.328 69.974 69.974 69.974c9.206 0 17.995-1.783 26.046-5.014-25.762-10.324-43.966-35.508-43.966-64.96z" fill="#0ed290"/></g><g><path d="m433.604 353.015c-2.538 3.654-5.632 6.892-9.161 9.59l-25.749 31.34-25.629-31.194c-3.162-2.405-6.022-5.274-8.479-8.577l-.802-1.079-.802 1.079c-6.965 9.364-17.123 15.284-28.447 16.772l44.448 52.835c.469.557.726 1.262.726 1.99v40.237c0 1.707 1.384 3.091 3.091 3.091h31.792c1.707 0 3.091-1.384 3.091-3.091v-40.238c0-.728.257-1.432.726-1.99l44.452-52.84c-12.099-1.617-22.598-8.338-29.257-17.925z" fill="#dbf4b2"/><path d="m400.536 466.007v-40.237c0-.728-.257-1.433-.726-1.99l-49.156-58.431c-4.893 2.93-10.354 4.839-16.12 5.597l44.448 52.835c.469.557.726 1.262.726 1.99v40.237c0 1.707 1.384 3.091 3.091 3.091h20.829c-1.708-.001-3.092-1.385-3.092-3.092z" fill="#d1f19e"/><g><path d="m328.873 286.358c13.566 0 25.999 6.252 34.108 17.154l.802 1.079.802-1.079c7.074-9.509 17.437-15.478 28.972-16.849-1.573-4.434-2.438-9.201-2.438-14.168 0-9.361 3.05-18.02 8.199-25.049-7.873-11.148-20.849-18.436-35.535-18.436-24.016 0-43.485 19.469-43.485 43.485 0 5.016.86 9.829 2.423 14.313 2.01-.291 4.062-.45 6.152-.45z" fill="#00c285"/><path d="m328.873 286.358c13.566 0 25.999 6.252 34.108 17.154l.802 1.079.802-1.079c.485-.652.988-1.286 1.503-1.904-6.955-7.706-11.191-17.913-11.191-29.112 0-17.867 10.779-33.21 26.186-39.899-5.303-2.302-11.15-3.586-17.3-3.586-24.016 0-43.485 19.469-43.485 43.485 0 5.016.86 9.829 2.423 14.313 2.01-.292 4.062-.451 6.152-.451z" fill="#07b27b"/><path d="m398.694 286.358c14.451 0 27.232 7.258 34.911 18.314 7.679-11.056 20.46-18.314 34.911-18.314 2.089 0 4.142.158 6.152.451 1.563-4.484 2.423-9.297 2.423-14.313 0-24.016-19.469-43.485-43.485-43.485s-43.485 19.469-43.485 43.485c0 5.017.86 9.831 2.423 14.316 2.016-.289 4.067-.454 6.15-.454z" fill="#00c285"/><path d="m398.694 286.358c14.451 0 27.232 7.258 34.911 18.314.332-.478.67-.951 1.02-1.415-7.884-7.868-12.766-18.741-12.766-30.761 0-18.414 11.451-34.142 27.615-40.484-4.918-1.93-10.267-3.001-15.87-3.001-24.016 0-43.485 19.469-43.485 43.485 0 5.017.86 9.831 2.423 14.316 2.018-.289 4.069-.454 6.152-.454z" fill="#07b27b"/></g><path d="m468.515 285.358c-14.686 0-27.662 7.288-35.535 18.436 5.149 7.029 8.199 15.688 8.199 25.049s-3.05 18.02-8.199 25.049c7.873 11.148 20.849 18.436 35.535 18.436 24.016 0 43.485-19.469 43.485-43.485s-19.469-43.485-43.485-43.485z" fill="#05e39c"/><path d="m459.976 328.843c0-17.799 10.699-33.091 26.012-39.821-5.349-2.35-11.256-3.664-17.473-3.664-14.686 0-27.662 7.288-35.535 18.436 5.149 7.029 8.199 15.688 8.199 25.049s-3.05 18.02-8.199 25.049c7.873 11.148 20.849 18.436 35.535 18.436 6.217 0 12.124-1.314 17.473-3.664-15.313-6.729-26.012-22.022-26.012-39.821z" fill="#0ed290"/></g></g><path d="m398.694 285.358c-14.299 0-26.985 6.904-34.911 17.558-7.926-10.654-20.611-17.558-34.911-17.558-24.016 0-43.485 19.469-43.485 43.485s19.469 43.485 43.485 43.485c14.299 0 26.985-6.904 34.911-17.558 7.926 10.654 20.611 17.558 34.911 17.558 24.016 0 43.485-19.469 43.485-43.485s-19.469-43.485-43.485-43.485z" fill="#05e39c"/><g><path d="m319.871 328.843c0-17.888 10.804-33.247 26.24-39.924-5.286-2.286-11.112-3.561-17.238-3.561-24.016 0-43.485 19.469-43.485 43.485s19.469 43.485 43.485 43.485c6.126 0 11.952-1.275 17.238-3.561-15.436-6.677-26.24-22.036-26.24-39.924z" fill="#0ed290"/></g></g></svg>