<svg id="Layer_1" enable-background="new 0 0 510.024 510.024" height="512" viewBox="0 0 510.024 510.024" width="512" xmlns="http://www.w3.org/2000/svg"><g id="XMLID_5005_"><path id="XMLID_2098_" d="m510.024 37.512h-192.725c-112.298 0-221.688 31.936-316.346 92.356l16.141 25.288c79.897-50.998 170.857-80.59 264.978-86.515-10.463 53.029-33.05 102.826-66.087 145.647l6.01 21.253 15.988-.671c38.275-48.846 63.928-106.214 74.815-167.317 9.432-.077-11.507-.007 77.225-.04v105.862l15 14.138 15-14.138v-105.863h90v-30z" fill="#70d840"/><g id="XMLID_5020_"><path id="XMLID_2097_" d="m157.388 194.86c-29.234.566-58.118 14.914-85.849 42.645-27.622 27.621-51.221 66.023-63.129 102.724-14.013 43.19-10.427 78.278 10.096 98.801l131.518-101.518 80.614-110.614c-21.473-21.472-46.824-32.548-73.25-32.038z" fill="#954c20"/><path id="XMLID_2096_" d="m230.638 226.898-212.132 212.131c12.291 12.291 29.802 18.506 51.152 18.506 14.3 0 30.324-2.789 47.649-8.41 36.7-11.907 75.102-35.507 102.724-63.129 27.73-27.73 42.078-56.614 42.645-85.849.512-26.449-10.566-51.778-32.038-73.249z" fill="#7e3e19"/></g><g id="XMLID_5013_"><path id="XMLID_2094_" d="m113.965 279.931c-23.79 23.791-28.448 56.404-10.606 74.246l61.665-46.665 23.188-38.188c-17.842-17.841-50.456-13.183-74.247 10.607z" fill="#7e3e19"/><path id="XMLID_2092_" d="m103.359 354.177c7.299 7.299 17.064 10.831 27.691 10.831 15.353 0 32.496-7.379 46.555-21.438h.001c23.789-23.791 28.448-56.404 10.605-74.246z" fill="#6a3011"/></g><g id="XMLID_5006_"><path id="XMLID_2091_" d="m330.573 201.653c-20.272 21.073-30.55 51.642-30.55 90.859 0 39.064 10.467 82.904 27.998 117.275 20.632 40.448 47.978 62.725 77.002 62.725l10-155.575-10-129.425v-15c-30.365 0-56.11 10.077-74.45 29.141z" fill="#954c20"/><path id="XMLID_2090_" d="m479.474 201.653c-18.34-19.064-44.085-29.141-74.45-29.141v300c29.023 0 56.37-22.276 77.002-62.725 17.531-34.371 27.998-78.212 27.998-117.275 0-39.217-10.279-69.786-30.55-90.859z" fill="#7e3e19"/></g></g></svg>