<svg id="Capa_1" enable-background="new 0 0 512 512" height="512" viewBox="0 0 512 512" width="512" xmlns="http://www.w3.org/2000/svg"><g><path d="m288.169 411.647c-8.259 2.435-16.744 3.724-25.291 3.724-.002 0-.004 0-.006 0-2.268 0-4.552-.095-6.789-.281l-.083-.007-.083.007c-2.238.187-4.522.281-6.789.281-8.549 0-17.036-1.289-25.297-3.725l-12.814 94.508c-.419 3.093 1.986 5.846 5.107 5.846h79.752c3.122 0 5.526-2.753 5.107-5.846z" fill="#97d729"/><path d="m245.746 506.154 12.195-89.939c-.647-.038-1.295-.075-1.94-.128-10.713.892-21.626-.332-32.297-3.495l-12.686 93.563c-.419 3.093 1.986 5.846 5.107 5.846h34.729c-3.123-.001-5.528-2.754-5.108-5.847z" fill="#8bc727"/><path d="m213.326 93.637c10.653-16.905 24.975-30.257 41.808-37.913.268-.122.567-.187.865-.187s.597.065.866.187c16.833 7.656 31.155 21.008 41.808 37.913 5.799-4.564 11.911-8.481 18.25-11.697-7.989-37.887-30.495-68.405-59.644-81.663-.81-.369-1.748-.369-2.559 0-29.149 13.258-51.655 43.776-59.644 81.663 6.339 3.216 12.451 7.133 18.25 11.697z" fill="#dbf4b2"/><path d="m212.986 92.212c8.822-13.697 20.01-24.903 32.794-32.65 7.381-18.621 18.536-34.489 32.216-46.044-6.399-5.406-13.34-9.886-20.717-13.241-.81-.368-1.748-.368-2.559 0-28.915 13.151-51.297 43.285-59.453 80.75 6.11 3.085 12.045 6.825 17.719 11.185z" fill="#d1f19e"/><g><path d="m130.119 159.458c25.265 0 50.795 10.262 71.783 28.518 9.162-24.401 24.842-44.621 44.743-56.558-24.206-42.681-66.146-65.386-104.688-60.156-.851.115-1.621.585-2.115 1.287-16.453 23.379-22.741 55.176-17.434 87.236 2.542-.214 5.112-.327 7.711-.327z" fill="#bbec6c"/><path d="m130.119 159.458c12.308 0 24.679 2.442 36.559 7.049-9.485-32.919-6.382-66.996 7.735-93.292-10.78-2.687-21.749-3.406-32.456-1.953-.851.116-1.621.585-2.115 1.287-16.453 23.379-22.741 55.176-17.434 87.236 2.542-.214 5.112-.327 7.711-.327z" fill="#a2e62e"/><path d="m310.098 187.976c20.988-18.256 46.519-28.518 71.783-28.518 2.598 0 5.168.113 7.711.327 5.307-32.06-.981-63.857-17.434-87.236-.494-.702-1.264-1.172-2.115-1.287-38.542-5.23-80.482 17.475-104.688 60.156 19.901 11.936 35.581 32.157 44.743 56.558z" fill="#a2e62e"/><path d="m292.423 155.871c21.803-37.486 57.388-59.175 92.001-59.532-3.099-8.569-7.194-16.584-12.266-23.791-.494-.702-1.264-1.172-2.115-1.287-38.542-5.23-80.482 17.475-104.688 60.156 10.244 6.145 19.373 14.477 27.068 24.454z" fill="#97d729"/><path d="m201.902 187.976c10.43-27.778 29.299-50.16 53.233-61.046.269-.122.568-.187.865-.187s.597.064.865.187c23.934 10.886 42.802 33.268 53.233 61.046 3.032-2.637 6.157-5.106 9.364-7.403.406-4.468.624-9.008.624-13.613 0-51.566-26.169-95.483-62.806-112.147-.81-.369-1.748-.369-2.559 0-36.638 16.664-62.806 60.582-62.806 112.147 0 4.604.218 9.144.624 13.613 3.206 2.296 6.331 4.766 9.363 7.403z" fill="#bbec6c"/><path d="m201.902 187.976c6.44-17.15 16.091-32.241 28.174-43.84 7.146-32.841 25.221-60.05 49.052-75.127-6.708-5.841-14.037-10.643-21.849-14.195-.81-.369-1.748-.369-2.559 0-36.638 16.664-62.807 60.582-62.807 112.147 0 4.604.218 9.144.624 13.613 3.208 2.295 6.333 4.765 9.365 7.402z" fill="#a2e62e"/></g><g><path d="m125.361 248.974c5.939 0 11.918.537 17.869 1.584 3.17-10.36 7.787-20.054 13.851-28.672.335-.476.857-.793 1.432-.872 3.581-.486 7.253-.732 10.916-.732 27.705 0 54.781 13.401 75.465 36.306-5.211-21.28-15.982-42.06-32.151-59.505-33.824-36.494-81.163-47.571-118.004-31.341-.758.334-1.355.965-1.649 1.74-9.954 26.244-8.86 57.434 2.762 86.108 9.305-3.038 19.241-4.616 29.509-4.616z" fill="#dbf4b2"/><path d="m125.361 248.974c3.737 0 7.49.237 11.242.655-15.585-29.201-19.588-62.443-11.404-91.025-10.581.56-20.877 2.917-30.461 7.138-.758.334-1.355.965-1.649 1.74-9.954 26.244-8.86 57.434 2.762 86.108 9.306-3.038 19.242-4.616 29.51-4.616z" fill="#d1f19e"/><path d="m342.571 220.283c3.663 0 7.335.246 10.916.732.575.079 1.097.396 1.432.872 6.065 8.617 10.681 18.312 13.851 28.672 5.951-1.048 11.931-1.584 17.869-1.584 10.268 0 20.203 1.578 29.509 4.616 11.622-28.674 12.716-59.864 2.762-86.108-.294-.775-.891-1.405-1.649-1.74-36.841-16.23-84.18-5.153-118.004 31.341-16.169 17.446-26.94 38.225-32.151 59.505 20.684-22.905 47.76-36.306 75.465-36.306z" fill="#dbf4b2"/><path d="m314.858 224.744c.641-.722 1.283-1.445 1.942-2.156 30.661-33.081 72.427-45.277 107.413-35.179-1.122-6.863-2.881-13.542-5.303-19.927-.294-.775-.891-1.405-1.649-1.74-36.841-16.23-84.18-5.153-118.004 31.341-16.169 17.446-26.94 38.225-32.151 59.505 13.678-15.146 30.148-26.139 47.752-31.844z" fill="#d1f19e"/></g><g><path d="m440.001 265.469c-.16-.793-.628-1.499-1.297-1.954-19.911-13.55-44.98-18.372-70.25-13.932 10 31.633 6.378 69.656-11.116 102.349-13.838 25.86-34.339 45.24-57.424 55.417 29.062 6.657 62.479-.268 91.012-21.825 39.218-29.628 57.547-78.065 49.075-120.055z" fill="#a2e62e"/><path d="m440.001 265.469c-.16-.793-.628-1.499-1.297-1.954-19.911-13.55-44.98-18.372-70.25-13.932 3.535 11.181 5.367 23.157 5.484 35.418 23.986-4.949 47.978-1.531 67.742 9.782.772-9.906.245-19.777-1.679-29.314z" fill="#97d729"/><path d="m154.662 351.932c-17.494-32.693-21.117-70.717-11.116-102.349-25.27-4.44-50.339.382-70.25 13.932-.669.455-1.137 1.161-1.297 1.954-8.472 41.99 9.857 90.427 49.075 120.056 28.534 21.557 61.952 28.482 91.014 21.824-23.086-10.178-43.588-29.557-57.426-55.417z" fill="#bbec6c"/></g><path d="m256 270.721c16.376-23.974 38.934-40.707 63.357-47.302-4.445-45.067-28.989-82.35-62.078-97.399-.81-.369-1.748-.369-2.559 0-33.089 15.05-57.633 52.332-62.078 97.399 24.424 6.595 46.982 23.328 63.358 47.302z" fill="#dbf4b2"/><path d="m235.403 247.141c-.001-.183-.006-.364-.006-.547 0-43.974 19.039-82.372 47.364-103.064-7.66-7.361-16.236-13.306-25.481-17.511-.81-.369-1.748-.369-2.559 0-33.089 15.05-57.633 52.332-62.078 97.399 15.347 4.145 29.955 12.291 42.76 23.723z" fill="#d1f19e"/><g><path d="m158.379 220.024c-.851.115-1.621.585-2.115 1.287-24.065 34.195-26.4 86.397-2.483 131.093 23.904 44.672 66.939 68.59 106.401 63.235.851-.115 1.621-.585 2.115-1.287 24.065-34.195 26.4-86.397 2.483-131.093-23.904-44.672-66.939-68.59-106.401-63.235z" fill="#bbec6c"/><path d="m192.075 340.703c-21.35-39.898-21.765-85.767-4.493-119.48-9.727-2.057-19.571-2.506-29.202-1.199-.851.115-1.621.585-2.115 1.287-24.065 34.195-26.4 86.397-2.483 131.093 23.904 44.672 66.939 68.59 106.401 63.235.851-.116 1.621-.585 2.115-1.287 2.583-3.67 4.9-7.559 6.977-11.613-30.128-6.371-59.131-28.268-77.2-62.036z" fill="#a2e62e"/><path d="m353.621 220.024c.851.115 1.621.585 2.115 1.287 24.065 34.195 26.4 86.397 2.483 131.093-23.904 44.672-66.939 68.59-106.401 63.235-.851-.115-1.621-.585-2.115-1.287-24.065-34.195-26.4-86.397-2.483-131.093 23.904-44.672 66.939-68.59 106.401-63.235z" fill="#bbec6c"/><path d="m282.068 300.403c19.186-35.854 50.696-58.321 82.791-63.032-2.573-5.681-5.609-11.067-9.123-16.059-.494-.702-1.264-1.172-2.115-1.287-39.462-5.355-82.497 18.563-106.401 63.235-23.917 44.695-21.582 96.898 2.483 131.093.494.702 1.264 1.172 2.115 1.287 7.789 1.057 15.718.956 23.611-.203-15.05-33.229-13.785-76.865 6.639-115.034z" fill="#a2e62e"/></g></g></svg>