<svg id="Capa_1" enable-background="new 0 0 512 512" height="512" viewBox="0 0 512 512" width="512" xmlns="http://www.w3.org/2000/svg"><g><g><path d="m195.158 102.994h46.747c10.941 0 21.222 2.861 30.153 7.858 1.766-3.08 3.954-5.981 6.581-8.609 11.704-11.704 27.267-18.15 43.818-18.15 2.34 0 4.657.143 6.949.397.439-2.357.679-4.784.679-7.268 0-32.626-26.448-59.074-59.074-59.074h-43.855c-32.626 0-59.074 26.449-59.074 59.074 0 10.832 4.365 20.643 11.428 27.777 5.001-1.305 10.244-2.005 15.648-2.005z" fill="#ffbd86"/><path d="m195.158 102.994h34.369c-5.967-6.917-9.584-15.92-9.584-25.772 0-31.279 24.314-56.864 55.071-58.924-1.324-.089-2.656-.15-4.003-.15h-43.856c-32.626 0-59.074 26.448-59.074 59.074 0 10.832 4.365 20.643 11.428 27.777 5.002-1.305 10.245-2.005 15.649-2.005z" fill="#f6a96c"/><g><path d="m211.5 53.97h-7.93c-4.142 0-7.5-3.358-7.5-7.5s3.358-7.5 7.5-7.5h7.93c4.142 0 7.5 3.358 7.5 7.5s-3.358 7.5-7.5 7.5z" fill="#ffbd86"/></g><g><path d="m245.43 78.069h-7.93c-4.142 0-7.5-3.358-7.5-7.5s3.358-7.5 7.5-7.5h7.93c4.142 0 7.5 3.358 7.5 7.5s-3.358 7.5-7.5 7.5z" fill="#ea9b58"/></g><g><path d="m285.903 49.438h-7.931c-4.143 0-7.5-3.358-7.5-7.5s3.357-7.5 7.5-7.5h7.931c4.143 0 7.5 3.358 7.5 7.5s-3.357 7.5-7.5 7.5z" fill="#ea9b58"/></g><g><path d="m206.601 91h-7.93c-4.142 0-7.5-3.358-7.5-7.5s3.358-7.5 7.5-7.5h7.93c4.142 0 7.5 3.358 7.5 7.5s-3.358 7.5-7.5 7.5z" fill="#ffbd86"/></g></g><g><path d="m304.534 170.235c.216-1.728.34-3.485.34-5.272 0-34.777-28.192-62.969-62.969-62.969h-46.747c-34.777 0-62.969 28.192-62.969 62.969 0 1.787.124 3.544.34 5.272z" fill="#f6a96c"/><path d="m184.614 170.235c-.216-1.728-.34-3.485-.34-5.272 0-33.882 26.763-61.502 60.3-62.901-.886-.037-1.774-.068-2.669-.068h-46.747c-34.777 0-62.969 28.192-62.969 62.969 0 1.787.124 3.544.34 5.272z" fill="#ea9b58"/><g><path d="m187.738 139.684h-8.453c-4.142 0-7.5-3.358-7.5-7.5s3.358-7.5 7.5-7.5h8.453c4.142 0 7.5 3.358 7.5 7.5s-3.358 7.5-7.5 7.5z" fill="#ffbd86"/></g><g><path d="m205.672 165.372h-8.453c-4.142 0-7.5-3.358-7.5-7.5s3.358-7.5 7.5-7.5h8.453c4.142 0 7.5 3.358 7.5 7.5s-3.358 7.5-7.5 7.5z" fill="#ffbd86"/></g><g><path d="m257.778 134.854h-8.453c-4.142 0-7.5-3.358-7.5-7.5s3.358-7.5 7.5-7.5h8.453c4.143 0 7.5 3.358 7.5 7.5s-3.357 7.5-7.5 7.5z" fill="#ffbd86"/></g></g><g><path d="m138.789 394.216c.85-5.418 2.343-10.717 4.487-15.837l4.821-11.512c2.618-6.252 4.301-12.828 5.041-19.511-11.299-10.768-26.582-17.391-43.422-17.391h-46.747c-34.777-.001-62.969 28.191-62.969 62.968 0 23.246 18.845 42.091 42.091 42.091h59.993c5.231-18.615 18.949-33.702 36.705-40.808z" fill="#f6a96c"/><g><path d="m52.41 392.933c0-33.827 26.675-61.415 60.137-62.897-.939-.042-1.882-.072-2.832-.072h-46.746c-34.777 0-62.969 28.192-62.969 62.969 0 23.246 18.845 42.091 42.091 42.091h52.41c-23.246 0-42.091-18.845-42.091-42.091z" fill="#ea9b58"/></g><g><path d="m55.549 367.653h-8.453c-4.142 0-7.5-3.358-7.5-7.5s3.358-7.5 7.5-7.5h8.453c4.142 0 7.5 3.358 7.5 7.5s-3.358 7.5-7.5 7.5z" fill="#ffbd86"/></g><g><path d="m73.483 393.341h-8.453c-4.142 0-7.5-3.358-7.5-7.5s3.358-7.5 7.5-7.5h8.453c4.142 0 7.5 3.358 7.5 7.5s-3.358 7.5-7.5 7.5z" fill="#ffbd86"/></g><g><path d="m125.589 362.823h-8.453c-4.142 0-7.5-3.358-7.5-7.5s3.358-7.5 7.5-7.5h8.453c4.142 0 7.5 3.358 7.5 7.5s-3.358 7.5-7.5 7.5z" fill="#ffbd86"/></g><g><path d="m41.058 415.957h-8.453c-4.142 0-7.5-3.358-7.5-7.5s3.358-7.5 7.5-7.5h8.453c4.142 0 7.5 3.358 7.5 7.5s-3.358 7.5-7.5 7.5z" fill="#ffbd86"/></g></g><g><path d="m449.031 329.964h-46.062l-.055.406c-1.65 12.189-.075 24.656 4.554 36.053l4.976 12.247c3.348 8.242 5.045 16.93 5.045 25.825v30.529h52.421c23.246 0 42.091-18.845 42.091-42.091-.001-34.777-28.193-62.969-62.97-62.969z" fill="#f6a96c"/><g><path d="m464.904 367.653h-8.453c-4.143 0-7.5-3.358-7.5-7.5s3.357-7.5 7.5-7.5h8.453c4.143 0 7.5 3.358 7.5 7.5s-3.357 7.5-7.5 7.5z" fill="#ffbd86"/></g><g><path d="m446.97 393.341h-8.453c-4.143 0-7.5-3.358-7.5-7.5s3.357-7.5 7.5-7.5h8.453c4.143 0 7.5 3.358 7.5 7.5s-3.358 7.5-7.5 7.5z" fill="#ffbd86"/></g><g><path d="m479.396 415.957h-8.453c-4.143 0-7.5-3.358-7.5-7.5s3.357-7.5 7.5-7.5h8.453c4.143 0 7.5 3.358 7.5 7.5s-3.358 7.5-7.5 7.5z" fill="#ffbd86"/></g></g><path d="m413.37 378.293-4.975-12.247c-4.572-11.253-6.119-23.506-4.489-35.542l11.731-86.632h-275.746l12.018 86.096c1.727 12.375.092 24.987-4.734 36.512l-4.821 11.512c-2.239 5.348-3.795 10.942-4.643 16.65 7.392-3.121 15.511-4.849 24.027-4.849h46.747c34.17 0 61.969 27.799 61.969 61.969 0 12.68-5.776 24.034-14.832 31.577h132.841c16.583 0 30.026-13.443 30.026-30.026v-48.819c0-8.982-1.739-17.879-5.119-26.201z" fill="#fff5c6"/><path d="m147.175 366.48-4.821 11.512c-2.239 5.348-3.795 10.942-4.643 16.65 7.392-3.121 15.511-4.849 24.027-4.849h20.437c.894-4.026 2.126-7.978 3.727-11.8l4.821-11.512c4.826-11.525 6.461-24.137 4.734-36.512l-12.018-86.096h-43.547l12.018 86.096c1.726 12.374.091 24.986-4.735 36.511z" fill="#fef0ae"/><g><path d="m277.72 294.988c-35.161 0-63.665 28.504-63.665 63.665 0 12.051 3.35 23.318 9.167 32.925 16.401 4.017 30.254 14.575 38.633 28.746 5.072 1.301 10.387 1.994 15.865 1.994 35.161 0 63.665-28.504 63.665-63.665s-28.504-63.665-63.665-63.665z" fill="#fedf30"/><path d="m257.443 358.653c0-27.542 17.492-50.996 41.971-59.868-6.771-2.454-14.075-3.797-21.694-3.797-35.161 0-63.665 28.504-63.665 63.665 0 12.051 3.35 23.318 9.167 32.925 16.401 4.017 30.254 14.575 38.633 28.746 5.072 1.301 10.387 1.994 15.865 1.994 7.619 0 14.923-1.343 21.694-3.797-24.479-8.873-41.971-32.326-41.971-59.868z" fill="#fed402"/><g><g><path d="m307.08 350.7h-58.72c-4.142 0-7.5-3.358-7.5-7.5s3.358-7.5 7.5-7.5h58.72c4.143 0 7.5 3.358 7.5 7.5s-3.357 7.5-7.5 7.5z" fill="#fff9e2"/></g><g><path d="m298.839 381.605h-42.237c-4.142 0-7.5-3.358-7.5-7.5s3.358-7.5 7.5-7.5h42.237c4.143 0 7.5 3.358 7.5 7.5s-3.358 7.5-7.5 7.5z" fill="#fff9e2"/></g></g></g><g><path d="m287.106 170.235h130.747c-1.848-13.041-7.783-25.614-17.814-35.644l-33.055-33.055c-24.591-24.591-64.461-24.591-89.051 0-16.437 16.438-16.437 43.088 0 59.525z" fill="#f6a96c"/><path d="m287.106 170.235h34.857l-.476-.476c-16.438-16.437-16.438-43.088 0-59.525 9.684-9.684 21.739-15.537 34.295-17.594-24.307-15.19-56.716-12.237-77.849 8.897-16.438 16.437-16.438 43.088 0 59.525z" fill="#ea9b58"/><g><path d="m340.391 125.137c-1.919 0-3.839-.732-5.303-2.196l-5.978-5.977c-2.93-2.929-2.93-7.678-.001-10.607 2.93-2.929 7.679-2.929 10.606 0l5.978 5.977c2.93 2.929 2.93 7.678.001 10.607-1.465 1.463-3.384 2.196-5.303 2.196z" fill="#ffbd86"/></g><g><path d="m334.907 155.982c-1.92 0-3.839-.732-5.304-2.197l-5.977-5.977c-2.929-2.929-2.929-7.678.001-10.607 2.929-2.929 7.678-2.927 10.606 0l5.977 5.977c2.929 2.929 2.929 7.678-.001 10.607-1.463 1.465-3.383 2.197-5.302 2.197z" fill="#ffbd86"/></g><path d="m398.634 169.051c2.93-2.929 2.93-7.678.001-10.607l-5.977-5.977c-2.93-2.928-7.679-2.929-10.606 0-2.93 2.929-2.93 7.678-.001 10.607l5.977 5.977c.475.475 1.001.864 1.556 1.185h7.495c.554-.321 1.08-.711 1.555-1.185z" fill="#ffbd86"/><g><path d="m295.988 149.046c-1.919 0-3.839-.732-5.303-2.196l-5.978-5.977c-2.93-2.929-2.93-7.678-.001-10.607 2.93-2.929 7.679-2.929 10.606 0l5.978 5.977c2.93 2.929 2.93 7.678.001 10.607-1.464 1.463-3.384 2.196-5.303 2.196z" fill="#ffbd86"/></g></g><g><path d="m426.368 244.872h-297.296c-5.802 0-10.505-4.703-10.505-10.505v-54.627c0-5.802 4.703-10.505 10.505-10.505h297.295c5.802 0 10.505 4.703 10.505 10.505v54.627c.001 5.802-4.703 10.505-10.504 10.505z" fill="#fff9e2"/></g><g><path d="m170.516 234.367v-54.627c0-5.802 4.703-10.505 10.505-10.505h-51.948c-5.802 0-10.505 4.703-10.505 10.505v54.627c0 5.802 4.703 10.505 10.505 10.505h51.948c-5.802 0-10.505-4.703-10.505-10.505z" fill="#fff5c6"/></g><g><g><path d="m229.362 493.852h-88.503c-23.246 0-42.091-18.845-42.091-42.091 0-34.777 28.192-62.969 62.969-62.969h46.747c34.777 0 62.969 28.192 62.969 62.969 0 23.247-18.845 42.091-42.091 42.091z" fill="#f6a96c"/></g><g><path d="m142.68 451.762c0-34.777 28.192-62.969 62.969-62.969h-43.912c-34.777 0-62.969 28.192-62.969 62.969 0 23.246 18.845 42.091 42.091 42.091h43.912c-23.246-.001-42.091-18.845-42.091-42.091z" fill="#ea9b58"/></g><g><path d="m154.317 426.482h-8.453c-4.142 0-7.5-3.358-7.5-7.5s3.358-7.5 7.5-7.5h8.453c4.142 0 7.5 3.358 7.5 7.5s-3.358 7.5-7.5 7.5z" fill="#ffbd86"/></g><g><path d="m172.251 452.17h-8.453c-4.142 0-7.5-3.358-7.5-7.5s3.358-7.5 7.5-7.5h8.453c4.142 0 7.5 3.358 7.5 7.5s-3.357 7.5-7.5 7.5z" fill="#ffbd86"/></g><g><path d="m224.357 421.652h-8.453c-4.142 0-7.5-3.358-7.5-7.5s3.358-7.5 7.5-7.5h8.453c4.142 0 7.5 3.358 7.5 7.5s-3.358 7.5-7.5 7.5z" fill="#ffbd86"/></g><g><path d="m139.826 474.786h-8.453c-4.142 0-7.5-3.358-7.5-7.5s3.358-7.5 7.5-7.5h8.453c4.142 0 7.5 3.358 7.5 7.5s-3.358 7.5-7.5 7.5z" fill="#ffbd86"/></g><g><path d="m241.397 474.786h-8.453c-4.142 0-7.5-3.358-7.5-7.5s3.358-7.5 7.5-7.5h8.453c4.142 0 7.5 3.358 7.5 7.5s-3.358 7.5-7.5 7.5z" fill="#ffbd86"/></g></g></g></svg>