<svg id="Layer_1" enable-background="new 0 0 508.816 508.816" height="512" viewBox="0 0 508.816 508.816" width="512" xmlns="http://www.w3.org/2000/svg"><g id="XMLID_199_"><path id="XMLID_348_" d="m239.408 76.108v13.168l7.5 6.987 7.5-6.987 10-22.127-10-37.749c-9.535 13.266-15 29.466-15 46.708z" fill="#ace233"/><path id="XMLID_338_" d="m269.408 76.108c0-21.758 13.91-40.871 34.612-47.562l-9.224-28.546c-16.723 5.404-30.669 15.878-40.388 29.4v59.876l7.333 5.373 7.667-5.373z" fill="#70d840"/><path id="XMLID_329_" d="m89.408 208.816v105.001c0 34.431 11.109 68.761 31.281 96.664 20.193 27.949 45.977 40.315 73.274 53.407 2.834 1.363 3.548 1.691 16.128 7.771 3.722 21.087 22.178 37.158 44.316 37.158l10-157.501-10-142.499-85.334-13.334z" fill="#ffe705"/><path id="XMLID_308_" d="m323.472 193.816-69.064 15v300c22.139 0 40.595-16.071 44.316-37.158 11.818-5.713 13.777-6.64 16.125-7.77 27.299-13.092 53.083-25.459 73.274-53.404 20.174-27.906 31.284-62.237 31.284-96.668v-105z" fill="#ffcb00"/><path id="XMLID_285_" d="m230.157 89.276c-101.018.053-95.981-.12-100.879.131l15.836 51.996 34.285 48.874 35.379-50.5z" fill="#954c20"/><path id="XMLID_276_" d="m464.408 208.816v-30c0-36.682-22.16-68.865-54.776-82.553l-33 56.413-22.927 56.141h110.703z" fill="#7e3e19"/><path id="XMLID_272_" d="m44.408 178.816v30h110.704l-15.091-50.495-40.831-62.048c-32.082 13.492-54.782 45.244-54.782 82.543z" fill="#954c20"/><path id="XMLID_268_" d="m379.537 89.407c-4.93-.253.107-.079-100.879-.131l13.661 47.082 37.098 53.919 35.093-50.5z" fill="#7e3e19"/><path id="XMLID_259_" d="m254.408 107.83-39.013 57.731-11.738 43.256h50.751l10-40.001c-1.262-7.701-8.785-53.575-10-60.986z" fill="#954c20"/><path id="XMLID_245_" d="m254.408 107.83v100.986h50.751l-11.841-43.459z" fill="#7e3e19"/><path id="XMLID_233_" d="m230.157 89.276-50.758 101.001-50.121-100.87c-10.467.539-20.539 2.851-30.088 6.866l55.922 112.543h48.545l50.751-100.987v.001l10-9.181-10-9.373z" fill="#7e3e19"/><path id="XMLID_217_" d="m379.537 89.407-50.12 100.869-50.759-101h-24.25v18.554l50.751 100.986h48.546l55.927-112.553c-9.554-4.009-19.65-6.318-30.095-6.856z" fill="#6a3011"/><g id="XMLID_210_"><g><path id="XMLID_88_" d="m149.408 253.816h30v30h-30z" fill="#ffcb00"/></g></g><g id="XMLID_201_"><g><path id="XMLID_100_" d="m179.408 313.816h30v30h-30z" fill="#ffcb00"/></g></g></g></svg>