<svg id="Layer_1" enable-background="new 0 0 510 510" height="512" viewBox="0 0 510 510" width="512" xmlns="http://www.w3.org/2000/svg"><g id="XMLID_1636_"><path id="XMLID_1683_" d="m255 68.932c-66.885 0-129.98 16.439-177.665 46.287-49.786 31.164-77.238 73.316-77.331 118.713l254.996-74.54 10-42.46z" fill="#ace233"/><path id="XMLID_1703_" d="m509.996 233.932c-.093-45.397-27.545-87.549-77.331-118.713-47.684-29.848-110.78-46.287-177.665-46.287v90.46z" fill="#70d840"/><path id="XMLID_1658_" d="m255 159.392c-137.89 0-250.195 30.629-254.833 72.1.092.818.24 1.631.415 2.44l163.918 10 90.5-10 10-37.27z" fill="#70d840"/><path id="XMLID_1645_" d="m255 159.392v74.54l97.5 10 156.918-10c.175-.81.323-1.622.414-2.44-4.636-41.471-116.943-72.1-254.832-72.1z" fill="#00cb75"/><path id="XMLID_1704_" d="m509.996 233.932-254.996 69.66v95.145c5.183 0 3.621-.106 58.458-3.661 115.833-17.395 196.699-83.678 196.542-161.14-.002-.001-.003-.002-.004-.004z" fill="#00cb75"/><path id="XMLID_1708_" d="m.004 233.932c-.001.001-.002.003-.004.004-.157 77.462 80.709 143.745 196.543 161.139 54.713 3.547 53.277 3.661 58.457 3.661l10-50.305-10-44.84z" fill="#70d840"/><path id="XMLID_1663_" d="m.582 233.932c8.679 40.225 119.249 69.66 254.418 69.66l10-34.83-10-34.83z" fill="#ace233"/><path id="XMLID_1664_" d="m255 303.592c135.169 0 245.739-29.435 254.418-69.66h-254.418z" fill="#70d840"/><path id="XMLID_1684_" d="m221.931 309.519-73.946 10.746 53.507 52.156-7.63 68.647 61.138-29.771 15-72.364-15-87.42z" fill="#00cb75"/><path id="XMLID_1685_" d="m362.016 320.265-73.946-10.746-33.07-58.006v159.784l61.139 29.771-7.631-68.647z" fill="#00b9a0"/></g></svg>