<svg id="Capa_1" enable-background="new 0 0 512 512" height="512" viewBox="0 0 512 512" width="512" xmlns="http://www.w3.org/2000/svg"><g><g><g fill="#07b27b"><path d="m275.626 115.173c1.878.244 3.646.839 5.255 1.768l8.848 5.109 8.868-22.908v-93.464c0-3.136-2.542-5.678-5.678-5.678h-17.033c-3.136 0-5.678 2.542-5.678 5.678v108.972c1.815.116 3.625.29 5.418.523z"/><path d="m437.327 93.208-8.516-14.751c-1.568-2.716-5.04-3.646-7.756-2.078l-80.941 46.731-15.406 19.135 4.914 2.837c1.608.928 3.008 2.162 4.159 3.667 1.903 2.488 3.645 5.088 5.249 7.767l96.219-55.552c2.715-1.568 3.646-5.04 2.078-7.756z"/></g><g><path d="m398.123 43.665-13.331-10.733c-2.425-1.952-5.974-1.569-7.926.856l-45.456 56.457 26.166-67.593c1.124-2.903-.319-6.168-3.222-7.292l-15.96-6.178c-2.904-1.124-6.168.319-7.292 3.222l-42.25 109.14 36.732 21.207 73.394-91.159c1.953-2.425 1.57-5.974-.855-7.927z" fill="#0ed290"/></g><path d="m349.734 197.654-124.066-71.63-3.659-.957c-16.626 9.655-30.17 25.012-37.247 44.861l-109.142 306.095c-10.003 28.054 26.365 49.051 45.659 26.361l210.515-247.568c13.651-16.054 20.179-35.461 20.228-54.687z" fill="#fe9901"/></g><g><g><path d="m222.009 125.067s.001-.001.002-.001c-16.627 9.655-30.171 25.013-37.249 44.862l-109.142 306.095c-10.003 28.054 26.365 49.051 45.659 26.361l5.899-6.937c.214-.802.461-1.611.752-2.426l109.143-306.096c5.525-15.496 14.995-28.249 26.791-37.695z" fill="#fb8801"/></g><g><path d="m330.122 144.215c1.73.999 3.239 2.339 4.453 3.926 11.504 15.041 17.493 33.43 17.446 51.988l-130.012-75.063c16.048-9.319 34.968-13.327 53.746-10.885 1.981.258 3.896.894 5.626 1.893z" fill="#fdb441"/></g><g><path d="m263.863 149.231c12.509-10.016 27.635-16.312 43.481-18.167l-25.963-14.989c-1.73-.999-3.645-1.636-5.626-1.893-18.777-2.442-37.698 1.566-53.746 10.885z" fill="#fe9901"/></g><g><path d="m258.701 200.96c-1.272 0-2.562-.324-3.743-1.006l-37.37-21.576c-3.587-2.071-4.816-6.658-2.745-10.245 2.07-3.587 6.655-4.818 10.245-2.745l37.37 21.576c3.587 2.071 4.816 6.658 2.745 10.245-1.389 2.406-3.91 3.751-6.502 3.751z" fill="#fdb441"/></g><path d="m265.948 246.674c-3.603-2.044-8.179-.785-10.226 2.817-2.046 3.602-.784 8.18 2.817 10.226l46.586 26.461 9.891-11.633z" fill="#fdb441"/><path d="m158.281 244.197 45.703 25.98c1.17.666 2.443.981 3.699.981 2.609 0 5.146-1.364 6.527-3.795 2.047-3.601.787-8.18-2.814-10.227l-48-27.286z" fill="#fdb441"/><g><path d="m238.685 331.017c-1.272 0-2.562-.324-3.743-1.006l-37.37-21.576c-3.587-2.071-4.816-6.658-2.745-10.245 2.069-3.587 6.655-4.818 10.245-2.745l37.37 21.576c3.587 2.071 4.816 6.658 2.745 10.245-1.389 2.405-3.911 3.751-6.502 3.751z" fill="#fdb441"/></g><path d="m170.494 353.118c1.175.673 2.455.993 3.719.993 2.602 0 5.131-1.356 6.516-3.775 2.058-3.595.812-8.177-2.783-10.235l-44.731-25.605-5.118 14.353z" fill="#fdb441"/><g><path d="m170.187 404.235c-1.272 0-2.562-.324-3.743-1.006l-18.685-10.788c-3.587-2.071-4.816-6.658-2.745-10.245 2.07-3.587 6.655-4.818 10.245-2.745l18.685 10.788c3.587 2.071 4.816 6.658 2.745 10.245-1.389 2.406-3.911 3.751-6.502 3.751z" fill="#fdb441"/></g><g fill="#fdb441"><path d="m122.319 430.198c1.124.599 2.331.883 3.521.883 2.682 0 5.275-1.442 6.625-3.973 1.948-3.655.565-8.198-3.09-10.146l-27.474-14.648-5.093 14.283z"/><path d="m138.298 482.369-24.012-13.808c-3.592-2.064-8.176-.828-10.241 2.763-2.064 3.591-.827 8.176 2.763 10.24l21.609 12.426z"/></g></g></g></svg>