<svg id="Capa_1" enable-background="new 0 0 512 512" height="512" viewBox="0 0 512 512" width="512" xmlns="http://www.w3.org/2000/svg"><g><g><path d="m476.257 162.661c-4.508 11.065-11.826 20.503-20.931 27.611 16.703 21.286 28.49 46.121 34.582 72.442 13.462-10.781 22.092-27.344 22.092-45.932 0-24.295-14.729-45.146-35.743-54.121z" fill="#a2e62e"/><path d="m112.233 75.724c.492-.292 1.018-.44 1.561-.44.939 0 1.854.452 2.447 1.209.572.732.762 1.644.533 2.566-2.406 9.714-4.168 19.59-5.281 29.558 22.113-16.277 46.941-28.041 73.339-34.826.629-5.329 1.898-10.62 3.824-15.776.553-1.481 1.163-2.931 1.813-4.355-10.783-12.327-26.617-20.124-44.282-20.124-32.49 0-58.828 26.338-58.828 58.828 0 .16.011.316.012.476 7.89-6.235 16.187-11.968 24.862-17.116z" fill="#bbec6c"/><path d="m238.823 66.993c52.427 0 101.99 18.613 141.158 52.702 8.681-12.778 23.214-21.275 39.719-21.589l.406 7.622c1.557 29.153 12.782 57.591 31.61 80.076 1.459 1.743 2.878 3.517 4.269 5.31 9.615-7.498 17.346-17.658 21.926-29.918 13.199-35.333-4.745-74.676-40.078-87.875-11.026-4.118-22.441-5.204-33.331-3.675-5.701-20.246-20.633-37.597-41.846-45.521-22.047-8.236-45.655-4.344-63.498 8.33-6.552-6.34-14.479-11.473-23.565-14.867-35.333-13.199-74.676 4.745-87.874 40.078-2.02 5.407-3.303 10.909-3.913 16.396 17.739-4.654 36.191-7.069 55.017-7.069z" fill="#dbf4b2"/><g><path d="m110.107 138.537c1.112 60.073 25.505 116.485 68.685 158.843 12.323 12.089 25.766 22.621 40.078 31.509 1.729-.141 3.466-.235 5.213-.235 9.673 0 19.369 2.208 28.04 6.384l2.575 1.241-1.24-2.576c-11.892-24.688-6.862-54.294 12.516-73.672 12.186-12.186 28.392-18.896 45.633-18.896 5.531 0 11.044.707 16.385 2.101l2.028.529-.864-1.91c-8.39-18.529-4.363-40.642 10.018-55.023 9.275-9.275 21.613-14.383 34.74-14.383.937 0 1.885.027 2.819.081l1.812.103-.881-1.587c-4.025-7.251-6.153-15.485-6.153-23.81 0-10.559 3.358-20.343 9.047-28.362-37.967-32.942-87.522-52.88-141.734-52.88-47.532 0-91.474 15.338-127.175 41.318-1.214 10.332-1.735 20.766-1.542 31.225z" fill="#97d729"/></g><g><path d="m110.107 138.537c.316 17.075 2.519 33.853 6.493 50.097 29.886-62.07 88.526-107.685 158.646-119.573-11.843-2.008-24.008-3.068-36.423-3.068-47.532 0-91.474 15.338-127.175 41.318-1.213 10.333-1.734 20.767-1.541 31.226z" fill="#8bc727"/></g><path d="m148.577 231.369c-2.561 6.219-4.828 12.516-6.807 18.874 3.413 5.755 7.084 11.376 11.014 16.843 2.299-9.405 5.231-18.628 8.788-27.595l73.71-5.083c4.133-.285 7.252-3.866 6.967-7.999-.286-4.133-3.896-7.243-7.998-6.966l-65.781 4.537c7.984-16.189 18.042-31.356 29.975-45.057l64.872-1.298c4.141-.083 7.431-3.507 7.348-7.648-.081-4.09-3.423-7.35-7.495-7.35-.051 0-.102 0-.153.001l-49.801.996c20.624-19.298 45.494-34.702 73.843-44.566 3.912-1.361 5.979-5.636 4.619-9.548-1.362-3.913-5.636-5.979-9.549-4.619-29.856 10.388-56.627 26.598-79.08 47.52v-39.084c0-4.142-3.357-7.5-7.5-7.5s-7.5 3.358-7.5 7.5v54.494c-10.698 12.113-20.12 25.458-28.096 39.872l-9.742-60.399c-.66-4.089-4.505-6.873-8.599-6.21-4.089.66-6.869 4.509-6.21 8.599z" fill="#a2e62e"/><path d="m206.757 457.692-19.42-13.705c-27.322-19.281-35.402-56.33-18.395-84.345 2.065-3.4 4.465-6.625 7.133-9.585 11.487-12.747 27.578-20.399 44.58-21.31-64.393-39.35-108.057-109.735-109.547-190.228-.379-20.454 1.952-40.301 6.638-59.219.863-3.485-2.936-6.268-6.023-4.436-66.373 39.391-111.035 111.519-111.715 194.138-1.025 124.37 98.948 227.291 223.299 229.703 25.113.487 49.317-3.098 72.008-10.127-31.674-2.463-62.035-13.012-88.558-30.886z" fill="#bbec6c"/><g><g><g><path d="m43.374 269.002c.523-63.437 26.977-120.686 69.276-161.682 1.124-9.532 2.832-18.885 5.095-28.019.863-3.485-2.936-6.268-6.023-4.436-66.372 39.39-111.034 111.518-111.714 194.137-1.025 124.37 98.948 227.291 223.299 229.703 8.847.172 17.578-.173 26.173-.983-116.243-11.056-207.083-110.138-206.106-228.72z" fill="#a2e62e"/></g></g></g><path d="m163.756 412.898c-2.365-1.567-4.714-3.169-7.031-4.833-47.793-34.343-79.351-85.243-88.86-143.322-.67-4.088-4.524-6.865-8.613-6.189-4.088.669-6.858 4.525-6.189 8.613 10.157 62.033 43.863 116.398 94.91 153.08 11.634 8.36 23.853 15.567 36.516 21.602-9.784-7.74-16.797-17.867-20.733-28.951z" fill="#dbf4b2"/><g><g><g><path d="m370.51 147.236c0 8.816 2.283 17.096 6.279 24.295-13.77-.785-27.802 4.074-38.323 14.594-15.182 15.182-18.583 37.675-10.222 56.143-21.78-5.685-45.911-.01-62.978 17.056-20.238 20.238-24.464 50.409-12.71 74.813-25.394-12.231-57.031-7.159-77.224 15.25-2.754 3.057-5.169 6.319-7.244 9.736-17.464 28.764-8.822 66.279 18.672 85.681l19.438 13.717c80.358 54.154 190.072 37.465 250.406-40.191 54.644-70.331 50.823-167.553-4.121-233.169-18.772-22.418-29.819-50.289-31.378-79.487l-.458-8.577c-27.69.001-50.137 22.448-50.137 50.139z" fill="#bbec6c"/></g></g><g><g><path d="m209.635 388.707c2.075-3.417 4.49-6.68 7.244-9.736 17.55-19.475 43.742-25.855 66.968-19.164 3.905 1.125 7.429-2.542 6.311-6.449-6.343-22.158-.797-46.997 16.655-64.45 14.901-14.901 35.187-21.117 54.592-18.672 3.585.452 6.457-2.918 5.548-6.415-4.329-16.643.021-35.074 13.06-48.113 8.622-8.622 19.603-13.442 30.866-14.468 3.349-.305 5.521-3.721 4.342-6.871-2.045-5.462-3.165-11.374-3.165-17.55 0-14.304 6-27.199 15.609-36.333-3.68-11.198-5.924-22.889-6.56-34.811l-.458-8.577c-27.69 0-50.138 22.448-50.138 50.138 0 8.816 2.283 17.096 6.279 24.295-13.77-.785-27.802 4.074-38.323 14.594-15.182 15.182-18.583 37.675-10.222 56.143-21.78-5.685-45.911-.01-62.978 17.056-20.238 20.238-24.464 50.409-12.71 74.813-25.393-12.231-57.031-7.159-77.224 15.25-2.762 3.065-5.182 6.337-7.261 9.764-17.424 28.732-8.926 66.166 18.529 85.54l19.598 13.829c4.178 2.816 8.439 5.428 12.765 7.862-19.889-20.568-24.625-52.479-9.327-77.675z" fill="#a2e62e"/></g></g></g></g><path d="m473.323 313.374c-1.72-3.768-6.172-5.429-9.937-3.708l-28.389 12.96c9.615-36.255 8.461-75.078-4.245-111.816-1.354-3.914-5.621-5.992-9.539-4.637-3.915 1.354-5.991 5.625-4.637 9.539 12.016 34.745 12.812 71.509 3.193 105.665l-30.794-52.674c-2.091-3.577-6.687-4.779-10.26-2.689-3.576 2.09-4.78 6.684-2.689 10.26l37.316 63.829c-6.025 14.773-14.095 28.856-24.17 41.823-4.406 5.671-9.208 11.049-14.342 16.126l-31.29-55.734c-2.027-3.611-6.599-4.896-10.212-2.869-3.611 2.028-4.896 6.6-2.868 10.211l32 57c.326.581.723 1.097 1.166 1.554-17.747 14.774-38.526 26.334-60.619 34.126-.056-.148-.108-.297-.174-.443l-19-42c-1.706-3.773-6.148-5.45-9.924-3.742-3.774 1.708-5.45 6.151-3.742 9.925l18.437 40.755c-32.32 8.802-66.566 9.647-97.682.906l15.276 10.78c5.306 3.576 10.743 6.833 16.282 9.794 4.713.342 9.47.515 14.259.515 21.13 0 42.861-3.327 64.034-9.959 30.426-9.53 58.052-25.44 80.117-45.86l40.579-2.536c4.134-.258 7.276-3.819 7.018-7.953s-3.816-7.268-7.953-7.018l-24.306 1.519c1.643-1.935 3.242-3.9 4.792-5.894 11.787-15.17 21.04-31.747 27.71-49.152l40.887-18.666c3.767-1.72 5.427-6.169 3.706-9.937z" fill="#97d729"/></g></svg>