<svg id="Layer_1" enable-background="new 0 0 509.956 509.956" height="512" viewBox="0 0 509.956 509.956" width="512" xmlns="http://www.w3.org/2000/svg"><g id="XMLID_669_"><path id="XMLID_695_" d="m470.747 49.618-35.918-4.647-44.965 22.526c-4.28 33.048 19.271 63.413 52.428 67.369l5.271.629 4.493-2.826c28.237-17.76 36.419-55.16 18.691-83.051z" fill="#70d840"/><path id="XMLID_693_" d="m228.707 18.058c-20.241-17.372-48.474-22.683-73.682-13.866l-8.194 2.867-1.596 8.532c-4.841 25.868 4.329 52.555 23.947 69.964l40.647 4.416 44.505-23.239c-2.095-18.633-11.107-36.193-25.627-48.674z" fill="#ace233"/><path id="XMLID_691_" d="m11.885 120.325 6.476 29.293 99.115-21.909c5.835 19.511 5.402 48.771 3.997 67.764l12.831 7.035 17.252-6.812c1.329-18.771 2.009-49.71-4.789-74.461l108.062-23.888 15-22.376-15-8.349z" fill="#954c20"/><path id="XMLID_689_" d="m509.829 40.979-6.475-29.293-248.525 54.936v30.725l57.434-12.696c13.587 29.464 17.376 80.393 17.887 110.32l14.679 15 15.301-15c-.417-26.074-3.201-79.479-18.111-116.897z" fill="#7e3e19"/><path id="XMLID_687_" d="m343.059 214.583-5-14.945-13.941-3.507c-32.524 3.738-62.927 16.909-84.29 42.047l-.001 201.814c22.913 38.549 58.943 69.139 103.231 69.948l10-157.472z" fill="#ff6326"/><path id="XMLID_685_" d="m367.349 196.361-24.29 18.223v295.356c40.935.745 75.155-24.008 98.89-57.778 24.07-34.24 37.88-78.78 37.88-122.19 0-77.792-44.884-125.137-112.48-133.611z" fill="#ff1f3d"/><path id="XMLID_683_" d="m324.119 196.131 18.941 18.452 8-9.794-8-9.794c-6.478.06-12.801.43-18.941 1.136z" fill="#ff1f3d"/><path id="XMLID_681_" d="m370.099 199.041-2.75-2.681c-7.746-.992-15.645-1.451-24.29-1.365v19.588l6.3 6.138.559.51c.851.811 10.9 10.601 18.921 31.09 7.789 19.92 15.19 54.32 6.22 105.04l29.54 5.23c19.52-110.31-29-158.5-34.5-163.55z" fill="#e20059"/><path id="XMLID_679_" d="m133.357 214.583-5-14.945-13.94-3.507c-69.935 8.038-114.29 56.65-114.29 133.84 0 43.41 13.8 87.95 37.87 122.19 25.775 36.675 59.584 57.124 95.36 57.778l10-157.472z" fill="#ff6326"/><path id="XMLID_675_" d="m157.647 196.361-24.29 18.223v295.356c40.942.745 75.16-24.013 98.89-57.778 24.07-34.24 37.88-78.78 37.88-122.19.001-77.792-44.884-125.137-112.48-133.611z" fill="#ff1f3d"/><path id="XMLID_672_" d="m114.417 196.131 18.94 18.452 8-9.794-8-9.794c-6.476.06-12.8.43-18.94 1.136z" fill="#ff1f3d"/><path id="XMLID_670_" d="m160.397 199.041-2.75-2.681c-7.716-.988-15.61-1.451-24.29-1.365v19.588l6.3 6.138.56.51c.85.811 10.9 10.601 18.92 31.09 7.79 19.92 15.19 54.32 6.22 105.04l29.54 5.23c19.52-110.31-29-158.5-34.5-163.55z" fill="#e20059"/></g></svg>