<svg id="Capa_1" enable-background="new 0 0 512 512" height="512" viewBox="0 0 512 512" width="512" xmlns="http://www.w3.org/2000/svg"><g><path d="m509.803 28.544c-2.929-2.929-7.678-2.929-10.606 0l-34.565 34.565c2.399-.369 4.733-.558 6.985-.558 1.36 0 2.69.072 3.965.215.386 3.416.271 7.079-.309 10.915l34.531-34.531c2.928-2.928 2.928-7.677-.001-10.606z" fill="#97d729"/><g><g><circle cx="287.271" cy="447.587" fill="#dbf4b2" r="38.066"/></g><g><path d="m274.582 447.587c0-16.571 10.592-30.662 25.373-35.89-3.968-1.404-8.235-2.176-12.684-2.176-21.023 0-38.066 17.043-38.066 38.066s17.043 38.066 38.066 38.066c4.449 0 8.716-.772 12.684-2.176-14.781-5.228-25.373-19.319-25.373-35.89z" fill="#d1f19e"/></g><g><circle cx="446.64" cy="298.368" fill="#dbf4b2" r="38.066"/></g><g><path d="m435.981 298.368c0-16.19 10.113-30.011 24.362-35.513-4.253-1.642-8.871-2.552-13.704-2.552-21.023 0-38.066 17.043-38.066 38.066s17.043 38.066 38.066 38.066c4.833 0 9.45-.91 13.704-2.552-14.249-5.504-24.362-19.324-24.362-35.515z" fill="#d1f19e"/></g><g><circle cx="401.595" cy="404.319" fill="#dbf4b2" r="34.64"/></g><g><path d="m393.094 404.319c0-14.506 8.92-26.922 21.571-32.081-4.034-1.645-8.444-2.559-13.069-2.559-19.131 0-34.64 15.509-34.64 34.64s15.509 34.64 34.64 34.64c4.625 0 9.035-.914 13.069-2.559-12.651-5.16-21.571-17.576-21.571-32.081z" fill="#d1f19e"/></g><g><g><path d="m423.856 153.796c0-3.361.211-6.673.597-9.924-14.171 9.581-28.739 15.106-40.903 15.106-1.36 0-2.69-.072-3.965-.215-1.444-12.778 4.127-29.011 14.868-44.865-3.243.385-6.548.594-9.9.594-15.481 0-30.02-4.173-41.677-11.33l-339.784 339.782c-5.895 5.895-2.925 15.978 5.225 17.736l59.446 12.822c45.841 9.887 93.567-4.172 126.728-37.332l240.696-240.696c-7.158-11.659-11.331-26.197-11.331-41.678z" fill="#97d729"/><path d="m74.805 443.795c-8.15-1.758-11.12-11.841-5.225-17.736l311.639-311.639c-14.229-.553-27.528-4.618-38.345-11.259l-339.782 339.783c-5.895 5.895-2.925 15.978 5.225 17.736l59.446 12.822c32.805 7.076 66.573 1.882 95.28-13.793-9.58-.022-19.226-1.028-28.792-3.091z" fill="#8bc727"/><g><circle cx="342.852" cy="197.118" fill="#d1f19e" r="35.269"/></g><path d="m343.33 222.058c-13.773-13.773-13.773-36.105 0-49.878 3.594-3.594 7.775-6.242 12.231-7.96-12.618-4.866-27.469-2.219-37.648 7.96-13.773 13.773-13.773 36.105 0 49.878 10.179 10.179 25.029 12.826 37.648 7.96-4.456-1.719-8.636-4.366-12.231-7.96z" fill="#bbec6c"/><g><circle cx="306.695" cy="231.652" fill="#dbf4b2" r="39.48"/></g><path d="m304.564 259.569c-15.418-15.418-15.418-40.416 0-55.834 4.381-4.381 9.536-7.513 15.024-9.404-13.827-4.765-29.772-1.633-40.809 9.404-15.418 15.418-15.418 40.416 0 55.834 11.037 11.037 26.982 14.169 40.809 9.404-5.488-1.891-10.644-5.023-15.024-9.404z" fill="#d1f19e"/><g><g><circle cx="273.627" cy="264.72" fill="#d1f19e" r="39.48"/></g></g><path d="m271.564 292.637c-15.418-15.418-15.418-40.416 0-55.834 4.372-4.372 9.515-7.501 14.99-9.393-13.835-4.782-29.797-1.653-40.844 9.393-15.418 15.418-15.418 40.416 0 55.834 11.046 11.046 27.009 14.175 40.844 9.393-5.476-1.892-10.619-5.021-14.99-9.393z" fill="#bbec6c"/></g><g><g><g><path d="m456.547 153.796c0-18.164 2.448-35.245 6.749-50.143-5.037 8.116-11.458 16.217-19.032 23.792-6.648 6.648-13.742 12.434-20.919 17.172-.318 3.004-.489 6.066-.489 9.178 0 32.062 17.431 59.04 41.107 66.969 2.407.806 4.658-1.595 3.719-3.953-6.991-17.545-11.135-39.366-11.135-63.015z" fill="#a2e62e"/><path d="m393.705 115.005c4.73-7.149 10.516-14.24 17.197-20.921 7.561-7.56 15.698-14.001 23.878-19.058-14.918 4.317-32.029 6.775-50.228 6.775-23.65 0-45.471-4.144-63.016-11.134-2.358-.94-4.759 1.312-3.953 3.719 7.928 23.675 34.906 41.107 66.969 41.107 3.104-.001 6.157-.171 9.153-.488z" fill="#bbec6c"/></g><g><ellipse cx="427.583" cy="110.764" fill="#bbec6c" rx="69.148" ry="24.59" transform="matrix(.707 -.707 .707 .707 46.914 334.789)"/></g><g><path d="m424.41 107.591c16.553-16.553 35.319-27.3 51.227-30.678 1.149-5.41 1.461-10.496.84-15.044-17.925-2.446-44.094 9.319-66.283 31.507-22.188 22.188-33.953 48.358-31.507 66.283 4.548.621 9.633.309 15.043-.839 3.379-15.908 14.127-34.675 30.68-51.229z" fill="#a2e62e"/></g></g></g></g></g><g><circle cx="237.378" cy="300.969" fill="#dbf4b2" r="39.48"/></g><path d="m234.564 328.886c-15.418-15.418-15.418-40.416 0-55.834 4.471-4.471 9.75-7.637 15.366-9.515-13.748-4.598-29.521-1.432-40.468 9.515-15.418 15.418-15.418 40.416 0 55.834 10.947 10.947 26.72 14.112 40.468 9.515-5.616-1.878-10.895-5.044-15.366-9.515z" fill="#d1f19e"/><g><circle cx="199.82" cy="338.528" fill="#d1f19e" r="39.48"/></g><path d="m197.564 366.445c-15.418-15.418-15.418-40.416 0-55.834 4.397-4.397 9.575-7.536 15.086-9.425-13.813-4.734-29.727-1.596-40.747 9.425-15.418 15.418-15.418 40.416 0 55.834 11.021 11.021 26.935 14.159 40.747 9.425-5.511-1.89-10.689-5.028-15.086-9.425z" fill="#bbec6c"/><g><circle cx="162.261" cy="376.086" fill="#dbf4b2" r="39.48"/></g><path d="m159.564 404.003c-15.418-15.418-15.418-40.416 0-55.834 4.456-4.456 9.714-7.615 15.307-9.496-13.761-4.626-29.564-1.466-40.526 9.496-15.418 15.418-15.418 40.416 0 55.834 10.962 10.962 26.765 14.122 40.526 9.496-5.594-1.881-10.852-5.04-15.307-9.496z" fill="#d1f19e"/><g><circle cx="123.989" cy="409.333" fill="#d1f19e" r="35.927"/></g><path d="m123.669 434.738c-14.03-14.03-14.03-36.778 0-50.809 3.77-3.77 8.172-6.517 12.862-8.261-12.766-4.747-27.686-2-37.946 8.261-14.03 14.03-14.03 36.778 0 50.809 10.261 10.261 25.18 13.008 37.946 8.261-4.69-1.744-9.093-4.491-12.862-8.261z" fill="#bbec6c"/></g></svg>