<svg id="Layer_1" enable-background="new 0 0 510 510" height="512" viewBox="0 0 510 510" width="512" xmlns="http://www.w3.org/2000/svg"><g id="XMLID_1_"><g id="XMLID_4934_"><path id="XMLID_4938_" d="m139.744 30.385-9.488 28.46c20.781 6.927 34.744 26.299 34.744 48.204v13.186l6.923 5.092 8.077-5.711 10-18.865-10-40.628c-9.694-13.596-23.594-24.184-40.256-29.738z" fill="#ace233"/><path id="XMLID_4935_" d="m195 107.049c0-17.274-5.466-33.555-15-46.927v59.493l9.695 5.711 5.305-5.082z" fill="#70d840"/></g><g id="XMLID_4927_"><path id="XMLID_4931_" d="m0 299.615c0 99.252 80.748 180 180 180l10-173.77-10-186.23c-99.252 0-180 80.747-180 180z" fill="#ffe705"/><path id="XMLID_1608_" d="m319.384 185.72c-32.996-40.288-83.14-66.105-139.384-66.105v360c33.7 0 66.158-9.231 94.533-26.792l53.467-165.542z" fill="#ffcb00"/></g><g id="XMLID_19_"><g><g id="XMLID_290_"><path d="m360 179.615v300c82.71 0 150-67.29 150-150 0-82.711-67.29-150-150-150z" fill="#ffcb00"/></g><g id="XMLID_284_"><path d="m210 329.615c0 82.71 67.29 150 150 150l10-146.539-10-153.461c-82.71 0-150 67.289-150 150z" fill="#ffe705"/></g></g></g><g id="XMLID_6_"><path id="XMLID_12_" d="m240 329.615c0 66.168 53.832 120 120 120l15-120-15-120c-66.168 0-120 53.832-120 120z" fill="#fff4f4"/><path id="XMLID_7_" d="m360 209.615v240c66.168 0 120-53.832 120-120s-53.832-120-120-120z" fill="#f3e2dd"/></g><g id="XMLID_3_"><path id="XMLID_5_" d="m285 329.615c0 41.355 33.644 75 75 75l15-75-15-75c-41.356 0-75 33.645-75 75z" fill="#7e3e19"/><path id="XMLID_4_" d="m360 254.615v150c41.355 0 75-33.645 75-75s-33.645-75-75-75z" fill="#6a3011"/></g></g></svg>