<svg id="Layer_1" enable-background="new 0 0 509.207 509.207" height="512" viewBox="0 0 509.207 509.207" width="512" xmlns="http://www.w3.org/2000/svg"><g id="XMLID_551_"><path id="XMLID_637_" d="m239.604 76.717v22.146l9.289-.332 5.711-11.277 10-23.684-10-33.819c-9.534 13.383-15 29.677-15 46.966z" fill="#70d840"/><path id="XMLID_634_" d="m294.829 0c-16.648 5.56-30.536 16.151-40.225 29.75v57.504l6.49 10.412 8.51 1.197v-22.146c0-21.931 13.956-41.325 34.727-48.262z" fill="#00cb75"/><path id="XMLID_627_" d="m224.909 110.236-34.869-16.004-22.856 31.857-40.469-1.667-5.649 40.549-35.526 19.18 13.985 37.105-23.248 28.988 24.731 38.963-12.592 42.419 30.504 30.899-.32 44.876 38.973 21.621 11.58 44.942 47.585 4.247 37.866 30.996 10-206.532-10-215.421z" fill="#ace233"/><path id="XMLID_622_" d="m408.2 289.206 24.73-38.962-23.247-28.988 13.985-37.102-35.523-19.179-5.646-40.548-40.471 1.665-22.856-31.859-34.872 16.004-29.696-22.983v421.953l37.865-30.995 47.584-4.247 11.582-44.943 38.974-21.622-.32-44.877 30.503-30.899z" fill="#70d840"/><path id="XMLID_616_" d="m228.905 145.079-28.906-13.267-17.875 24.918-29.452-1.213-3.989 28.636-25.826 13.944 10.773 28.585-20.529 25.596 20.552 32.378-11.432 38.511 26.787 27.134-.281 39.507 34.678 19.238 9.514 36.92 35.678 3.184 26.007 21.288 10-168.109-10-177.14z" fill="#fff4f4"/><g fill="#f3e2dd"><path id="XMLID_606_" d="m375.555 284.655 20.551-32.377-20.527-25.597 10.772-28.581-25.825-13.944-3.987-28.636-29.451 1.212-17.877-24.918-28.907 13.265-25.7-19.89v345.249l26.005-21.287 35.679-3.184 9.515-36.921 34.679-19.239-.281-39.508 26.786-27.134z"/><path id="XMLID_602_" d="m179.604 239.214h30v30h-30z"/><path id="XMLID_597_" d="m179.604 329.214h30v30h-30z"/><path id="XMLID_594_" d="m239.604 404.214h15l10-15-10-15h-15z"/><path id="XMLID_591_" d="m239.604 314.214h15l10-15-10-15h-15z"/><path id="XMLID_585_" d="m239.604 194.214v30h15l10-15-10-15z"/></g><path id="XMLID_579_" d="m299.604 239.214h30v30h-30z" fill="#e6d3ce"/><path id="XMLID_574_" d="m299.604 329.214h30v30h-30z" fill="#e6d3ce"/><path id="XMLID_564_" d="m254.604 374.214h15v30h-15z" fill="#e6d3ce"/><path id="XMLID_556_" d="m254.604 284.214h15v30h-15z" fill="#e6d3ce"/><path id="XMLID_552_" d="m254.604 194.214h15v30h-15z" fill="#e6d3ce"/></g></svg>