<svg id="Capa_1" enable-background="new 0 0 512 512" height="512" viewBox="0 0 512 512" width="512" xmlns="http://www.w3.org/2000/svg"><g><g><g><path d="m181.203 80.75c-6.856 5.799-10.85 14.791-9.797 24.406 8.229-6.021 17.756-9.665 27.429-10.321 1.533-.147 3.073-.221 4.608-.221 8.071 0 16.147 1.967 23.632 5.658-.01-.153-.012-.304-.025-.457-.83-10.109-7.018-18.555-15.533-22.772-1.598-.791-2.635-2.394-2.78-4.171l-5.085-61.956c-.202-2.466-3.066-3.717-5.013-2.19l-18.544 14.549c-.821.644-1.264 1.658-1.178 2.698l4.141 50.451c.136 1.659-.583 3.25-1.855 4.326z" fill="#0ed290"/><path d="m392.354 387.097c-71.841-24.443-128.334-102.374-136.252-198.842-.788-9.596-1.677-26.481-1.635-37.694-1.223.095-2.455.151-3.694.151-8.601 0-17.398-2.281-25.442-6.596-.322-.173-.682-.264-1.041-.264-.613 0-1.207.263-1.629.722-.43.467-.637 1.075-.584 1.712 1.376 16.775-4.33 33.106-15.263 43.711-.059.057-.131.065-.168.065-.035 0-.087-.007-.136-.041-12.516-8.679-20.809-23.862-22.184-40.614-.096-1.183-1.074-2.092-2.229-2.092-.484 0-.947.159-1.337.459-8.486 6.534-18.409 10.423-28.273 11.154-.027 12.612.656 27.628 1.484 37.709 10.017 122.036 97.763 214.43 195.988 206.368 14.867-1.22 29.117-4.682 42.568-10.089 2.67-1.072 2.552-4.891-.173-5.819z" fill="#fb2b3a"/><path d="m188.575 196.638c-.738-8.985-1.36-21.889-1.467-33.519-1.434-4.374-2.394-8.976-2.782-13.712-.096-1.183-1.074-2.092-2.229-2.092-.484 0-.947.159-1.337.459-8.486 6.534-18.409 10.423-28.273 11.154-.027 12.612.656 27.628 1.484 37.709 10.017 122.036 97.763 214.43 195.988 206.368 1.822-.15 3.634-.335 5.437-.551-85.875-10.235-157.809-96.02-166.821-205.816z" fill="#e41f2d"/></g><g><path d="m148.421 160.06c11.206.168 22.944-3.79 32.949-11.493.772-.595 1.879-.073 1.958.899.001.008.001.016.002.024 1.456 17.743 10.287 32.808 22.611 41.354.484.335 1.147.281 1.569-.129 10.766-10.441 17.022-26.744 15.565-44.487-.001-.008-.001-.016-.002-.024-.081-.971.926-1.666 1.785-1.206 11.126 5.969 23.353 7.96 34.382 5.966.581-.105 1.015-.616 1.023-1.206.225-14.913-6.842-30.775-20.342-42.228-12.342-10.47-27.439-15.015-41.153-13.694-13.746.933-27.899 7.879-38.369 20.221-11.453 13.501-15.838 30.303-13.184 44.979.104.582.615 1.015 1.206 1.024z" fill="#00c285"/></g><g><g><path d="m186.49 122.335c10.47-12.342 24.623-19.288 38.369-20.221 2.417-.233 4.879-.273 7.36-.141-10.624-6.484-22.478-9.193-33.451-8.136-13.746.933-27.899 7.879-38.369 20.221-11.452 13.501-15.838 30.303-13.184 44.98.105.581.616 1.014 1.206 1.023 8.137.122 16.55-1.941 24.38-6.024 1.036-10.939 5.583-22.147 13.689-31.702z" fill="#07b27b"/></g></g></g><g><path d="m369.005 128.18.494.002c.304-.005.58-.007.856-.007 8.849 0 17.779 2.502 25.851 7.072-.068-9.748-5.201-18.411-12.95-23.369-1.502-.961-2.358-2.667-2.309-4.449v-62.142c.068-2.473-.939-4.029-3.04-2.723l-20.02 12.439c-.887.551-2.853 1.997-2.853 3.997v49.157c-.046 1.666-.934 3.168-2.316 4.099-7.834 5.277-12.896 14.412-12.35 24.707 8.768-5.657 18.743-8.783 28.637-8.783z" fill="#0ed290"/><g><g><path d="m510.479 349.084c-50.84-30.323-85.763-90.535-92.803-161.122-1.064-.066-2.13-.157-3.199-.295-7.74-.996-15.486-3.869-22.403-8.309-.285-.183-.596-.297-.925-.34-.637-.082-1.284.119-1.774.552-.492.435-.773 1.064-.77 1.725.06 16.821-6.903 32.646-18.625 42.355-.06.05-.13.047-.158.043-.039-.005-.072-.019-.101-.043-11.79-9.625-18.865-25.401-18.924-42.199-.003-1.167-.855-2.139-1.981-2.284-.521-.067-1.054.057-1.501.348-9.142 5.962-19.513 9.056-29.562 8.897 13.501 88.211 71.079 157.51 147.945 167.399 14.795 1.903 29.454 1.486 43.736-1 2.837-.493 3.518-4.253 1.045-5.727z" fill="#fb2b3a"/></g></g><g><g><path d="m500.21 355.812c-72.552-9.334-127.913-71.601-145.252-152.737-2.668-6.688-4.133-14.048-4.16-21.622-.003-1.167-.855-2.139-1.981-2.284-.522-.067-1.054.057-1.501.348-9.142 5.962-19.513 9.056-29.562 8.897 13.501 88.211 71.079 157.51 147.945 167.399 12.063 1.552 24.032 1.536 35.784.139-.425-.052-.849-.086-1.273-.14z" fill="#e41f2d"/></g></g><g><path d="m314.134 189.262c11.159 1.045 23.171-1.982 33.747-8.879.816-.532 1.879.075 1.881 1.049v.024c.063 17.803 7.688 33.512 19.305 42.997.456.372 1.121.37 1.574-.006 11.55-9.566 19.063-25.33 19-43.132 0-.008 0-.016 0-.024-.004-.975 1.054-1.589 1.874-1.062 10.625 6.822 22.658 9.763 33.809 8.639.588-.059 1.06-.534 1.115-1.123 1.391-14.849-4.412-31.216-16.974-43.69-11.485-11.404-26.179-17.116-39.955-16.873-13.777-.146-28.43 5.671-39.834 17.156-12.474 12.563-18.161 28.97-16.665 43.809.06.588.535 1.06 1.123 1.115z" fill="#00c285"/></g><g><g><path d="m347.072 152.632c11.404-11.485 26.057-17.301 39.834-17.156 4.812-.085 9.736.574 14.596 1.931-9.915-6.953-21.231-10.415-31.992-10.225-13.777-.146-28.43 5.671-39.834 17.156-12.474 12.563-18.161 28.97-16.665 43.809.059.588.534 1.06 1.123 1.115 5.285.495 10.76.065 16.184-1.245.95-12.397 6.604-25.163 16.754-35.385z" fill="#07b27b"/></g></g></g><g><g><path d="m24.528 259.164c-3.94 8.069-3.975 17.908.862 26.284 5.108-8.825 12.36-15.997 20.949-20.494 7.543-4.224 16.38-6.449 25.581-6.449.82 0 1.641.023 2.461.058-.072-.137-.136-.277-.21-.414-4.831-8.919-13.897-14.157-23.389-14.588-1.781-.081-3.376-1.13-4.225-2.698l-29.607-54.662c-1.178-2.176-4.304-2.167-5.47.015l-11.113 20.786c-.492.92-.489 2.026.008 2.944l24.109 44.511c.793 1.464.775 3.21.044 4.707z" fill="#0ed290"/><path d="m341.175 454.531c-75.602 6.56-158.696-42.02-204.795-127.129-4.586-8.467-12.202-23.567-16.679-33.848-7.297 3.896-15.922 6.015-24.765 6.015-1.489 0-3.002-.059-4.498-.176l-.177-.007c-.78 0-1.485.403-1.887 1.077-.409.688-.424 1.52-.041 2.227 8.017 14.8 9.371 32.047 3.634 46.156-.036.087-.128.148-.225.148l-.042-.004c-14.952-2.904-28.658-13.46-36.663-28.24-.406-.751-1.165-1.205-1.991-1.205-.817 0-1.54.428-1.931 1.146-5.146 9.417-12.645 16.962-21.381 21.602 5.055 11.556 11.72 25.017 16.539 33.913 58.317 107.667 175.843 156.898 262.502 109.96 13.116-7.104 24.766-16.013 34.9-26.378 2.014-2.058.368-5.506-2.5-5.257z" fill="#fb2b3a"/><path d="m342.839 454.846c-2.696 1.699-5.446 3.334-8.279 4.868-86.659 46.938-204.185-2.293-262.502-109.96-2.631-4.857-5.815-11.084-8.987-17.614-3.059-3.416-5.778-7.228-8.033-11.39-.406-.751-1.165-1.205-1.991-1.205-.817 0-1.54.428-1.931 1.146-5.146 9.417-12.645 16.962-21.381 21.602 5.055 11.556 11.72 25.017 16.539 33.913 58.317 107.667 175.843 156.898 262.502 109.96 13.116-7.104 24.766-16.012 34.9-26.378 1.576-1.611.904-4.068-.837-4.942z" fill="#e41f2d"/></g><g><path d="m26.463 344.961c10.325-4.359 19.475-12.709 25.53-23.789.467-.855 1.69-.823 2.154.034.004.007.008.014.011.021 8.479 15.654 22.629 25.886 37.351 28.745.578.112 1.163-.205 1.384-.75 5.649-13.893 4.809-31.335-3.669-46.989-.004-.007-.008-.014-.011-.021-.465-.857.176-1.898 1.148-1.822 12.588.982 24.581-2.119 33.873-8.386.49-.33.681-.972.451-1.516-5.8-13.74-18.656-25.413-35.626-30.459-15.513-4.612-31.162-2.693-43.183 4.04-12.206 6.39-22.364 18.448-26.976 33.961-5.045 16.97-2.292 34.115 6.047 46.48.33.49.972.681 1.516.451z" fill="#00c285"/></g><g><g><path d="m40.13 298.03c4.612-15.513 14.77-27.571 26.976-33.961 4.693-2.629 9.945-4.512 15.52-5.57-13.339-2.446-26.392-.231-36.751 5.57-12.206 6.39-22.364 18.448-26.976 33.961-5.045 16.97-2.292 34.115 6.047 46.48.33.49.972.681 1.516.451 5.351-2.259 10.381-5.598 14.834-9.826-4.304-10.985-5.035-24.092-1.166-37.105z" fill="#07b27b"/></g></g></g></g></svg>