<svg id="Layer_1" enable-background="new 0 0 509.23 509.23" height="512" viewBox="0 0 509.23 509.23" width="512" xmlns="http://www.w3.org/2000/svg"><g id="XMLID_1428_"><path id="XMLID_1433_" d="m194.615 176.889-77.614-57.658c-82.749 69.829-96.941 229.991-30.179 326.425 28.382 40.996 66.664 63.574 107.793 63.574l15-180z" fill="#ff6326"/><path d="m264.209 112.938-69.594 63.95v332.342c22.326 0 44.359-6.893 64.307-20.031l79.525-249.965c-10.24-48.478-34.731-97.522-74.238-126.296z" fill="#ff1f3d"/><path id="XMLID_1754_" d="m190.055 177.02c1.533 0 3.051-.054 4.561-.132l15-57.658-15-89.493c-9.695-13.594-23.595-24.182-40.258-29.737l-9.487 28.46c20.781 6.928 34.744 26.299 34.744 48.204v13.596c-22.246 3.057-43.561 12.901-62.614 28.971l4.334 16.199c9.34 24.14 36.58 41.59 68.72 41.59z" fill="#ace233"/><path id="XMLID_1603_" d="m260.755 129.2 3.454-16.262c-16.924-12.328-35.482-20.001-54.594-22.651v-13.623c0-17.275-5.466-33.555-15-46.927v147.151c32.811-1.7 59.678-21.588 66.14-47.688z" fill="#70d840"/><path id="XMLID_1432_" d="m194.615 374.23c0 74.439 60.561 135 135 135l15-135-15-135c-74.439 0-135 60.561-135 135z" fill="#ffcb00"/><path id="XMLID_1434_" d="m329.615 239.23v270c74.44 0 135-60.561 135-135s-60.56-135-135-135z" fill="#ff9d21"/><path id="XMLID_1607_" d="m224.615 374.23c0 57.897 47.103 105 105 105l15-105-15-105c-57.897 0-105 47.103-105 105z" fill="#ffe705"/><path id="XMLID_1609_" d="m329.615 269.23v210c57.897 0 105-47.103 105-105s-47.102-105-105-105z" fill="#ffcb00"/><path id="XMLID_2014_" d="m367.125 439.185-15.02-25.969c13.885-8.031 22.51-22.969 22.51-38.985s-8.625-30.954-22.51-38.985l15.02-25.969c23.125 13.375 37.49 38.264 37.49 64.954s-14.365 51.579-37.49 64.954z" fill="#ff9d21"/><path id="XMLID_2013_" d="m292.105 439.185c-23.125-13.375-37.49-38.264-37.49-64.954s14.365-51.579 37.49-64.954l15.02 25.969c-13.885 8.031-22.51 22.969-22.51 38.985s8.625 30.954 22.51 38.985z" fill="#ffcb00"/></g></svg>