<svg id="Capa_1" enable-background="new 0 0 512 512" height="512" viewBox="0 0 512 512" width="512" xmlns="http://www.w3.org/2000/svg"><g><g><g fill="#07b27b"><path d="m440.488 209.477-91.748 12.219-103.621 81.154 196.498-89.443c2.164-.984 1.228-4.244-1.129-3.93z"/><path d="m271.747 157.091-3.899-92.476c-.1-2.375-3.473-2.732-4.067-.43l-53.962 209.043z"/></g><g><path d="m270.587 236.654 76.817-60.162 124.134-147.053c1.107-1.311.938-3.273-.376-4.376l-25.324-21.25c-1.309-1.099-3.26-.931-4.363.375l-127.417 150.942z" fill="#00c285"/></g><g><path d="m277.79 223.145 163.047-193.148c1.102-1.306 3.054-1.474 4.363-.375l15.328 12.861 11.011-13.044c1.107-1.311.938-3.273-.376-4.376l-25.324-21.25c-1.309-1.099-3.26-.931-4.363.375l-127.418 150.942z" fill="#07b27b"/></g><path d="m487.711 109.371-25.219-21.161c-1.123-.942-2.752-.969-3.905-.066l-259.639 203.347 30.075 25.236 258.607-202.539c1.552-1.215 1.591-3.55.081-4.817z" fill="#05e39c"/><path d="m487.712 109.371-25.22-21.161c-1.123-.942-2.752-.969-3.905-.066l-184.891 144.805-19.119 35.856 202.982-158.974c1.154-.904 2.783-.876 3.906.066l15.277 12.819 10.889-8.528c1.551-1.215 1.59-3.55.081-4.817z" fill="#0ed290"/><path d="m383.452 21.888-25.219-21.162c-1.51-1.267-3.802-.822-4.73.916l-154.555 289.849.512 1.735 27.532 23.102 2.031.4 155.172-291.006c.69-1.293.38-2.892-.743-3.834z" fill="#05e39c"/><path d="m361.957 27.45c.927-1.739 3.22-2.183 4.73-.916l11.797 9.899 5.711-10.711c.69-1.293.38-2.893-.743-3.835l-25.219-21.161c-1.51-1.267-3.802-.822-4.73.916l-154.555 289.849 15.348 12.879z" fill="#0ed290"/><path d="m150.753 424.039-1.516-2.573-39.98-33.412c-1.46-.574-2.423-.909-2.596-.866-6.21 1.559-12.581 2.493-18.964 2.815-17.872.901-35.297 9.611-46.73 25.648-18.06 25.332-14.278 59.644 8.786 80.522 25.805 23.359 65.595 20.444 87.766-5.977 11.442-13.636 15.901-30.805 13.76-47.165-.825-6.312-.995-12.675-.526-18.992z" fill="#fff5c6"/><g><path d="m121.605 398.374c-.285.208-.573.433-.857.634-4.374 3.099-8.653 5.789-12.746 8.032-11.462 6.28-25.098 18.169-37.289 33.57-19.257 24.327-27.674 48.403-19.808 56.528 8.8 9.09 34.605-5.56 56.775-31.981 11.442-13.636 19.626-27.679 23.428-39.052 1.467-4.388 3.36-9.021 5.639-13.82.139-.292.299-.592.443-.886z" fill="#fef0ae"/></g><path d="m162.076 396.512 66.947-79.784-30.075-25.236-67.042 79.763c-6.558 7.802-15.36 13.452-25.245 15.934l44.092 36.849c.752-10.133 4.793-19.744 11.323-27.526z" fill="#fff9e2"/><path d="m131.906 397.574 57.107-67.944c5.488-6.529 15.228-7.377 21.762-1.895l5.288 4.437 12.96-15.445-30.075-25.236-67.042 79.764c-6.558 7.802-15.36 13.452-25.245 15.934l19.428 16.236c2.087-1.781 4.037-3.733 5.817-5.851z" fill="#fff5c6"/></g><path d="m109.22 203.635h-42.676c-1.713 0-3.101-1.388-3.101-3.101v-24.347c0-1.713 1.388-3.101 3.101-3.101h42.676c1.713 0 3.101 1.388 3.101 3.101v24.347c0 1.712-1.389 3.101-3.101 3.101z" fill="#05e39c"/><path d="m89.681 200.534v-24.347c0-1.713 1.388-3.101 3.101-3.101h-26.238c-1.713 0-3.101 1.388-3.101 3.101v24.347c0 1.713 1.388 3.101 3.101 3.101h26.239c-1.713 0-3.102-1.389-3.102-3.101z" fill="#0ed290"/><path d="m354.832 397.314h-42.676c-1.713 0-3.101-1.388-3.101-3.101v-24.347c0-1.713 1.388-3.101 3.101-3.101h42.676c1.713 0 3.101 1.388 3.101 3.101v24.347c0 1.713-1.389 3.101-3.101 3.101z" fill="#00c285"/><path d="m331.203 394.213v-24.347c0-1.713 1.388-3.101 3.101-3.101h-22.148c-1.713 0-3.101 1.388-3.101 3.101v24.347c0 1.713 1.388 3.101 3.101 3.101h22.148c-1.712 0-3.101-1.388-3.101-3.101z" fill="#07b27b"/><path d="m423.261 486.516h-42.676c-1.713 0-3.101-1.388-3.101-3.101v-24.347c0-1.713 1.388-3.101 3.101-3.101h42.676c1.713 0 3.101 1.388 3.101 3.101v24.347c0 1.713-1.388 3.101-3.101 3.101z" fill="#00c285"/><path d="m400.225 483.415v-24.347c0-1.713 1.388-3.101 3.101-3.101h-22.741c-1.713 0-3.101 1.388-3.101 3.101v24.347c0 1.713 1.388 3.101 3.101 3.101h22.741c-1.712 0-3.101-1.388-3.101-3.101z" fill="#07b27b"/><path d="m230.228 419.692 30.177 30.177c1.211 1.211 1.211 3.174 0 4.385l-17.216 17.216c-1.211 1.211-3.174 1.211-4.385 0l-30.177-30.177c-1.211-1.211-1.211-3.174 0-4.385l17.216-17.216c1.211-1.211 3.174-1.211 4.385 0z" fill="#05e39c"/><path d="m228.063 441.293c-1.211-1.211-1.211-3.174 0-4.385l9.69-9.69-7.525-7.525c-1.211-1.211-3.174-1.211-4.385 0l-17.216 17.216c-1.211 1.211-1.211 3.174 0 4.385l30.176 30.177c1.211 1.211 3.174 1.211 4.385 0l7.525-7.525z" fill="#0ed290"/><path d="m446.141 326.43-30.177 30.177c-1.211 1.211-3.174 1.211-4.385 0l-17.216-17.216c-1.211-1.211-1.211-3.174 0-4.385l32.369-32.369 19.409 19.409c1.211 1.21 1.211 3.173 0 4.384z" fill="#05e39c"/><path d="m416.561 339.391c-1.211-1.211-1.211-3.174 0-4.385l21.27-21.27-11.099-11.099-32.369 32.369c-1.211 1.211-1.211 3.174 0 4.385l17.216 17.216c1.211 1.211 3.175 1.211 4.386 0l8.906-8.906z" fill="#0ed290"/><path d="m75.867 284.296-32.369 32.369-19.409-19.409c-1.211-1.211-1.211-3.174 0-4.385l30.177-30.177c1.211-1.211 3.174-1.211 4.385 0l17.216 17.216c1.211 1.212 1.211 3.175 0 4.386z" fill="#05e39c"/><path d="m67.955 271.999-22.272 22.272c-1.207 1.207-3.164 1.207-4.371 0l-9.311-9.311-7.912 7.912c-1.211 1.211-1.211 3.174 0 4.385l17.223 17.223c1.207 1.207 3.164 1.207 4.371 0l30.184-30.184c1.211-1.211 1.211-3.174 0-4.385z" fill="#0ed290"/></g></svg>