<svg id="Capa_1" enable-background="new 0 0 512 512" height="512" viewBox="0 0 512 512" width="512" xmlns="http://www.w3.org/2000/svg"><g><path d="m456.831 299.473c-1.566 1.204-3.105 2.438-4.616 3.703-2.339 1.958-4.734 3.862-7.162 5.733l14.255 14.255c1.465 1.464 3.385 2.197 5.304 2.197s3.839-.732 5.304-2.197c2.929-2.929 2.929-7.678 0-10.606z" fill="#c53287"/><path d="m102.253 307.504-12.78 12.78c-2.929 2.929-2.929 7.678 0 10.606 1.465 1.465 3.384 2.197 5.304 2.197 1.919 0 3.839-.732 5.304-2.197l14.393-14.393c-4.193-2.876-8.263-5.879-12.221-8.993z" fill="#98246a"/><path d="m322.673 469.816v20.085c0 4.142 3.357 7.5 7.5 7.5s7.5-3.358 7.5-7.5v-23.576c-4.945 1.287-9.945 2.457-15 3.491z" fill="#c53287"/><path d="m82.184 196.01h-26.039c-4.143 0-7.5 3.358-7.5 7.5s3.357 7.5 7.5 7.5h52.217c-8.892-4.484-17.637-9.494-26.178-15z" fill="#98246a"/><path d="m206.84 74.669v-42.169c0-4.142-3.357-7.5-7.5-7.5s-7.5 3.358-7.5 7.5v20.667c5.349 6.996 10.36 14.173 15 21.502z" fill="#98246a"/><g><g><path d="m166.065 22.198-.707.707c17.697 17.698 2.282 61.91-34.364 98.556-25.314 25.314-55.975 41.67-78.109 41.67-8.72 0-15.6-2.458-20.447-7.306l-.707.707c25.16 25.16 53.648 44.908 83.087 58.73 18.311-12.511 38.813-22.738 61.203-30.504 22.15-7.683 45.354-12.652 69.27-14.883-8.512-51.001-35.835-104.285-79.226-147.677z" fill="#c53287"/><path d="m156.058 192.567c-21.115-11.08-41.576-25.229-60.482-42.258-26.437 15.309-51.414 18.656-63.845 6.225 25.16 25.16 53.648 44.908 83.087 58.729 12.72-8.691 26.505-16.27 41.24-22.696z" fill="#98246a"/><g><ellipse cx="98.897" cy="89.366" fill="#fe9901" rx="94.989" ry="46.39" transform="matrix(.707 -.707 .707 .707 -34.225 96.105)"/></g><g><path d="m75.076 156.533c-18.116-18.116-2.731-62.875 34.365-99.97 17.443-17.443 36.579-30.082 53.844-36.699-19.594-14.246-61.859 1.367-97.19 36.699-37.096 37.096-52.481 81.854-34.365 99.97 9.598 9.598 26.674 9.789 46.126 2.334-.979-.711-1.919-1.472-2.78-2.334z" fill="#fb8801"/></g></g><g><path d="m484.312 129.287-18.959-18.959-.38 1.07c17.152 17.925 1.714 61.786-34.692 98.193-.074.074-.149.145-.223.218l-.758 2.136c-.035-.023-.072-.044-.107-.067 7.707 4.982 15.048 10.353 22 16.103 36.181-36.841 51.028-80.784 33.119-98.694z" fill="#98246a"/><path d="m373.094 184.759c20.376 7.068 39.185 16.177 56.206 27.186.563-.549 1.129-1.087 1.688-1.647 37.095-37.096 52.481-81.854 34.365-99.97s-62.875-2.731-99.97 34.365c-9.961 9.961-18.339 20.474-24.941 30.876 11.1 2.44 22 5.495 32.652 9.19z" fill="#fe9901"/><path d="m370.358 183.843c3.719-4.485 7.75-8.92 12.08-13.251 31.709-31.709 69.002-47.534 90.483-40.152-.191-8.221-2.623-15.164-7.569-20.111-18.116-18.116-62.875-2.731-99.97 34.365-9.961 9.961-18.339 20.474-24.941 30.876 10.154 2.231 20.135 4.99 29.917 8.273z" fill="#fb8801"/></g><g><path d="m315.64 62.55h-26.812l.413 1.011c24.839.461 44.977 42.438 44.977 93.978 0 4.931-.194 9.868-.564 14.714l.843 2.062c8.842 1.755 17.56 3.904 26.135 6.446.912-7.432 1.399-15.21 1.399-23.221-.001-52.462-20.77-94.99-46.391-94.99z" fill="#98246a"/><path d="m274.558 168.509c20.454 0 40.495 1.96 59.938 5.816.474-5.449.722-11.058.722-16.786 0-52.461-20.77-94.989-46.39-94.989s-46.39 42.528-46.39 94.989c0 4.258.139 8.45.404 12.56 10.442-1.058 21.023-1.59 31.716-1.59z" fill="#fe9901"/><path d="m274.558 168.509c.786 0 1.569.018 2.354.023-.203-3.607-.309-7.275-.309-10.993 0-40.108 12.141-74.409 29.307-88.339-5.287-4.29-11.05-6.65-17.083-6.65-25.62 0-46.39 42.528-46.39 94.989 0 4.258.139 8.45.404 12.56 10.443-1.058 21.024-1.59 31.717-1.59z" fill="#fb8801"/></g><g><path d="m274.557 364.482c70.4 0 133.804-23.299 178.3-60.539 12.215-10.223 26.078-18.294 40.89-24.153l12.14-4.802c8.15-3.224 8.15-14.759 0-17.983l-12.14-4.802c-14.812-5.859-28.675-13.93-40.89-24.153-44.496-37.24-107.9-60.539-178.3-60.539s-133.804 23.299-178.3 60.539c-12.215 10.223-26.078 18.294-40.89 24.153l-12.14 4.802c-8.15 3.224-8.15 14.759 0 17.983l12.14 4.802c14.812 5.859 28.675 13.93 40.89 24.153 44.496 37.24 107.9 60.539 178.3 60.539z" fill="#e03d9c"/></g><path d="m140.511 198.863v21.065c0 4.142 3.357 7.5 7.5 7.5s7.5-3.358 7.5-7.5v-28.201c-5.118 2.241-10.119 4.622-15 7.136z" fill="#e759aa"/><g><path d="m223.953 328.369c-49.902-8.227-94.168-28.366-127.696-56.426-10.755-9.001-22.789-16.33-35.622-21.953-1.743.767-3.496 1.511-5.268 2.212l-12.14 4.802c-8.15 3.224-8.15 14.759 0 17.983l12.14 4.802c14.812 5.859 28.675 13.93 40.89 24.153 32.013 26.793 73.815 46.369 120.967 55.244 1.341-11.181 3.647-21.584 6.729-30.817z" fill="#c53287"/></g><path d="m486.797 373.235-11.709-4.632c-14.286-5.651-27.657-13.436-39.438-23.296-42.916-35.918-105.474-58.389-173.374-58.389v1c25.028 0 45.39 42.164 45.39 93.989s-20.362 93.989-45.39 93.989v1c67.9 0 130.459-22.472 173.374-58.389 11.781-9.86 25.152-17.645 39.438-23.296l11.709-4.632c7.861-3.109 7.861-14.235 0-17.344z" fill="#c53287"/><g><path d="m486.797 373.235-11.709-4.632c-14.286-5.651-27.657-13.436-39.438-23.296-42.916-35.918-105.474-58.389-173.374-58.389v1c25.028 0 45.39 42.164 45.39 93.989s-20.362 93.989-45.39 93.989v1c67.9 0 130.459-22.472 173.374-58.389 11.781-9.86 25.152-17.645 39.438-23.296l11.709-4.632c7.861-3.109 7.861-14.235 0-17.344z" fill="#c53287"/><path d="m486.797 373.235-11.709-4.632c-6.061-2.397-11.943-5.202-17.623-8.363-7.708 4.29-15.032 9.255-21.815 14.932-34.622 28.977-82.032 49.193-134.713 55.928-7.999 26.856-22.336 44.796-38.661 44.796v1c67.9 0 130.458-22.472 173.374-58.39 11.781-9.86 25.152-17.645 39.438-23.296l11.709-4.632c7.861-3.108 7.861-14.234 0-17.343z" fill="#98246a"/><g><ellipse cx="262.276" cy="381.907" fill="#fe9901" rx="46.39" ry="94.989"/></g><g><path d="m250.849 381.907c0-39.796 11.953-73.87 28.908-88.006-5.396-4.498-11.297-6.983-17.482-6.983-25.62 0-46.39 42.528-46.39 94.989s20.77 94.989 46.39 94.989c6.185 0 12.086-2.485 17.482-6.983-16.954-14.136-28.908-48.21-28.908-88.006z" fill="#fb8801"/></g></g><path d="m352.02 429.26c-4.143 0-7.5 3.358-7.5 7.5v28.733c5.082-1.454 10.086-3.034 15-4.743v-23.99c0-4.142-3.358-7.5-7.5-7.5z" fill="#c53287"/><path d="m344.52 298.321v34.685c0 4.142 3.357 7.5 7.5 7.5s7.5-3.358 7.5-7.5v-29.942c-4.915-1.709-9.919-3.288-15-4.743z" fill="#98246a"/><path d="m384.155 187.791v33.303c0 4.142 3.357 7.5 7.5 7.5s7.5-3.358 7.5-7.5v-26.861c-4.894-2.278-9.892-4.431-15-6.442z" fill="#98246a"/><path d="m323.535 171.368v35.737c0 4.142 3.357 7.5 7.5 7.5s7.5-3.358 7.5-7.5v-32.968c-4.938-1.047-9.943-1.964-15-2.769z" fill="#e759aa"/><path d="m276.75 167.532c-.732-.005-1.459-.023-2.193-.023-4.296 0-8.566.09-12.807.261v19.516c0 4.142 3.357 7.5 7.5 7.5s7.5-3.358 7.5-7.5z" fill="#98246a"/><g><path d="m269.25 257.738c-4.143 0-7.5-3.358-7.5-7.5v-30.31c0-4.142 3.357-7.5 7.5-7.5s7.5 3.358 7.5 7.5v30.31c0 4.142-3.357 7.5-7.5 7.5z" fill="#98246a"/></g><g><path d="m331.035 267.064c-4.143 0-7.5-3.358-7.5-7.5v-17.486c0-4.142 3.357-7.5 7.5-7.5s7.5 3.358 7.5 7.5v17.486c0 4.142-3.357 7.5-7.5 7.5z" fill="#e759aa"/></g><g><path d="m391.655 286.882c-4.143 0-7.5-3.358-7.5-7.5v-16.321c0-4.142 3.357-7.5 7.5-7.5s7.5 3.358 7.5 7.5v16.321c0 4.142-3.357 7.5-7.5 7.5z" fill="#98246a"/></g><g><path d="m437.12 274.058c-4.143 0-7.5-3.358-7.5-7.5v-16.321c0-4.142 3.357-7.5 7.5-7.5s7.5 3.358 7.5 7.5v16.321c0 4.143-3.357 7.5-7.5 7.5z" fill="#98246a"/></g><g><path d="m386.992 395.297c-4.143 0-7.5-3.358-7.5-7.5v-25.646c0-4.142 3.357-7.5 7.5-7.5s7.5 3.358 7.5 7.5v25.646c0 4.142-3.357 7.5-7.5 7.5z" fill="#e759aa"/></g><g><path d="m188.979 403.694c0 25.028-42.163 45.39-93.989 45.39s-93.99-20.362-93.99-45.39h-1v26.812c0 25.621 42.528 46.39 94.989 46.39s94.989-20.77 94.989-46.39v-26.812z" fill="#c53287"/><g><ellipse cx="94.989" cy="403.694" fill="#fe9901" rx="94.989" ry="46.39"/></g><g><path d="m43.358 403.694c0-21.978 31.296-40.385 73.31-45.175-6.963-.794-14.22-1.215-21.679-1.215-52.461 0-94.989 20.769-94.989 46.39s42.528 46.39 94.989 46.39c7.459 0 14.716-.421 21.679-1.215-42.014-4.79-73.31-23.197-73.31-45.175z" fill="#fb8801"/></g></g><path d="m213.815 84.273-17.576 31.768c-2.005 3.625-.692 8.188 2.932 10.193 1.151.637 2.396.939 3.624.939 2.641 0 5.201-1.397 6.569-3.871l12.886-23.291c-2.62-5.286-5.434-10.536-8.435-15.738z" fill="#98246a"/><g><path d="m163.164 176.134c-1.826 0-3.657-.663-5.102-2.004-3.035-2.818-3.211-7.564-.393-10.6l15.154-16.32c2.818-3.034 7.562-3.211 10.6-.393 3.035 2.818 3.211 7.564.393 10.6l-15.154 16.32c-1.477 1.591-3.485 2.397-5.498 2.397z" fill="#e759aa"/></g><path d="m85.833 199.513 30.043-12.279c3.834-1.567 5.672-5.946 4.104-9.78-1.566-3.833-5.939-5.674-9.78-4.105l-39.469 16.132c4.969 3.526 10.007 6.871 15.102 10.032z" fill="#c53287"/><g><path d="m203.968 247.246c-4.143 0-7.5-3.358-7.5-7.5v-26.812c0-4.142 3.357-7.5 7.5-7.5s7.5 3.358 7.5 7.5v26.812c0 4.142-3.358 7.5-7.5 7.5z" fill="#e759aa"/></g><g><path d="m148.011 286.882c-4.143 0-7.5-3.358-7.5-7.5v-26.812c0-4.142 3.357-7.5 7.5-7.5s7.5 3.358 7.5 7.5v26.812c0 4.142-3.358 7.5-7.5 7.5z" fill="#98246a"/></g><g><path d="m97.883 281.053c-4.143 0-7.5-3.358-7.5-7.5v-15.155c0-4.142 3.357-7.5 7.5-7.5s7.5 3.358 7.5 7.5v15.155c0 4.142-3.358 7.5-7.5 7.5z" fill="#e759aa"/></g><path d="m148.011 305.689c-4.143 0-7.5 3.358-7.5 7.5v19.94c4.881 2.514 9.882 4.895 15 7.136v-27.076c0-4.142-3.358-7.5-7.5-7.5z" fill="#98246a"/><g><path d="m203.968 302.036c-4.143 0-7.5-3.358-7.5-7.5v-12.823c0-4.142 3.357-7.5 7.5-7.5s7.5 3.358 7.5 7.5v12.823c0 4.143-3.358 7.5-7.5 7.5z" fill="#e759aa"/></g></g></g></svg>