<svg id="Layer_1" enable-background="new 0 0 510 510" height="512" viewBox="0 0 510 510" width="512" xmlns="http://www.w3.org/2000/svg"><g id="XMLID_714_"><path id="XMLID_761_" d="m248.267 28.333c-40.341-40.339-116.345-25.952-119.56-25.321l-9.883 1.942-1.942 9.882c-.632 3.216-15.019 79.221 25.321 119.561 1.219 1.219 2.485 2.402 3.799 3.549l98.664-55.946 4.096-53.166c-.164-.168-.329-.335-.495-.501z" fill="#70d840"/><path id="XMLID_757_" d="m240 60v16.092l8.125 4.533 6.875-5.625 10-24.499-10-30.124c-9.325 10.578-15 24.446-15 39.623z" fill="#954c20"/><path id="XMLID_742_" d="m255 20.377v54.623l6.375 3.5 8.625-2.408v-16.092c0-16.542 13.458-30 30-30v-30c-17.908 0-33.997 7.896-45 20.377z" fill="#7e3e19"/><path id="XMLID_738_" d="m181.635 102.223c-20.684 15.894-39.582 37.972-56.17 65.621-31.6 52.671-50.465 118.897-50.465 177.156 0 106.402 63.926 165 180 165l10-195-10-240c-25.174 0-49.857 9.159-73.365 27.223z" fill="#ace233"/><path id="XMLID_728_" d="m384.535 167.844c-16.588-27.649-35.486-49.728-56.17-65.621-23.508-18.064-48.191-27.223-73.365-27.223v435c116.075 0 180-58.598 180-165 0-58.259-18.865-124.485-50.465-177.156z" fill="#70d840"/><path id="XMLID_725_" d="m151.189 183.277c-28.921 48.21-46.189 108.667-46.189 161.723 0 89.579 50.467 135 150 135l10-179-10-196c-36.128 0-73.965 28.531-103.811 78.277z" fill="#fff4f4"/><path id="XMLID_721_" d="m358.81 183.277c-29.845-49.746-67.682-78.277-103.81-78.277v375c99.533 0 150-45.421 150-135 0-53.056-17.268-113.513-46.19-161.723z" fill="#f3e2dd"/><path id="XMLID_718_" d="m285 175.75v256.17c43.37-9.27 75-39.36 75-86.92 0-47.57-31.63-138.21-75-169.25z" fill="#e6d3ce"/><path id="XMLID_715_" d="m150 345c0 47.56 31.63 77.65 75 86.92v-256.17c-43.37 31.04-75 121.68-75 169.25z" fill="#f3e2dd"/></g></svg>