<svg id="Layer_1" enable-background="new 0 0 508.98 508.98" height="512" viewBox="0 0 508.98 508.98" width="512" xmlns="http://www.w3.org/2000/svg"><g id="XMLID_1968_"><path id="XMLID_1978_" d="m162.74 33.186-8.685 2.19-2.191 8.685c-1.411 5.592-12.25 52.072 8.767 81.672l46.524-9.836 32.334-18.166 7.077-54.158c-29.439-23.174-78.097-11.833-83.826-10.387z" fill="#ace233"/><path id="XMLID_1976_" d="m239.489 76.66v21.07l7.077 6.841 7.923-7.341 10-25.584-10-41.908c-9.535 13.371-15 29.65-15 46.922z" fill="#954c20"/><path id="XMLID_1973_" d="m269.489 76.66c0-21.9 13.963-41.271 34.745-48.2l-9.49-28.46c-16.661 5.556-30.561 16.145-40.255 29.738v67.492l8.013 7.341 6.987-6.679z" fill="#7e3e19"/><path id="XMLID_1977_" d="m126.758 154.816c-65.801 71.783-69.265 184.635-11.582 260.923 26.099 34.518 62.572 58.473 102.703 67.455 10.021 2.243 18.924 7.216 25.748 14.381l10.862 11.406 10-217.751-10-194c-48.329-.001-93.692 20.451-127.731 57.586z" fill="#ffe705"/><path id="XMLID_1975_" d="m382.22 154.816c-34.04-37.135-79.402-57.586-127.731-57.586v411.75l10.862-11.406c6.823-7.165 15.727-12.138 25.749-14.381 40.13-8.982 76.603-32.938 102.702-67.455 57.52-76.072 54.409-188.933-11.582-260.922z" fill="#ffcb00"/><path id="XMLID_2003_" d="m246.126 222.562c-2.019 1.355-49.448 33.701-49.448 76.668s47.429 75.312 49.448 76.668l8.363 5.616 10-72.284-10-92.284z" fill="#954c20"/><path id="XMLID_2016_" d="m262.851 222.562-8.362-5.616v164.568l8.362-5.616c2.02-1.355 49.448-33.701 49.448-76.668s-47.428-75.313-49.448-76.668z" fill="#7e3e19"/></g></svg>