<svg id="Capa_1" enable-background="new 0 0 512 512" height="512" viewBox="0 0 512 512" width="512" xmlns="http://www.w3.org/2000/svg"><g><g fill="#05e39c"><path d="m229.756 105.684c21.611.434 42.67 6.123 61.4 16.399 24.379-19.177 32.215-44.311 34.602-55.645.399-1.893-1.867-3.194-3.295-1.889-26.271 24.005-59.006 32.184-86.466 34.077-1.925 2.412-4.004 4.766-6.241 7.058z"/><path d="m70.135 122.099c18.286-10.073 39.176-15.972 61.383-16.411-2.238-2.293-4.319-4.648-6.244-7.062-27.46-1.893-60.195-10.072-86.467-34.077-1.428-1.305-3.694-.004-3.295 1.889 2.388 11.337 10.228 36.481 34.623 55.661z"/></g><g fill="#00c285"><path d="m198.027 108.834c9.487-2.113 19.207-3.18 29.058-3.18 1.334 0 2.665.027 3.995.067 28.87-30.124 24.139-62.787 20.613-75.804-.508-1.875-3.127-1.981-3.797-.158-10.585 28.795-33.339 47.368-53.118 58.669z"/><path d="m134.187 105.654c9.851 0 19.571 1.067 29.058 3.18l3.249-20.406c-19.78-11.302-42.534-29.875-53.118-58.669-.67-1.823-3.289-1.716-3.797.158-3.526 13.016-8.257 45.678 20.611 75.802 1.328-.039 2.659-.065 3.997-.065z"/></g><path d="m180.289 113.853.346.128.346-.128c5.894-2.175 11.913-3.914 18.025-5.226l-10.362-65.069c-.155-.971-.992-1.686-1.975-1.686h-12.067c-.983 0-1.82.715-1.975 1.686l-10.362 65.069c6.111 1.312 12.13 3.051 18.024 5.226z" fill="#05e39c"/><path d="m176.482 112.521 11.206-70.37c-.3-.178-.649-.279-1.019-.279h-12.067c-.983 0-1.82.715-1.975 1.685l-10.362 65.069c4.802 1.032 9.545 2.331 14.217 3.895z" fill="#0ed290"/><path d="m151.729 349.363c0-73.439 59.747-133.186 133.187-133.186 15.848 0 31.359 2.758 46.103 8.199l.346.128.346-.128c9.028-3.332 18.346-5.652 27.851-6.955-10.256-63.927-65.659-112.768-132.477-112.768-16.329 0-31.975 2.92-46.449 8.261-14.474-5.341-30.12-8.261-46.449-8.261-74.11.001-134.187 60.078-134.187 134.187s60.077 134.186 134.186 134.186h19.649c-1.383-7.681-2.106-15.589-2.106-23.663z" fill="#fd4755"/><path d="m152.776 366.084c-53.171-17.838-91.48-68.065-91.48-127.244 0-63.56 44.193-116.795 103.526-130.663-9.84-2.3-20.094-3.523-30.635-3.523-74.11 0-134.187 60.077-134.187 134.186s60.077 134.186 134.186 134.186h19.649c-.413-2.294-.766-4.609-1.059-6.942z" fill="#fb2b3a"/><g><path d="m377.814 215.177c-16.329 0-31.975 2.92-46.449 8.261-14.474-5.341-30.12-8.261-46.449-8.261-74.109 0-134.186 60.077-134.186 134.186s60.076 134.187 134.185 134.187h92.898c74.11 0 134.187-60.077 134.187-134.186s-60.077-134.187-134.186-134.187z" fill="#e41f2d"/><path d="m284.915 453.26c-57.289 0-103.897-46.608-103.897-103.897s46.608-103.897 103.897-103.897c12.376 0 24.476 2.149 35.963 6.388l10.486 3.87 10.486-3.87c11.487-4.239 23.587-6.388 35.963-6.388 57.289 0 103.897 46.608 103.897 103.897s-46.607 103.897-103.896 103.897z" fill="#fd4755"/><g><path d="m219.035 349.363c0-50.802 36.653-93.199 84.902-102.15-6.235-1.153-12.59-1.746-19.021-1.746-57.289 0-103.897 46.608-103.897 103.897s46.608 103.897 103.897 103.897h38.016c-57.289-.001-103.897-46.609-103.897-103.898z" fill="#fb2b3a"/></g><g fill="#fd8087"><path d="m315.402 292.794c-31.758 5.895-55.462 28.975-55.462 56.57s23.704 50.675 55.462 56.57z"/><path d="m347.327 292.794v113.14c31.758-5.895 55.462-28.975 55.462-56.57s-23.704-50.676-55.462-56.57z"/></g><path d="m315.402 398.999c-20.622-10.178-34.402-28.596-34.402-49.636s13.78-39.458 34.402-49.635v-6.934c-31.758 5.895-55.462 28.975-55.462 56.57s23.704 50.675 55.462 56.57z" fill="#fe646f"/><g fill="#fe9901"><path d="m269.71 276.573-2.812-2.812c-2.929-2.929-7.678-2.929-10.606 0-2.929 2.929-2.929 7.678 0 10.606l2.812 2.812c1.464 1.464 3.384 2.197 5.303 2.197s3.839-.732 5.303-2.197c2.93-2.928 2.93-7.677 0-10.606z"/><path d="m227.748 318.015 3.515 1.86c1.118.592 2.318.872 3.501.872 2.689 0 5.29-1.451 6.636-3.994 1.937-3.661.54-8.199-3.122-10.137l-3.515-1.86c-3.661-1.938-8.2-.54-10.137 3.122s-.54 8.2 3.122 10.137z"/><path d="m228.567 350.418c-.505-4.111-4.239-7.03-8.359-6.528l-3.947.485c-4.111.505-7.034 4.248-6.528 8.359.467 3.8 3.701 6.585 7.435 6.585.305 0 .614-.019.925-.057l3.947-.485c4.109-.505 7.032-4.248 6.527-8.359z"/><path d="m240.403 382.927c-3.125-2.717-7.861-2.39-10.582.735l-2.61 3c-2.719 3.125-2.39 7.862.735 10.582 1.421 1.236 3.174 1.842 4.92 1.842 2.094 0 4.178-.873 5.661-2.577l2.61-3c2.72-3.126 2.391-7.863-.734-10.582z"/><path d="m277.04 406.068c-3.728-1.804-8.214-.247-10.019 3.482l-1.733 3.58c-1.805 3.729-.246 8.214 3.482 10.019 1.053.51 2.166.751 3.263.751 2.785 0 5.461-1.559 6.756-4.234l1.733-3.58c1.805-3.728.246-8.213-3.482-10.018z"/><path d="m395.83 273.761-2.812 2.812c-2.929 2.929-2.928 7.678.001 10.606 1.464 1.464 3.383 2.196 5.303 2.196s3.839-.732 5.304-2.197l2.812-2.812c2.929-2.929 2.928-7.678-.001-10.606s-7.678-2.928-10.607.001z"/><path d="m427.965 320.747c1.183 0 2.383-.281 3.501-.872l3.515-1.86c3.662-1.938 5.059-6.476 3.122-10.137-1.938-3.662-6.475-5.059-10.137-3.122l-3.515 1.86c-3.662 1.938-5.059 6.476-3.122 10.137 1.346 2.543 3.946 3.994 6.636 3.994z"/><path d="m446.469 344.375-3.947-.485c-4.12-.503-7.854 2.417-8.359 6.528-.506 4.111 2.417 7.854 6.528 8.359l3.947.485c.311.038.62.057.925.057 3.734 0 6.967-2.785 7.435-6.585.505-4.111-2.418-7.854-6.529-8.359z"/><path d="m432.908 383.663c-2.72-3.126-7.458-3.455-10.581-.736-3.125 2.719-3.455 7.456-.736 10.581l2.609 3c1.483 1.705 3.567 2.578 5.662 2.578 1.746 0 3.5-.606 4.919-1.841 3.125-2.719 3.455-7.456.736-10.581z"/><path d="m395.708 409.55c-1.805-3.728-6.291-5.288-10.019-3.482-3.728 1.805-5.288 6.29-3.482 10.019l1.733 3.58c1.295 2.675 3.97 4.234 6.756 4.234 1.096 0 2.21-.242 3.263-.751 3.728-1.805 5.288-6.29 3.482-10.019z"/></g><path d="m331.365 255.725-10.486-3.87c-2.136-.788-4.3-1.48-6.476-2.123v203.528h33.924v-203.528c-2.176.643-4.34 1.335-6.476 2.123z" fill="#fe646f"/></g></g></svg>