<svg id="Capa_1" enable-background="new 0 0 512 512" height="512" viewBox="0 0 512 512" width="512" xmlns="http://www.w3.org/2000/svg"><g><path d="m234.684 114.922c3.218-.958 6.074-2.778 8.302-5.199-8.117 3.631-16.975 5.558-26.134 5.558-17.106 0-33.188-6.662-45.284-18.757-9.395-9.394-14.568-21.883-14.568-35.167 0-13.285 5.173-25.774 14.567-35.167 14.928-14.927 39.218-14.929 54.146 0 5.502 5.502 8.532 12.817 8.532 20.598s-3.03 15.096-8.531 20.598c-8.503 8.502-22.336 8.5-30.837 0-2.928-2.93-7.677-2.929-10.606 0s-2.929 7.678.001 10.606c14.351 14.351 37.698 14.349 52.049 0 8.335-8.335 12.925-19.417 12.925-31.205 0-11.787-4.59-22.869-12.925-31.204-20.777-20.777-54.583-20.778-75.36 0-12.228 12.227-18.961 28.482-18.961 45.774 0 17.291 6.733 33.547 18.96 45.773 12.703 12.703 28.973 20.527 46.548 22.585 7.844-6.723 17.06-11.782 27.176-14.793z" fill="#00c285"/><g><path d="m359.396 101.717c4.242-4.68 10.053-7.427 16.362-7.737 6.307-.316 12.36 1.856 17.04 6.099 6.221 5.639 9.873 13.363 10.284 21.75s-2.468 16.431-8.107 22.651c-1.212 1.337-2.504 2.574-3.855 3.726 1.99-.236 3.994-.37 6.015-.37 4.385 0 8.7.576 12.93 1.668 5.682-8.307 8.501-18.184 8-28.41-.608-12.388-6.003-23.798-15.192-32.128-7.648-6.934-17.532-10.472-27.85-9.968-10.311.505-19.807 4.996-26.74 12.645-2.782 3.069-2.55 7.812.52 10.594 3.067 2.781 7.811 2.549 10.593-.52z" fill="#00c285"/></g><path d="m221.021 165.755c10.59-11.481 22.456-17.92 34.979-17.92s24.39 6.439 34.979 17.92c9.412-8.977 19.712-14.867 30.561-17.011-6.463-11.22-15.721-20.626-26.828-27.262-9.762-5.833-11.219-19.413-2.968-27.237 8.108-7.688 18.761-12.714 30.551-13.663 2.239-.18 4.076-2.084 4.076-4.33v-26.123c0-2.495-2.042-4.474-4.533-4.343-35.206 1.856-64.809 25.199-75.912 57.126-1.855 5.333-6.116 9.441-11.528 11.052-18.71 5.57-34.373 18.195-43.929 34.783 10.846 2.145 21.143 8.034 30.552 17.008z" fill="#00c285"/><path d="m221.021 165.755c10.59-11.481 22.456-17.92 34.979-17.92.694 0 1.385.02 2.075.059.938-46.021 30.79-83.306 68.297-85.934v-11.831c0-2.495-2.042-4.474-4.533-4.343-35.206 1.856-64.81 25.199-75.912 57.126-1.855 5.333-6.116 9.441-11.529 11.052-18.71 5.57-34.373 18.195-43.929 34.783 10.846 2.145 21.143 8.034 30.552 17.008z" fill="#07b27b"/><g><path d="m89.422 329.417c0-78.108 25.072-144.852 60.138-170.43-10.769-7.842-22.465-12.152-34.695-12.152-53.332 0-96.566 81.745-96.566 182.582s43.234 182.583 96.566 182.583c12.23 0 23.927-4.31 34.695-12.152-35.066-25.578-60.138-92.322-60.138-170.431z" fill="#fe9901"/></g><g><path d="m52.717 329.418c0-89.732 34.236-164.342 79.357-179.689-5.584-1.899-11.335-2.893-17.209-2.893-53.332 0-96.566 81.745-96.566 182.582s43.234 182.582 96.566 182.582c5.874 0 11.624-.994 17.209-2.893-45.122-15.347-79.357-89.958-79.357-179.689z" fill="#fb8801"/></g><g><path d="m397.135 146.835c-12.23 0-23.927 4.31-34.695 12.152 35.066 25.578 60.138 92.322 60.138 170.43s-25.072 144.853-60.138 170.431c10.768 7.842 22.465 12.152 34.695 12.152 53.332 0 96.566-81.745 96.566-182.582s-43.234-182.583-96.566-182.583z" fill="#fe9901"/></g><g><path d="m175.216 329.417c0-72.578 19.045-135.336 46.489-164.381-12.226-11.659-25.948-18.201-40.448-18.201-51.271 0-92.834 81.745-92.834 182.582s41.563 182.583 92.834 182.583c14.5 0 28.222-6.542 40.448-18.201-27.445-29.045-46.489-91.803-46.489-164.382z" fill="#fe9901"/><g><path d="m131.144 329.418c0-86.379 30.5-158.74 71.473-177.717-6.859-3.177-14.009-4.865-21.361-4.865-51.271 0-92.834 81.745-92.834 182.582s41.563 182.582 92.834 182.582c7.352 0 14.502-1.688 21.361-4.865-40.973-18.978-71.473-91.339-71.473-177.717z" fill="#fb8801"/></g><path d="m330.743 146.835c-14.5 0-28.222 6.542-40.448 18.201 27.444 29.045 46.489 91.803 46.489 164.381s-19.045 135.337-46.489 164.382c12.227 11.659 25.949 18.201 40.448 18.201 51.271 0 92.834-81.745 92.834-182.582s-41.563-182.583-92.834-182.583z" fill="#fb8801"/></g><g><ellipse cx="256" cy="329.418" fill="#fe9901" rx="81.784" ry="182.582"/></g><g><path d="m226.562 329.418c0-80.402 23.279-148.664 55.611-173.031-8.218-6.193-17.02-9.552-26.173-9.552-45.168 0-81.784 81.745-81.784 182.582s36.616 182.583 81.784 182.583c9.154 0 17.956-3.359 26.173-9.552-32.331-24.366-55.611-92.628-55.611-173.03z" fill="#fb8801"/></g></g></svg>