<svg id="Layer_1" enable-background="new 0 0 510 510" height="512" viewBox="0 0 510 510" width="512" xmlns="http://www.w3.org/2000/svg"><g id="XMLID_866_"><path id="XMLID_886_" d="m410.438 27.807-1.943-9.883-9.882-1.942c-3.158-.62-76.505-14.505-117.346 23.194l-1.767 80.574 75.121 47.002c12.074-4.692 22.294-11.183 30.495-19.386 40.341-40.34 25.954-116.345 25.322-119.559z" fill="#70d840"/><path id="XMLID_883_" d="m225 0v30c16.542 0 30 13.458 30 30l15-30-15-21.928c-8.832-5.123-19.075-8.072-30-8.072z" fill="#954c20"/><path id="XMLID_880_" d="m255 8.072v64.899l15 8.529 15-4.054v-17.446c0-22.159-12.084-41.537-30-51.928z" fill="#7e3e19"/><path id="XMLID_873_" d="m254.992 72.97c-22.232.013-43.194 7.007-59.027 19.699-37.882 30.385-41.076 77.25-48.069 117.151-3.99 22.766-11.203 44.908-21.435 65.81-10.494 21.42-27.424 39.623-39.96 62.699-17.528 32.267-22.417 72.637-12.455 102.848 8.535 25.887 28.578 43.411 57.961 50.679 19.808 4.9 44.152 4.966 69.227.29 15.472 11.551 34.283 17.854 53.766 17.854l15-225-15-212.03c-.003 0-.005 0-.008 0z" fill="#ff6326"/><path id="XMLID_869_" d="m423.5 338.328c-12.504-23.017-29.488-41.327-39.958-62.694-10.233-20.901-17.446-43.044-21.438-65.815-6.917-39.463-10.039-86.646-48.072-117.152-15.828-12.688-36.786-19.683-59.032-19.697v437.03c19.483 0 38.295-6.303 53.769-17.854 22.103 4.122 47.137 5.176 69.225-.29 29.384-7.268 49.426-24.792 57.961-50.679 9.962-30.21 5.073-70.58-12.455-102.849z" fill="#ff1f3d"/></g></svg>