<svg id="Layer_1" enable-background="new 0 0 510 510" height="512" viewBox="0 0 510 510" width="512" xmlns="http://www.w3.org/2000/svg"><g id="XMLID_1192_"><path id="XMLID_3708_" d="m179.024 60v12.438l7.874 10 7.126-10 15-27.438-15-24.623c-9.325 10.578-15 24.446-15 39.623z" fill="#954c20"/><path id="XMLID_3706_" d="m194.024 20.377v52.062l8.75 10 6.25-10v-12.439c0-16.542 13.458-30 30-30v-30c-17.908 0-33.997 7.896-45 20.377z" fill="#7e3e19"/><path id="XMLID_1958_" d="m179.024 72.438-21.544 15.941-44.792-6.322-19.804 40.373-42.511 13.077-2.56 44.15-34.673 26.966 12.121 42.088-24.285 36.288 24.285 36.298-12.122 42.079 34.674 26.966 2.56 44.15 42.511 13.077 19.804 40.374 44.792-6.322 36.544 27.038 15-208.659-15-227.562z" fill="#70d840"/><path id="XMLID_1954_" d="m387.073 285.001-24.285-36.298 12.121-42.08-34.674-26.966-2.558-44.149-42.512-13.078-19.805-40.373-44.791 6.322-21.545-15.941h-15v436.221l36.545-27.038 29.941 4.223 4.189-29.707 103.72-115.287-5.632-19.561z" fill="#00cb75"/><path id="XMLID_1863_" d="m344.024 435-90-105h-75v15c0 57.215 29.243 108.642 75.409 138.576l3.733 2.414h.116c25.92 15.814 55.439 24.01 85.741 24.01l15-30z" fill="#ace233"/><path id="XMLID_123_" d="m434.024 330-90 105v75c90.524 0 165-73.286 165-165v-15z" fill="#70d840"/><path id="XMLID_1592_" d="m359.02 375-15 60c-49.699 0-90-40.29-90-90v-15h30c5.19 0 10.23.88 14.98 2.55 5.5 1.931 15 26.45 15 26.45s9.43-24.44 15-26.41c4.7-1.68 9.75-2.59 15.02-2.59z" fill="#ffe705"/><path id="XMLID_1619_" d="m434.02 330v15c0 49.71-40.289 90-90 90v-105c5.19 0 10.23.88 14.98 2.55 5.5 1.931 15 26.45 15 26.45s9.43-24.44 15-26.41c4.7-1.68 9.75-2.59 15.02-2.59z" fill="#ffcb00"/><g id="XMLID_93_"><g><path id="XMLID_182_" d="m329 332.59v41.41h-30v-41.45c5.5 1.931 10.6 4.95 15.04 8.931 4.32-3.871 9.39-6.921 14.96-8.891z" fill="#ffcb00"/></g></g><g id="XMLID_1749_"><g><path id="XMLID_372_" d="m389 332.59v41.41h-30v-41.45c5.5 1.931 10.6 4.95 15.04 8.931 4.32-3.871 9.39-6.921 14.96-8.891z" fill="#ff9d21"/></g></g></g></svg>