<svg id="Capa_1" enable-background="new 0 0 512 512" height="512" viewBox="0 0 512 512" width="512" xmlns="http://www.w3.org/2000/svg"><g><g><g><path d="m301.008 131.309c33.947 33.947 88.375 35.236 123.877 3.866 2.289-2.023 2.437-5.541.277-7.701l-120.319-120.319c-2.16-2.16-5.679-2.012-7.701.277-31.37 35.502-30.081 89.93 3.866 123.877z" fill="#fff5c6"/></g><g><path d="m322.628 109.689c23.365 23.365 61.384 23.365 84.75 0l-84.75-84.75c-23.365 23.366-23.365 61.385 0 84.75z" fill="#fff9e2"/></g><g><path d="m344.248 88.069c11.445 11.445 30.065 11.445 41.51 0l-41.51-41.51c-11.445 11.445-11.445 30.066 0 41.51z" fill="#fff5c6"/></g></g><g><path d="m222.869 182.885c.287 5.982-.236 12.42-1.503 19.074 7.358-3.655 15.639-5.716 24.392-5.716.922 0 1.859.023 2.783.069 7.516.375 14.734 2.238 21.452 5.537l.988.485.389-1.029c8.024-21.242 28.661-35.513 51.35-35.513.922 0 1.858.023 2.783.069 15.334.765 29.755 7.991 39.564 19.824l.737.889.774-.856c7.712-8.528 17.86-14.354 28.893-16.811-2.621-25.706-22.882-46.98-49.602-49.884-22.576-2.454-43.459 8.896-54.273 27.275-11.812-9.46-27.397-14.128-43.531-11.632-15.28 2.364-28.144 10.708-36.597 22.277 6.776 4.4 10.803 13.478 11.401 25.942z" fill="#97d729"/></g><path d="m212.405 229.226c-2.388 5.123-5.109 10.057-8.087 14.667-2.473 3.828-3.22 8.532-2.048 12.904l7.512 28.037h33.503l.114-.87c5.72-43.753 43.348-76.748 87.526-76.748 28.789 0 55.848 14.112 72.384 37.749l.68.972.843-.835c16.306-16.155 37.001-26.418 58.073-29.068-2.481-21.072-16.889-39.808-38.404-46.739-21.615-6.963-44.36-.065-58.664 15.751-9.658-11.65-23.979-19.371-40.285-20.184-24.88-1.241-46.763 13.974-55.117 36.089-6.625-3.253-14.003-5.246-21.843-5.637-9.659-.482-18.867 1.517-27.008 5.435-1.642 9.258-4.743 18.964-9.179 28.477z" fill="#bbec6c"/><g><g><g><path d="m80.379 259.934c-8.628 8.092-14.489 16.791-16.673 24.901h147.111l-7.582-28.296c-1.106-4.126-.396-8.515 1.922-12.103 2.947-4.561 5.693-9.509 8.154-14.787 15.477-33.19 13.87-66.695-3.589-74.836-11.326-5.281-26.538 1.419-40.054 15.831.516-4.536.794-9.241.794-14.071 0-36.621-15.616-66.308-34.88-66.308-17.021 0-31.187 23.184-34.255 53.844-3.441-4.633-7.368-9.211-11.767-13.61-25.895-25.895-57.929-35.845-71.551-22.223s-3.671 45.656 22.223 71.551c4.399 4.399 8.977 8.325 13.61 11.767-30.658 3.068-53.842 17.233-53.842 34.255 0 19.263 29.687 34.88 66.308 34.88 4.83-.001 9.534-.279 14.071-.795z" fill="#05e39c"/></g><g><path d="m80.379 259.934c-8.275 7.76-14 16.079-16.383 23.901h44.817c-4.447-2.341-7.822-5.581-9.755-9.725-4.128-8.853-.935-20.082 7.54-31.019 2.623-3.385.124-8.307-4.159-8.251-.539.007-1.079.01-1.621.01-36.621 0-66.308-15.616-66.308-34.88 0-1.668.23-3.307.66-4.913-20.923 5.864-35.17 17.449-35.17 30.792 0 19.263 29.687 34.88 66.308 34.88 4.83-.001 9.534-.279 14.071-.795z" fill="#0ed290"/></g></g><path d="m69.802 215.257c-4.091.648-6.882 4.49-6.234 8.581.585 3.694 3.773 6.328 7.398 6.328.39 0 .785-.03 1.183-.093l49.252-7.801 23.01 23.01-38.488 6.096c-4.091.648-6.882 4.49-6.234 8.581.585 3.694 3.773 6.328 7.398 6.328.39 0 .785-.03 1.183-.093l49.252-7.801 26.442 26.442h21.213l-37.049-37.049 7.801-49.251c.648-4.091-2.144-7.933-6.234-8.581-4.087-.645-7.933 2.144-8.581 6.234l-6.096 38.487-23.01-23.01 7.801-49.252c.648-4.091-2.144-7.933-6.234-8.581-4.088-.646-7.933 2.144-8.581 6.234l-6.096 38.488-94.483-94.483c-2.421.997-4.581 2.383-6.402 4.205-1.821 1.821-3.208 3.981-4.205 6.402l94.483 94.483z" fill="#00c285"/></g><g><g><path d="m477.391 284.834c13.755-21.696 18.467-46.618 13.631-68.643-28.682-6.297-62.282 3.577-87.265 28.56-11.894 11.894-20.356 25.743-25.286 40.083z" fill="#00c285"/></g><g><path d="m477.391 284.834c13.755-21.696 18.467-46.618 13.631-68.643l-68.643 68.643z" fill="#0ed290"/></g></g><g><g><path d="m419.586 284.834c-5.279-44.282-42.957-78.618-88.661-78.618s-83.382 34.336-88.661 78.618z" fill="#fb2b3a"/></g><g><path d="m294.757 284.834c4.224-35.431 29.188-64.494 62.413-74.695-8.299-2.548-17.111-3.923-26.245-3.923-45.703 0-83.382 34.336-88.661 78.618z" fill="#e41f2d"/></g><g><g><g fill="#fe9901"><path d="m330.925 228.938c-4.142 0-7.5 3.358-7.5 7.5v9.267c0 4.142 3.358 7.5 7.5 7.5s7.5-3.358 7.5-7.5v-9.267c0-4.142-3.358-7.5-7.5-7.5z"/><path d="m307.881 240.603c-2.071-3.588-6.658-4.817-10.245-2.745-3.587 2.071-4.816 6.658-2.745 10.245l4.634 8.026c1.389 2.406 3.91 3.751 6.502 3.751 1.272 0 2.562-.324 3.743-1.006 3.587-2.071 4.816-6.658 2.745-10.245z"/><path d="m388.583 262.227c-2.071-3.587-6.658-4.817-10.245-2.745l-8.025 4.633c-3.587 2.071-4.816 6.658-2.745 10.245 1.389 2.406 3.91 3.751 6.502 3.751 1.272 0 2.562-.324 3.743-1.006l8.025-4.633c3.586-2.071 4.816-6.658 2.745-10.245z"/><path d="m291.538 264.115-8.025-4.633c-3.588-2.073-8.174-.842-10.245 2.745s-.842 8.174 2.745 10.245l8.025 4.633c1.181.682 2.471 1.006 3.743 1.006 2.592 0 5.113-1.346 6.502-3.751 2.071-3.587.842-8.174-2.745-10.245z"/><path d="m364.214 237.858c-3.588-2.073-8.174-.843-10.245 2.745l-4.634 8.026c-2.071 3.587-.842 8.174 2.745 10.245 1.181.682 2.471 1.006 3.743 1.006 2.592 0 5.113-1.346 6.502-3.751l4.634-8.026c2.071-3.587.842-8.174-2.745-10.245z"/></g></g></g></g><g><path d="m188.76 96.578c-1.331 1.331-1.203 3.521.261 4.706 13.04 10.559 32.216 9.775 44.344-2.353s12.913-31.304 2.353-44.344c-1.185-1.463-3.374-1.592-4.706-.261z" fill="#fff5c6"/></g><path d="m237.275 84.528c-11.163 11.163-28.292 12.708-41.116 4.651l-7.399 7.399c-1.331 1.331-1.203 3.521.261 4.706 13.04 10.559 32.216 9.775 44.344-2.353 6.154-6.154 9.382-14.124 9.694-22.185-1.501 2.795-3.425 5.423-5.784 7.782z" fill="#fef0ae"/><g><path d="m462.975 97.063c1.331 1.331 3.521 1.203 4.706-.261 10.559-13.04 9.775-32.216-2.353-44.344s-31.304-12.913-44.344-2.353c-1.463 1.185-1.592 3.374-.261 4.706z" fill="#fff5c6"/></g><path d="m473.528 66.472c.074.074.141.151.214.225-1.505-5.213-4.307-10.131-8.415-14.239-12.128-12.128-31.304-12.913-44.344-2.353-1.463 1.185-1.592 3.374-.261 4.706l8.94 8.94c13.027-10.163 31.884-9.261 43.866 2.721z" fill="#fef0ae"/><path d="m34.465 312.287c6.059 85.394 58.974 157.837 133.186 191.773 3.336 1.525 6.961 2.319 10.629 2.319h168.85c3.668 0 7.294-.793 10.629-2.319 74.213-33.936 127.127-106.379 133.186-191.773z" fill="#fef0ae"/><path d="m112.91 312.287h-78.445c6.059 85.394 58.974 157.837 133.186 191.773 3.336 1.525 6.961 2.319 10.629 2.319h78.444c-3.668 0-7.294-.793-10.629-2.319-74.212-33.936-127.126-106.378-133.185-191.773z" fill="#fee97d"/><g><path d="m506.741 313.287h-488.07c-2.905 0-5.259-2.355-5.259-5.259v-18.934c0-2.905 2.355-5.259 5.259-5.259h488.07c2.905 0 5.259 2.355 5.259 5.259v18.934c0 2.904-2.355 5.259-5.259 5.259z" fill="#fedf30"/></g><g><path d="m114.261 308.028v-18.934c0-2.905 2.355-5.259 5.259-5.259h-100.849c-2.905 0-5.259 2.355-5.259 5.259v18.934c0 2.905 2.355 5.259 5.259 5.259h100.849c-2.905 0-5.259-2.355-5.259-5.259z" fill="#fed402"/></g></g></svg>