<svg id="Capa_1" enable-background="new 0 0 512 512" height="512" viewBox="0 0 512 512" width="512" xmlns="http://www.w3.org/2000/svg"><g><g><g><path d="m103.681 395.296c-6.279-21.577-3.198-43.677 8.911-63.911 18.43-30.797 55.697-53.51 104.938-63.956 40.012-8.488 67.244-49.991 83.043-83.312 5.933-12.514 10.743-24.842 14.496-35.614-3.544-3.059-6.97-6.656-10.129-10.708l-1.397-1.792-.378 2.24c-2.634 15.621-9.404 28.217-18.17 33.869-8.494-5.48-15.182-17.622-17.953-32.65l-.381-2.067-1.364 1.599c-9.913 11.63-21.776 18.8-31.873 19.3-4.765-9.278-4.33-23.571 1.2-38.417l.793-2.129-2.105.853c-8.602 3.484-17.255 5.326-25.025 5.326-.542 0-1.071-.02-1.602-.038-10.59 33.614-37.059 99.161-84.729 109.273-76.628 16.256-109.19 65.079-96.49 108.717 7.314 25.13 36.557 54.973 80.537 60.046-.9-2.205-1.679-4.418-2.322-6.629z" fill="#e03d9c"/><path d="m60.165 359.124c-12.701-43.638 19.862-92.462 96.489-108.717 40.53-8.598 65.733-57.269 78.884-92.317-.712.097-1.418.17-2.114.205-4.765-9.278-4.33-23.571 1.2-38.417l.793-2.129-2.105.853c-8.602 3.484-17.255 5.326-25.025 5.326-.542 0-1.071-.02-1.602-.038-10.59 33.614-37.059 99.161-84.729 109.273-76.628 16.256-109.19 65.079-96.49 108.717 6.337 21.774 29.137 47.089 63.721 56.762-15.11-11.576-25.147-26.206-29.022-39.518z" fill="#c53287"/><path d="m233.687 119.529c-5.757 15.456-6.036 30.318-.852 39.788 10.518-.24 22.877-7.534 33.224-19.673 2.892 15.686 9.947 28.182 18.936 33.649 9.224-5.609 16.414-18.619 19.156-34.883 3.315 4.251 6.883 7.984 10.562 11.131 1.42-4.037 2.699-7.87 3.824-11.404l.398-1.25-1.311-.052c-6.425-.256-11.959-1.569-16.46-3.905.546-12.199 9.099-26.102 22.557-37.722-6.306-7.501-13.379-13.205-20.344-16.585-4.796-2.327-7.578-7.442-6.836-12.721l7.395-52.626c.275-1.956-.952-3.809-2.859-4.32s-3.896.481-4.636 2.311l-19.909 49.273c-1.997 4.943-6.963 7.981-12.28 7.599-11.602-.835-26.035 2.725-39.846 10.699-19.808 11.436-32.4 28.522-32.716 42.401 9.919 5.431 25.758 4.868 41.997-1.71z" fill="#0ed290"/><g><g><path d="m241.328 105.916c13.811-7.974 28.244-11.533 39.846-10.699 5.317.382 10.283-2.656 12.28-7.599l5.238-12.963c-1.766-2.483-2.597-5.586-2.152-8.754l7.395-52.626c.275-1.955-.952-3.809-2.859-4.32s-3.896.481-4.636 2.311l-19.908 49.274c-1.997 4.943-6.963 7.981-12.28 7.599-11.602-.835-26.035 2.725-39.846 10.699-19.808 11.436-32.4 28.522-32.716 42.401 7.007 3.836 16.971 4.666 27.939 2.514 5.508-6.543 12.887-12.75 21.699-17.837z" fill="#00c285"/></g></g></g></g><g><g><path d="m184.706 380.875c26.383-26.382 58.339-43.43 81.413-43.43 9.097 0 16.274 2.565 21.334 7.625l12.451 12.452.682-.455c18.968-12.647 37.634-19.612 52.561-19.612 9.085 0 16.254 2.562 21.308 7.616l12.199 12.199.682-.452c5.639-3.738 11.249-6.963 16.742-9.661 40.448-62.372 53.517-131.408 57.722-171.118-9.413-4.291-19.102-12.235-27.296-22.74l-1.397-1.792-.377 2.24c-3.147 18.665-11.262 33.709-21.766 40.419-10.179-6.507-18.196-21.009-21.507-38.968l-.381-2.067-1.364 1.599c-11.847 13.898-26.041 22.449-38.109 22.994-5.742-11.063-5.247-28.149 1.36-45.886l.793-2.129-2.105.853c-10.238 4.147-20.541 6.339-29.793 6.339-.663 0-1.311-.024-1.961-.047-12.617 39.979-44.046 117.607-100.575 129.599-91.011 19.307-129.686 77.295-114.601 129.124 5.111 17.56 19.237 37.057 40.637 51.364 5.177-20.25 19.704-44.423 41.348-66.066z" fill="#e03d9c"/><path d="m152.412 423.998c-1.373-3.046-2.513-6.073-3.377-9.044-15.085-51.829 23.59-109.817 114.601-129.124 48.059-10.195 77.976-67.834 93.616-109.445-2.612.761-5.177 1.226-7.649 1.338-5.742-11.063-5.247-28.149 1.36-45.886l.793-2.129-2.105.853c-10.238 4.147-20.541 6.339-29.793 6.339-.663 0-1.312-.024-1.961-.047-12.617 39.979-44.046 117.607-100.575 129.599-91.011 19.307-129.686 77.295-114.601 129.124 5.11 17.558 19.242 37.044 40.641 51.346 1.852-7.239 4.909-14.978 9.05-22.924z" fill="#c53287"/><g><path d="m300.143 133.519c.375-16.484 15.331-36.777 38.857-50.36 16.403-9.471 33.546-13.698 47.326-12.707 6.315.454 12.213-3.155 14.585-9.025l23.646-58.522c.879-2.175 3.241-3.352 5.506-2.745 2.265.607 3.722 2.808 3.396 5.131l-8.783 62.504c-.881 6.27 2.422 12.344 8.119 15.109 12.429 6.031 25.161 18.264 34.632 34.668 13.583 23.526 16.388 48.579 8.471 63.042-13.429-.306-29.386-10.29-42.183-26.701-3.257 19.317-11.796 34.769-22.752 41.431-10.677-6.493-19.056-21.335-22.49-39.965-12.289 14.417-26.967 23.081-39.46 23.366-6.157-11.247-5.826-28.899 1.012-47.256-19.288 7.811-38.099 8.48-49.882 2.03z" fill="#00c285"/></g><g><path d="m331.23 136.888c6.452-7.426 14.926-14.449 24.97-20.248 16.403-9.471 33.546-13.698 47.326-12.707 6.315.454 12.213-3.155 14.585-9.025l7.732-19.135c-1.11-2.438-1.558-5.185-1.166-7.978l8.783-62.505c.326-2.322-1.131-4.524-3.396-5.131-2.265-.607-4.628.571-5.506 2.745l-23.646 58.522c-2.372 5.871-8.27 9.479-14.585 9.025-13.78-.991-30.922 3.237-47.326 12.707-23.526 13.583-38.482 33.876-38.857 50.36 7.873 4.311 18.891 5.424 31.086 3.37z" fill="#07b27b"/></g></g></g><g><path d="m481.292 364.116-19.754-19.754-.707.707c18.456 18.456 2.393 64.548-35.806 102.747-26.382 26.383-58.339 43.43-81.413 43.43-4.252 0-8.079-.568-11.473-1.682-1.06.734-2.122 1.448-3.184 2.148l12.37 12.37c18.876 18.876 65.51 2.845 104.161-35.805s54.682-85.285 35.806-104.161z" fill="#c53287"/><g><path d="m461.538 344.362c-14.371-14.371-44.832-8.492-75.609 12.181l8.279 8.279c18.456 18.456 2.394 64.548-35.805 102.747-8.657 8.657-17.915 16.301-27.262 22.675 22.33 7.958 61.397-8.528 94.592-41.722 38.65-38.649 54.681-85.284 35.805-104.16z" fill="#fff9e2"/></g><g><path d="m461.538 344.362c-14.24-14.24-44.277-8.605-74.766 11.611l8.143 8.143c3.835 3.835 6.205 8.831 7.262 14.658 22.948-17.711 46.628-27.438 64.444-26.927-1.262-2.814-2.935-5.337-5.083-7.485z" fill="#fff5c6"/></g></g><g><path d="m394.915 364.116-19.754-19.754-.707.707c8.844 8.845 10.063 24.34 3.431 43.633-6.714 19.532-20.649 40.526-39.236 59.114-26.382 26.383-58.339 43.43-81.413 43.43-4.429 0-8.399-.613-11.895-1.821-1.002.696-2.006 1.373-3.01 2.04l12.617 12.617c18.876 18.876 65.51 2.845 104.161-35.805 38.652-38.65 54.682-85.285 35.806-104.161z" fill="#c53287"/><g><path d="m375.161 344.362c-14.429-14.429-45.078-8.443-75.982 12.434l8.027 8.027c18.456 18.456 2.394 64.548-35.805 102.747-8.591 8.591-17.773 16.183-27.047 22.528 22.26 8.309 61.604-8.177 95.002-41.576 38.65-38.649 54.681-85.284 35.805-104.16z" fill="#fff9e2"/></g><g><path d="m307.913 364.116c4.34 4.34 6.813 10.16 7.612 17 22.403-18.338 45.904-29.131 64.27-30.236-1.205-2.426-2.734-4.618-4.634-6.518-14.298-14.298-44.522-8.555-75.139 11.863z" fill="#fff5c6"/></g></g><g><path d="m307.913 364.116-19.754-19.754-.707.707c8.844 8.845 10.063 24.34 3.431 43.633-6.714 19.532-20.649 40.526-39.236 59.114-26.383 26.383-58.339 43.43-81.414 43.43-9.097 0-16.274-2.565-21.333-7.625l-.707.707 19.754 19.754c18.876 18.876 65.51 2.845 104.161-35.805 38.65-38.65 54.681-85.285 35.805-104.161z" fill="#c53287"/><g><ellipse cx="218.176" cy="414.345" fill="#fff9e2" rx="98.971" ry="48.335" transform="matrix(.707 -.707 .707 .707 -229.084 275.633)"/></g><g><path d="m213.066 392.317c26.227-26.227 56.121-42.02 78.533-43.577-.984-1.583-2.117-3.055-3.439-4.378-18.876-18.876-65.51-2.845-104.161 35.805-38.651 38.651-54.681 85.285-35.805 104.161 6.067 6.067 15.012 8.51 25.628 7.772-13.062-21.007 3.301-63.84 39.244-99.783z" fill="#fff5c6"/></g></g></g></svg>