<svg id="Layer_1" enable-background="new 0 0 510 510" height="512" viewBox="0 0 510 510" width="512" xmlns="http://www.w3.org/2000/svg"><g id="XMLID_941_"><path id="XMLID_994_" d="m240.044 142.5v15.451c0 16.61-9.177 31.848-23.948 39.766-56.31 30.183-96.052 95.278-96.052 162.283 0 43.577 17.452 82.617 49.142 109.929 29.982 25.839 71.129 40.071 115.858 40.071l10-171.667-10-218.333-24.808 2.404z" fill="#ffe705"/><path id="XMLID_990_" d="m353.995 197.717c-14.773-7.918-23.95-23.156-23.95-39.766v-60.451l-24.865 2.433-20.136 20.067v390c44.732 0 85.876-14.232 115.858-40.071 31.69-27.312 49.142-66.352 49.142-109.929 0-67.015-39.738-132.099-96.049-162.283z" fill="#ffcb00"/><g id="XMLID_982_"><g><g id="XMLID_328_"><path d="m195.044 315h30v30h-30z" fill="#ffcb00"/></g></g></g><g id="XMLID_966_"><path id="XMLID_967_" d="m225.044 375h30v30h-30z" fill="#ffcb00"/></g><path id="XMLID_963_" d="m285.044 0h-45v66.131c-26.058-8.671-54.96-6.057-79.344 7.92l.002 12.127 19.488 11.503c18.975-9.026 41.128-8.712 59.854.889v43.93l45-22.5 10-58.87z" fill="#954c20"/><path id="XMLID_960_" d="m330.044 97.5v-97.5h-45v120z" fill="#7e3e19"/><path id="XMLID_942_" d="m160.701 74.051c-16.421-3.126-58.151-8.075-82.153 15.928-28.626 28.625-16.07 82.477-14.544 88.522l2.191 8.683 8.682 2.191c2.921.736 16.994 4.048 33.992 4.048 18.192 0 39.733-3.794 54.531-18.592 21.847-21.847 19.708-58.381 16.791-77.15z" fill="#ace233"/></g></svg>