<svg id="Capa_1" enable-background="new 0 0 512 512" height="512" viewBox="0 0 512 512" width="512" xmlns="http://www.w3.org/2000/svg"><g><g><g><path d="m151.694 219.766c19.313 0 37.553 4.682 53.646 12.969 9.333-23.65 25.823-44.083 47.299-58.214-.417-1.575-.87-3.147-1.368-4.716-13.363-42.16-52.02-69.648-93.984-71.061-22.156-.746-43.553-8.244-60.966-21.963l-7.807-6.151c-2.763-2.177-6.85-.881-7.855 2.49l-2.839 9.525c-6.331 21.245-19.503 39.699-37.184 53.072-33.488 25.327-49.253 70.064-35.891 112.224 6.64 20.951 19.528 38.276 35.963 50.582 16.073-45.814 59.751-78.757 110.986-78.757z" fill="#fea613"/><path d="m54.393 232.206c2.908 9.176 6.496 17.822 10.605 25.798 21.512-23.486 52.412-38.238 86.696-38.238 19.313 0 37.553 4.682 53.646 12.969 1.113-2.821 2.329-5.595 3.643-8.32-.755-12.459-3.158-25.622-7.359-38.874-13.363-42.16-41.06-73.122-67.829-79.351-14.133-3.289-28.569-12.993-41.2-28.228l-5.663-6.83c-2.004-2.417-4.445-1.643-4.691 1.487l-.695 8.845c-1.549 19.73-7.759 35.977-17.418 46.807-18.292 20.511-23.098 61.775-9.735 103.935z" fill="#fe9901"/><path d="m85.223 80.299c3.169 18.234 3.827 32.305 2.085 40.626-3.301 15.76 2.707 53.596 16.07 95.756 1.271 4.01 2.574 7.948 3.902 11.804 13.711-5.615 28.706-8.719 44.415-8.719 2.19 0 4.366.065 6.527.184-1.686-6.153-3.547-12.467-5.581-18.883-13.363-42.16-30.246-76.549-42.023-87.53-6.218-5.798-13.784-17.679-21.698-34.409l-3.548-7.501c-1.256-2.654-2.072-2.396-1.57.497z" fill="#fea613"/></g></g><g><path d="m342.728 112.85c.033-.048.068-.094.1-.141l6.828-10.055c.963-1.417 2.497-2.23 4.211-2.23s3.248.813 4.211 2.23l6.829 10.056c.032.048.067.093.1.141l19.46-33.706c2.071-3.587.842-8.174-2.745-10.245-3.589-2.072-8.175-.842-10.245 2.745l-10.109 17.51v-25.58c0-4.142-3.357-7.5-7.5-7.5s-7.5 3.358-7.5 7.5v25.579l-10.109-17.51c-2.071-3.587-6.66-4.817-10.245-2.745-3.587 2.071-4.816 6.658-2.745 10.245z" fill="#fdb441"/><g><path d="m428.692 160.277c-25.553-9.056-47.727-25.703-62.958-48.131l-6.828-10.055c-2.417-3.558-7.66-3.558-10.077 0l-6.829 10.056c-15.231 22.428-37.404 39.074-62.958 48.131-34.024 12.058-61.361 38.546-74.61 72 38.422 19.364 64.842 59.186 64.842 105.068 0 17.365-3.788 33.861-10.574 48.71 18.219 10.457 39.29 16.449 61.693 16.449h66.947c68.562 0 124.659-56.097 124.659-124.659.001-54.088-34.908-100.416-83.307-117.569z" fill="#fe9901"/><path d="m398.554 160.277c-15.261-9.056-28.504-25.703-37.6-48.131l-4.078-10.055c-1.443-3.558-4.575-3.558-6.018 0l-4.078 10.055c-9.096 22.428-22.339 39.074-37.6 48.131-28.905 17.153-49.754 63.481-49.754 117.567 0 4.532.15 9.007.436 13.417 6.055 14.159 9.412 29.736 9.412 46.083 0 .73-.014 1.456-.028 2.183 12.866 37.544 37.06 62.976 64.629 62.976h39.982c40.947 0 74.45-56.097 74.45-124.659.001-54.086-20.847-100.414-49.753-117.567z" fill="#fb8801"/><g><g><path d="m347.178 402.504h13.378c13.701 0 24.91-56.097 24.91-124.659 0-54.086-6.976-100.415-16.647-117.567-5.106-9.056-9.537-25.703-12.581-48.131l-1.365-10.055c-.483-3.558-1.531-3.558-2.014 0l-1.365 10.055c-3.044 22.428-7.474 39.074-12.581 48.131-9.672 17.153-16.647 63.481-16.647 117.567.002 68.563 11.212 124.659 24.912 124.659z" fill="#fe9901"/></g></g></g></g><g><g><circle cx="151.694" cy="337.345" fill="#fff9e2" r="118.58"/></g><g><circle cx="151.694" cy="337.345" fill="#fff5c6" r="88.636"/></g><g><path d="m151.694 433.481c-53.009 0-96.136-43.126-96.136-96.136s43.126-96.135 96.136-96.135 96.135 43.126 96.135 96.135-43.125 96.136-96.135 96.136zm0-177.271c-44.738 0-81.136 36.397-81.136 81.135s36.397 81.136 81.136 81.136 81.135-36.397 81.135-81.136-36.396-81.135-81.135-81.135z" fill="#fef0ae"/></g><g><circle cx="151.694" cy="337.345" fill="#fff9e2" r="58.691"/></g><g><path d="m151.694 403.537c-36.498 0-66.191-29.693-66.191-66.191s29.693-66.191 66.191-66.191 66.191 29.693 66.191 66.191-29.693 66.191-66.191 66.191zm0-117.383c-28.227 0-51.191 22.964-51.191 51.191s22.964 51.191 51.191 51.191 51.191-22.964 51.191-51.191c0-28.226-22.964-51.191-51.191-51.191z" fill="#fef0ae"/></g><g><circle cx="151.694" cy="337.345" fill="#fff5c6" r="28.747"/></g><g><path d="m151.694 373.592c-19.986 0-36.247-16.26-36.247-36.247s16.26-36.247 36.247-36.247 36.247 16.26 36.247 36.247-16.26 36.247-36.247 36.247zm0-57.493c-11.715 0-21.247 9.531-21.247 21.247s9.531 21.247 21.247 21.247 21.247-9.531 21.247-21.247-9.531-21.247-21.247-21.247z" fill="#fef0ae"/></g></g></g></svg>