<svg id="Layer_1" enable-background="new 0 0 510.002 510.002" height="512" viewBox="0 0 510.002 510.002" width="512" xmlns="http://www.w3.org/2000/svg"><g id="XMLID_242_"><path id="XMLID_436_" d="m134.398 95.835c-40.341-40.342-116.344-25.954-119.56-25.322l-9.881 1.943-1.943 9.881c-.633 3.217-15.018 79.221 25.322 119.561 6.164 6.165 13.438 11.35 21.772 15.532l84.894-14.929 10.041-93.445c-3.145-4.86-6.696-9.273-10.645-13.221z" fill="#ace233"/><path id="XMLID_430_" d="m217.502 57.794c-57.337 16.576-97.717 68.819-97.498 130.532l37.975 47.175 97.023 25.198 10-61.775-10-71.423z" fill="#df5ccb"/><g id="XMLID_396_"><g><path id="XMLID_326_" d="m506.99 82.337-1.943-9.881-9.882-1.943c-3.217-.632-79.221-15.02-119.56 25.322-3.947 3.946-7.496 8.356-10.639 13.213l16.035 91.453 78.895 16.928c8.333-4.182 15.607-9.367 21.771-15.531 40.341-40.341 25.955-116.344 25.323-119.561z" fill="#70d840"/></g></g><path id="XMLID_432_" d="m292.502 57.794-37.5 69.707v133.198l12.852 37.755 122.145-110.129c.425-59.946-38.77-113.564-97.497-130.531z" fill="#be4dd8"/><path id="XMLID_437_" d="m255.002 127.501 15-30-15-45c-12.763 0-25.354 1.785-37.5 5.293v32.207c0 20.706 16.779 37.5 37.5 37.5z" fill="#be4dd8"/><path id="XMLID_507_" d="m292.502 90.001v-32.207c-12.148-3.509-24.738-5.293-37.5-5.293v75c20.71 0 37.5-16.79 37.5-37.5z" fill="#8e4dd5"/><path id="XMLID_316_" d="m255.002 260.699v123.604c22.462 43.438 67.819 73.198 120 73.198l15-135-15-135c-52.181 0-97.538 29.761-120 73.198z" fill="#df5ccb"/><path id="XMLID_317_" d="m504.709 285.001c-16.803-58.123-69.636-97.5-129.707-97.5v270c60.237 0 112.977-39.557 129.707-97.5l-24.707-37.5z" fill="#be4dd8"/><path id="XMLID_312_" d="m5.295 285.001 9.707 22.5-9.707 52.5c16.77 58.008 69.52 97.5 129.707 97.5l15-135-15-135c-60.25 0-112.968 39.56-129.707 97.5z" fill="#df5ccb"/><path id="XMLID_315_" d="m135.002 187.501v270c74.44 0 135-60.561 135-135 0-74.44-60.561-135-135-135z" fill="#be4dd8"/><path id="XMLID_428_" d="m75.002 322.501c0-20.71-16.79-37.5-37.5-37.5h-32.207c-7.055 24.425-7.064 50.538 0 75h32.207c20.706 0 37.5-16.779 37.5-37.5z" fill="#be4dd8"/><path id="XMLID_433_" d="m504.709 285.001h-32.207c-20.706 0-37.5 16.778-37.5 37.5 0 20.71 16.79 37.5 37.5 37.5h32.207c3.509-12.147 5.293-24.736 5.293-37.5 0-12.765-1.786-25.356-5.293-37.5z" fill="#8e4dd5"/></g></svg>