<svg id="Capa_1" enable-background="new 0 0 512 512" height="512" viewBox="0 0 512 512" width="512" xmlns="http://www.w3.org/2000/svg"><g><g><path d="m392.98 164.781c-.456 2.82-.988 5.631-1.576 8.431 2.75-.265 5.535-.407 8.312-.407 24.142 0 47.973 10.045 65.384 27.561 1.768 1.758 3.454 3.582 5.065 5.461 7-21.624 7.833-44.279 1.86-65.617-8.552-31.317-31.89-59.766-65.782-74.115-12.052-5.188-24.471-8.156-36.756-9.141 21.63 29.844 29.97 67.859 23.493 107.827z" fill="#07b27b"/><path d="m392.98 164.781c-.026.163-.057.326-.084.489l31.601-12.692c3.844-1.543 5.708-5.911 4.165-9.755-1.544-3.844-5.913-5.707-9.755-4.164l-24.093 9.676c-.333 5.435-.938 10.921-1.834 16.446z" fill="#a2e62e"/></g><g><g fill="#00c285"><path d="m213.065 296.249c-.069 1.068-.167 2.117-.266 3.166 1.124-.536 2.234-1.093 3.326-1.68-1.022-.479-2.042-.973-3.06-1.486z"/><path d="m46.896 200.37c17.415-17.519 41.246-27.564 65.388-27.564 3.327 0 6.671.192 9.939.571.837.092 1.671.196 2.503.311-.63-2.957-1.195-5.926-1.677-8.906-6.476-39.97 1.864-77.988 23.493-107.826-12.285.984-24.703 3.953-36.756 9.141-33.892 14.349-57.23 42.798-65.782 74.115-5.667 20.242-5.206 41.67.832 62.279.676-.717 1.361-1.425 2.06-2.121z"/></g><path d="m91.532 152.579 31.601 12.692c-.027-.163-.058-.326-.084-.489-.895-5.525-1.5-11.012-1.834-16.446l-24.093-9.676c-3.841-1.542-8.211.321-9.755 4.164-1.543 3.844.321 8.211 4.165 9.755z" fill="#a2e62e"/></g><g fill="#bbec6c"><g><path d="m194.73 423.285v75.739c0 7.167 5.81 12.976 12.976 12.976 7.167 0 12.976-5.81 12.976-12.976v-75.739z"/><path d="m220.682 389.816v-90.005c-2.109-.874-4.21-1.813-6.3-2.836l-1.323-.647-.113 1.469c-1.469 19.044-7.596 34.591-18.216 46.272v45.747z"/></g><g><path d="m295.347 423.285v75.739c0 7.167 5.81 12.976 12.976 12.976 7.167 0 12.976-5.81 12.976-12.976v-75.739z"/><path d="m321.299 389.816v-41.726c-.682-.624-1.363-1.249-2.019-1.903-11.489-11.518-18.239-27.201-20.061-46.611l-.131-1.385-1.271.564c-.823.365-1.646.718-2.472 1.06v90.001z"/></g></g><g><g><g><path d="m465.808 199.661c-20.654-20.777-48.41-29.867-74.186-27.477-7.21 35.292-24.828 68.823-50.112 95.111-13.705 14.026-28.33 24.523-43.398 31.266 1.603 19.209 8.105 35.948 20.461 48.333 14.738 14.702 35.624 21.146 59.522 20.868 23.761-.463 50.533-7.648 73.877-24.49 23.24-16.76 38.213-40.95 41.113-67.466 3.051-26.319-5.971-54.966-27.277-76.145z" fill="#05e39c"/><g fill="#0ed290"><path d="m341.282 304.605c.304-15.592 3.528-32.478 10.45-48.845-3.251 3.977-6.658 7.83-10.221 11.535-13.705 14.026-28.33 24.523-43.398 31.266 1.603 19.209 8.105 35.948 20.461 48.333 12.091 12.062 28.325 18.556 46.961 20.349-1.158-.999-2.293-2.028-3.385-3.117-14.702-14.736-21.146-35.623-20.868-59.521z"/><path d="m391.619 172.204c-3.313 16.208-8.823 32.043-16.262 46.977 15.825-16.613 36.063-27.178 57.88-29.564 6.883-.798 13.926-.761 20.952.096-18.829-13.688-41.366-19.477-62.57-17.509z"/></g><g fill="#a2e62e"><g><path d="m373.866 282.41v-60.303c-4.393 8.46-9.41 16.613-15 24.363v50.94z"/><path d="m444.584 291.604h-61.525l-15 15h76.525c4.143 0 7.5-3.358 7.5-7.5s-3.357-7.5-7.5-7.5z"/></g><g><path d="m408.374 247.902v-35.759c0-4.142-3.357-7.5-7.5-7.5s-7.5 3.358-7.5 7.5v50.759z"/><path d="m453.326 257.096h-35.76l-15 15h50.76c4.143 0 7.5-3.358 7.5-7.5s-3.357-7.5-7.5-7.5z"/></g><g><path d="m342.578 313.698v-47.534c-.356.377-.708.758-1.067 1.131-4.548 4.655-9.199 8.913-13.933 12.783v48.619z"/><path d="m413.297 322.891h-61.525l-15 15h76.525c4.143 0 7.5-3.358 7.5-7.5s-3.358-7.5-7.5-7.5z"/></g></g></g><g><path d="m435.164 230.306c-2.93-2.929-7.678-2.929-10.607 0l-129.911 129.911v21.214l140.519-140.519c2.928-2.929 2.928-7.678-.001-10.606z" fill="#97d729"/></g></g><g><g><path d="m174.514 267.291c-25.167-26.168-42.738-59.519-50.008-94.639-.721-.097-1.443-.189-2.167-.269-26.321-3.05-54.968 5.973-76.147 27.278-21.305 21.179-30.328 49.826-27.278 76.147 2.901 26.516 17.873 50.706 41.113 67.466 23.343 16.842 50.116 24.027 73.877 24.49 23.898.277 44.785-6.166 59.522-20.868 12.748-12.779 19.278-30.185 20.61-50.164-13.699-6.754-26.995-16.619-39.522-29.441z" fill="#05e39c"/><g><path d="m168.621 333.255c-23.761-.463-50.533-7.648-73.877-24.49-23.24-16.76-38.213-40.95-41.113-67.466-2.199-18.979 1.881-39.166 12.314-56.892-7.041 4.087-13.703 9.166-19.754 15.253-21.305 21.179-30.327 49.826-27.278 76.147 2.901 26.516 17.873 50.706 41.113 67.466 23.343 16.842 50.116 24.027 73.877 24.49 23.898.277 44.785-6.166 59.522-20.868 5.907-5.921 10.459-12.849 13.799-20.552-11.383 4.864-24.458 7.076-38.603 6.912z" fill="#0ed290"/></g><g fill="#a2e62e"><g><path d="m153.134 297.41v-56.744c-5.126-7.677-9.71-15.706-13.697-24.005-.822 1.203-1.303 2.657-1.303 4.224v61.525z"/><path d="m128.941 291.604h-61.525c-4.143 0-7.5 3.358-7.5 7.5s3.357 7.5 7.5 7.5h76.525z"/></g><g><path d="m118.626 262.902v-50.759c0-4.142-3.357-7.5-7.5-7.5s-7.5 3.358-7.5 7.5v35.759z"/><path d="m94.434 257.096h-35.76c-4.143 0-7.5 3.358-7.5 7.5s3.357 7.5 7.5 7.5h50.76z"/></g><g><path d="m184.422 328.698v-52.021c-3.35-2.929-6.655-6.058-9.908-9.387-1.734-1.803-3.431-3.641-5.092-5.511v51.919z"/><path d="m160.229 322.891h-61.526c-4.143 0-7.5 3.358-7.5 7.5s3.357 7.5 7.5 7.5h76.525z"/></g></g></g><g><path d="m221.384 364.246-133.94-133.94c-2.93-2.929-7.678-2.929-10.607 0s-2.929 7.678 0 10.606l144.547 144.548z" fill="#97d729"/></g></g></g><g fill="#a2e62e"><g><path d="m220.384 423.285v75.739c0 7.167 5.81 12.976 12.976 12.976s12.976-5.81 12.976-12.976v-75.739z"/><path d="m246.336 389.816v-83.092c-8.736-1.115-17.416-3.467-25.952-7.036v90.128z"/></g><g><path d="m295.646 389.816v-90.128c-8.532 3.568-17.218 5.918-25.952 7.034v83.094z"/><path d="m269.693 423.285v75.739c0 7.167 5.81 12.976 12.976 12.976 7.167 0 12.976-5.81 12.976-12.976v-75.739z"/></g></g><g><g><path d="m366.361 51.195c-24.379-30.768-63.841-51.327-108.346-51.194-44.506-.133-83.968 20.426-108.347 51.195-24.739 30.816-34.395 71.843-27.606 113.746 6.81 42.098 27.331 77.671 51.737 103.048 24.745 25.326 53.375 40.456 84.216 40.493 30.841-.037 59.472-15.168 84.216-40.494 24.407-25.377 44.926-60.95 51.737-103.048 6.789-41.903-2.868-82.929-27.607-113.746z" fill="#00c285"/></g><path d="m224.798 267.989c-24.406-25.377-44.927-60.95-51.737-103.048-6.789-41.904 2.867-82.93 27.606-113.746 19.595-24.731 48.94-42.855 82.811-48.951-8.246-1.483-16.755-2.27-25.464-2.244-44.506-.133-83.968 20.426-108.347 51.195-24.739 30.816-34.395 71.843-27.606 113.746 6.81 42.098 27.331 77.671 51.737 103.048 21.237 21.736 45.338 35.951 71.24 39.571v-21.845c-6.993-5.149-13.751-11.084-20.24-17.726z" fill="#07b27b"/><g fill="#a2e62e"><g><path d="m345.259 121.107c-2.929-2.928-7.677-2.93-10.607 0l-64.66 64.661v21.214l75.268-75.268c2.928-2.929 2.928-7.678-.001-10.607z"/><path d="m246.038 185.768-64.66-64.661c-2.929-2.929-7.677-2.93-10.607 0-2.929 2.929-2.929 7.678 0 10.606l75.268 75.268v-21.213z"/></g><g><path d="m246.038 113.467-37.668-37.668c-2.93-2.929-7.678-2.929-10.607 0s-2.929 7.678 0 10.606l48.275 48.275z"/><path d="m318.267 75.799c-2.93-2.929-7.678-2.929-10.607 0l-37.668 37.668v21.214l48.275-48.275c2.928-2.929 2.928-7.678 0-10.607z"/></g><g><path d="m246.038 251.32-64.66-64.661c-2.93-2.929-7.678-2.929-10.607 0s-2.929 7.678 0 10.606l75.268 75.268v-21.213z"/><path d="m345.259 186.66c-2.93-2.929-7.678-2.929-10.607 0l-64.66 64.661v21.213l75.268-75.268c2.928-2.929 2.928-7.678-.001-10.606z"/></g></g><g fill="#bbec6c"><path d="m270.991 389.816v-299.417c0-7.167-5.81-12.976-12.976-12.976-7.167 0-12.976 5.81-12.976 12.976v299.417z"/><path d="m245.038 423.285v75.523c0 7.167 5.81 12.976 12.976 12.976 7.167 0 12.976-5.81 12.976-12.976v-75.523z"/></g></g><g><path d="m323.755 424.285h-131.481c-2.905 0-5.259-2.355-5.259-5.259v-24.951c0-2.905 2.355-5.259 5.259-5.259h131.481c2.905 0 5.259 2.355 5.259 5.259v24.951c.001 2.904-2.354 5.259-5.259 5.259z" fill="#fb2b3a"/></g><g><path d="m238.076 419.026v-24.951c0-2.905 2.355-5.259 5.259-5.259h-51.062c-2.905 0-5.259 2.355-5.259 5.259v24.951c0 2.905 2.355 5.259 5.259 5.259h51.062c-2.904 0-5.259-2.355-5.259-5.259z" fill="#e41f2d"/></g></g></svg>