<svg id="Layer_1" enable-background="new 0 0 510.504 510.504" height="512" viewBox="0 0 510.504 510.504" width="512" xmlns="http://www.w3.org/2000/svg"><g id="XMLID_1025_"><g><g id="XMLID_33_"><path d="m155.568 132.443c-56.254 53.43-135.963 147.577-125.227 244.212 8.279 74.549 69.446 112.073 143.056 126.508z" fill="#be4dd8"/></g><g id="XMLID_32_"><path d="m352.379 130.02-17.793 373.633c31.593-5.951 58.631-15.589 80.593-28.758 38.439-23.051 60.302-56.104 64.98-98.239v.002c10.871-97.811-70.524-192.856-127.78-246.638z" fill="#8e4dd5"/></g><g id="XMLID_31_"><path d="m211.527 0-15.177 96.806c-11.875 9.414-26.306 21.888-40.782 35.638-4.21 56.241-5.354 118.263-5.354 183.439 0 66.675 9.105 130.028 23.182 187.281 26.809 5.255 55.173 7.522 81.849 7.327h.004l10-236.238-9.999-274.253z" fill="#df5ccb"/></g><g id="XMLID_30_"><path d="m352.379 130.02c-13.769-12.934-27.294-24.553-38.362-33.318l-17.074-96.702h-41.693v510.49c25.523.211 53.331-1.938 79.336-6.838 14.279-57.023 23.569-120.336 23.569-187.029 0-66.525-1.216-129.694-5.776-186.603z" fill="#be4dd8"/></g></g></g></svg>