<svg id="Layer_1" enable-background="new 0 0 510 510" height="512" viewBox="0 0 510 510" width="512" xmlns="http://www.w3.org/2000/svg"><g id="XMLID_1407_"><path id="XMLID_1460_" d="m195 0v61.798l9 5.827 6-6.555 10-34.82-10-26.25z" fill="#7e3e19"/><path id="XMLID_1480_" d="m225 0h-15v61.07l7.5 6.555 7.5-5.821z" fill="#6a3011"/><path id="XMLID_1473_" d="m60.226 144.184c-38.275 49.724-60.226 112.764-60.226 172.956 0 59.172 21.592 108.665 62.439 143.131 37.189 31.377 89.594 48.659 147.561 48.659l10-244.93-10-202.93c-60.465 0-113.037 35.387-149.774 83.114z" fill="#954c20"/><path d="m328.012 109.825c-35.676-31.895-76.485-48.755-118.012-48.755v447.86c30.505 0 59.114-4.6 85.152-13.681l104.786-279.851c-16.274-41.216-41.617-78.474-71.926-105.573z" fill="#7e3e19"/><path id="XMLID_1409_" d="m210 360c0 82.71 67.29 150 150 150l10-154-10-146c-82.71 0-150 67.29-150 150z" fill="#954c20"/><path id="XMLID_1461_" d="m360 210v300c82.71 0 150-67.29 150-150s-67.29-150-150-150z" fill="#7e3e19"/><path id="XMLID_1456_" d="m240 360c0 66.168 53.832 120 120 120l10-109.5-10-130.5c-66.168 0-120 53.832-120 120z" fill="#fff4f4"/><path id="XMLID_1458_" d="m360 240v240c66.168 0 120-53.832 120-120s-53.832-120-120-120z" fill="#f3e2dd"/><g id="XMLID_1457_"><g><path id="XMLID_558_" d="m405 345h30v30h-30z" fill="#6a3011"/></g></g><path id="XMLID_1481_" d="m345 375h15l10-15-10-15h-15z" fill="#7e3e19"/><path id="XMLID_1475_" d="m360 345h15v30h-15z" fill="#6a3011"/><path id="XMLID_1482_" d="m345 285v30h15l10-15-10-15z" fill="#7e3e19"/><path id="XMLID_1483_" d="m360 285h15v30h-15z" fill="#6a3011"/><path id="XMLID_1485_" d="m345 435h15l10-13.167-10-16.833h-15z" fill="#7e3e19"/><path id="XMLID_1487_" d="m360 405h15v30h-15z" fill="#6a3011"/><g id="XMLID_1455_"><g><path id="XMLID_194_" d="m285 345h30v30h-30z" fill="#7e3e19"/></g></g></g></svg>