<svg id="Capa_1" enable-background="new 0 0 512 512" height="512" viewBox="0 0 512 512" width="512" xmlns="http://www.w3.org/2000/svg"><g><path d="m209.799 480.755 6.514 20.049c2.169 6.676 8.39 11.196 15.409 11.196h48.555c7.019 0 13.24-4.52 15.409-11.196l6.514-20.049z" fill="#dbf4b2"/><path d="m251.195 500.804-6.514-20.049h-34.882l6.514 20.049c2.169 6.676 8.39 11.196 15.41 11.196h34.882c-7.02 0-13.241-4.52-15.41-11.196z" fill="#d1f19e"/><g><path d="m355.566 408.182-21.126-39.936c-8.09-15.293-13.445-31.883-15.824-49.02l-1.59-11.455-37.878 17.663h-1.02c2.731 15.119 7.749 29.652 14.958 43.28l21.125 39.936c8.129 15.367 7.627 33.432-1.343 48.323s-24.703 23.782-42.087 23.782v1h40.471c37.771 0 61.976-40.186 44.314-73.573z" fill="#a2e62e"/><path d="m241.219 480.755c-17.384 0-33.117-8.891-42.087-23.782s-9.472-32.957-1.343-48.323l21.125-39.936c7.209-13.628 12.227-28.161 14.958-43.28h-1.019l-37.879-17.663-1.59 11.455c-2.379 17.137-7.734 33.727-15.824 49.02l-21.126 39.936c-17.661 33.387 6.543 73.573 44.314 73.573h40.471z" fill="#bbec6c"/></g><g><g><path d="m234.845 319.364.843-6.074-79.995-138.554c-18.849-32.647-20.719-70.994-5.629-104.778-22.187-1.712-45.36 3.824-65.999 18.276-64.36 45.065-55.8 142.902 15.407 176.107l134.126 62.544c.476-2.492.897-4.998 1.247-7.521z" fill="#05e39c"/><path d="m234.845 319.364.843-6.074-21.605-37.421-80.183-37.39c-63.322-29.528-77.099-110.163-34.117-159.351-5.359 2.509-10.616 5.534-15.719 9.106-64.36 45.065-55.8 142.902 15.407 176.107l134.126 62.544c.477-2.492.898-4.998 1.248-7.521z" fill="#0ed290"/><path d="m187.735 230.234c-.885.746-1.792 1.468-2.746 2.136-24.055 16.842-62.463 3.641-85.621-29.431-2.375-3.393-7.052-4.219-10.445-1.842-3.394 2.376-4.218 7.052-1.842 10.445 13.294 18.986 31.455 32.971 51.137 39.377 7.727 2.516 15.342 3.762 22.652 3.762 12.026 0 23.226-3.375 32.723-10.025.59-.413 1.153-.856 1.724-1.291z" fill="#bbec6c"/><g><path d="m155.693 174.736c-.091-.158-.175-.319-.265-.477-.743 4.108-2.39 7.2-4.871 8.937-4.478 3.137-12.166 2.224-21.094-2.502-10.641-5.636-21.386-15.715-30.255-28.38-2.375-3.394-7.052-4.219-10.445-1.842-3.394 2.376-4.218 7.052-1.842 10.445 10.206 14.575 22.821 26.306 35.522 33.033 7.668 4.061 14.976 6.099 21.555 6.099 5.678 0 10.812-1.519 15.162-4.565 2.101-1.471 3.913-3.251 5.461-5.283z" fill="#bbec6c"/></g></g><g><path d="m427.936 88.234c-20.64-14.452-43.813-19.988-66-18.276 15.09 33.784 13.22 72.131-5.629 104.778l-79.995 138.554.843 6.074c.35 2.523.771 5.03 1.246 7.522l134.126-62.544c71.209-33.205 79.768-131.042 15.409-176.108z" fill="#05e39c"/><path d="m422.327 202.168c-3.393-2.375-8.069-1.551-10.445 1.842-22.33 31.888-60.065 44.133-84.121 27.288-.986-.69-1.923-1.435-2.837-2.205l-7.583 13.135c.601.458 1.195.922 1.817 1.358 9.854 6.9 21.37 10.175 33.365 10.175 25.531 0 53.227-14.841 71.646-41.147 2.376-3.393 1.552-8.07-1.842-10.446z" fill="#bbec6c"/><g><path d="m423.236 150.472c-3.394-2.376-8.069-1.551-10.445 1.842-8.869 12.666-19.614 22.745-30.255 28.38-8.927 4.727-16.614 5.639-21.094 2.502-2.481-1.737-4.127-4.829-4.871-8.937-.09.158-.174.319-.265.477l-8.929 15.465c1.548 2.032 3.36 3.812 5.461 5.283 4.352 3.047 9.483 4.565 15.162 4.565 6.578 0 13.888-2.039 21.555-6.099 12.701-6.727 25.316-18.458 35.522-33.033 2.377-3.393 1.553-8.069-1.841-10.445z" fill="#bbec6c"/></g></g></g><g><g><path d="m256 350.472 101.173-175.236c44.965-77.883-11.242-175.236-101.173-175.236-89.931 0-146.138 97.353-101.172 175.236z" fill="#00c285"/></g><g><path d="m244.749 240.75-37.825-65.515c-40.441-70.045.961-155.825 75.124-172.382-8.297-1.852-16.998-2.853-26.048-2.853-89.931 0-146.138 97.353-101.172 175.236l79.823 138.258z" fill="#07b27b"/></g><g><path d="m278.145 319.226-18.877-135.981c-.527-3.794-6.009-3.794-6.535 0l-18.877 135.981c-2.379 17.137-7.734 33.727-15.824 49.02l-21.126 39.936c-17.661 33.387 6.543 73.573 44.314 73.573h29.563c37.771 0 61.975-40.186 44.314-73.573l-21.126-39.936c-8.092-15.293-13.447-31.883-15.826-49.02z" fill="#bbec6c"/></g><path d="m325.542 112.212c-4.143 0-7.5 3.358-7.5 7.5 0 46.124-23.856 84.282-54.542 89.691v-61.706c9.697-2.796 18.377-11.019 24.954-23.873 7.416-14.496 11.5-33.602 11.5-53.799 0-4.142-3.357-7.5-7.5-7.5s-7.5 3.358-7.5 7.5c0 30.76-10.229 53.876-21.454 61.249v-67.456c0-4.142-3.357-7.5-7.5-7.5s-7.5 3.358-7.5 7.5v67.455c-11.225-7.373-21.454-30.488-21.454-61.249 0-4.142-3.357-7.5-7.5-7.5s-7.5 3.358-7.5 7.5c0 20.197 4.084 39.303 11.5 53.799 6.577 12.854 15.258 21.078 24.954 23.873v61.706c-30.686-5.409-54.542-43.567-54.542-89.691 0-4.142-3.357-7.5-7.5-7.5s-7.5 3.358-7.5 7.5c0 27.681 7.726 53.797 21.755 73.537 12.487 17.571 28.683 28.373 46.311 31.115l-13.169 94.862c-2.379 17.137-7.734 33.727-15.824 49.02l-21.126 39.936c-17.661 33.387 6.543 73.573 44.314 73.573h13.066c-26.862-10.201-41.062-42.607-26.397-70.328l21.126-39.936c8.09-15.294 13.445-31.883 15.824-49.02l6.879-49.555-6.74-48.552c17.629-2.742 33.824-13.544 46.311-31.115 14.029-19.74 21.755-45.856 21.755-73.537-.001-4.141-3.358-7.499-7.501-7.499z" fill="#a2e62e"/></g></g></svg>