<svg id="Capa_1" enable-background="new 0 0 512 512" height="512" viewBox="0 0 512 512" width="512" xmlns="http://www.w3.org/2000/svg"><g><g><g><g><path d="m107.827 111.582c2.024-2.44 4.431-4.631 7.143-6.511.726-.503.554-1.61-.289-1.874-5.794-1.819-10.77-5.089-14.316-9.304-.329-.391-.329-.975 0-1.367 3.452-4.105 8.258-7.319 13.857-9.166.719-.237.961-1.147.451-1.706-8.09-8.872-11.794-20.051-10.845-30.252.047-.509.459-.92.967-.967 10.201-.949 21.38 2.755 30.252 10.845.559.51 1.469.268 1.706-.451 1.846-5.599 5.06-10.405 9.166-13.857.391-.329.975-.329 1.367 0 4.215 3.546 7.485 8.521 9.304 14.316.265.843 1.371 1.016 1.874.289 1.88-2.713 4.071-5.119 6.511-7.143.392-.325.97-.325 1.362 0 8.329 6.909 13.768 18.259 13.783 31.095 0 .035-.001.07-.004.105l-3.005 37.108c-.042.52-.455.933-.975.975l-37.108 3.005c-.035.003-.07.004-.105.004-12.836-.015-24.186-5.454-31.095-13.783-.326-.391-.326-.969-.001-1.361z" fill="#05e39c"/></g><g><g><path d="m142.443 99.056c-.035.003-.07.004-.105.004-12.836-.015-24.186-5.454-31.095-13.783-.155-.187-.231-.417-.238-.648-4.221 1.9-7.87 4.605-10.639 7.897-.329.391-.329.975 0 1.367 3.546 4.215 8.521 7.485 14.316 9.304.843.265 1.016 1.371.289 1.874-2.713 1.88-5.119 4.071-7.143 6.511-.325.392-.325.97 0 1.362 6.909 8.329 18.259 13.768 31.095 13.783.035 0 .07-.001.105-.004l37.108-3.005c.52-.042.933-.455.975-.975l2.16-26.669z" fill="#0ed290"/></g></g><path d="m172.712 129.926c6.365 6.365 10.251 14.547 11.184 23.375 1.376-1.652 2.87-3.182 4.504-4.536 4.716 3.85 8.35 8.977 10.722 14.949v-6.243c0-14.412-5.612-27.961-15.803-38.152l-38.454-38.454c-2.929-2.928-7.678-2.928-10.606 0-2.929 2.93-2.929 7.678 0 10.607z" fill="#07b27b"/></g><g><g><path d="m404.173 111.582c-2.024-2.44-4.431-4.631-7.143-6.511-.726-.503-.554-1.61.289-1.874 5.794-1.819 10.77-5.089 14.316-9.304.329-.391.329-.975 0-1.367-3.452-4.105-8.258-7.319-13.857-9.166-.719-.237-.961-1.147-.451-1.706 8.09-8.872 11.794-20.051 10.845-30.252-.047-.509-.459-.92-.967-.967-10.201-.949-21.38 2.755-30.252 10.845-.559.51-1.469.268-1.706-.451-1.846-5.599-5.06-10.405-9.166-13.857-.391-.329-.975-.329-1.367 0-4.215 3.546-7.485 8.521-9.304 14.316-.265.843-1.371 1.016-1.874.289-1.88-2.713-4.071-5.119-6.511-7.143-.392-.325-.97-.325-1.362 0-8.329 6.909-13.768 18.259-13.783 31.095 0 .035.001.07.004.105l3.005 37.108c.042.52.455.933.975.975l37.108 3.005c.035.003.07.004.105.004 12.836-.015 24.186-5.454 31.095-13.783.326-.391.326-.969.001-1.361z" fill="#00c285"/></g><g><g><path d="m363.143 88.334c-.003-.036-.004-.073-.004-.11.014-11.735 4.379-22.276 11.311-29.548-1.909-4.678-4.801-8.703-8.369-11.704-.391-.329-.975-.329-1.367 0-4.215 3.546-7.485 8.522-9.304 14.316-.265.843-1.371 1.016-1.874.289-1.88-2.713-4.071-5.119-6.511-7.143-.392-.325-.97-.325-1.362 0-8.329 6.909-13.768 18.259-13.783 31.095 0 .035.001.07.004.105l3.005 37.108c.042.52.455.933.975.975l30.344 2.457z" fill="#07b27b"/></g></g><path d="m323.515 148.765c1.67 1.363 3.19 2.903 4.585 4.567.928-8.84 4.815-17.033 11.188-23.406l38.454-38.454c2.929-2.93 2.929-7.678 0-10.607-2.929-2.928-7.678-2.928-10.606 0l-38.454 38.454c-10.191 10.191-15.803 23.74-15.803 38.152v6.242c2.369-5.972 5.991-11.099 10.636-14.948z" fill="#05e39c"/></g></g><g><g><path d="m382.482 206.239c-4.483-5.409-10.805-9.622-18.186-11.972-.741-.236-.956-1.167-.428-1.738 10.537-11.394 15.332-25.847 14.033-38.991-.05-.505-.457-.912-.962-.962-13.144-1.3-27.597 3.496-38.991 14.033-.571.528-1.502.312-1.738-.428-2.351-7.38-6.563-13.702-11.972-18.185-.392-.325-.97-.325-1.362 0-5.583 4.628-9.883 11.219-12.183 18.908-.255.854-1.384 1.031-1.883.292-2.508-3.714-5.47-6.99-8.79-9.712-.393-.322-.968-.322-1.361 0-1.02.836-1.995 1.741-2.944 2.678.461.024.921.054 1.374.096.731 7.208-.874 14.613-4.577 21.478-.348.645-.333 1.404.042 2.03.375.628 1.03 1.003 1.754 1.003.13 0 .264-.013.399-.039 2.883-.559 5.789-.842 8.638-.842 1.394 0 2.792.068 4.156.203 1.445 14.02-4.259 28.89-15.194 39.845l-15.516 13.192-.791 7.574c.042.52 9.255.933 9.776.975l47.424 3.84c.035.003.07.004.105.004 16.415-.015 30.92-7.01 39.689-17.704.322-.393.322-.968 0-1.361-2.722-3.32-5.998-6.281-9.712-8.79-.739-.499-.561-1.628.292-1.883 7.689-2.3 14.28-6.6 18.908-12.183.325-.391.325-.969 0-1.361z" fill="#0ed290"/><g><path d="m311.022 230.062 26.788-26.789c2.929-2.93 2.929-7.678 0-10.607-2.929-2.928-7.678-2.928-10.606 0l-25.346 25.346c3.814 3.247 6.919 7.335 9.164 12.05z" fill="#05e39c"/></g></g><g><path d="m219.709 223.951c-10.952-10.971-16.657-25.841-15.277-39.794 1.43-.201 2.828-.27 4.222-.27 2.849 0 5.755.283 8.638.842.136.026.27.039.4.039.724 0 1.379-.375 1.754-1.003.374-.627.389-1.386.041-2.03-3.703-6.864-5.308-14.27-4.64-21.415.49-.071.971-.114 1.449-.147-.953-.942-1.932-1.85-2.956-2.69-.393-.322-.968-.322-1.361 0-3.32 2.722-6.281 5.998-8.79 9.712-.499.739-1.628.561-1.883-.292-2.3-7.689-6.6-14.28-12.183-18.908-.392-.325-.97-.325-1.362 0-5.409 4.483-9.622 10.805-11.972 18.185-.236.741-1.167.956-1.738.428-11.394-10.537-25.847-15.332-38.991-14.033-.505.05-.912.457-.962.962-1.3 13.144 3.496 27.597 14.033 38.991.528.571.312 1.502-.428 1.738-7.38 2.351-13.702 6.563-18.186 11.972-.325.392-.325.97 0 1.362 4.628 5.583 11.219 9.883 18.908 12.183.854.255 1.031 1.384.292 1.883-3.714 2.508-6.99 5.47-9.712 8.79-.322.393-.322.968 0 1.361 8.769 10.694 23.274 17.689 39.689 17.704.035 0 .07-.001.105-.004l47.424-3.84c.52-.042 9.733-.455 9.775-.975l-.792-7.574z" fill="#05e39c"/><g><path d="m200.977 230.061c2.249-4.732 5.352-8.833 9.128-12.086l-25.309-25.31c-2.929-2.928-7.678-2.928-10.606 0-2.929 2.93-2.929 7.678 0 10.607z" fill="#0ed290"/></g></g></g><g><path d="m238.113 314.886-37.211 2.419c-.523 0-1.041-.027-1.562-.042v170.085c0 13.615 11.037 24.653 24.653 24.653h13.121l1-6v-191.115z" fill="#05e39c"/><path d="m216.853 487.347v-171.334l-15.951 1.291c-.523 0-1.041-.027-1.562-.042v170.085c0 13.615 11.037 24.653 24.653 24.653h13.121v-.398c-11.519-2.073-20.261-12.139-20.261-24.255z" fill="#0ed290"/><path d="m311.122 317.307-37.235-2.421v191.114l1 6h13.121c13.615 0 24.653-11.037 24.653-24.653v-170.082c-.514.015-1.024.041-1.539.042z" fill="#05e39c"/><path d="m274.887 314.373v197.627h13.121c1.5 0 2.966-.141 4.392-.398v-195.811z" fill="#0ed290"/></g><g><g><path d="m360.301 275.024c-4.483-5.41-10.805-9.622-18.185-11.972-.741-.236-.956-1.167-.428-1.738 10.537-11.394 15.332-25.847 14.033-38.991-.05-.505-.457-.912-.962-.962-13.144-1.3-27.597 3.496-38.991 14.033-.571.528-1.502.312-1.738-.428-2.351-7.38-6.563-13.702-11.972-18.185-.392-.325-.97-.325-1.362 0-5.583 4.628-9.883 11.22-12.183 18.908-.255.854-1.384 1.031-1.883.292-1.039-1.538-2.172-2.98-3.36-4.359l-9.382 7.977v75.698l37.131 3.007c.035.003.07.004.105.004 16.415-.015 30.92-7.01 39.689-17.704.322-.393.322-.968 0-1.361-2.722-3.32-5.998-6.281-9.712-8.79-.739-.499-.561-1.628.292-1.883 7.689-2.3 14.28-6.6 18.908-12.183.325-.393.325-.971 0-1.363z" fill="#00c285"/><path d="m360.301 275.024c-2.74-3.306-6.174-6.158-10.11-8.418-8.823 10.286-23.026 16.977-39.068 16.992-.035 0-.07-.001-.105-.004l-36.131-2.926v34.709l36.131 2.926c.035.003.07.004.105.004 16.415-.015 30.92-7.01 39.689-17.704.322-.393.322-.968 0-1.361-2.722-3.32-5.998-6.281-9.712-8.79-.739-.499-.561-1.628.292-1.883 7.689-2.3 14.28-6.6 18.908-12.183.326-.392.326-.97.001-1.362z" fill="#07b27b"/><path d="m315.629 261.45c-2.929-2.928-7.678-2.928-10.606 0l-31.136 31.137v21.214l41.743-41.743c2.929-2.93 2.929-7.678-.001-10.608z" fill="#0ed290"/></g><g><path d="m228.731 231.621c-1.187 1.379-2.321 2.821-3.359 4.359-.499.739-1.628.561-1.883-.292-2.3-7.689-6.6-14.28-12.183-18.908-.392-.325-.97-.325-1.362 0-5.409 4.483-9.622 10.805-11.972 18.185-.236.741-1.167.956-1.738.428-11.394-10.537-25.847-15.332-38.991-14.033-.505.05-.912.457-.962.962-1.3 13.144 3.496 27.597 14.033 38.991.528.571.312 1.502-.428 1.738-7.38 2.351-13.702 6.563-18.186 11.972-.325.392-.325.97 0 1.362 4.628 5.583 11.219 9.883 18.908 12.183.854.255 1.031 1.384.292 1.883-3.714 2.508-6.99 5.47-9.712 8.79-.322.393-.322.968 0 1.361 8.769 10.694 23.274 17.689 39.689 17.704.035 0 .07-.001.105-.004l37.131-3.007v-75.697z" fill="#00c285"/><path d="m237.113 279.945-32.326 2.618c-.035.003-.07.004-.105.004-16.377-.015-30.849-6.978-39.625-17.63-5.309 2.444-9.888 5.901-13.357 10.086-.325.392-.325.97 0 1.362 4.628 5.583 11.219 9.883 18.908 12.183.854.255 1.031 1.384.292 1.883-3.714 2.508-6.99 5.47-9.712 8.79-.322.393-.322.968 0 1.361 8.769 10.694 23.274 17.689 39.689 17.704.035 0 .07-.001.105-.004l36.131-2.926z" fill="#07b27b"/><path d="m238.113 292.587-31.136-31.137c-2.928-2.928-7.677-2.928-10.606 0-2.929 2.93-2.929 7.678 0 10.607l41.743 41.743v-21.213z" fill="#05e39c"/></g></g><path d="m256.042 254.77-.042.015c-.024 0-.037-.012-.042-.016l-18.845-16.022v273.253h37.773v-273.253z" fill="#05e39c"/><path d="m237.113 238.748v273.252h17.17v-258.655z" fill="#0ed290"/><g><g><path d="m307.6 58.101c-4.272-.422-8.683-.2-13.083.652-.875.17-1.548-.754-1.125-1.538 3.81-7.062 5.43-14.763 4.755-21.982-.047-.508-.458-.918-.966-.966-6.983-.653-14.419.833-21.29 4.377-.705.364-1.533-.115-1.564-.907-.606-15.508-7.435-29.119-17.649-37.495-.393-.322-.968-.322-1.36 0-10.214 8.376-17.043 21.987-17.649 37.495-.031.793-.859 1.271-1.564.907-6.871-3.544-14.306-5.03-21.29-4.377-.508.048-.918.458-.966.966-.675 7.22.946 14.92 4.755 21.982.423.784-.25 1.708-1.125 1.538-4.399-.852-8.81-1.075-13.083-.652-.505.05-.912.457-.962.962-1.361 13.763 3.95 28.965 15.546 40.583.025.025.051.049.078.072l36.249 30.818c.398.338.982.338 1.379 0l36.249-30.818c.027-.023.053-.047.078-.072 11.597-11.618 16.907-26.821 15.546-40.583-.047-.505-.453-.912-.959-.962z" fill="#00c285"/></g><g><g><path d="m246.295 79.286c-.029-.025-.057-.05-.084-.077-12.375-12.398-18.103-28.577-16.804-43.296-4.86-1.518-9.828-2.091-14.59-1.646-.508.048-.918.458-.966.966-.675 7.22.946 14.92 4.755 21.982.423.784-.25 1.708-1.125 1.538-4.4-.852-8.81-1.075-13.083-.652-.505.05-.912.457-.962.962-1.361 13.763 3.95 28.965 15.546 40.583.025.025.051.049.078.072l36.249 30.818c.398.338.982.338 1.379 0l24.944-21.206z" fill="#07b27b"/></g></g><path d="m255.954 126.01c2.836 2.305 5.353 4.975 7.546 7.922v-70.174c0-4.143-3.358-7.5-7.5-7.5s-7.5 3.357-7.5 7.5v70.125c2.171-2.928 4.659-5.581 7.454-7.873z" fill="#0ed290"/></g><g><g><path d="m307.6 183.096c-4.272-.422-8.683-.2-13.083.652-.875.17-1.548-.754-1.125-1.538 3.81-7.062 5.43-14.763 4.755-21.982-.047-.508-.458-.918-.966-.966-6.983-.653-14.419.833-21.29 4.377-.705.364-1.533-.115-1.564-.907-.606-15.508-7.435-29.119-17.649-37.495-.393-.322-.968-.322-1.36 0-10.214 8.376-17.043 21.987-17.649 37.495-.031.793-.859 1.271-1.564.907-6.871-3.544-14.306-5.03-21.29-4.377-.508.048-.918.458-.966.966-.675 7.22.946 14.92 4.755 21.982.423.784-.25 1.708-1.125 1.538-4.399-.852-8.81-1.075-13.083-.652-.505.05-.912.457-.962.962-1.361 13.763 3.95 28.965 15.546 40.583.025.025.051.049.078.072l36.249 30.818c.398.338.982.338 1.379 0l36.249-30.818c.027-.023.053-.047.078-.072 11.597-11.618 16.907-26.821 15.546-40.583-.047-.505-.453-.912-.959-.962z" fill="#05e39c"/></g><g><g><path d="m245.926 205.692c-.028-.024-.056-.049-.082-.076-12.24-12.262-17.845-28.308-16.409-42.834.053-.533.482-.963 1.016-1.016.394-.039.791-.066 1.187-.095-5.558-2.094-11.327-2.924-16.821-2.41-.508.048-.918.458-.966.966-.675 7.22.946 14.92 4.755 21.982.423.784-.25 1.708-1.125 1.538-4.4-.852-8.81-1.075-13.083-.652-.505.05-.912.457-.962.962-1.361 13.763 3.95 28.965 15.546 40.583.025.025.051.049.078.072l36.249 30.818c.398.338.982.338 1.379 0l23.929-20.344z" fill="#0ed290"/></g></g><path d="m263.5 188.752c0-4.143-3.358-7.5-7.5-7.5s-7.5 3.357-7.5 7.5v60.989l6.81 5.79c.398.338.982.338 1.379 0l6.81-5.79v-60.989z" fill="#00c285"/></g></g></svg>