<svg id="Layer_1" enable-background="new 0 0 509.23 509.23" height="512" viewBox="0 0 509.23 509.23" width="512" xmlns="http://www.w3.org/2000/svg"><g id="XMLID_1161_"><path id="XMLID_1191_" d="m247.09 42.659c-29.543-21.964-76.99-10.899-82.645-9.473l-8.684 2.19-2.191 8.685c-1.491 5.911-13.518 57.506 12.661 86.54l83.759-23.121z" fill="#ace233"/><path id="XMLID_1187_" d="m239.615 76.664v23.837l5.156 5.354 9.844-.96 10-30.165-10-44.992c-9.535 13.371-15 29.652-15 46.926z" fill="#954c20"/><path id="XMLID_1180_" d="m294.871 0c-16.662 5.555-30.562 16.142-40.256 29.738v75.157l7.062 3.147 7.938-7.438v-23.94c0-21.904 13.961-41.276 34.742-48.203z" fill="#7e3e19"/><path id="XMLID_1174_" d="m248.691 103.691c-26.241-11.129-53.396-5.837-72.647 14.161-14.231 14.793-19.008 32.882-26.712 47.002-8.991 16.506-20.693 31.248-30.953 43.49-31.193 37.214-44.176 84.433-38.59 140.349 5.644 56.392 34.475 104.857 79.1 132.969 28.629 18.035 61.73 27.568 95.727 27.568l10-200-10-204.335c-2.016.001-4.032-.401-5.925-1.204z" fill="#ffe705"/><path id="XMLID_1164_" d="m390.851 208.346c-10.259-12.242-21.96-26.982-30.958-43.5-7.733-14.171-12.443-32.164-26.711-46.998-19.246-19.993-46.404-25.286-72.647-14.155-1.889.802-3.904 1.203-5.92 1.203v404.334c33.996 0 67.098-9.533 95.725-27.568 44.625-28.111 73.457-76.576 79.102-132.971 5.585-55.914-7.399-103.132-38.591-140.345z" fill="#ffcb00"/></g></svg>