<svg id="Layer_1" enable-background="new 0 0 510.009 510.009" height="512" viewBox="0 0 510.009 510.009" width="512" xmlns="http://www.w3.org/2000/svg"><g id="XMLID_1355_"><path id="XMLID_1538_" d="m255.014 303.042-45-123.43-123.938-26.97c-3.577 2.568-5.684 4.19-6.972 5.148-94.2 69.684-107.509 207.578-22.391 293.33 37.44 37.72 87.129 58.492 139.91 58.492 3.293-.409 27.918 2.984 58.381-15.006.003.002.007.004.01.006l15-105z" fill="#ffcb00"/><path id="XMLID_1098_" d="m428.309 156.773c-1.609-1.214-3.228-2.408-4.855-3.586l-108.439 26.426-60 123.43v191.57c16.642 9.814 34.666 15 52.128 15h7.872c52.075 0 101.044-20.282 137.889-57.115 36.444-36.456 56.724-84.903 57.102-136.413.464-62.615-30.073-122.156-81.697-159.312z" fill="#ff9d21"/><path id="XMLID_1415_" d="m240.014 76.501c-7.398 1.902-14.243 5.179-20.25 9.541-5.492 3.994-12.758 4.116-18.311.65-12.02-7.1-25.56-12.08-39.88-12.08-49.71 0-90 60-90 60s6.11 9.09 16.5 20.2c16.3 17.42 43.14 39.8 73.5 39.8 4.64 0 9.2-.52 13.64-1.47 10.86-2.32 20.791 6.43 19.9 17.489-.06.851-.1 1.66-.1 2.42 0 49.711 60 89.99 60 89.99l15-78.43-15-60z" fill="#ace233"/><path id="XMLID_1444_" d="m348.453 74.613c-14.319 0-27.859 4.98-39.88 12.08-5.562 3.472-12.829 3.336-18.31-.65-6.007-4.361-12.852-7.638-20.248-9.54l-15.002 88.11v138.43s60-40.279 60-89.99c0-.76-.04-1.569-.101-2.42-.89-11.06 9.04-19.81 19.9-17.489 4.44.95 9 1.47 13.64 1.47 30.36 0 57.2-22.38 73.5-39.8 10.391-11.11 16.5-20.2 16.5-20.2s-40.289-60.001-89.999-60.001z" fill="#70d840"/><path id="XMLID_1599_" d="m240.014 77.046v87.566h15l10-60-10-74.492c-9.535 13.371-15 29.652-15 46.926z" fill="#70d840"/><path id="XMLID_1640_" d="m295.271.382c-16.663 5.555-30.563 16.143-40.257 29.738v134.492h15v-87.566c0-21.904 13.962-41.276 34.743-48.203z" fill="#00cb75"/></g></svg>