<svg id="Capa_1" enable-background="new 0 0 512 512" height="512" viewBox="0 0 512 512" width="512" xmlns="http://www.w3.org/2000/svg"><g><path d="m190.562 409.981 2.502-.999v-105.919l-2.488-1h-37.654l-2.841 1v105.919l2.857.999z" fill="#bbec6c"/><path d="m357.889 409.981 2.547-.999v-105.919l-2.533-1h-37.654l-2.796 1v105.919l2.811.999z" fill="#bbec6c"/><path d="m360.436 462.496v-53.514h-42.983v53.514c-2.636 2.772-4.263 6.511-4.263 10.637v23.414c0 8.534 6.918 15.453 15.453 15.453h20.604c8.534 0 15.453-6.919 15.453-15.453v-23.414c-.001-4.126-1.628-7.865-4.264-10.637z" fill="#fff5c6"/><path d="m330.173 496.547v-23.414c0-4.126 1.627-7.866 4.263-10.637v-53.514h-16.983v53.514c-2.636 2.772-4.263 6.511-4.263 10.637v23.414c0 8.534 6.918 15.453 15.453 15.453h16.983c-8.535 0-15.453-6.919-15.453-15.453z" fill="#fef0ae"/><path d="m193.064 462.496v-53.514h-42.983v53.514c-2.635 2.772-4.263 6.511-4.263 10.637v23.414c0 8.534 6.918 15.453 15.453 15.453h20.604c8.534 0 15.453-6.919 15.453-15.453v-23.414c-.001-4.126-1.629-7.865-4.264-10.637z" fill="#fff5c6"/><path d="m163.284 496.547v-23.414c0-4.126 1.628-7.866 4.263-10.637v-53.514h-17.466v53.514c-2.635 2.772-4.263 6.511-4.263 10.637v23.414c0 8.534 6.918 15.453 15.453 15.453h17.466c-8.535 0-15.453-6.919-15.453-15.453z" fill="#fef0ae"/><g><g><g><path d="m150.081 303.063h17.324v105.919h-17.324z" fill="#a2e62e"/></g><path d="m170.503 155.821 17.858-111.356c.164-1.02 1.031-1.76 2.062-1.76.121 0 .243.01.366.032l2.275.401v-40.047c0-1.707-1.384-3.091-3.091-3.091h-36.802c-1.707 0-3.091 1.384-3.091 3.091v62.878z" fill="#00c285"/><path d="m167.404 142.188v-122.099c0-1.707 1.384-3.091 3.091-3.091h22.569v-13.907c0-1.707-1.384-3.091-3.091-3.091h-36.802c-1.707 0-3.091 1.384-3.091 3.091v62.878z" fill="#07b27b"/><path d="m181.667 204.941 18.77-60.307c.273-.879 1.075-1.469 1.996-1.469h12.614l14.672-91.489c.267-1.667-.852-3.24-2.515-3.533l-36.242-6.391c-1.699-.3-3.315.85-3.588 2.554l-17.465 108.902z" fill="#05e39c"/><path d="m180.599 200.24 21.633-134.893c.273-1.704 1.889-2.854 3.588-2.554l21.508 3.792 2.391-14.91c.267-1.667-.852-3.24-2.515-3.533l-36.242-6.39c-1.699-.3-3.315.85-3.588 2.554l-17.465 108.902z" fill="#0ed290"/><path d="m119.028 118.626 7.211-2.625c.232-.084.472-.127.715-.127.896 0 1.691.57 1.98 1.42l41.746 122.952 11.581-37.209-39.77-174.974c-.389-1.71-2.12-2.754-3.814-2.3l-35.543 9.524c-1.604.43-2.582 2.051-2.214 3.67z" fill="#05e39c"/><path d="m119.028 118.626 7.211-2.625c.232-.084.472-.127.715-.127.896 0 1.691.57 1.98 1.42l33.071 97.402-36.76-161.734c-.368-1.62.61-3.24 2.214-3.67l18.718-5.015-3.685-16.214c-.389-1.71-2.12-2.754-3.814-2.3l-35.544 9.524c-1.604.43-2.582 2.051-2.214 3.67z" fill="#0ed290"/><path d="m92.019 130.601 58.062 172.462h42.983l-63.184-186.091c-.557-1.641-2.355-2.503-3.983-1.911l-32.006 11.649c-1.576.575-2.407 2.301-1.872 3.891z" fill="#00c285"/><path d="m113.997 139.863c-.535-1.59.296-3.316 1.872-3.89l18.212-6.628-4.201-12.372c-.557-1.641-2.355-2.503-3.984-1.911l-32.005 11.649c-1.576.574-2.407 2.3-1.872 3.89l58.062 172.462h18.86z" fill="#07b27b"/><path d="m199.482 144.337-49.401 158.726h42.983l48.04-156.903c.608-1.987-.878-3.995-2.955-3.995h-35.716c-1.353 0-2.549.88-2.951 2.172z" fill="#00c285"/><path d="m212.685 161.335c.402-1.292 1.598-2.172 2.951-2.172h21.487l3.981-13.003c.608-1.987-.878-3.995-2.955-3.995h-35.716c-1.353 0-2.549.88-2.951 2.172l-49.401 158.726h18.493z" fill="#07b27b"/></g><g><path d="m317.453 303.063h16.983v105.919h-16.983z" fill="#a2e62e"/><path d="m340.865 227.98 19.571-65.695v-141.681c0-1.707-1.384-3.091-3.091-3.091h-36.802c-1.707 0-3.091 1.384-3.091 3.091v112.569z" fill="#05e39c"/><path d="m335.324 205.539v-164.847c0-1.707 1.384-3.091 3.091-3.091h22.022v-16.997c0-1.707-1.384-3.091-3.091-3.091h-36.802c-1.707 0-3.091 1.384-3.091 3.091v112.569z" fill="#0ed290"/><path d="m420.018 100.609-59.582 202.454h-42.983l63.263-212.354c.508-1.705 2.347-2.63 4.019-2.022l33.374 8.15c1.531.557 2.367 2.208 1.909 3.772z" fill="#00c285"/><path d="m391.704 114.728c.508-1.705 2.347-2.63 4.019-2.022l19.345 4.724 4.951-16.822c.458-1.564-.378-3.215-1.909-3.772l-33.374-8.15c-1.672-.608-3.511.317-4.019 2.022l-63.263 212.354h18.143z" fill="#07b27b"/><path d="m295.5 40.101 64.936 262.962h-42.983l-62.063-251.95c-.378-1.533.461-3.104 1.944-3.643l34.113-9.515c1.72-.626 3.604.371 4.053 2.146z" fill="#00c285"/><path d="m279.726 67.43c-.378-1.533.461-3.103 1.944-3.643l18.411-5.135-4.581-18.551c-.449-1.775-2.333-2.772-4.053-2.146l-34.113 9.515c-1.483.54-2.321 2.111-1.944 3.643l62.064 251.95h20.317z" fill="#07b27b"/></g></g></g></svg>