<svg id="Capa_1" enable-background="new 0 0 512 512" height="512" viewBox="0 0 512 512" width="512" xmlns="http://www.w3.org/2000/svg"><g><g><g><path d="m212.998 145.534c13.194 24.616 23.653 52.604 31.189 83.546 6.563 26.944 10.022 52.642 11.794 74.097 1.704-20.633 4.968-45.185 11.051-70.996l-12.587-46.974c-10.529-39.295-23.307-77.952-38.271-115.78l-23.859-60.321c-.451-1.139-2.157-.682-1.978.53l9.497 64.17c3.56 24.059 7.963 47.98 13.164 71.728z" fill="#05e39c"/></g><g><path d="m255.981 303.178c1.772-21.458 5.231-47.154 11.794-74.097 7.536-30.942 17.995-58.93 31.189-83.546 5.201-23.749 9.604-47.67 13.165-71.729l9.497-64.17c.179-1.212-1.527-1.669-1.978-.53l-23.861 60.32c-14.964 37.829-27.742 76.487-38.271 115.782l-12.586 46.973c6.083 25.813 9.347 50.366 11.051 70.997z" fill="#05e39c"/></g></g><g fill="#07b27b"><path d="m278.355 388.949v123.051h25.919c2.761 0 5-2.239 5-5v-118.051z"/><path d="m426.38 75.755c-121.462 54.169-144.212 190.368-147.836 257.478h32.23c12.105-154.821 94.543-236.454 116.704-255.761.888-.773-.022-2.196-1.098-1.717z"/></g><g><path d="m255.966 302.55c2.104-25.095 6.531-55.811 15.475-87.653v-27.802c0-40.681-2.337-81.328-7-121.741l-7.436-64.442c-.14-1.217-1.907-1.217-2.048 0l-7.436 64.442c-4.663 40.413-7 81.06-7 121.741v27.949c8.998 32.15 13.369 63.073 15.445 87.506z" fill="#07b27b"/></g><g fill="#07b27b"><path d="m233.418 333.233c-3.623-67.103-26.369-203.281-147.798-257.461-1.077-.48-1.987.944-1.097 1.718 22.268 19.338 104.947 100.969 117.09 255.744h31.805z"/><path d="m203.118 388.949v118.051c0 2.761 2.239 5 5 5h25.489v-123.051z"/></g><g><g fill="#00c285"><path d="m258.648 333.233c-1.518-65.639-18.766-228.29-148.538-290.347-1.063-.508-2.01.887-1.147 1.689 22.399 20.818 109.646 112.772 118.205 288.658z"/><path d="m227.854 388.949h30.489v123.051h-30.489z"/></g><g fill="#0ed290"><path d="m253.62 388.949h30.489v123.051h-30.489z"/><path d="m401.852 42.886c-129.772 62.057-147.021 224.709-148.538 290.347h31.48c8.559-175.887 95.806-267.84 118.205-288.658.863-.802-.084-2.197-1.147-1.689z"/></g></g><path d="m322.973 350.79v-8.254c0-5.69-4.612-10.302-10.302-10.302h-113.38c-5.69 0-10.302 4.612-10.302 10.302v8.254c0 5.69 4.612 10.302 10.302 10.302-5.69 0-10.302 4.612-10.302 10.302v8.254c0 5.69 4.612 10.302 10.302 10.302h113.38c5.69 0 10.302-4.612 10.302-10.302v-8.254c0-5.69-4.612-10.302-10.302-10.302 5.69 0 10.302-4.613 10.302-10.302z" fill="#fb2b3a"/><path d="m236.063 363.437c1.492-1.228 1.492-3.463 0-4.691-2.294-1.889-3.757-4.752-3.757-7.956v-8.254c0-5.69 4.612-10.302 10.302-10.302h-43.317c-5.69 0-10.302 4.612-10.302 10.302v8.254c0 5.69 4.612 10.302 10.302 10.302-5.69 0-10.302 4.612-10.302 10.302v8.254c0 5.69 4.612 10.302 10.302 10.302h43.317c-5.69 0-10.302-4.612-10.302-10.302v-8.254c0-3.205 1.463-6.068 3.757-7.957z" fill="#e41f2d"/><g><path d="m396.656 246.888-18.922 18.922c-1.207 1.207-3.164 1.207-4.371 0l-13.841-13.841c-1.207-1.207-1.207-3.164 0-4.371l18.922-18.922c1.207-1.207 3.164-1.207 4.371 0l13.841 13.841c1.207 1.207 1.207 3.164 0 4.371z" fill="#00c285"/><path d="m390.455 236.317-12.721 12.721c-1.207 1.207-3.164 1.207-4.371 0l-7.64-7.64-6.201 6.201c-1.207 1.207-1.207 3.164 0 4.371l13.841 13.84c1.207 1.207 3.164 1.207 4.371 0l18.922-18.922c1.207-1.207 1.207-3.164 0-4.371z" fill="#07b27b"/><path d="m75.375 274.336-18.922 18.922c-1.207 1.207-3.164 1.207-4.371 0l-13.841-13.84c-1.207-1.207-1.207-3.164 0-4.371l18.922-18.922c1.207-1.207 3.164-1.207 4.371 0l13.841 13.841c1.207 1.206 1.207 3.163 0 4.37z" fill="#00c285"/><path d="m54.962 279.417c-1.207-1.207-1.207-3.164 0-4.371l12.747-12.746-6.175-6.175c-1.207-1.207-3.164-1.207-4.371 0l-18.922 18.922c-1.207 1.207-1.207 3.164 0 4.371l13.841 13.841c1.207 1.207 3.164 1.207 4.371 0l6.175-6.175z" fill="#07b27b"/><path d="m112.461 175.142-18.922 18.922c-1.207 1.207-3.164 1.207-4.371 0l-13.841-13.841c-1.207-1.207-1.207-3.164 0-4.371l18.922-18.922c1.207-1.207 3.164-1.207 4.371 0l13.841 13.841c1.207 1.208 1.207 3.165 0 4.371z" fill="#00c285"/><path d="m106.162 164.472-12.622 12.622c-1.207 1.207-3.164 1.207-4.371 0l-7.541-7.541-6.299 6.299c-1.207 1.207-1.207 3.164 0 4.371l13.841 13.841c1.207 1.207 3.164 1.207 4.371 0l18.922-18.922c1.207-1.207 1.207-3.164 0-4.371z" fill="#07b27b"/><path d="m415.666 190.974-18.922-18.922c-1.207-1.207-1.207-3.164 0-4.371l13.841-13.841c1.207-1.207 3.164-1.207 4.371 0l18.922 18.922c1.207 1.207 1.207 3.164 0 4.371l-13.841 13.84c-1.207 1.208-3.164 1.208-4.371.001z" fill="#00c285"/><path d="m412.962 172.052c-1.207-1.207-1.207-3.164 0-4.371l7.917-7.917-5.923-5.923c-1.207-1.207-3.164-1.207-4.371 0l-13.841 13.841c-1.207 1.207-1.207 3.164 0 4.371l18.922 18.922c1.207 1.207 3.164 1.207 4.371 0l5.923-5.923z" fill="#07b27b"/><path d="m131.176 265.81-18.922-18.922c-1.207-1.207-1.207-3.164 0-4.371l13.841-13.841c1.207-1.207 3.164-1.207 4.371 0l18.922 18.922c1.207 1.207 1.207 3.164 0 4.371l-13.841 13.841c-1.208 1.207-3.164 1.207-4.371 0z" fill="#00c285"/><path d="m128.962 246.888c-1.207-1.207-1.207-3.164 0-4.371l7.672-7.672-6.169-6.169c-1.207-1.207-3.164-1.207-4.371 0l-13.841 13.841c-1.207 1.207-1.207 3.164 0 4.371l18.922 18.922c1.207 1.207 3.164 1.207 4.371 0l6.169-6.169z" fill="#07b27b"/><path d="m455.547 267.207-18.922-18.922c-1.207-1.207-1.207-3.164 0-4.371l13.841-13.84c1.207-1.207 3.164-1.207 4.371 0l18.922 18.922c1.207 1.207 1.207 3.164 0 4.371l-13.84 13.841c-1.208 1.206-3.165 1.206-4.372-.001z" fill="#00c285"/><path d="m452.962 248.285c-1.207-1.207-1.207-3.164 0-4.371l7.858-7.858-5.983-5.983c-1.207-1.207-3.164-1.207-4.371 0l-13.84 13.841c-1.207 1.207-1.207 3.164 0 4.371l18.922 18.922c1.207 1.207 3.164 1.207 4.371 0l5.983-5.983z" fill="#07b27b"/></g></g></svg>