<svg id="Layer_1" enable-background="new 0 0 509.292 509.292" height="512" viewBox="0 0 509.292 509.292" width="512" xmlns="http://www.w3.org/2000/svg"><g id="XMLID_1220_"><path id="XMLID_1266_" d="m244.544 9.203c-15.105 13.761-29.906 29.792-39.897 47.612l15.499 19.08 34.5 10.903 10-37.903-10-48.895c-11.442 10.425-9.963 9.077-10.102 9.203z" fill="#ff1f3d"/><path id="XMLID_1263_" d="m254.646 0v86.799l39.5-5.653s10.524-24.283 10.49-24.344c-16.192-28.918-43.948-50.756-49.99-56.802z" fill="#e20059"/><g id="XMLID_1259_"><g><path id="XMLID_461_" d="m159.271 29.573 15.663 90.368c-78.439 32.142-130.288 108.685-130.288 194.35 0 114.432 92.288 195.001 210 195.001l10-216.646-10-205.847z" fill="#ff6326"/></g></g><path id="XMLID_1256_" d="m74.646 314.271c0-77.138 49.036-145.645 122.021-170.469 18.604-6.329 29.271-8.23 57.979-15.656l10.257 181.002-10.194 170.311-15.062-.68c-96.478-6.322-165.001-73.549-165.001-164.508z" fill="#fff4f4"/><g id="XMLID_1252_"><g><path id="XMLID_267_" d="m179.646 224.291h30v30h-30z" fill="#ff1f3d"/></g></g><g id="XMLID_1248_"><g><path id="XMLID_353_" d="m334.357 119.941 15.664-90.368-95.375 57.226v422.493c117.666 0 210-80.523 210-195.001 0-85.665-51.849-162.208-130.289-194.35z" fill="#ff1f3d"/></g></g><g id="XMLID_1244_"><g><path id="XMLID_286_" d="m179.646 299.291h30v30h-30z" fill="#ff1f3d"/></g></g><g id="XMLID_1240_"><g><path id="XMLID_373_" d="m179.646 374.291h30v30h-30z" fill="#ff1f3d"/></g></g><g id="XMLID_1234_"><g><path id="XMLID_377_" d="m119.646 269.291h30v30h-30z" fill="#ff1f3d"/></g></g><g id="XMLID_1221_"><g><path id="XMLID_341_" d="m119.646 329.291h30v30h-30z" fill="#ff1f3d"/></g></g></g></svg>