<svg id="Capa_1" enable-background="new 0 0 512 512" height="512" viewBox="0 0 512 512" width="512" xmlns="http://www.w3.org/2000/svg"><g><g><g><g><path d="m181.517 160.052c-6.585 8.79-10.349 20.21-10.439 32.456-20.294-11.475-43.16-12.901-61.39-5.597 2.789 19.44 15.457 38.53 35.542 50.367-10.56 6.2-18.568 15.17-22.888 25.268 12.731 9.536 30.974 13.166 49.257 8.267 4.788-1.283 9.278-3.074 13.411-5.28 7.995-4.267 16.906-6.522 25.968-6.522h23.591l-11.796-20.43c-4.531-7.848-7.034-16.693-7.336-25.75-.156-4.683-.85-9.467-2.133-14.255-4.898-18.283-17.163-32.267-31.787-38.524z" fill="#05e39c"/></g><g><g><path d="m217.009 224.127h-6.03c-9.062 0-17.973 2.255-25.968 6.522-4.134 2.206-8.623 3.997-13.411 5.28-9.034 2.421-18.057 2.752-26.411 1.324.014.008.028.018.042.026-10.56 6.2-18.568 15.17-22.888 25.268 12.731 9.536 30.974 13.166 49.257 8.267 4.788-1.283 9.278-3.074 13.411-5.28 7.995-4.267 16.906-6.522 25.968-6.522h23.591l-11.796-20.43c-2.618-4.535-4.535-9.407-5.765-14.455z" fill="#0ed290"/></g></g><g><path d="m244.275 255.955-68.873-39.764c-3.589-2.07-8.175-.843-10.245 2.745-2.071 3.587-.842 8.174 2.745 10.245l76.373 44.094z" fill="#00c285"/></g></g><g><g><path d="m320.034 160.052c6.585 8.79 10.349 20.21 10.439 32.456 20.294-11.475 43.16-12.901 61.39-5.597-2.789 19.44-15.457 38.53-35.542 50.367 10.56 6.2 18.568 15.17 22.888 25.268-12.731 9.536-30.974 13.166-49.257 8.267-4.788-1.283-9.278-3.074-13.411-5.28-7.995-4.267-16.906-6.522-25.968-6.522h-23.591l11.796-20.43c4.531-7.848 7.034-16.693 7.336-25.75.156-4.683.85-9.467 2.133-14.255 4.898-18.283 17.163-32.267 31.787-38.524z" fill="#05e39c"/></g><g><g><path d="m313.124 246.964c4.531-7.848 7.033-16.693 7.336-25.75.156-4.683.85-9.467 2.133-14.255 1.734-6.472 4.406-12.39 7.764-17.633-.661-11.033-4.311-21.25-10.322-29.274-14.624 6.257-26.889 20.241-31.788 38.524-1.283 4.788-1.977 9.572-2.133 14.255-.302 9.057-2.804 17.902-7.336 25.75l-11.795 20.43h23.591c4.907 0 9.763.683 14.459 1.967z" fill="#0ed290"/></g></g><g><path d="m336.395 218.937c-2.07-3.588-6.659-4.814-10.245-2.745l-68.874 39.764v17.32l76.374-44.094c3.586-2.072 4.816-6.659 2.745-10.245z" fill="#07b27b"/></g></g><g><path d="m325.703 82.316c-7.433-.891-15.189-.381-22.863 1.492 6.779-11.089 9.589-23.539 8.212-35.031-10.905-1.307-22.677 1.142-33.327 7.188-.21-23.314-10.407-43.829-25.849-55.965-15.441 12.136-25.639 32.651-25.848 55.964-10.65-6.045-22.422-8.495-33.327-7.188-1.378 11.492 1.433 23.942 8.212 35.031-7.674-1.873-15.43-2.383-22.863-1.492-2.362 19.703 5.096 41.679 21.794 58.377 5.607 5.607 11.811 10.162 18.324 13.656 8.793 4.717 15.969 11.964 20.958 20.605l12.75 22.084 12.75-22.084c4.989-8.641 12.165-15.888 20.958-20.605 6.513-3.494 12.717-8.049 18.324-13.656 16.699-16.697 24.157-38.673 21.795-58.376z" fill="#00c285"/></g><g><g><path d="m274.075 140.169c-4.989-8.641-12.165-15.888-20.958-20.605-6.513-3.494-12.717-8.049-18.324-13.656-15.885-15.885-23.387-36.541-22.05-55.478-6.708-1.865-13.529-2.435-20.042-1.654-1.378 11.492 1.433 23.942 8.212 35.032-7.674-1.873-15.43-2.383-22.863-1.492-2.362 19.703 5.096 41.679 21.794 58.377 5.608 5.607 11.811 10.162 18.324 13.656 8.793 4.717 15.969 11.964 20.958 20.605l12.75 22.084 12.75-22.084c4.508-7.808 10.807-14.471 18.466-19.165z" fill="#07b27b"/></g></g><path d="m247.341 269.173c3.837 1.703 7.487 3.847 10.935 6.333v-194.049c0-4.143-3.357-7.5-7.5-7.5s-7.5 3.357-7.5 7.5v194.13c1.224-2.227 2.578-4.372 4.065-6.414z" fill="#0ed290"/></g><g><g><path d="m473.716 346.723c-4.626-5.886-10.471-11.009-17.222-15.112 12.635-3.048 23.426-9.864 30.578-18.964-6.787-8.635-16.843-15.227-28.648-18.483 16.337-16.633 23.632-38.35 21.295-57.85-19.5-2.337-41.217 4.958-57.85 21.295-3.256-11.805-9.848-21.861-18.483-28.648-9.1 7.152-15.916 17.943-18.964 30.578-4.102-6.751-9.226-12.596-15.112-17.222-15.602 12.262-25.868 33.075-25.868 56.69 0 7.93 1.166 15.538 3.301 22.613 2.882 9.553 2.832 19.751.25 29.39l-6.6 24.632 24.632-6.6c9.638-2.583 19.837-2.633 29.389.25 7.076 2.135 14.683 3.301 22.613 3.301 23.614-.002 44.426-10.268 56.689-25.87z" fill="#05e39c"/></g><g><g><path d="m397.159 351.009c2.582-9.638 2.633-19.837-.249-29.39-2.135-7.076-3.301-14.683-3.301-22.613 0-22.141 9.024-41.819 23.01-54.295-3.455-6.237-7.961-11.606-13.234-15.75-9.1 7.152-15.917 17.943-18.964 30.578-4.102-6.751-9.226-12.596-15.112-17.222-15.603 12.262-25.868 33.075-25.868 56.69 0 7.93 1.166 15.538 3.301 22.613 2.882 9.553 2.832 19.751.25 29.39l-6.6 24.632 24.632-6.6c8.968-2.403 18.42-2.61 27.387-.306z" fill="#0ed290"/></g></g><g><g><path d="m316.793 299.736c-10.872 1.56-21.609 6.973-30.331 15.568-6.236-22.465-21.396-39.641-39.452-47.367-11.774 15.719-16.315 38.174-10.483 60.747-11.851-3.083-23.856-2.402-34.051 1.683 2.259 15.745 12.592 31.212 28.984 40.676 4.293 2.478 8.734 4.387 13.217 5.75 8.671 2.636 16.566 7.342 22.974 13.75l16.681 16.681 6.106-22.787c2.346-8.754 6.83-16.777 13.021-23.395 3.201-3.422 6.093-7.295 8.571-11.588 9.464-16.392 10.679-34.953 4.763-49.718z" fill="#00c285"/></g><g><path d="m287.179 362.94c-6.408-6.408-14.303-11.114-22.974-13.75-4.483-1.363-8.924-3.271-13.217-5.75-7.236-4.178-13.286-9.527-17.987-15.551-10.687-2.109-21.341-1.202-30.526 2.478 2.259 15.745 12.592 31.212 28.984 40.676 4.293 2.478 8.734 4.387 13.217 5.75 8.671 2.636 16.566 7.342 22.974 13.75l16.681 16.681 6.106-22.787c1.215-4.535 3.023-8.863 5.33-12.909z" fill="#07b27b"/></g></g><g><g><path d="m414.739 397.682c-1.56 10.872-6.973 21.609-15.568 30.331 22.465 6.236 39.641 21.396 47.367 39.452-15.719 11.774-38.174 16.315-60.747 10.483 3.083 11.851 2.402 23.856-1.683 34.051-15.745-2.259-31.212-12.592-40.676-28.984-2.478-4.293-4.387-8.734-5.75-13.217-2.636-8.671-7.342-16.566-13.75-22.974l-16.681-16.681 22.787-6.106c8.754-2.346 16.777-6.83 23.395-13.021 3.422-3.201 7.295-6.093 11.588-8.571 16.392-9.464 34.953-10.679 49.718-4.763z" fill="#05e39c"/></g><g><g><path d="m346.779 450.307c8.754-2.346 16.777-6.83 23.395-13.021 3.422-3.201 7.295-6.093 11.588-8.571 7.559-4.364 15.579-6.953 23.476-7.919 5.088-7.127 8.349-15.082 9.502-23.114-14.765-5.916-33.326-4.701-49.719 4.763-4.293 2.478-8.166 5.37-11.588 8.571-6.618 6.191-14.641 10.675-23.395 13.021l-22.787 6.106 16.681 16.681c2.42 2.42 4.596 5.054 6.511 7.86z" fill="#0ed290"/></g></g><g><path d="m379.367 441.703-76.818-20.584-12.247 12.247 85.183 22.825c.65.175 1.304.258 1.946.258 3.312 0 6.342-2.21 7.239-5.561 1.072-4-1.302-8.113-5.303-9.185z" fill="#00c285"/><path d="m281.108 424.173 12.247-12.247-20.583-76.817c-1.071-4.001-5.184-6.378-9.186-5.303-4.001 1.071-6.375 5.185-5.303 9.186z" fill="#0ed290"/></g></g></g><g><g><path d="m142.691 314.967c-5.886 4.626-11.009 10.471-15.112 17.222-3.048-12.635-9.864-23.426-18.964-30.578-8.635 6.787-15.227 16.843-18.483 28.648-16.633-16.337-38.35-23.632-57.85-21.295-2.337 19.5 4.958 41.217 21.295 57.85-11.805 3.256-21.861 9.848-28.648 18.483 7.152 9.1 17.943 15.916 30.578 18.964-6.751 4.102-12.596 9.226-17.222 15.112 12.262 15.602 33.075 25.868 56.69 25.868 7.93 0 15.538-1.166 22.613-3.301 9.553-2.882 19.751-2.832 29.39-.25l24.632 6.6-6.6-24.632c-2.583-9.638-2.633-19.837.25-29.389 2.135-7.076 3.301-14.683 3.301-22.613-.002-23.614-10.268-44.427-25.87-56.689z" fill="#00c285"/></g><g><g><path d="m165.223 394.394-18.246-4.889c-9.638-2.582-19.837-2.633-29.389.25-7.076 2.135-14.683 3.301-22.613 3.301-21.419 0-40.531-8.445-53.051-21.658-6.768 3.533-12.577 8.28-16.995 13.9 7.152 9.1 17.943 15.916 30.578 18.964-6.751 4.102-12.596 9.226-17.222 15.112 12.262 15.602 33.075 25.868 56.69 25.868 7.93 0 15.538-1.166 22.613-3.301 9.553-2.882 19.751-2.832 29.389-.25l24.632 6.6-6.6-24.632c-2.572-9.596-2.63-19.748.214-29.265z" fill="#07b27b"/></g></g><g><path d="m186.263 472.002c-1.919 0-3.839-.732-5.304-2.196l-97.16-97.16c-2.929-2.93-2.929-7.678 0-10.607 2.93-2.928 7.678-2.928 10.607 0l97.16 97.16c2.929 2.93 2.929 7.678 0 10.607-1.464 1.464-3.384 2.196-5.303 2.196z" fill="#0ed290"/></g></g><g><path d="m225.193 496.781c-1.919 0-3.839-.732-5.304-2.196-2.929-2.93-2.929-7.678 0-10.607l196.148-196.148c2.93-2.928 7.678-2.928 10.607 0 2.929 2.93 2.929 7.678 0 10.607l-196.147 196.148c-1.465 1.464-3.385 2.196-5.304 2.196z" fill="#07b27b"/></g></g></svg>