<svg id="Layer_1" enable-background="new 0 0 510 510" height="512" viewBox="0 0 510 510" width="512" xmlns="http://www.w3.org/2000/svg"><g id="XMLID_1309_"><g id="XMLID_1325_"><g><g id="XMLID_443_"><path d="m166.047 35.268c-44.821 10.918-85.531 38.514-115.596 78.62-69.38 92.556-68.371 234.229 10.323 325.033 39.723 45.836 92.718 71.079 149.223 71.079l15-255-15-255c-21.972 0-39.626 15.57-43.95 35.268z" fill="#7e3e19"/></g><g><path d="m358.046 99.739c-28.884-32.808-64.686-54.938-104.111-64.483-4.465-20.144-22.47-35.256-43.938-35.256v510c27.541 0 54.199-5.952 79.36-17.706l126.205-271.623c-8.368-45.923-28.15-87.576-57.516-120.932z" fill="#6a3011"/></g></g></g><path id="XMLID_1319_" d="m209.997 360c0 82.71 67.29 150 150 150l15-150-15-150c-82.71 0-150 67.29-150 150z" fill="#954c20"/><path id="XMLID_1332_" d="m359.997 210v300c82.71 0 150-67.29 150-150s-67.29-150-150-150z" fill="#7e3e19"/><path id="XMLID_1311_" d="m239.997 360c0 66.168 53.832 120 120 120l10-120.75-10-119.25c-66.168 0-120 53.832-120 120z" fill="#ace233"/><path id="XMLID_1322_" d="m359.997 240v240c66.168 0 120-53.832 120-120s-53.832-120-120-120z" fill="#70d840"/><path id="XMLID_363_" d="m359.997 285h-15v32.58c-12.764 4.527-22.893 14.656-27.42 27.42h-32.58v30h32.58c4.527 12.764 14.656 22.893 27.42 27.42v32.58h15l6.167-82z" fill="#954c20"/><path id="XMLID_394_" d="m402.417 345c-4.527-12.764-14.656-22.892-27.42-27.42v-32.58h-15v150h15v-32.58c12.764-4.527 22.893-14.656 27.42-27.42h32.58v-30z" fill="#7e3e19"/></g></svg>