<svg id="Capa_1" enable-background="new 0 0 512 512" height="512" viewBox="0 0 512 512" width="512" xmlns="http://www.w3.org/2000/svg"><g><g><path d="m329.371 92.931c0 15.432-5.731 29.542-15.159 40.346.445 1.658.827 3.344 1.134 5.061l.214 1.198 1.134-.442c7.002-2.729 14.366-4.113 21.885-4.113 26.289 0 49.36 16.806 57.41 41.82l.337 1.047 1.01-.435c7.547-3.249 15.562-4.896 23.822-4.896 17.522 0 34.128 7.742 45.479 20.737 7.899-32.813-11.75-66.124-44.54-74.91-8.464-2.268-16.987-2.675-25.141-1.487-1.307-26.359-19.352-50.019-46.215-57.217-10.648-2.853-21.387-2.762-31.368-.247 6.312 9.652 9.998 21.17 9.998 33.538z" fill="#e4f7c6"/></g><g><path d="m90.84 172.517c8.26 0 16.275 1.647 23.822 4.896l1.01.435.337-1.047c8.05-25.014 31.121-41.82 57.41-41.82 7.52 0 14.883 1.384 21.885 4.113l1.134.442.214-1.198c5.142-28.756 30.101-49.628 59.347-49.628 27.925 0 51.928 19.035 58.517 45.787 9.857-11.042 15.856-25.601 15.856-41.566 0-34.491-27.961-62.451-62.451-62.451-25.353 0-47.161 15.116-56.946 36.82-14.251-9.074-32.112-12.375-49.718-7.658-26.863 7.198-44.908 30.858-46.215 57.217-8.154-1.188-16.676-.781-25.141 1.487-32.79 8.786-52.439 42.097-44.54 74.91 11.351-12.997 27.957-20.739 45.479-20.739z" fill="#dbf4b2"/></g><g><path d="m45.35 193.267c5.899-6.757 13.219-12.096 21.349-15.664 7.648-15.697 21.785-28.126 39.975-33 6.752-1.809 13.54-2.434 20.149-2.01 2.702.173 5.089-1.766 5.44-4.451 3.181-24.317 20.606-45.501 45.767-52.243 15.775-4.227 31.757-2.016 45.161 5.018 2.497 1.31 5.56.377 6.933-2.086 10.668-19.141 31.1-32.094 54.569-32.094 16.465 0 31.432 6.382 42.589 16.794-8.162-24.99-31.647-43.052-59.363-43.052-25.353 0-47.161 15.116-56.946 36.82-14.251-9.074-32.112-12.376-49.718-7.658-26.863 7.198-44.908 30.858-46.215 57.217-9.532-1.389-19.567-.597-29.425 2.798-29.494 10.157-47.065 41.092-40.717 71.633.139.665.294 1.322.452 1.978z" fill="#d1f19e"/></g><g><path d="m269.195 431.173c-.008 0-.006 0-.015 0-4.304 0-8.728-.073-13.149-.217-4.492.144-8.916.217-13.214.217-9.319 0-18.333-.353-27.059-1.034l9.01 47.175c.466 2.441 2.601 4.207 5.087 4.207h52.288c2.486 0 4.621-1.766 5.087-4.207l9.009-47.173c-8.721.679-17.731 1.032-27.044 1.032z" fill="#0ed290"/></g><g><path d="m256.034 477.313-8.819-46.177c-1.472.016-2.951.037-4.397.037-9.319 0-18.333-.353-27.059-1.034l9.01 47.175c.466 2.441 2.601 4.207 5.087 4.207h31.266c-2.487 0-4.622-1.766-5.088-4.208z" fill="#00c285"/></g><path d="m421.158 171.518c-8.603 0-16.788 1.779-24.218 4.978-7.937-24.663-31.06-42.514-58.362-42.514-7.851 0-15.349 1.492-22.248 4.181-5.128-28.678-30.178-50.452-60.331-50.452s-55.203 21.774-60.331 50.452c-6.899-2.689-14.397-4.181-22.248-4.181-27.302 0-50.425 17.851-58.362 42.514-7.43-3.199-15.615-4.978-24.218-4.978-22.544 0-42.233 12.176-52.884 30.302 47.588 2.739 66.056 45.832 66.242 46.281l.256.616h.667c9.339 0 18.321.524 26.94 1.557 8.228-28.859 34.766-49.999 66.265-49.999 24.135 0 45.36 12.415 57.672 31.197 12.312-18.782 33.537-31.197 57.672-31.197 31.499 0 58.037 21.141 66.265 49.999 8.62-1.033 17.601-1.557 26.94-1.557h.667l.256-.617c.187-.45 18.646-43.543 66.242-46.282-10.649-18.125-30.338-30.3-52.882-30.3z" fill="#edf9d9"/><path d="m73.216 212.944c9.901-6.861 21.912-10.892 34.87-10.892 6.831 0 13.398 1.122 19.533 3.185 2.583.869 5.378-.417 6.424-2.933 9.225-22.185 31.097-37.788 56.622-37.788 5.888 0 11.578.839 16.966 2.393 2.807.81 5.727-.779 6.499-3.596 7.118-25.976 30.88-45.068 59.115-45.068 16.525 0 31.509 6.55 42.529 17.182-6.185-27.316-30.589-47.717-59.776-47.717-30.153 0-55.203 21.774-60.331 50.452-6.899-2.689-14.397-4.181-22.248-4.181-27.302 0-50.425 17.851-58.362 42.514-8.097-3.486-17.091-5.286-26.544-4.934-21.419.796-40.179 12.778-50.511 30.261 14.258.829 25.896 5.282 35.214 11.122z" fill="#e4f7c6"/><path d="m207.277 278.846c20.972 15.833 37.051 37.825 47.79 65.363l.932 2.389.932-2.389c10.739-27.538 26.818-49.529 47.791-65.363 20.559-15.521 45.875-25.097 75.496-28.607-7.904-29.354-34.695-50.964-66.546-50.964-24.135 0-45.36 12.415-57.672 31.197-12.312-18.782-33.537-31.197-57.672-31.197-31.851 0-58.642 21.61-66.546 50.964 29.62 3.51 54.937 13.087 75.495 28.607z" fill="#dbf4b2"/><path d="m167.115 257.975c8.24-28.428 34.281-49.284 65.272-49.692-10.046-5.728-21.667-9.008-34.06-9.008-31.851 0-58.642 21.61-66.546 50.964 12.565 1.489 24.353 4.072 35.334 7.736z" fill="#d1f19e"/><path d="m510.521 205.833c-76.467-23.665-103.645 41.884-103.645 41.884-91.292 0-132.436 48.839-150.877 96.128-18.441-47.289-59.585-96.128-150.877-96.128 0 0-27.179-65.549-103.645-41.884-1.378.427-1.929 2.082-1.057 3.232 5.663 7.469 23.349 32.461 34.244 66.508 12.782 39.943 34.916 162.45 221.336 156.382 186.42 6.069 208.554-116.439 221.336-156.382 10.895-34.047 28.581-59.039 34.244-66.508.87-1.149.319-2.805-1.059-3.232z" fill="#05e39c"/><g><g><g><path d="m510.523 205.834c-76.467-23.666-103.646 41.884-103.646 41.884-91.292 0-132.436 48.839-150.877 96.128 7.201 18.466 10.94 36.692 12.851 51.685 13.635-52.247 51.409-117.174 154.879-118.493 1.913-.024 3.661-1.078 4.532-2.781 5.106-9.989 25.572-43.695 69.516-44.261 5.939-10.195 11.171-17.458 13.803-20.932.871-1.15.32-2.804-1.058-3.23z" fill="#0ed290"/></g><g><path d="m418.713 291.716c-3.326-2.467-8.024-1.771-10.492 1.556-41.644 56.149-103.119 96.832-137.943 116.999.498 7.539.528 13.453.468 17.051 10.655-5.943 24.713-14.277 40.514-24.892 31.531-21.184 76.039-55.768 109.009-100.222 2.468-3.327 1.771-8.024-1.556-10.492z" fill="#00c285"/></g></g><g><g><path d="m244.52 432.164c-10.952-6.01-26.226-14.926-43.612-26.606-4.885-3.282-10.083-6.887-15.499-10.799-98.273-30.48-114.232-113.613-124.334-145.182-6.366-19.895-15.047-36.682-22.297-48.704-10.862-.718-23.245.608-37.3 4.957-1.379.427-1.931 2.082-1.059 3.232 5.662 7.469 23.349 32.461 34.244 66.508 12.637 39.491 34.419 159.686 215.072 156.537-1.751.029-3.492.049-5.215.057z" fill="#0ed290"/></g><path d="m276.117 432.105c-20.939-10.662-117.987-62.65-172.17-135.705-2.468-3.328-7.165-4.023-10.492-1.556s-4.024 7.165-1.556 10.492c32.971 44.455 77.478 79.038 109.009 100.222 17.386 11.68 32.66 20.596 43.612 26.606 3.758-.016 7.579-.082 11.479-.209 6.932.226 13.632.27 20.118.15z" fill="#00c285"/></g></g></g></svg>