<svg id="Capa_1" enable-background="new 0 0 512 512" height="512" viewBox="0 0 512 512" width="512" xmlns="http://www.w3.org/2000/svg"><g><path d="m324.459 241.47v-31.925c0-6.518 1.927-12.591 5.23-17.693-10.773-6.555-17.338-15.193-17.338-24.652v-33.442c0-12.345 11.179-23.292 28.313-30.03-4.777-20.895-12.66-40.195-23.007-57.091-.812-1.326-2.722-1.326-3.534 0-17.736 28.963-28.249 64.979-28.249 104.011 0 33.308 7.66 64.414 20.927 90.821h17.658z" fill="#00c285"/><path d="m324.459 241.47v-10.185c-10.337-24.086-16.201-51.517-16.201-80.636 0-31.509 6.854-61.049 18.825-86.503-2.858-6.078-6.006-11.925-9.424-17.508-.812-1.326-2.722-1.326-3.534 0-17.737 28.963-28.249 64.979-28.249 104.011 0 33.308 7.66 64.415 20.927 90.821z" fill="#07b27b"/><path d="m401.175 370.277c-8.844-8.845-18.235-16.701-27.998-23.564h-45.368l-9.434 9.434c9.643 20.084 23.136 39.362 40.352 56.578 27.6 27.6 60.5 45.633 93.522 53.572 1.512.364 2.863-.987 2.499-2.499-7.939-33.021-25.973-65.922-53.573-93.521z" fill="#00c285"/><path d="m448.217 442.535c-25.821-9.607-50.886-25.419-72.654-47.187-14.933-14.933-27.062-31.419-36.31-48.636h-11.445l-9.434 9.434c9.643 20.084 23.136 39.362 40.352 56.578 27.6 27.6 60.5 45.633 93.522 53.572 1.512.364 2.863-.987 2.499-2.499-1.709-7.109-3.89-14.214-6.53-21.262z" fill="#07b27b"/><g><path d="m510.994 176.278c0 .049.006.098.006.147 0 20.432-30.59 37.055-68.189 37.055-9.068 0-17.872-.958-26.183-2.849h-1v30.839h27.334c7.475 0 14.563 1.672 20.926 4.646 27.903-4.904 48.112-19.276 48.112-36.25v-33.441z" fill="#f6a96c"/><path d="m448.729 138.519v28.68c0 13.044-12.936 25.286-33.759 31.95l-.929.297.273.936c.871 2.982 1.312 6.065 1.312 9.163v1.881c8.345 1.963 17.532 3.053 27.183 3.053 38.212 0 69.189-17.037 69.189-38.054.002-19.919-27.83-36.253-63.269-37.906z" fill="#fee97d"/><path d="m448.729 133.758c0 20.431-30.589 37.054-68.188 37.054s-68.189-16.623-68.189-37.054h-1v33.442c0 9.802 6.742 18.736 17.809 25.482 5.726-9.456 16.112-15.789 27.951-15.789h25.865c14.833 0 27.379 9.946 31.341 23.516 21.126-6.514 35.412-18.941 35.412-33.209v-33.441h-1.001z" fill="#ea9b58"/></g><g><g><ellipse cx="380.541" cy="133.758" fill="#fef0ae" rx="69.189" ry="38.054"/></g><g><path d="m354.897 133.758c0-16.831 19.876-31.1 47.416-36.12-6.849-1.248-14.163-1.934-21.773-1.934-38.212 0-69.189 17.037-69.189 38.054s30.977 38.054 69.189 38.054c7.61 0 14.925-.686 21.773-1.934-27.54-5.019-47.416-19.288-47.416-36.12z" fill="#fee97d"/></g></g><g><path d="m216.601 346.713-51.7 51.577c-13.513 13.513-13.513 35.422 0 48.935l7.65 7.224c13.513 13.513 35.422 13.513 48.935 0l107.736-107.736z" fill="#ffbd86"/><path d="m190.932 456.009c-13.513-13.513-13.513-35.422 0-48.935l59.504-59.362h-34.836l-50.698 50.577c-13.513 13.513-13.513 35.422 0 48.935l7.65 7.224c7.483 7.483 17.539 10.814 27.319 10.01-.437-.395-.867-.804-1.289-1.225z" fill="#f6a96c"/><path d="m247.86 347.713 40.182 40.18 10.607-10.607-29.574-29.573z" fill="#ea9b58"/><g><path d="m442.962 240.469h-26.334v-30.925c0-18.585-15.066-33.652-33.652-33.652h-25.865c-18.586 0-33.652 15.066-33.652 33.652v30.925h-37.992l-91.533-91.533c-17.163-17.163-44.989-17.163-62.152 0l-3.728 3.728c-17.163 17.163-17.163 44.99 0 62.152l39.727 39.727h-82.32c-24.272 0-43.948 19.676-43.948 43.948v5.272c0 24.272 19.676 43.948 43.948 43.948h357.5c27.939 0 50.588-22.649 50.588-50.588v-6.068c.001-27.937-22.648-50.586-50.587-50.586z" fill="#ffbd86"/></g><g><path d="m144.912 319.648c-24.272 0-43.948-19.676-43.948-43.948v-5.272c0-5.603 1.06-10.956 2.972-15.884h-18.474c-24.272 0-43.948 19.676-43.948 43.948v5.272c0 24.272 19.677 43.948 43.948 43.948h357.5c19.844 0 37.01-11.432 45.296-28.065h-343.346z" fill="#f6a96c"/></g><g><g><path d="m382.976 175.893h-25.865c-18.585 0-33.652 15.066-33.652 33.652v30.925h33.388c5.69 0 10.302-4.612 10.302-10.302v-20.623c0-15.499 10.481-28.542 24.739-32.45-2.839-.778-5.825-1.202-8.912-1.202z" fill="#f6a96c"/></g><g><path d="m167.781 254.544h18.819c9.178 0 13.774-11.097 7.284-17.586l-22.141-22.141c-17.163-17.163-17.163-44.989.001-62.152l3.728-3.728c2.819-2.819 5.931-5.166 9.231-7.059-16.79-9.631-38.578-7.284-52.921 7.059l-3.728 3.728c-17.163 17.163-17.163 44.989-.001 62.152z" fill="#f6a96c"/></g></g><g><path d="m111.284 346.397v-91.854h-15v91.854c0 .449.047.887.122 1.315h14.755c.077-.427.123-.865.123-1.315z" fill="#ea9b58"/><g><path d="m149.329 254.544h15v93.169h-15z" fill="#ea9b58"/></g><g fill="#ea9b58"><path d="m217.374 347.713v-93.169c0-4.143-3.357-7.5-7.5-7.5s-7.5 3.357-7.5 7.5v93.169z"/><path d="m270.419 347.713v-93.169c0-4.143-3.357-7.5-7.5-7.5s-7.5 3.357-7.5 7.5v93.169z"/><path d="m323.464 347.713v-93.169c0-4.143-3.357-7.5-7.5-7.5s-7.5 3.357-7.5 7.5v93.169z"/><path d="m422.054 247.044c-4.143 0-7.5 3.357-7.5 7.5v93.169h15v-93.169c0-4.143-3.358-7.5-7.5-7.5z"/></g></g><path d="m199.999 363.275 56.331 56.33 10.607-10.607-56.317-56.318z" fill="#ea9b58"/></g><g><path d="m137.378 355.164c0 20.432-30.589 37.054-68.188 37.054s-68.19-16.622-68.19-37.054h-1v33.441c0 21.017 30.977 38.054 69.189 38.054s69.189-17.037 69.189-38.054v-33.441z" fill="#ffbd86"/><g><path d="m43.56 390.51c-25.519-5.603-43.56-19.312-43.56-35.346v33.441c0 21.017 30.977 38.054 69.189 38.054 7.592 0 14.89-.682 21.724-1.925-26.518-4.821-45.915-18.22-47.353-34.224z" fill="#f6a96c"/></g><g><ellipse cx="69.189" cy="355.164" fill="#fef0ae" rx="69.189" ry="38.054"/></g><g><path d="m43.449 355.164c0-16.841 19.899-31.118 47.465-36.129-6.835-1.243-14.133-1.925-21.724-1.925-38.213 0-69.19 17.037-69.19 38.054s30.977 38.054 69.189 38.054c7.592 0 14.89-.682 21.724-1.925-27.565-5.012-47.464-19.288-47.464-36.129z" fill="#fee97d"/></g></g><g fill="#ea9b58"><path d="m121.133 181.099h93.169v15.001h-93.169z" transform="matrix(.707 -.707 .707 .707 -84.237 173.833)"/><path d="m182.461 249.961c1.919 0 3.839-.732 5.304-2.196l52.499-52.499-10.607-10.607-52.499 52.499c-2.929 2.93-2.929 7.678 0 10.607 1.464 1.464 3.384 2.196 5.303 2.196z"/><path d="m376.509 347.713v-93.169c0-4.143-3.357-7.5-7.5-7.5s-7.5 3.357-7.5 7.5v93.169z"/><path d="m416.628 224.285v-14.741c0-.087-.006-.173-.007-.259h-93.156c-.001.087-.007.172-.007.259v14.741z"/><path d="m168.25 394.949 56.368 56.368 10.607-10.607-56.355-56.356z"/></g></g></svg>