<svg id="Layer_1" enable-background="new 0 0 510 510" height="512" viewBox="0 0 510 510" width="512" xmlns="http://www.w3.org/2000/svg"><g id="XMLID_615_"><g id="XMLID_650_"><g><path id="XMLID_411_" d="m330 86.333-15-10.26v-16.073c0-33.084 26.916-60 60-60v30c-16.542 0-30 13.458-30 30v16.071z" fill="#6a3011"/></g></g><path id="XMLID_649_" d="m165 60v16.07l7.5 4.93 7.5-6 10-21.75-10-32.873c-9.325 10.578-15 24.446-15 39.623z" fill="#954c20"/><path id="XMLID_644_" d="m195 60c0-16.542 13.458-30 30-30v-30c-17.907 0-33.997 7.896-45 20.377v54.623l6.75 6 8.25-4.934z" fill="#7e3e19"/><g id="XMLID_636_"><g><path id="XMLID_417_" d="m469.989 247.492c-13.803-10.353-23.269-25.371-26.651-42.289l-8.92-44.602c-9.921-49.601-53.835-85.601-104.418-85.601-28.87 0-55.555 11.74-75 31.03v392.675c18.605 7.287 38.843 11.295 60 11.295h30c90.981 0 165-74.018 165-165v-17.486c0-31.317-14.957-61.232-40.011-80.022z" fill="#00cb75"/></g></g><g id="XMLID_631_"><g><path id="XMLID_414_" d="m451.989 271.492c-19.716-14.787-33.236-36.24-38.069-60.406l-8.92-44.602c-7.125-35.626-38.668-61.484-75-61.484-22.169 0-42.543 9.639-56.685 25.238l19.084 347.859c7.351 1.245 14.9 1.903 22.601 1.903h30c74.44 0 135-60.56 135-135v-17.486c0-21.924-10.472-42.867-28.011-56.022z" fill="#e6d3ce"/></g></g><path id="XMLID_630_" d="m75.582 160.602-8.92 44.602c-3.383 16.918-12.849 31.936-26.651 42.289-25.054 18.789-40.011 48.704-40.011 80.021v17.486c0 90.982 74.019 165 165 165h15l10-252.5-10-182.5c-50.583 0-94.497 36-104.418 85.602z" fill="#ace233"/><path id="XMLID_626_" d="m319.989 247.492c-13.803-10.353-23.269-25.371-26.651-42.289l-8.92-44.602c-9.921-49.601-53.835-85.601-104.418-85.601v435h15c90.981 0 165-74.018 165-165v-17.486c0-31.317-14.957-61.232-40.011-80.022z" fill="#70d840"/><path id="XMLID_625_" d="m105 166.485-8.92 44.601c-4.833 24.166-18.354 45.619-38.069 60.406-17.539 13.155-28.011 34.098-28.011 56.022v17.486c0 74.44 60.561 135 135 135h15l10-187.5-10-187.5c-36.332 0-67.875 25.858-75 61.485z" fill="#fff4f4"/><path id="XMLID_623_" d="m301.989 271.492c-19.716-14.787-33.236-36.24-38.069-60.406l-8.92-44.602c-7.125-35.626-38.668-61.484-75-61.484v375h15c74.44 0 135-60.56 135-135v-17.486c0-21.924-10.472-42.867-28.011-56.022z" fill="#f3e2dd"/><path id="XMLID_621_" d="m123.75 345c0 41.422 25.184 60 56.25 60l10-68-10-82c-31.066 0-56.25 48.578-56.25 90z" fill="#954c20"/><path id="XMLID_619_" d="m180 255v150c31.066 0 56.25-18.578 56.25-60s-25.184-90-56.25-90z" fill="#7e3e19"/></g></svg>