<svg id="Layer_1" enable-background="new 0 0 509.23 509.23" height="512" viewBox="0 0 509.23 509.23" width="512" xmlns="http://www.w3.org/2000/svg"><g id="XMLID_1400_"><path id="XMLID_1437_" d="m239.622 75.688 9.869 3.293 5.125-4.75 10-20.126-10-24.366c-9.355 13.118-14.793 29.037-14.994 45.949z" fill="#954c20"/><path id="XMLID_1429_" d="m294.873 0c-16.663 5.555-30.563 16.143-40.257 29.738v44.491l10.875 4.084 4.133-2.584c.392-21.52 14.25-40.44 34.735-47.27z" fill="#7e3e19"/><path id="XMLID_1427_" d="m103.575 154.895-10.874 10.582-.533.65c-67.185 81.918-63.802 204.005 14.112 281.755 39.657 39.573 92.316 61.348 148.333 61.348h.003l10-211.001-10-133.999-48.375-38.5z" fill="#df5ccb"/><path id="XMLID_1424_" d="m464.596 296.282c-.733-53.194-21.924-105.409-60.156-144.109l-92.824-28.942-57 41v345c57.529 0 110.178-23.372 149.252-63.071 39.933-40.574 61.5-93.802 60.728-149.878z" fill="#be4dd8"/><path id="XMLID_1423_" d="m200.286 100.121c-.752-.845-1.762-1.851-2.471-2.49h-.01c-17.85-16.221-50.13-11.17-73.05 11.74-15.271 15.279-22.61 34.72-20.99 51.269.86 8.85 4.271 16.87 10.391 22.98 17.569 17.569 50.81 12.83 74.239-10.61 8.27-8.26 14.21-17.75 17.67-27.34z" fill="#ace233"/><path id="XMLID_1422_" d="m383.395 109.371c-22.8-22.801-54.88-27.91-72.779-11.98-.788.694-1.736 1.642-2.11 2.05l-6.12 47.021c3.5 9.32 9.33 18.51 17.37 26.55 23.441 23.441 56.68 28.18 74.25 10.61 6.38-6.381 9.83-14.851 10.49-24.15 1.16-16.291-6.181-35.181-21.101-50.101z" fill="#70d840"/><path id="XMLID_1421_" d="m194.616 119.23c0 24.854 26.862 45 60 45l10-40.5-10-49.5c-33.138 0-60 20.148-60 45z" fill="#70d840"/><path id="XMLID_1416_" d="m254.616 74.23v90c33.137 0 60-20.146 60-45 0-24.852-26.863-45-60-45z" fill="#00cb75"/><g id="XMLID_1405_"><path id="XMLID_1408_" d="m104.616 284.23h30v30h-30z" fill="#be4dd8"/></g><g id="XMLID_1401_"><g><g id="XMLID_512_"><path d="m134.616 344.23h30v30h-30z" fill="#be4dd8"/></g></g></g></g></svg>