<svg id="Capa_1" enable-background="new 0 0 512 512" height="512" viewBox="0 0 512 512" width="512" xmlns="http://www.w3.org/2000/svg"><g><g><g><path d="m266.153 455.886v43.237c0 7.112 5.765 12.877 12.877 12.877s12.877-5.765 12.877-12.877v-43.237z" fill="#bbec6c"/></g><g><path d="m220.093 455.886v43.237c0 7.112 5.765 12.877 12.877 12.877 7.112 0 12.877-5.765 12.877-12.877v-43.237z" fill="#bbec6c"/></g><g><path d="m243.123 455.886v43.237c0 7.112 5.765 12.877 12.877 12.877s12.877-5.765 12.877-12.877v-43.237z" fill="#a2e62e"/></g></g><g><g><g><path d="m202.867 357.544-.55-.146c-8.813-2.337-15.864-8.869-18.862-17.475l-.234-.671h-32.342c-10.873 0-19.719-8.846-19.719-19.718v-7.171c0-6.128 2.82-11.816 7.738-15.605l2.326-1.792h-15.389c-12.434 0-22.877-9.466-23.774-21.55-.618-8.317 3.13-16.136 10.026-20.915l2.628-1.822h-7.779c-6.533 0-12.818-2.797-17.244-7.673-4.478-4.933-6.59-11.299-5.948-17.926 1.142-11.78 11.576-21.009 23.753-21.009h16.94l-2.628-1.822c-6.896-4.779-10.644-12.599-10.027-20.916.897-12.084 11.341-21.549 23.775-21.549h9.403l-2.628-1.822c-6.896-4.78-10.644-12.6-10.026-20.916.897-12.084 11.34-21.549 23.774-21.549h12.644l-2.628-1.822c-6.896-4.779-10.644-12.598-10.026-20.915.897-12.084 11.34-21.55 23.774-21.55h12.268l-1.203-1.601c-3.709-4.938-5.537-11.075-5.147-17.283.381-6.06 2.898-11.574 6.781-15.823-5.83-3.993-13.174-5.715-20.465-4.266-8.153 1.621-14.6 6.651-18.311 13.221.057-3.891-.722-7.893-2.501-11.771-5.063-11.036-17.187-17.368-29.141-15.239-16.016 2.852-25.675 18.768-21.331 34.009.742 2.605 1.847 5.008 3.236 7.177-6.618-3.627-14.747-4.502-22.53-1.582-12.424 4.663-19.67 18.005-16.841 30.969 1.442 6.606 5.135 12.059 10.06 15.794l-9.872 2.813c-12.32 3.511-20.252 15.858-17.663 28.404 1.824 8.837 8.191 15.439 16.031 18.111l-9.084 2.589c-12.32 3.511-20.252 15.858-17.663 28.404 1.824 8.837 8.191 15.439 16.031 18.111l-5.968 1.701c-12.32 3.511-20.252 15.858-17.663 28.404 1.824 8.837 8.191 15.439 16.031 18.111l-13.216 3.766c-12.119 3.454-20.063 15.461-17.794 27.857 2.609 14.259 16.964 22.923 30.578 19.043l4.405-1.255c-5.254 6.404-7.184 15.371-4.075 23.842 4.414 12.026 17.663 18.336 29.983 14.825l11.976-3.413c-3.697 5.001-5.148 11.589-3.322 17.997l1.965 6.896c3.123 10.959 14.645 17.37 25.603 14.246l30.421-8.669c6.763 9.618 19.097 14.391 31.043 10.986.031-.009.061-.018.092-.026 5.767-1.664 11.978-.292 16.288 3.885l28.778 27.881z" fill="#0ed290"/></g><path d="m244.663 401.231-19.748-34.204c-3.099-5.367-9.003-8.701-15.409-8.701l-.153.001c-2.625 0-5.18-.394-7.618-1.1l19.007 66.693h23.92v-22.689z" fill="#bbec6c"/><path d="m94.915 153.993 23.423 13.033c4.365-4.456 10.493-7.241 17.219-7.241h.616l-33.965-18.899c-3.618-2.013-8.186-.713-10.2 2.907-2.014 3.619-.713 8.187 2.907 10.2z" fill="#a2e62e"/></g><g><g><path d="m480.317 255.23-13.216-3.766c7.841-2.672 14.208-9.274 16.031-18.111 2.589-12.546-5.343-24.893-17.663-28.404l-5.968-1.701c7.841-2.672 14.208-9.274 16.031-18.111 2.589-12.546-5.343-24.893-17.663-28.404l-9.084-2.589c7.841-2.672 14.208-9.274 16.031-18.111 2.589-12.546-5.343-24.893-17.663-28.404l-9.872-2.813c4.925-3.735 8.618-9.188 10.06-15.794 2.829-12.965-4.417-26.307-16.841-30.969-7.783-2.921-15.912-2.045-22.53 1.582 1.39-2.169 2.494-4.572 3.236-7.177 4.343-15.241-5.315-31.156-21.331-34.009-11.954-2.129-24.079 4.203-29.141 15.239-1.779 3.879-2.558 7.88-2.501 11.771-3.712-6.57-10.158-11.6-18.311-13.221-7.011-1.394-14.07.149-19.786 3.819 4.117 4.305 6.788 9.999 7.182 16.27.39 6.208-1.438 12.346-5.147 17.283l-1.203 1.601h12.268c12.434 0 22.877 9.466 23.774 21.55.618 8.317-3.13 16.136-10.026 20.915l-2.628 1.822h12.644c12.434 0 22.877 9.465 23.774 21.549.618 8.316-3.13 16.136-10.026 20.916l-2.628 1.822h9.403c12.434 0 22.877 9.465 23.775 21.549.617 8.317-3.131 16.137-10.026 20.916l-2.628 1.822h16.94c12.177 0 22.61 9.229 23.752 21.009.642 6.626-1.47 12.992-5.948 17.926-4.426 4.876-10.712 7.673-17.245 7.673h-7.779l2.628 1.822c6.896 4.778 10.644 12.598 10.027 20.915-.898 12.084-11.341 21.55-23.775 21.55h-15.388l2.326 1.792c4.917 3.79 7.738 9.478 7.738 15.605v7.171c0 10.872-8.846 19.718-19.718 19.718h-32.342l-.234.671c-3.092 8.877-10.712 15.669-19.884 17.725l-.58.13-14.654 51.42 28.647-27.754c4.311-4.176 10.522-5.549 16.288-3.885.031.009.061.018.092.026 11.946 3.404 24.28-1.368 31.043-10.986l30.421 8.669c10.959 3.123 22.48-3.288 25.603-14.246l1.965-6.896c1.826-6.408.375-12.996-3.322-17.997l11.976 3.413c12.32 3.511 25.569-2.799 29.983-14.825 3.109-8.471 1.179-17.437-4.075-23.842l4.405 1.255c13.614 3.88 27.968-4.784 30.578-19.043 2.268-12.397-5.676-24.404-17.795-27.858z" fill="#07b27b"/></g><path d="m303.727 358.327-.153-.001c-6.406 0-12.31 3.334-15.408 8.701l-19.748 34.203v22.689h22.934l18.917-66.377c-.016.004-.031-.003-.047 0-2.096.513-4.272.785-6.495.785z" fill="#bbec6c"/><path d="m377.523 159.785c6.53 0 12.494 2.627 16.831 6.856l22.731-12.648c3.62-2.014 4.921-6.581 2.907-10.2s-6.582-4.92-10.2-2.907l-33.965 18.899z" fill="#a2e62e"/></g><g><g><path d="m430.331 224.985c-1.216-12.543-12.146-21.913-24.748-21.913h-13.742c6.808-4.719 11.122-12.813 10.454-21.812-.949-12.776-11.961-22.475-24.772-22.475h-6.205c6.808-4.719 11.122-12.813 10.454-21.812-.949-12.775-11.961-22.475-24.772-22.475h-9.446c6.808-4.719 11.122-12.813 10.454-21.812-.949-12.776-11.961-22.475-24.772-22.475h-10.265c3.712-4.942 5.77-11.198 5.346-17.946-.832-13.244-11.458-24.089-24.684-25.168-8.285-.676-15.863 2.395-21.234 7.696 1.121-3.726 1.469-7.788.821-12.006-1.844-12.001-11.769-21.413-23.849-22.643-16.185-1.647-29.835 11.012-29.835 26.86 0 2.708.403 5.322 1.145 7.789-5.37-5.302-12.949-8.372-21.234-7.696-13.226 1.079-23.852 11.924-24.684 25.168-.424 6.748 1.633 13.004 5.346 17.946h-10.265c-12.811 0-23.823 9.7-24.772 22.475-.668 8.999 3.645 17.093 10.454 21.812h-9.446c-12.811 0-23.823 9.7-24.772 22.475-.668 8.999 3.646 17.093 10.454 21.812h-6.205c-12.811 0-23.823 9.7-24.772 22.475-.668 8.999 3.645 17.093 10.454 21.812h-13.742c-12.602 0-23.532 9.37-24.748 21.913-1.399 14.429 10.032 26.694 24.188 26.694h4.581c-6.808 4.719-11.122 12.813-10.454 21.812.949 12.775 11.961 22.475 24.772 22.475h12.452c-4.926 3.796-8.128 9.734-8.128 16.398v7.171c0 11.395 9.323 20.718 20.718 20.718h31.632c3.868 11.103 14.422 19.073 26.843 19.073h.096c6.002-.02 11.599 3.002 14.6 8.2l20.614 35.704v-287.761c0-6.549 5.328-11.877 11.877-11.877s11.877 5.328 11.877 11.877v287.762l20.614-35.704c3.001-5.198 8.598-8.22 14.6-8.2h.096c12.421 0 22.975-7.97 26.843-19.073h31.632c11.395 0 20.718-9.323 20.718-20.718v-7.171c0-6.663-3.202-12.601-8.128-16.398h12.452c12.811 0 23.823-9.7 24.772-22.475.668-8.999-3.645-17.093-10.454-21.812h4.581c14.157-.001 25.587-12.266 24.188-26.695z" fill="#0ed290"/></g><g><g><path d="m163.284 218.914c0-90.85 50.886-167.384 120.218-190.58.089-1.808.008-3.66-.281-5.546-1.844-12.001-11.769-21.413-23.849-22.643-16.184-1.647-29.835 11.012-29.835 26.86 0 2.708.403 5.322 1.145 7.788-5.37-5.301-12.949-8.372-21.234-7.696-13.226 1.079-23.851 11.924-24.684 25.168-.424 6.748 1.633 13.004 5.346 17.946h-10.265c-12.811 0-23.823 9.7-24.772 22.475-.668 8.999 3.646 17.093 10.454 21.812h-9.446c-12.811 0-23.823 9.7-24.772 22.475-.668 8.999 3.645 17.093 10.454 21.811h-6.205c-12.811 0-23.823 9.7-24.772 22.475-.668 8.999 3.646 17.093 10.454 21.812h-13.742c-12.602 0-23.532 9.37-24.748 21.913-1.399 14.429 10.032 26.694 24.188 26.694h4.581c-6.808 4.719-11.122 12.813-10.454 21.812.949 12.775 11.961 22.475 24.772 22.475h12.452c-4.926 3.797-8.128 9.734-8.128 16.398v7.171c0 11.395 9.323 20.718 20.718 20.718h31.632c3.868 11.103 14.422 19.074 26.843 19.074h.095c.875-.003 1.74.067 2.592.19-30.102-35.85-48.757-85.601-48.757-140.602z" fill="#00c285"/></g></g><g fill="#bbec6c"><g><path d="m244.663 150.437-38.002-38.003c-2.929-2.928-7.678-2.928-10.606 0-2.929 2.93-2.929 7.678 0 10.607l48.609 48.609v-21.213z"/><path d="m317.026 112.435c-2.929-2.928-7.678-2.928-10.606 0l-38.002 38.002v21.214l48.608-48.608c2.929-2.931 2.929-7.679 0-10.608z"/></g><g><path d="m244.663 230.37-49.743-49.744c-2.928-2.928-7.677-2.928-10.606 0-2.929 2.93-2.929 7.678 0 10.607l60.35 60.35v-21.213z"/><path d="m328.767 180.626c-2.929-2.928-7.678-2.928-10.606 0l-49.743 49.743v21.214l60.349-60.35c2.929-2.929 2.929-7.677 0-10.607z"/></g><g><path d="m244.663 310.209-63.833-63.833c-2.929-2.928-7.678-2.928-10.606 0-2.929 2.93-2.929 7.678 0 10.607l74.439 74.439z"/><path d="m342.856 246.376c-2.929-2.928-7.678-2.928-10.606 0l-63.832 63.833v21.213l74.438-74.438c2.929-2.93 2.929-7.678 0-10.608z"/></g></g><path d="m269.417 423.89v-308.42c0-7.112-5.766-12.877-12.877-12.877-7.112 0-12.877 5.766-12.877 12.877v308.42z" fill="#a2e62e"/></g></g><g><path d="m297.207 456.885h-82.414c-2.845 0-5.151-2.306-5.151-5.151v-23.694c0-2.845 2.306-5.151 5.151-5.151h82.414c2.845 0 5.151 2.306 5.151 5.151v23.694c0 2.845-2.306 5.151-5.151 5.151z" fill="#fe9901"/></g><g><path d="m242.608 451.734v-23.694c0-2.845 2.306-5.151 5.151-5.151h-32.966c-2.845 0-5.151 2.306-5.151 5.151v23.694c0 2.845 2.306 5.151 5.151 5.151h32.966c-2.845 0-5.151-2.306-5.151-5.151z" fill="#fb8801"/></g></g></svg>