<svg id="Capa_1" enable-background="new 0 0 512 512" height="512" viewBox="0 0 512 512" width="512" xmlns="http://www.w3.org/2000/svg"><g><g><g><path d="m105.168 208.7c-7.82-10.879-19.392-17.161-30.672-17.785-3.319 10.969-1.281 24.216 6.541 35.387 6.254 8.932 15.02 14.831 24.131 17.166z" fill="#d1f19e"/><path d="m105.168 229.936c-4.285-2.925-8.199-6.731-11.437-11.356-5.517-7.879-8.143-16.787-8.056-25.204-3.661-1.413-7.435-2.254-11.178-2.46-3.319 10.969-1.281 24.216 6.541 35.387 6.254 8.932 15.02 14.831 24.131 17.166v-13.533z" fill="#bbec6c"/><path d="m262.717 251.487c-10.847.6-21.927 5.813-30.464 14.892v43.436c8.743-3.253 16.939-9.43 23.035-18.136 8.884-12.688 11.199-27.733 7.429-40.192z" fill="#d1f19e"/><path d="m262.717 251.487c-10.847.6-21.927 5.813-30.464 14.892v27.781c1.394-3.332 3.179-6.595 5.365-9.716 6.962-9.942 16.664-16.57 26.79-19.327.169-4.715-.389-9.328-1.691-13.63z" fill="#bbec6c"/></g><g><g><path d="m128.044 36.611c6.019.47 11.943 2.512 17.297 5.822.028-.67.047-1.343.047-2.021 0-16.834-7.318-31.671-18.441-40.413-11.122 8.741-18.441 23.578-18.441 40.413 0 1.451.074 2.88.18 4.298 3.74 2.823 7.115 6.301 9.933 10.325 3.655 5.221 6.127 10.946 7.347 17.02h1.961c.571-2.845 1.428-5.61 2.542-8.286-3.904-8.836-4.833-18.493-2.425-27.158z" fill="#a2e62e"/><path d="m118.621 55.036c3.655 5.221 6.127 10.946 7.347 17.02h1.961c.553-2.755 1.378-5.434 2.44-8.031-3.337-6.993-5.25-15.037-5.25-23.612 0-12.154 3.828-23.252 10.135-31.781-2.429-3.286-5.214-6.202-8.306-8.632-11.122 8.741-18.441 23.578-18.441 40.413 0 1.451.074 2.88.18 4.298 3.74 2.823 7.116 6.301 9.934 10.325z" fill="#97d729"/><g fill="#8bc727"><path d="m95.404 73.996c8.861 4.297 16.809 11.112 22.85 19.763-.85-8.382.132-16.713 3.02-24.281 1.821.292 3.623.702 5.406 1.202-1.276-5.566-3.658-11.102-7.24-16.218-8.103-11.572-20.274-18.248-32.127-18.904-3.438 11.362-1.327 25.083 6.775 36.655.426.611.867 1.202 1.316 1.783z"/><path d="m137.645 75.146c-.96-1.125-1.887-2.282-2.743-3.504-2.03-2.9-3.682-5.977-4.969-9.144-1.206 2.735-2.117 5.525-2.75 8.324 3.599 1.049 7.104 2.503 10.462 4.324z"/></g><g><path d="m145.164 501.152v-362.214l-.432-.298c-7.376-5.089-13.73-12.032-18.376-20.08-4.871-8.436-7.637-17.657-8.25-26.753-9.696-13.16-23.473-21.428-37.468-23.436-6.032 15.053-4.793 33.977 4.856 50.69 4.9 8.487 11.382 15.371 18.674 20.403v361.69c0 5.991 4.857 10.847 10.847 10.847h23.864c3.572 0 6.731-1.734 8.707-4.398-1.503-1.731-2.422-3.983-2.422-6.451z" fill="#a2e62e"/></g><g fill="#bbec6c"><path d="m124.778 308.161h-20.61v15h20.61c4.142 0 7.5-3.357 7.5-7.5s-3.358-7.5-7.5-7.5z"/><path d="m124.778 360.229h-20.61v15h20.61c4.142 0 7.5-3.357 7.5-7.5s-3.358-7.5-7.5-7.5z"/><path d="m124.778 412.297h-20.61v15h20.61c4.142 0 7.5-3.357 7.5-7.5s-3.358-7.5-7.5-7.5z"/></g></g><g><path d="m210.473 0c-11.123 8.741-18.441 23.578-18.441 40.413 0 .031.002.06.002.091 4.391-2.168 9.069-3.522 13.808-3.892 2.04 7.341 1.679 15.393-.849 23.057 2.115 3.916 3.631 8.062 4.5 12.387h1.961c1.22-6.073 3.691-11.799 7.347-17.02 2.818-4.024 6.194-7.502 9.933-10.325.106-1.418.18-2.848.18-4.299 0-16.834-7.318-31.671-18.441-40.412z" fill="#a2e62e"/><path d="m218.957 8.873c-2.47-3.385-5.315-6.383-8.484-8.873-11.123 8.741-18.441 23.578-18.441 40.413 0 .031.002.06.002.091 4.391-2.168 9.069-3.522 13.808-3.892 2.04 7.341 1.679 15.393-.849 23.057 2.115 3.916 3.631 8.062 4.5 12.387h1.961c.582-2.898 1.458-5.713 2.602-8.436-3.218-6.898-5.056-14.798-5.056-23.207 0-12.04 3.757-23.043 9.957-31.54z" fill="#97d729"/><g fill="#8bc727"><path d="m212.614 69.479c3.879 10.163 4.307 21.701 1.486 32.894.654-1.345 1.34-2.67 2.08-3.952 6.283-10.884 15.437-19.404 25.853-24.443.444-.576.88-1.161 1.302-1.763 8.103-11.572 10.213-25.293 6.775-36.655-11.853.655-24.025 7.332-32.127 18.904-3.39 4.841-5.714 10.058-7.036 15.322.554-.11 1.109-.218 1.667-.307z"/><path d="m205.409 58.351c-1.369 4.628-3.518 9.139-6.425 13.29-.856 1.222-1.783 2.379-2.742 3.504 4.39-2.38 9.03-4.138 13.801-5.174-.972-3.943-2.509-7.862-4.634-11.62z"/></g><g><path d="m256.784 68.37c-16.052 2.303-31.822 12.838-41.47 29.55-.141.244-.266.491-.403.736-1.272 6.82-3.729 13.583-7.379 19.903-4.646 8.048-11 14.991-18.375 20.08l-.432.298v362.215c0 1.124-.199 2.2-.547 3.207 1.368 4.425 5.49 7.64 10.365 7.64h23.864c5.991 0 10.847-4.857 10.847-10.847v-361.69c7.292-5.032 13.774-11.916 18.674-20.403 9.648-16.712 10.887-35.636 4.856-50.689z" fill="#97d729"/></g><g fill="#bbec6c"><path d="m208.304 308.161h-19.58v15h19.58c4.142 0 7.5-3.357 7.5-7.5s-3.358-7.5-7.5-7.5z"/><path d="m208.304 360.229h-19.58v15h19.58c4.142 0 7.5-3.357 7.5-7.5s-3.358-7.5-7.5-7.5z"/><path d="m208.304 412.297h-19.58v15h19.58c4.142 0 7.5-3.357 7.5-7.5s-3.358-7.5-7.5-7.5z"/></g></g></g><g><path d="m218.725 195.983c-10.65.589-21.53 5.617-30.002 14.392v43.749c8.568-3.297 16.585-9.398 22.573-17.95 8.885-12.688 11.199-27.733 7.429-40.191z" fill="#d1f19e"/><path d="m218.725 195.983c-10.65.589-21.53 5.617-30.002 14.392v22.996c1.02-1.942 2.17-3.851 3.47-5.708 7.298-10.423 17.608-17.215 28.262-19.709-.005-4.136-.581-8.175-1.73-11.971z" fill="#bbec6c"/><path d="m158.616 55.036c3.655 5.221 6.127 10.946 7.347 17.02h1.961c1.22-6.074 3.692-11.8 7.347-17.02 2.818-4.024 6.194-7.502 9.933-10.325.106-1.418.18-2.848.18-4.298 0-16.834-7.318-31.671-18.441-40.413-11.123 8.741-18.441 23.578-18.441 40.413 0 1.451.074 2.88.18 4.298 3.741 2.823 7.116 6.301 9.934 10.325z" fill="#a2e62e"/><path d="m158.616 55.036c3.655 5.221 6.127 10.946 7.347 17.02h1.961c.579-2.884 1.45-5.686 2.586-8.396-3.23-6.907-5.075-14.821-5.075-23.247 0-12.05 3.764-23.062 9.974-31.563-2.466-3.375-5.305-6.366-8.466-8.85-11.123 8.741-18.441 23.578-18.441 40.412 0 1.451.074 2.88.18 4.299 3.741 2.823 7.116 6.301 9.934 10.325z" fill="#97d729"/><path d="m135.385 73.978c10.415 5.039 19.569 13.559 25.852 24.443 1.867 3.232 3.47 6.689 4.766 10.274l.94 2.604.94-2.604c1.295-3.585 2.898-7.041 4.765-10.274 6.283-10.883 15.437-19.404 25.852-24.443.444-.575.88-1.161 1.302-1.763 8.103-11.572 10.214-25.293 6.775-36.655-11.853.655-24.025 7.332-32.127 18.904-3.835 5.476-6.31 11.434-7.508 17.395-1.198-5.961-3.674-11.919-7.508-17.395-8.103-11.572-20.274-18.248-32.127-18.904-3.438 11.362-1.327 25.083 6.775 36.655.423.603.86 1.188 1.303 1.763z" fill="#bbec6c"/><g><path d="m213.254 68.37c-16.052 2.303-31.822 12.838-41.47 29.55-1.965 3.403-3.563 6.9-4.84 10.435-1.277-3.535-2.875-7.032-4.84-10.435-9.649-16.713-25.418-27.247-41.47-29.55-6.032 15.053-4.793 33.977 4.856 50.69 4.9 8.487 11.382 15.371 18.674 20.403v361.69c0 5.991 4.857 10.847 10.847 10.847h23.864c5.991 0 10.847-4.857 10.847-10.847v-361.69c7.292-5.032 13.774-11.916 18.674-20.403 9.651-16.713 10.89-35.637 4.858-50.69z" fill="#a2e62e"/></g><g><g><path d="m165.685 501.153v-354.149c0-4.484-1.949-8.739-5.332-11.682-5.118-4.453-9.674-9.908-13.342-16.262-8.216-14.231-10.314-30.057-7.038-43.74-6.126-3.619-12.704-5.998-19.339-6.95-6.032 15.053-4.793 33.977 4.856 50.69 4.9 8.487 11.382 15.371 18.674 20.403v361.69c0 5.991 4.857 10.847 10.847 10.847h21.521c-5.991 0-10.847-4.857-10.847-10.847z" fill="#97d729"/></g></g><g><ellipse cx="137.838" cy="185.213" fill="#d1f19e" rx="14.939" ry="32.74" transform="matrix(.819 -.574 .574 .819 -81.306 112.556)"/></g><g><path d="m138.8 186.622c-5.595-7.99-8.215-17.039-8.048-25.559-3.821-1.537-7.773-2.451-11.693-2.668-3.319 10.969-1.282 24.216 6.541 35.388 7.822 11.172 19.573 17.617 31.016 18.25.945-3.124 1.44-6.435 1.507-9.828-7.335-2.951-14.18-8.238-19.323-15.583z" fill="#bbec6c"/></g><g fill="#8bc727"><path d="m164.774 256.093h-20.61v15h20.61c4.142 0 7.5-3.357 7.5-7.5s-3.357-7.5-7.5-7.5z"/><path d="m164.774 308.161h-20.61v15h20.61c4.142 0 7.5-3.357 7.5-7.5s-3.357-7.5-7.5-7.5z"/><path d="m164.774 360.229h-20.61v15h20.61c4.142 0 7.5-3.357 7.5-7.5s-3.357-7.5-7.5-7.5z"/><path d="m164.774 412.297h-20.61v15h20.61c4.142 0 7.5-3.357 7.5-7.5s-3.357-7.5-7.5-7.5z"/></g></g></g><g><path d="m437.295 300.882c-10.65.589-21.53 5.617-30.002 14.393v43.749c8.568-3.297 16.585-9.398 22.573-17.95 8.885-12.689 11.199-27.734 7.429-40.192z" fill="#d1f19e"/><path d="m437.295 300.882c-10.65.589-21.53 5.617-30.002 14.393v21.253c1.01-1.918 2.152-3.802 3.437-5.637 7.297-10.422 17.605-17.213 28.257-19.708-.14-3.553-.698-7.018-1.692-10.301z" fill="#bbec6c"/><path d="m385.514 0c-11.123 8.741-18.441 23.578-18.441 40.413 0 .307.015.609.021.913 4.841-2.655 10.081-4.299 15.396-4.715 2.206 7.936 1.611 16.705-1.504 24.914 1.621 3.363 2.814 6.882 3.547 10.53h1.961c1.22-6.073 3.692-11.799 7.347-17.02 2.818-4.024 6.193-7.502 9.933-10.325.106-1.418.18-2.848.18-4.298 0-16.834-7.318-31.671-18.44-40.412z" fill="#a2e62e"/><g fill="#97d729"><path d="m383.226 35.56c.323 1.067.58 2.161.805 3.266.315-11.43 4.008-21.854 9.946-29.979-2.465-3.373-5.304-6.363-8.464-8.846-11.076 8.705-18.374 23.455-18.435 40.202 5.167-2.747 10.689-4.341 16.148-4.643z"/><path d="m381.57 62.788c1.324 2.979 2.321 6.073 2.963 9.268h1.961c.579-2.881 1.449-5.682 2.584-8.39-2.064-4.412-3.555-9.239-4.369-14.344-.305 4.476-1.348 9.032-3.139 13.466z"/></g><g fill="#bbec6c"><path d="m375.631 71.642c-.856 1.222-1.783 2.379-2.742 3.504 3.921-2.126 8.042-3.748 12.279-4.806-.812-3.416-2.045-6.814-3.717-10.111-1.368 3.967-3.308 7.825-5.82 11.413z"/><path d="m425.149 35.56c-11.853.655-24.025 7.332-32.127 18.904-3.468 4.953-5.814 10.3-7.119 15.686 1.113-.26 2.231-.491 3.357-.671 3.318 8.695 4.113 18.396 2.51 28.027 6.262-10.443 15.182-18.632 25.301-23.527.444-.576.88-1.161 1.302-1.763 8.104-11.573 10.214-25.294 6.776-36.656z"/></g><g><path d="m431.824 68.37c-15.11 2.168-29.966 11.634-39.706 26.676-.994 8.032-3.647 16.078-7.94 23.513-4.646 8.048-11 14.991-18.376 20.08l-.432.298v362.215c0 1.838-.515 3.554-1.396 5.028 1.813 3.458 5.432 5.82 9.607 5.82h23.864c5.991 0 10.847-4.857 10.847-10.847v-361.69c7.292-5.032 13.774-11.916 18.674-20.403 9.651-16.713 10.889-35.637 4.858-50.69z" fill="#a2e62e"/></g><g fill="#bbec6c"><path d="m383.344 256.093h-17.974v15h17.974c4.142 0 7.5-3.357 7.5-7.5s-3.358-7.5-7.5-7.5z"/><path d="m383.344 308.161h-17.974v15h17.974c4.142 0 7.5-3.357 7.5-7.5s-3.358-7.5-7.5-7.5z"/><path d="m383.344 360.229h-17.974v15h17.974c4.142 0 7.5-3.357 7.5-7.5s-3.358-7.5-7.5-7.5z"/><path d="m383.344 412.297h-17.974v15h17.974c4.142 0 7.5-3.357 7.5-7.5s-3.358-7.5-7.5-7.5z"/></g></g><g><path d="m395.372 195.983c-10.65.589-21.53 5.617-30.002 14.393v43.749c8.568-3.297 16.585-9.398 22.573-17.95 8.885-12.689 11.199-27.734 7.429-40.192z" fill="#d1f19e"/><path d="m395.372 195.983c-10.65.589-21.53 5.617-30.002 14.393v22.162c.909-1.658 1.917-3.29 3.033-4.884 7.398-10.565 17.89-17.392 28.696-19.801-.014-4.102-.588-8.105-1.727-11.87z" fill="#bbec6c"/><path d="m335.263 55.036c3.655 5.22 6.127 10.945 7.347 17.02h1.961c1.22-6.073 3.692-11.799 7.347-17.02 2.818-4.024 6.193-7.502 9.933-10.325.106-1.418.18-2.848.18-4.299 0-16.834-7.318-31.671-18.441-40.413-11.123 8.741-18.441 23.578-18.441 40.413 0 1.451.074 2.88.18 4.299 3.74 2.823 7.116 6.301 9.934 10.325z" fill="#97d729"/><path d="m335.263 55.036c3.655 5.22 6.127 10.945 7.347 17.02h1.961c.57-2.839 1.425-5.598 2.535-8.268-3.267-6.937-5.136-14.897-5.136-23.375 0-12.086 3.786-23.129 10.031-31.639-2.453-3.343-5.273-6.308-8.41-8.773-11.123 8.741-18.441 23.578-18.441 40.412 0 1.451.074 2.88.18 4.299 3.739 2.822 7.115 6.3 9.933 10.324z" fill="#8bc727"/><path d="m312.032 73.978c10.415 5.039 19.569 13.559 25.853 24.443 1.867 3.233 3.47 6.689 4.765 10.274l.94 2.604.94-2.604c1.295-3.585 2.898-7.041 4.765-10.274 6.283-10.883 15.438-19.404 25.853-24.443.444-.576.88-1.161 1.302-1.763 8.103-11.572 10.214-25.293 6.775-36.655-11.853.655-24.025 7.332-32.127 18.904-3.835 5.476-6.31 11.434-7.508 17.395-1.198-5.961-3.674-11.919-7.508-17.395-8.103-11.572-20.274-18.248-32.127-18.904-3.438 11.362-1.327 25.083 6.775 36.655.422.603.858 1.188 1.302 1.763z" fill="#a2e62e"/><g><path d="m389.9 68.37c-16.052 2.303-31.822 12.838-41.47 29.55-1.965 3.403-3.563 6.9-4.84 10.435-1.277-3.535-2.875-7.032-4.84-10.435-9.649-16.713-25.418-27.247-41.47-29.55-6.032 15.053-4.793 33.977 4.856 50.69 4.9 8.487 11.382 15.371 18.674 20.403v361.69c0 5.991 4.857 10.847 10.847 10.847h23.864c5.991 0 10.847-4.857 10.847-10.847v-361.69c7.292-5.032 13.774-11.916 18.674-20.403 9.651-16.713 10.89-35.637 4.858-50.69z" fill="#97d729"/></g><g><g><path d="m342.219 501.153v-359.06c0-1.609-.748-3.128-2.033-4.097-6.463-4.872-12.202-11.247-16.641-18.936-8.228-14.251-10.32-30.102-7.024-43.798-6.098-3.586-12.641-5.945-19.24-6.892-6.032 15.053-4.793 33.977 4.856 50.69 4.9 8.487 11.382 15.371 18.674 20.403v361.69c0 5.991 4.857 10.847 10.847 10.847h21.408c-5.991 0-10.847-4.857-10.847-10.847z" fill="#8bc727"/></g></g><g><ellipse cx="314.485" cy="185.213" fill="#d1f19e" rx="14.939" ry="32.74" transform="matrix(.819 -.574 .574 .819 -49.36 213.877)"/></g><g><path d="m313.269 187.609c-5.983-8.544-8.57-18.299-7.977-27.324-3.159-1.064-6.383-1.713-9.586-1.89-3.319 10.969-1.281 24.216 6.541 35.388s19.573 17.617 31.016 18.25c.781-2.58 1.253-5.288 1.436-8.063-8.125-2.739-15.797-8.317-21.43-16.361z" fill="#bbec6c"/></g><g fill="#a2e62e"><path d="m341.421 256.093h-20.61v15h20.61c4.142 0 7.5-3.357 7.5-7.5s-3.358-7.5-7.5-7.5z"/><path d="m341.421 308.161h-20.61v15h20.61c4.142 0 7.5-3.357 7.5-7.5s-3.358-7.5-7.5-7.5z"/><path d="m341.421 360.229h-20.61v15h20.61c4.142 0 7.5-3.357 7.5-7.5s-3.358-7.5-7.5-7.5z"/><path d="m341.421 412.297h-20.61v15h20.61c4.142 0 7.5-3.357 7.5-7.5s-3.358-7.5-7.5-7.5z"/></g></g></g></svg>