<svg id="Layer_1" enable-background="new 0 0 501.539 501.539" height="512" viewBox="0 0 501.539 501.539" width="512" xmlns="http://www.w3.org/2000/svg"><g id="XMLID_617_"><path id="XMLID_657_" d="m197.097 22.961-6.329-3.17-.001 127.693 34.058 7.989 25.942-11.53 10-15.943-10-18.213c-.001-36.767-20.781-70.387-53.67-86.826z" fill="#ace233"/><path id="XMLID_658_" d="m115.767 89.75-7.01-1 30.485 87.503 50.234-28.419c-15.485-23.245-46.173-54.146-73.709-58.084z" fill="#ace233"/><g fill="#ffe705"><path id="XMLID_950_" d="m219.045 143.943c-50.967 0-95.088 33.587-109.8 80.824l78.189 22.514 63.333-31.699 10-43.812-10-27.826h-31.722z"/><path id="XMLID_952_" d="m138.768 313.5-50.322 32.147c-1.05 13.94-.063 27.841 2.823 41.294l104.831 10.674 54.667-32.033 10-22.914-10-20.164z"/><path id="XMLID_946_" d="m141.434 391.443-40.813 24.159c23.445 52.577 75.515 85.937 132.407 85.937h17.738l10-55.048-10-48.987z"/><path id="XMLID_959_" d="m139.434 238.166-36.709 19.568-8.888 52.858 101.597 6.004 55.333-26.014 10-20.812-10-22.266z"/></g><path id="XMLID_928_" d="m195.776 235.578-54.397-19.78-32.134 8.97c-1.962 6.302-3.408 12.844-4.271 19.585l-2.25 13.382 37.448-10.453 55.604 20.219c1.117-.406-7.449 2.709 54.99-19.996l10-16.734-10-15.188c-62.439 22.704-53.867 19.587-54.99 19.995z" fill="#ffcb00"/><path id="XMLID_953_" d="m195.776 310.578-55.495-20.18-46.444 20.193c-.232 1.381 1.216-7.249-4.689 27.963-.296 2.363-.525 4.729-.703 7.093l52.826-22.968 54.505 19.82c1.117-.406-7.449 2.709 54.99-19.996l10-18.234-10-13.688c-62.439 22.706-53.867 19.589-54.99 19.997z" fill="#ffcb00"/><path id="XMLID_973_" d="m195.776 385.578-55.532-20.193-48.976 21.557c2.113 9.849 5.248 19.455 9.353 28.661l40.688-17.909 54.468 19.807c1.117-.406-7.449 2.709 54.99-19.996l10-15.734-10-16.188c-62.44 22.704-53.868 19.587-54.991 19.995z" fill="#ffcb00"/><path id="XMLID_659_" d="m390.257 88.701c-28.32 4.05-52.97 20.27-67.99 43.7-1.259 1.959-5.689 8.874-9.847 15.53l50.326 28.755 34.521-88.985z" fill="#70d840"/><path id="XMLID_656_" d="m250.767 95.079v48.864l30 20.557 30-17.023v-147.477c-36.77 18.39-60 53.97-60 95.079z" fill="#70d840"/><path id="XMLID_762_" d="m306.768 254.833 86.085-28.206c-14.121-48.214-58.731-82.684-110.364-82.684h-31.722v71.639l.01-.004z" fill="#ffcb00"/><path id="XMLID_957_" d="m412.837 342.668-50.069-29.168-111.991 9-.01.004v43.078l.01-.004 53.323 31.922 105.867-9.152c3.34-14.846 4.352-30.258 2.87-45.68z" fill="#ffcb00"/><path id="XMLID_927_" d="m250.776 397.5-.01.004v104.035h17.739c56.053 0 107.924-32.486 131.798-84.565l-40.87-30.141z" fill="#ffcb00"/><path id="XMLID_951_" d="m303.434 322.5 103.894-14.102-8.053-47.888-31.841-25.01-116.658 12-.009.004v43.078l.009-.004z" fill="#ffcb00"/><path id="XMLID_945_" d="m305.776 267.5 55.152-20.059 38.347 13.068-2.717-16.156c-.777-6.08-2.029-12-3.706-17.727l-32.247-10.99-54.829 19.941-55-20-.01.004v31.922l.01-.004z" fill="#ff9d21"/><path id="XMLID_968_" d="m305.776 342.5 54.841-19.945 52.22 20.113c-.574-5.973-.309-2.938-5.509-34.27l-46.41-17.875-55.142 20.055-55-20-.01.004v31.922l.01-.004z" fill="#ff9d21"/><path id="XMLID_969_" d="m305.776 385.578-55-20-.01.004v31.922l.01-.004 55 20 54.214-19.717 40.314 19.19c4.21-9.185 7.448-18.78 9.663-28.626l-48.424-23.051z" fill="#ff9d21"/></g></svg>