<svg id="Capa_1" enable-background="new 0 0 512 512" height="512" viewBox="0 0 512 512" width="512" xmlns="http://www.w3.org/2000/svg"><g><g><path d="m292.071 125.065c7.578 2.278 15.355 7.845 20.003 11.181 1.688 1.212 3.022 2.169 3.938 2.692 1.383.79 2.82 1.19 4.272 1.19 9.102 0 19.832-15.903 22.865-60.354-19.1-26.386-50.149-43.555-85.213-43.555-9.182 0-18.087 1.18-26.577 3.392 33.331 16.309 56.279 48.637 60.712 85.454z" fill="#a2e62e"/><path d="m292.071 125.065c3.695 1.111 7.43 2.994 10.833 5.033-2.327-11.097.8-23.12 9.399-31.718 2.929-2.93 2.929-7.678 0-10.607-2.93-2.928-7.678-2.928-10.607 0-6.239 6.239-10.457 13.74-12.68 21.687 1.384 5.086 2.416 10.297 3.055 15.605z" fill="#8bc727"/><g><path d="m285.113 97.765c-1.774-10.686 1.443-22.046 9.67-30.272 2.929-2.93 2.929-7.678 0-10.607-2.93-2.928-7.678-2.928-10.607 0-5.254 5.254-9.072 11.406-11.477 17.962 5.016 7.098 9.185 14.793 12.414 22.917z" fill="#97d729"/></g><path d="m212.881 169.979c12.361 12.362 25.83 23.029 39.935 31.761 8.5-14.334 15.258-31.125 16.301-49.199 1.092-18.916 6.719-28.508 16.725-28.508 2.346 0 4.812.518 7.282 1.356-4.86-42.399-33.68-77.512-72.589-91.446-1.11-.398-2.334-.398-3.445 0-24.204 8.668-44.5 25.535-57.56 47.249 8.664 31.538 27.528 62.965 53.351 88.787z" fill="#bbec6c"/><path d="m181.114 129.927c-3.367-13.129 1.32-29.232 13.328-41.239 2.929-2.93 2.929-7.678 0-10.607-2.928-2.928-7.677-2.928-10.606 0-7.761 7.761-13.143 16.897-16.083 26.33 3.751 8.658 8.226 17.202 13.361 25.516z" fill="#97d729"/><path d="m212.806 169.904c-7.66-13.911-3.95-33.709 10.041-47.7 2.929-2.93 2.929-7.678 0-10.607-2.929-2.928-7.678-2.928-10.606 0-10.682 10.683-16.746 24.051-18.026 37.209 5.693 7.344 11.908 14.409 18.591 21.098z" fill="#97d729"/><path d="m218.929 243.084c8.28-7.645 23.007-22.706 34.401-42.221-13.855-8.57-27.279-19.127-39.742-31.59-27.572-27.573-45.834-59.84-53.827-91.1-1.13-4.42-7.038-5.314-9.385-1.401-10.425 17.377-16.333 37.771-16.097 59.565.56 51.525 35.969 95.128 83.625 108.227.225-.549.565-1.055 1.025-1.48z" fill="#a2e62e"/><path d="m218.929 243.084c1.472-1.359 3.156-2.964 4.98-4.774-36.856-18.515-62.428-56.537-62.903-100.262-.144-13.261 1.999-25.999 6.039-37.86-2.979-7.345-5.416-14.707-7.284-22.015-1.13-4.42-7.038-5.314-9.385-1.401-10.425 17.377-16.333 37.771-16.097 59.565.56 51.525 35.969 95.128 83.625 108.227.225-.549.565-1.055 1.025-1.48z" fill="#97d729"/><g><path d="m234.096 237.551c33.059-.001 62.479-12.392 85.084-35.833 42.394-43.965 42.323-96.346 28.91-129.837-.913-1.388-1.82-2.662-2.713-3.809.004-.012.009-.022.013-.034-1.678 1.845-2.816 5.209-3.142 10.316-3.089 48.39-15.745 65.427-25.74 59.716-7.207-4.118-45.302-39.124-48.39 14.414-2.098 36.361-27.464 67.495-43.526 83.732 1.114.405 2.356.805 3.701 1.195 1.945.083 3.886.14 5.803.14z" fill="#97d729"/></g><path d="m289.5 212.704c0 4.864-1.402 9.514-4.009 13.497 6.638-3.179 12.97-7.016 18.958-11.486.033-.668.05-1.338.05-2.011 0-10.61-4.136-20.589-11.647-28.1-2.928-2.928-7.677-2.929-10.606.001-2.929 2.929-2.929 7.678.001 10.606 4.677 4.678 7.253 10.89 7.253 17.493z" fill="#8bc727"/><path d="m320.5 191.112c0 4.66-1.288 9.122-3.687 12.99.796-.783 1.587-1.576 2.367-2.385 5.959-6.18 11.072-12.526 15.434-18.963-1.583-7.422-5.263-14.245-10.76-19.742-2.93-2.928-7.678-2.928-10.607 0-2.929 2.93-2.929 7.678 0 10.607 4.677 4.678 7.253 10.891 7.253 17.493z" fill="#8bc727"/><g><path d="m345.377 68.072c13.536 29.684 18.962 85.372-26.918 132.952-30.862 32.005-67.434 37.044-93.867 35.192-2.345 2.371-4.495 4.428-6.342 6.134-2.975 2.747-1.74 7.678 2.166 8.743 21.351 5.818 76.864 14.91 120.802-30.655 71.541-74.191 18.351-168.105 4.159-152.366z" fill="#a2e62e"/></g><path d="m197.076 163.318c4.107-.533 7.96-.289 11.402.677-4.742-5.056-9.176-10.253-13.307-15.556-.008.001-.015.001-.023.002-12.348 1.602-24.509 7.844-34.244 17.578-2.929 2.93-2.929 7.678 0 10.607 1.464 1.464 3.384 2.196 5.303 2.196s3.839-.732 5.303-2.196c7.406-7.404 16.486-12.131 25.566-13.308z" fill="#8bc727"/></g><g><path d="m426.343 347.455c7.578 2.278 15.355 7.845 20.003 11.181 1.688 1.212 3.022 2.169 3.938 2.692 1.383.79 2.82 1.19 4.272 1.19 9.102 0 19.832-15.903 22.865-60.354-19.1-26.386-50.149-43.555-85.213-43.555-9.182 0-18.087 1.18-26.577 3.392 33.331 16.309 56.279 48.637 60.712 85.454z" fill="#a2e62e"/><path d="m426.343 347.455c3.695 1.111 7.43 2.994 10.833 5.033-2.327-11.097.8-23.12 9.399-31.718 2.929-2.93 2.929-7.678 0-10.607-2.93-2.928-7.678-2.928-10.607 0-6.239 6.239-10.457 13.74-12.68 21.687 1.385 5.086 2.416 10.297 3.055 15.605z" fill="#8bc727"/><g><path d="m419.385 320.155c-1.774-10.686 1.443-22.046 9.67-30.272 2.929-2.93 2.929-7.678 0-10.607-2.93-2.928-7.678-2.928-10.607 0-5.254 5.254-9.072 11.406-11.477 17.962 5.016 7.098 9.186 14.793 12.414 22.917z" fill="#97d729"/></g><path d="m347.153 392.37c12.361 12.362 25.83 23.029 39.935 31.761 8.5-14.334 15.258-31.125 16.301-49.199 1.092-18.916 6.719-28.508 16.725-28.508 2.346 0 4.812.518 7.282 1.356-4.86-42.399-33.68-77.512-72.589-91.446-1.11-.398-2.334-.398-3.445 0-24.204 8.668-44.5 25.535-57.56 47.249 8.665 31.537 27.528 62.964 53.351 88.787z" fill="#bbec6c"/><path d="m315.386 352.317c-3.367-13.129 1.32-29.232 13.328-41.24 2.929-2.93 2.929-7.678 0-10.607-2.928-2.928-7.677-2.928-10.606 0-7.761 7.761-13.143 16.897-16.083 26.33 3.751 8.659 8.227 17.203 13.361 25.517z" fill="#97d729"/><path d="m347.079 392.294c-7.66-13.911-3.95-33.709 10.041-47.7 2.929-2.93 2.929-7.678 0-10.607-2.929-2.928-7.678-2.928-10.606 0-10.682 10.683-16.746 24.051-18.026 37.209 5.693 7.344 11.908 14.409 18.591 21.098z" fill="#97d729"/><path d="m353.201 465.474c8.28-7.645 23.007-22.706 34.401-42.221-13.855-8.57-27.279-19.127-39.742-31.59-27.572-27.573-45.834-59.84-53.827-91.1-1.13-4.42-7.038-5.314-9.385-1.401-10.425 17.377-16.333 37.771-16.097 59.565.56 51.525 35.969 95.128 83.625 108.227.225-.549.565-1.055 1.025-1.48z" fill="#a2e62e"/><path d="m353.201 465.474c1.472-1.359 3.156-2.964 4.98-4.774-36.856-18.515-62.428-56.537-62.903-100.262-.144-13.261 1.999-25.999 6.039-37.86-2.979-7.345-5.416-14.707-7.284-22.015-1.13-4.42-7.038-5.314-9.385-1.401-10.425 17.377-16.333 37.771-16.097 59.565.56 51.525 35.969 95.128 83.625 108.227.225-.549.565-1.055 1.025-1.48z" fill="#97d729"/><g><path d="m368.368 459.941c33.059-.001 62.479-12.392 85.084-35.833 42.394-43.965 42.323-96.346 28.91-129.837-.913-1.388-1.82-2.662-2.713-3.809.004-.012.009-.022.013-.034-1.678 1.845-2.816 5.209-3.142 10.316-3.089 48.39-15.745 65.427-25.74 59.716-7.207-4.118-45.302-39.124-48.39 14.414-2.098 36.361-27.464 67.495-43.526 83.732 1.114.405 2.356.805 3.701 1.195 1.946.083 3.887.14 5.803.14z" fill="#97d729"/></g><path d="m423.772 435.094c0 4.864-1.402 9.514-4.009 13.497 6.638-3.179 12.97-7.016 18.958-11.486.033-.668.05-1.338.05-2.011 0-10.61-4.136-20.589-11.647-28.1-2.928-2.928-7.677-2.929-10.606.001-2.929 2.929-2.929 7.678.001 10.606 4.677 4.678 7.253 10.89 7.253 17.493z" fill="#8bc727"/><path d="m454.772 413.502c0 4.66-1.288 9.122-3.687 12.99.796-.783 1.587-1.576 2.367-2.385 5.959-6.18 11.072-12.526 15.434-18.963-1.583-7.422-5.263-14.245-10.76-19.742-2.93-2.928-7.678-2.928-10.607 0-2.929 2.93-2.929 7.678 0 10.607 4.677 4.678 7.253 10.891 7.253 17.493z" fill="#8bc727"/><g><path d="m479.65 290.462c13.536 29.684 18.962 85.372-26.918 132.952-30.862 32.005-67.434 37.044-93.867 35.192-2.345 2.371-4.495 4.428-6.342 6.134-2.975 2.747-1.74 7.678 2.166 8.743 21.351 5.818 76.864 14.91 120.802-30.655 71.541-74.191 18.351-168.105 4.159-152.366z" fill="#a2e62e"/></g><path d="m331.349 385.708c4.107-.533 7.96-.289 11.402.677-4.742-5.056-9.176-10.253-13.307-15.556-.008.001-.015.001-.023.002-12.348 1.602-24.509 7.844-34.244 17.578-2.929 2.93-2.929 7.678 0 10.607 1.464 1.464 3.384 2.196 5.303 2.196s3.839-.732 5.303-2.196c7.405-7.404 16.485-12.131 25.566-13.308z" fill="#8bc727"/></g><g><path d="m157.798 347.455c7.578 2.278 15.355 7.845 20.003 11.181 1.688 1.212 3.022 2.169 3.938 2.692 1.383.79 2.82 1.19 4.272 1.19 9.102 0 19.832-15.903 22.865-60.354-19.1-26.386-50.149-43.555-85.213-43.555-9.182 0-18.087 1.18-26.577 3.392 33.331 16.309 56.28 48.637 60.712 85.454z" fill="#a2e62e"/><path d="m157.798 347.455c3.695 1.111 7.43 2.994 10.833 5.033-2.327-11.097.8-23.12 9.399-31.718 2.929-2.93 2.929-7.678 0-10.607-2.93-2.928-7.678-2.928-10.607 0-6.239 6.239-10.457 13.74-12.68 21.687 1.385 5.086 2.416 10.297 3.055 15.605z" fill="#8bc727"/><g><path d="m150.84 320.155c-1.774-10.686 1.443-22.046 9.67-30.272 2.929-2.93 2.929-7.678 0-10.607-2.93-2.928-7.678-2.928-10.607 0-5.254 5.254-9.072 11.406-11.477 17.962 5.017 7.098 9.186 14.793 12.414 22.917z" fill="#97d729"/></g><path d="m78.608 392.37c12.361 12.362 25.83 23.029 39.935 31.761 8.5-14.334 15.258-31.125 16.301-49.199 1.092-18.916 6.719-28.508 16.725-28.508 2.346 0 4.812.518 7.282 1.356-4.86-42.399-33.68-77.512-72.589-91.446-1.11-.398-2.334-.398-3.445 0-24.204 8.668-44.5 25.535-57.56 47.249 8.665 31.537 27.528 62.964 53.351 88.787z" fill="#bbec6c"/><path d="m46.842 352.317c-3.367-13.129 1.32-29.232 13.328-41.24 2.929-2.93 2.929-7.678 0-10.607-2.928-2.928-7.677-2.928-10.606 0-7.761 7.761-13.143 16.897-16.083 26.33 3.751 8.659 8.226 17.203 13.361 25.517z" fill="#97d729"/><path d="m78.534 392.294c-7.66-13.911-3.95-33.709 10.041-47.7 2.929-2.93 2.929-7.678 0-10.607-2.929-2.928-7.678-2.928-10.606 0-10.682 10.683-16.746 24.051-18.026 37.209 5.693 7.344 11.908 14.409 18.591 21.098z" fill="#97d729"/><path d="m84.656 465.474c8.28-7.645 23.007-22.706 34.401-42.221-13.855-8.57-27.279-19.127-39.742-31.59-27.572-27.573-45.834-59.84-53.827-91.1-1.13-4.42-7.038-5.314-9.385-1.401-10.424 17.376-16.333 37.771-16.096 59.564.56 51.525 35.969 95.128 83.625 108.227.224-.548.564-1.054 1.024-1.479z" fill="#a2e62e"/><path d="m84.656 465.474c1.472-1.359 3.156-2.964 4.98-4.774-36.856-18.515-62.428-56.537-62.903-100.262-.144-13.261 1.999-25.999 6.039-37.86-2.979-7.345-5.416-14.707-7.284-22.015-1.13-4.42-7.038-5.314-9.385-1.401-10.424 17.376-16.333 37.771-16.096 59.564.56 51.525 35.969 95.128 83.625 108.227.224-.548.564-1.054 1.024-1.479z" fill="#97d729"/><g><path d="m99.823 459.941c33.059-.001 62.479-12.392 85.084-35.833 42.394-43.965 42.323-96.346 28.91-129.837-.913-1.388-1.82-2.662-2.713-3.809.004-.012.009-.022.013-.034-1.678 1.845-2.816 5.209-3.142 10.316-3.089 48.39-15.745 65.427-25.74 59.716-7.207-4.118-45.302-39.124-48.39 14.414-2.098 36.361-27.463 67.495-43.526 83.732 1.114.405 2.356.805 3.701 1.195 1.946.083 3.887.14 5.803.14z" fill="#97d729"/></g><path d="m155.228 435.094c0 4.864-1.402 9.514-4.009 13.497 6.638-3.179 12.97-7.016 18.958-11.486.033-.668.05-1.338.05-2.011 0-10.61-4.136-20.589-11.647-28.1-2.928-2.928-7.677-2.929-10.606.001-2.929 2.929-2.929 7.678.001 10.606 4.676 4.678 7.253 10.89 7.253 17.493z" fill="#8bc727"/><path d="m186.228 413.502c0 4.66-1.288 9.122-3.687 12.99.796-.783 1.587-1.576 2.367-2.385 5.959-6.18 11.072-12.526 15.434-18.963-1.583-7.422-5.263-14.245-10.76-19.742-2.93-2.928-7.678-2.928-10.607 0-2.929 2.93-2.929 7.678 0 10.607 4.676 4.678 7.253 10.891 7.253 17.493z" fill="#8bc727"/><g><path d="m211.105 290.462c13.536 29.684 18.962 85.372-26.918 132.952-30.862 32.005-67.434 37.044-93.867 35.192-2.345 2.371-4.495 4.428-6.342 6.134-2.975 2.747-1.74 7.678 2.166 8.743 21.351 5.818 76.864 14.91 120.802-30.655 71.541-74.191 18.351-168.105 4.159-152.366z" fill="#a2e62e"/></g><path d="m62.804 385.708c4.107-.533 7.96-.289 11.402.677-4.742-5.056-9.176-10.253-13.307-15.556-.008.001-.015.001-.023.002-12.348 1.602-24.509 7.844-34.244 17.578-2.929 2.93-2.929 7.678 0 10.607 1.464 1.464 3.384 2.196 5.303 2.196s3.839-.732 5.303-2.196c7.406-7.404 16.485-12.131 25.566-13.308z" fill="#8bc727"/></g></g></svg>