<svg id="Layer_1" enable-background="new 0 0 510.023 510.023" height="512" viewBox="0 0 510.023 510.023" width="512" xmlns="http://www.w3.org/2000/svg"><g id="XMLID_197_"><path id="XMLID_370_" d="m238.281 36.385-24.559 17.23c17.199 24.513 26.289 53.292 26.289 83.226v3.416l4.167 11.743 10.833-1.71 10-36.457-10-47.884c-4.574-10.29-10.153-20.188-16.73-29.564z" fill="#954c20"/><path id="XMLID_376_" d="m293.485 90.257 6.776-15.507-15.25-13.819c-9.925 1.225-19.685 3.645-29.03 7.204-.313-.732-.646-1.457-.97-2.185v84.341l5.927 4.934 9.073-14.967c-.114-2.222.842-20.288-4.645-43.6 8.974-3.572 18.479-5.721 28.119-6.401z" fill="#7e3e19"/><path id="XMLID_236_" d="m248.59 147.767c-31.952-29.869-68.707-42.444-103.496-35.409-37.044 7.491-67.083 35.865-84.584 79.894-34.394 86.525-9.705 208.711 55.638 275.099 47.108 47.863 99.883 52.122 138.862 29.275l10-186.388-10-159.947c-2.309-.001-4.62-.843-6.42-2.524z" fill="#ff6326"/><path id="XMLID_235_" d="m449.511 192.251c-17.501-44.028-47.539-72.402-84.583-79.894v-.001c-34.79-7.032-71.544 5.541-103.495 35.41-1.801 1.682-4.111 2.523-6.422 2.523v346.335c38.494 22.562 91.295 19.054 138.862-29.275 65.315-66.36 90.047-188.538 55.638-275.098z" fill="#ff1f3d"/><path id="XMLID_374_" d="m344.896 0c-33.02 0-59.885 26.864-59.885 59.885v1.046l8.474 29.326c6.616-.467 5.701-.16 51.642-.257 33.021 0 59.885-26.864 59.885-59.884v-30.116z" fill="#ace233"/></g></svg>