<svg id="Capa_1" enable-background="new 0 0 512 512" height="512" viewBox="0 0 512 512" width="512" xmlns="http://www.w3.org/2000/svg"><g><g><path d="m265.016 262.457c14.344 5.083 27.366 12.558 38.682 21.872 17.995-10.529 38.919-16.574 61.23-16.574 10.694 0 21.068 1.393 30.955 3.997 1.453-6.469 2.225-13.193 2.225-20.095 0-50.54-41.117-91.657-91.657-91.657-44.068 0-80.967 31.262-89.697 72.772 13.599 13.078 30.051 23.231 48.262 29.685z" fill="#f6c2e0"/><path d="m265.016 262.457c14.344 5.083 27.366 12.558 38.682 21.872 17.995-10.529 38.919-16.574 61.23-16.574h.031c1.413-5.13 2.184-10.524 2.184-16.098 0-33.466-27.227-60.692-60.692-60.692s-60.692 27.227-60.692 60.692c0 .761.03 1.515.058 2.269 6.131 3.308 12.544 6.173 19.199 8.531z" fill="#fcd1e8"/><path d="m253.626 257.822c-.235-2.024-.369-4.078-.369-6.164 0-29.33 23.862-53.192 53.192-53.192s53.192 23.862 53.192 53.192c0 5.707-.914 11.202-2.585 16.359 2.603-.167 5.225-.262 7.87-.262 2.594 0 5.166.091 7.72.252 1.295-5.241 1.995-10.714 1.995-16.349 0-37.602-30.591-68.192-68.192-68.192-36.898 0-67.024 29.462-68.139 66.095 4.902 3.065 10.016 5.827 15.316 8.261z" fill="#f6a6d2"/><path d="m298.502 280.297c2.532.703 5.195 1.088 7.948 1.088.959 0 1.907-.05 2.844-.139 5.28-2.727 10.782-5.08 16.474-7.021 6.364-5.456 10.409-13.545 10.409-22.566 0-16.392-13.335-29.727-29.727-29.727s-29.727 13.335-29.727 29.727c0 7.318 2.663 14.022 7.065 19.208 5.149 2.817 10.055 5.979 14.714 9.43z" fill="#f6c2e0"/><path d="m303.697 284.329c10.659-6.237 22.347-10.897 34.742-13.661 3.322-5.569 5.237-12.069 5.237-19.011 0-20.526-16.7-37.227-37.227-37.227s-37.227 16.7-37.227 37.227c0 4.731.897 9.254 2.513 13.421 11.707 4.904 22.444 11.416 31.962 19.251zm2.753-54.898c12.256 0 22.227 9.971 22.227 22.227s-9.971 22.227-22.227 22.227-22.227-9.971-22.227-22.227 9.971-22.227 22.227-22.227z" fill="#f6a6d2"/></g><g><g><path d="m186.98 198.429h1.988c1.903-18.133 5.093-35.23 9.511-51.188v-20.096c0-27.646-1.588-55.269-4.757-82.732l-5.052-43.793c-.095-.827-1.296-.827-1.392 0l-5.053 43.793c-3.169 27.464-4.757 55.086-4.757 82.732v20.095c4.419 15.959 7.609 33.056 9.512 51.189z" fill="#07b27b"/></g><path d="m168.138 221.722.748 1h38.175l.748-1c7.124-116.448 65.054-177.469 80.074-191.429.587-.545-.057-1.493-.779-1.148-73.05 34.933-93.63 116.761-99.13 169.18-5.5-52.419-26.08-134.247-99.13-169.18-.722-.345-1.366.603-.78 1.148 15.02 13.959 72.95 74.981 80.074 191.429z" fill="#05e39c"/></g><g><g><g><path d="m110.598 261.514c22.471-7.964 42.392-21.624 57.54-39.793h39.671c15.148 18.168 35.069 31.829 57.54 39.793 50.049 17.737 86.148 65.645 86.148 121.576 0 70.9-58.009 128.909-128.909 128.909h-69.23c-70.899.001-128.908-58.008-128.908-128.909 0-55.93 36.099-103.838 86.148-121.576z" fill="#e03d9c"/></g><g><path d="m141.763 261.515c13.421-7.964 25.318-21.625 34.364-39.793h23.693c9.046 18.168 20.944 31.829 34.364 39.793 29.891 17.737 51.45 65.645 51.45 121.576 0 70.9-34.644 128.909-76.988 128.909h-41.346c-42.343 0-76.988-58.009-76.988-128.909.001-55.931 21.561-103.839 51.451-121.576z" fill="#c53287"/></g><path d="m184.01 221.722h7.927c3.027 18.168 7.008 31.829 11.498 39.793 10.001 17.737 17.215 65.645 17.215 121.576 0 70.9-11.592 128.909-25.76 128.909h-13.834c-14.168 0-25.76-58.009-25.76-128.909 0-55.93 7.214-103.838 17.215-121.576 4.492-7.964 8.473-21.625 11.499-39.793z" fill="#e03d9c"/></g></g><g><g><circle cx="364.927" cy="389.377" fill="#fcd1e8" r="122.623"/></g><g><circle cx="364.927" cy="389.377" fill="#f6c2e0" r="91.657"/></g><g><path d="m364.928 488.534c-54.676 0-99.158-44.481-99.158-99.157s44.482-99.157 99.158-99.157 99.157 44.481 99.157 99.157-44.481 99.157-99.157 99.157zm0-183.314c-46.405 0-84.158 37.753-84.158 84.157s37.753 84.157 84.158 84.157c46.404 0 84.157-37.753 84.157-84.157s-37.753-84.157-84.157-84.157z" fill="#f6a6d2"/></g><g><circle cx="364.927" cy="389.377" fill="#fcd1e8" r="60.692"/></g><g><path d="m364.928 457.569c-37.602 0-68.192-30.591-68.192-68.192s30.591-68.191 68.192-68.191 68.191 30.591 68.191 68.191c0 37.602-30.591 68.192-68.191 68.192zm0-121.383c-29.33 0-53.192 23.861-53.192 53.191s23.862 53.192 53.192 53.192 53.191-23.862 53.191-53.192-23.861-53.191-53.191-53.191z" fill="#f6a6d2"/></g><g><circle cx="364.927" cy="389.377" fill="#f6c2e0" r="29.727"/></g><g><path d="m364.928 426.604c-20.527 0-37.228-16.7-37.228-37.227s16.7-37.227 37.228-37.227c20.526 0 37.227 16.7 37.227 37.227s-16.701 37.227-37.227 37.227zm0-59.454c-12.256 0-22.228 9.971-22.228 22.227s9.972 22.227 22.228 22.227 22.227-9.971 22.227-22.227-9.971-22.227-22.227-22.227z" fill="#f6a6d2"/></g></g></g></svg>