<svg id="Layer_1" enable-background="new 0 0 509.223 509.223" height="512" viewBox="0 0 509.223 509.223" width="512" xmlns="http://www.w3.org/2000/svg"><g id="XMLID_398_"><path id="XMLID_1169_" d="m197.575 58.673c-.361-.376-.726-.748-1.094-1.116-40.339-40.34-116.344-25.954-119.56-25.322l-9.882 1.942-1.943 9.882c-.522 2.661-11.612 61.092 12.456 102.693l123.811-37.002z" fill="#ace233"/><path id="XMLID_1167_" d="m190.966 89.237 4.148 4.513 6.328-4.321 10-14.679-10-25.643c-5.703 12.58-9.294 26.142-10.476 40.13z" fill="#954c20"/><path id="XMLID_902_" d="m241.841 0c-17.795 12.657-31.607 29.714-40.399 49.107v40.321l10.422 5.446 9.002-3.205c2.281-26.786 16.26-51.5 38.364-67.224z" fill="#7e3e19"/><path id="XMLID_901_" d="m127.914 103.336c-43.855 20.258-74.786 69.648-78.801 125.827-3.574 50.008 15.929 87.729 36.576 127.663 1.082 2.093 2.17 4.197 3.263 6.318 6.222 12.072 13.532 28.026 14.841 44.388 1.162 14.472-5.773 31.214-4.006 50.509 2.552 27.85 16.584 40.227 27.907 45.706 22.05 10.672 51.001 3.921 73.747-4.916l10-198.831-10-210.57c-25.093-1.369-50.399 3.226-73.527 13.906z" fill="#ffe705"/><path id="XMLID_900_" d="m268.79 108.571c-20.997-11.479-44.082-17.873-67.349-19.142v409.401c22.837-8.871 41.301-20.58 45.074-23.042 3.681-2.398 7.326-4.964 10.915-7.68l62.88-315.807c-13.629-17.792-30.925-32.479-51.52-43.73z" fill="#ffcb00"/><path id="XMLID_1168_" d="m330.989 151.95v357.272c35.22 0 68.655-25.598 94.147-72.078 22.165-40.413 35.398-92.482 35.398-139.285.001-95.639-55.117-145.909-129.545-145.909z" fill="#ffcb00"/><path id="XMLID_1170_" d="m201.444 297.859c0 46.803 13.232 98.872 35.397 139.285 25.492 46.48 58.928 72.078 94.147 72.078l10-175.223-10-182.05c-74.414.001-129.544 50.258-129.544 145.91z" fill="#ffe705"/><path id="XMLID_903_" d="m231.444 297.859c0 41.99 11.851 88.666 31.701 124.858 19.694 35.91 44.423 56.505 67.844 56.505l10-148.223-10-149.05c-63.261.001-99.545 42.248-99.545 115.91z" fill="#ffcb00"/><path id="XMLID_1172_" d="m330.989 181.95v297.272c23.421 0 48.149-20.595 67.845-56.505 19.85-36.192 31.701-82.869 31.701-124.858 0-73.662-36.283-115.909-99.546-115.909z" fill="#ff9d21"/></g></svg>