<svg id="Capa_1" enable-background="new 0 0 512 512" height="512" viewBox="0 0 512 512" width="512" xmlns="http://www.w3.org/2000/svg"><g><g><path d="m504.209 178.954c-2.93-2.928-7.678-2.928-10.607 0l-101.022 101.022c3.595 3.617 6.836 7.473 9.679 11.535l101.95-101.95c2.929-2.929 2.929-7.677 0-10.607z" fill="#00c285"/><g><path d="m504.5 217.644h-31.48c-4.143 0-7.5-3.357-7.5-7.5v-31.48c0-4.143 3.357-7.5 7.5-7.5s7.5 3.357 7.5 7.5v23.98h23.98c4.143 0 7.5 3.357 7.5 7.5s-3.357 7.5-7.5 7.5z" fill="#0ed290"/></g><g><path d="m486.838 242.721h-38.896c-4.143 0-7.5-3.357-7.5-7.5v-38.896c0-4.143 3.357-7.5 7.5-7.5s7.5 3.357 7.5 7.5v31.396h31.396c4.143 0 7.5 3.357 7.5 7.5s-3.358 7.5-7.5 7.5z" fill="#0ed290"/></g><g><path d="m472.277 267.797h-49.412c-4.143 0-7.5-3.357-7.5-7.5v-49.411c0-4.143 3.357-7.5 7.5-7.5s7.5 3.357 7.5 7.5v41.911h41.912c4.143 0 7.5 3.357 7.5 7.5s-3.357 7.5-7.5 7.5z" fill="#0ed290"/></g><path d="m455.29 277.874h-50.001v-50.001c0-4.143-3.357-7.5-7.5-7.5s-7.5 3.357-7.5 7.5v49.869c4.937 4.64 9.274 9.71 12.91 15.132h52.091c4.143 0 7.5-3.357 7.5-7.5s-3.357-7.5-7.5-7.5z" fill="#0ed290"/></g><g><path d="m113.122 310.924-94.724-94.724c-2.93-2.928-7.678-2.928-10.607 0-2.929 2.93-2.929 7.678 0 10.607l95.941 95.941c2.643-4.204 5.793-8.162 9.39-11.824z" fill="#00c285"/><g><path d="m38.98 254.89h-31.48c-4.143 0-7.5-3.357-7.5-7.5s3.357-7.5 7.5-7.5h23.98v-23.98c0-4.143 3.357-7.5 7.5-7.5s7.5 3.357 7.5 7.5v31.48c0 4.142-3.357 7.5-7.5 7.5z" fill="#0ed290"/></g><g><path d="m64.058 279.967h-38.896c-4.143 0-7.5-3.357-7.5-7.5s3.357-7.5 7.5-7.5h31.396v-31.397c0-4.143 3.357-7.5 7.5-7.5s7.5 3.357 7.5 7.5v38.896c0 4.143-3.358 7.501-7.5 7.501z" fill="#0ed290"/></g><g><path d="m89.135 305.043h-49.412c-4.143 0-7.5-3.357-7.5-7.5s3.357-7.5 7.5-7.5h41.912v-41.911c0-4.143 3.357-7.5 7.5-7.5s7.5 3.357 7.5 7.5v49.411c0 4.143-3.358 7.5-7.5 7.5z" fill="#0ed290"/></g><path d="m121.711 303.381v-38.262c0-4.143-3.357-7.5-7.5-7.5s-7.5 3.357-7.5 7.5v50.001h-50.001c-4.143 0-7.5 3.357-7.5 7.5s3.357 7.5 7.5 7.5h43.015c4.696-10.266 12.3-19.391 21.986-26.739z" fill="#0ed290"/></g><g><path d="m217.968 291.442c9.579-13.656 23.647-24.984 40.566-32.66v-39.701h-104.09v68.709c8.238-2.126 17.005-3.283 26.102-3.283 13.402 0 26.099 2.493 37.422 6.935z" fill="#fef0ae"/><path d="m196.91 285.785v-66.704h-42.466v68.709c8.238-2.126 17.005-3.283 26.102-3.283 5.596 0 11.062.449 16.364 1.278z" fill="#fee97d"/><g><path d="m283.156 220.081c19.344 0 36.391-12.738 41.845-31.296 2.173-7.393 3.324-15.109 3.324-23.044 0-54.652-54.548-98.956-121.836-98.956s-121.835 44.305-121.835 98.957c0 8.369 1.28 16.495 3.69 24.257 5.596 18.025 22.586 30.083 41.46 30.083h153.352z" fill="#f6a96c"/></g><g><path d="m147.69 189.998c-2.41-7.761-3.69-15.887-3.69-24.256 0-46.338 39.217-85.232 92.162-95.994-9.499-1.931-19.437-2.962-29.673-2.962-67.288 0-121.836 44.304-121.836 98.956 0 8.369 1.281 16.495 3.69 24.256 5.597 18.025 22.586 30.083 41.46 30.083h59.346c-18.873 0-35.862-12.058-41.459-30.083z" fill="#ea9b58"/></g><g><g><path d="m174 126.5h-14.872c-4.143 0-7.5-3.357-7.5-7.5s3.357-7.5 7.5-7.5h14.872c4.143 0 7.5 3.357 7.5 7.5s-3.357 7.5-7.5 7.5z" fill="#ffbd86"/></g><g><path d="m132.872 176.5h-14.872c-4.143 0-7.5-3.357-7.5-7.5s3.357-7.5 7.5-7.5h14.872c4.143 0 7.5 3.357 7.5 7.5s-3.357 7.5-7.5 7.5z" fill="#ffbd86"/></g><g><path d="m270.553 135.5h-14.872c-4.143 0-7.5-3.357-7.5-7.5s3.357-7.5 7.5-7.5h14.872c4.143 0 7.5 3.357 7.5 7.5s-3.358 7.5-7.5 7.5z" fill="#ffbd86"/></g><g><path d="m223.649 176.102h-14.872c-4.143 0-7.5-3.357-7.5-7.5s3.357-7.5 7.5-7.5h14.872c4.143 0 7.5 3.357 7.5 7.5s-3.357 7.5-7.5 7.5z" fill="#ffbd86"/></g></g></g><g><path d="m264.505 380.389 6.653 54.802c.695 5.721 5.551 10.024 11.314 10.024h55.34c5.747 0 10.595-4.279 11.309-9.982l6.865-54.844z" fill="#fef0ae"/><path d="m310.204 435.19-6.653-54.802h-39.046l6.653 54.802c.695 5.721 5.551 10.024 11.314 10.024h39.045c-5.762 0-10.618-4.302-11.313-10.024z" fill="#fee97d"/><path d="m310.09 246.899c-39.95 0-74.775 17.803-93.119 44.172 29.348 11.139 49.733 35.284 49.733 63.226 0 5.476-.786 10.927-2.337 16.203-1.199 4.081-3.241 7.761-5.889 10.889h118.873c16.97 0 31.926-11.175 36.711-27.457 1.906-6.486 2.916-13.256 2.916-20.217.001-47.947-47.855-86.816-106.888-86.816z" fill="#f6a96c"/><path d="m275.46 354.996c-2.114-6.809-3.238-13.938-3.238-21.281 0-38.139 30.28-70.531 72.378-82.189-10.827-2.998-22.435-4.627-34.511-4.627-39.95 0-74.775 17.803-93.119 44.172 29.348 11.139 49.734 35.284 49.734 63.226 0 5.476-.786 10.927-2.337 16.203-1.199 4.081-3.241 7.761-5.889 10.889h53.354c-16.557 0-31.462-10.58-36.372-26.393z" fill="#ea9b58"/></g><g><path d="m143.354 392.171 5.448 44.87c.566 4.665 4.526 8.174 9.226 8.174h45.125c4.686 0 8.639-3.489 9.221-8.139l5.621-44.904h-74.641z" fill="#fef0ae"/><path d="m182.136 437.04-5.447-44.87h-33.334l5.448 44.87c.566 4.665 4.526 8.173 9.226 8.173h33.334c-4.701.001-8.661-3.507-9.227-8.173z" fill="#fee97d"/><g><path d="m235.392 393.17c13.838 0 26.033-9.112 29.935-22.388 1.554-5.289 2.378-10.809 2.378-16.485 0-39.096-39.022-70.79-87.158-70.79s-87.158 31.694-87.158 70.79c0 5.987.916 11.8 2.64 17.352 4.004 12.894 16.157 21.521 29.659 21.521z" fill="#f6a96c"/></g><g><path d="m146.64 371.65c-1.724-5.552-2.64-11.365-2.64-17.353 0-31.948 26.058-58.948 61.852-67.755-8.009-1.971-16.504-3.035-25.306-3.035-48.136 0-87.158 31.694-87.158 70.79 0 5.987.916 11.8 2.64 17.353 4.004 12.894 16.157 21.521 29.659 21.521h50.612c-13.502-.001-25.655-8.627-29.659-21.521z" fill="#ea9b58"/></g></g><g><path d="m242.872 346.5h-14.872c-4.143 0-7.5-3.357-7.5-7.5s3.357-7.5 7.5-7.5h14.872c4.143 0 7.5 3.357 7.5 7.5s-3.357 7.5-7.5 7.5z" fill="#ffbd86"/></g><g><path d="m182 365.5h-14.872c-4.143 0-7.5-3.357-7.5-7.5s3.357-7.5 7.5-7.5h14.872c4.143 0 7.5 3.357 7.5 7.5s-3.357 7.5-7.5 7.5z" fill="#ffbd86"/></g><g><path d="m147.872 327.5h-14.872c-4.143 0-7.5-3.357-7.5-7.5s3.357-7.5 7.5-7.5h14.872c4.143 0 7.5 3.357 7.5 7.5s-3.357 7.5-7.5 7.5z" fill="#ffbd86"/></g><g><path d="m351 292.5h-14.872c-4.143 0-7.5-3.357-7.5-7.5s3.357-7.5 7.5-7.5h14.872c4.143 0 7.5 3.357 7.5 7.5s-3.357 7.5-7.5 7.5z" fill="#ffbd86"/></g><g><path d="m376.872 336.5h-14.872c-4.143 0-7.5-3.357-7.5-7.5s3.357-7.5 7.5-7.5h14.872c4.143 0 7.5 3.357 7.5 7.5s-3.357 7.5-7.5 7.5z" fill="#ffbd86"/></g><g><path d="m294 315.5h-14.872c-4.143 0-7.5-3.357-7.5-7.5s3.357-7.5 7.5-7.5h14.872c4.143 0 7.5 3.357 7.5 7.5s-3.357 7.5-7.5 7.5z" fill="#ffbd86"/></g></g></svg>