<svg id="Layer_1" enable-background="new 0 0 510.003 510.003" height="512" viewBox="0 0 510.003 510.003" width="512" xmlns="http://www.w3.org/2000/svg"><g id="XMLID_1598_"><path id="XMLID_1627_" d="m240.003 77.051v13.397l7.5 7.084 7.5-7.916 10-31.75-10-27.742c-9.535 13.372-15 29.652-15 46.927z" fill="#ace233"/><path id="XMLID_1624_" d="m295.259.386c-16.662 5.555-30.562 16.143-40.257 29.738v59.492l8 6 7-5.168v-13.397c0-21.905 13.962-41.277 34.743-48.204z" fill="#70d840"/><path id="XMLID_1620_" d="m394.972 119.617h-55.207l.001 360h35.206c54.632 0 102.055-38.881 112.759-92.45 22.747-147.74 19.806-128.636 20.067-130.338 13.985-71-40.334-137.212-112.826-137.212z" fill="#e20059"/><path id="XMLID_1617_" d="m115.033 119.617c-72.364 0-126.835 66.088-112.826 137.212.275 1.789-2.735-17.768 20.067 130.338 10.704 53.569 58.127 92.45 112.759 92.45h35.212l.001-360z" fill="#ff1f3d"/><path id="XMLID_1614_" d="m120.003 224.617v150c0 74.439 60.561 135 135 135l15-225-15-195c-74.44 0-135 60.56-135 135z" fill="#ff6326"/><path id="XMLID_1613_" d="m255.003 89.617v420c74.439 0 135-60.561 135-135v-150c0-74.44-60.561-135-135-135z" fill="#ff1f3d"/><g id="XMLID_1605_"><g><path id="XMLID_448_" d="m180.003 224.617h30v30h-30z" fill="#ff1f3d"/></g></g><g id="XMLID_1600_"><g><path id="XMLID_446_" d="m210.003 284.617h30v30h-30z" fill="#ff1f3d"/></g></g></g></svg>