<svg id="Capa_1" enable-background="new 0 0 512 512" height="512" viewBox="0 0 512 512" width="512" xmlns="http://www.w3.org/2000/svg"><g><path d="m141.865 51.181 16.675 25.246c30.828-19.672 67.412-31.085 106.615-31.085 83.53 0 155.181 51.8 184.54 124.96 13.656 7.164 26.485 16.047 38.208 26.548 2.46-6.011 3.826-12.586 3.826-19.483 0-19.616-10.971-36.667-27.11-45.361 2.713-6.266 4.224-13.173 4.224-20.436 0-28.439-23.054-51.494-51.493-51.494-10.834 0-20.881 3.353-29.175 9.068.371-2.493.567-5.042.567-7.637 0-28.439-23.054-51.493-51.493-51.493-18.764 0-35.178 10.039-44.179 25.036-6.864-20.373-26.11-35.05-48.796-35.05-22.097 0-40.937 13.922-48.244 33.471-9.396-10.03-22.751-16.306-37.579-16.306-28.439 0-51.493 23.054-51.493 51.493 0 3.519.355 6.954 1.028 10.274 10.24-10.237 21.563-19.538 33.879-27.751z" fill="#e759aa"/><g><path d="m237.509 195.987c34.472-30.451 78.305-47.099 124.704-47.099 31.536 0 61.886 7.691 88.92 22.175-29.16-74.197-101.434-126.721-185.978-126.721-39.454 0-76.234 11.443-107.209 31.185z" fill="#e03d9c"/></g><g><path d="m182.591 270.359c.822.822 1.621 1.659 2.43 2.49 9.116-25.088 23.703-48.618 43.79-68.705 3.065-3.064 6.222-6.002 9.455-8.827l-93.327-141.3c-1.549-2.345-4.728-2.952-7.038-1.35-51.737 35.887-83.565 90.124-92.526 148.107 51.758 7.851 99.506 31.876 137.216 69.585z" fill="#c53287"/></g><path d="m86.238 209.618c.002.001.004.001.005.002-2.512-57.045 17.101-113.972 56.133-157.56-1.454-.495-3.114-.337-4.476.608-51.448 35.686-83.205 89.519-92.371 147.135 13.99 2.135 27.59 5.447 40.709 9.815z" fill="#98246a"/><path d="m141.296 237.021c-12.272-30.292-13.559-65.112-.947-97.959 1.485-3.867-.446-8.205-4.313-9.69-3.868-1.48-8.205.447-9.69 4.313-11.435 29.781-13.002 61.688-4.821 91.87 6.75 3.506 13.347 7.328 19.771 11.466z" fill="#98246a"/><path d="m274.849 170.245c-4.43-23.504-2.62-48.471 6.565-72.393 1.485-3.867-.446-8.205-4.313-9.69-3.866-1.479-8.205.446-9.69 4.313-10.664 27.774-12.753 57.399-6.349 85.748 4.489-2.862 9.091-5.518 13.787-7.978z" fill="#c53287"/><path d="m195.489 284.296.822.958.745-1.02c5.194-7.112 10.917-13.809 17.012-19.903 31.787-31.787 74.053-49.292 119.015-49.292 19.743 0 39.128 3.403 57.616 10.117l.41.149.388-.199c31.132-15.979 64.56-24.971 99.475-26.797-74.39-68.883-190.556-67.183-262.867 5.128-20.089 20.089-34.716 43.567-43.908 68.589 3.883 3.956 7.66 8.036 11.292 12.27z" fill="#98246a"/><path d="m255 445.171h2c0-65.146 25.123-126.63 70.74-173.126 19.092-19.46 40.881-35.367 64.526-47.396-60.182-22.384-130.533-9.397-178.905 38.975-6.566 6.566-12.456 13.549-17.718 20.844 38.388 44.762 59.357 101.201 59.357 160.703z" fill="#c53287"/><g fill="#e759aa"><path d="m504.221 202.006c0-2.811-2.318-5.061-5.128-5.004-134.721 2.73-243.093 112.794-243.093 248.169 0-135.375-108.372-245.439-243.093-248.169-2.81-.057-5.128 2.193-5.128 5.004v61.773c0 137.089 111.132 248.221 248.221 248.221 137.089 0 248.221-111.132 248.221-248.221z"/><path d="m504.221 202.006c0-2.811-2.318-5.061-5.128-5.004-134.721 2.73-243.093 112.794-243.093 248.169 0-135.375-108.372-245.439-243.093-248.169-2.81-.057-5.128 2.193-5.128 5.004v61.773c0 137.089 111.132 248.221 248.221 248.221 137.089 0 248.221-111.132 248.221-248.221z"/><path d="m504.221 202.006c0-2.811-2.318-5.061-5.128-5.004-134.721 2.73-243.093 112.794-243.093 248.169 0-135.375-108.372-245.439-243.093-248.169-2.81-.057-5.128 2.193-5.128 5.004v61.773c0 137.089 111.132 248.221 248.221 248.221 137.089 0 248.221-111.132 248.221-248.221z"/></g><path d="m50 263.779v-61.773c0-.504.097-.979.236-1.437-12.163-2.096-24.628-3.31-37.329-3.567-2.81-.057-5.128 2.193-5.128 5.004v61.773c0 137.089 111.132 248.221 248.221 248.221v-3.611c-116.973-20.048-206-121.918-206-244.61z" fill="#e03d9c"/><path d="m504.221 202.006c0-2.811-2.318-5.061-5.128-5.004-134.721 2.73-243.093 112.794-243.093 248.168v66.83c14.4 0 28.509-1.241 42.237-3.595v-37.15c0-122.688 89.016-224.572 205.984-244.626z" fill="#e03d9c"/><g><g><path d="m97.895 296.138c2.837-3.019 2.691-7.765-.327-10.602-3.017-2.838-7.763-2.69-10.602.326-22.832 24.285-35.406 56.516-35.406 90.756 0 11.619 1.452 23.004 4.257 33.928 10.471 14.258 22.427 27.353 35.643 39.063-35.157-44.67-33.018-111.51 6.435-153.471z" fill="#c53287"/></g><g><path d="m151.513 380.263c1.724-3.767.068-8.217-3.699-9.94-3.768-1.725-8.217-.068-9.941 3.698-12.622 27.58-14.399 58.711-5.003 87.659 2.68 8.256 6.18 16.058 10.414 23.308 9.109 4.651 18.546 8.75 28.263 12.265-29.184-29.271-38.539-76.554-20.034-116.99z" fill="#c53287"/></g><g><path d="m425.034 285.862c-2.837-3.017-7.584-3.163-10.602-.326s-3.164 7.583-.327 10.602c39.452 41.962 41.592 108.801 6.435 153.472 13.216-11.71 25.172-24.805 35.643-39.063 2.805-10.924 4.257-22.31 4.257-33.928 0-34.241-12.574-66.472-35.406-90.757z" fill="#c53287"/></g><g><path d="m364.186 370.322c-3.767 1.724-5.422 6.174-3.699 9.94 18.505 40.436 9.15 87.72-20.034 116.99 9.717-3.515 19.153-7.614 28.263-12.265 4.234-7.25 7.735-15.052 10.414-23.308 9.396-28.948 7.618-60.079-5.003-87.659-1.725-3.766-6.177-5.422-9.941-3.698z" fill="#c53287"/></g></g></g></svg>