<svg id="Layer_1" enable-background="new 0 0 509.972 509.972" height="512" viewBox="0 0 509.972 509.972" width="512" xmlns="http://www.w3.org/2000/svg"><g id="XMLID_345_"><path id="XMLID_473_" d="m210.045 28.774c-6.738 9.18-11.452 19.841-13.632 31.288l6.382 3.121 7.25-3.584 10-12.417z" fill="#954c20"/><path id="XMLID_584_" d="m250.299.371-2.307.769c-15.612 5.204-28.691 15.022-37.948 27.635v30.825l7.083 8.667 10.102-7.93c4.479-14.239 15.533-25.831 30.252-30.737l2.309-.771z" fill="#7e3e19"/><path id="XMLID_422_" d="m61.166 125.901c-81.547 87.82-81.562 229.561 0 317.398 39.7 42.754 92.573 66.301 148.879 66.301l10-225-10-225c-56.306.001-109.179 23.546-148.879 66.301z" fill="#ffcb00"/><path id="XMLID_475_" d="m358.924 125.901c-39.7-42.756-92.573-66.301-148.88-66.301v450c25.375 0 50.098-4.776 73.592-14.206l135.953-225.794c-3.313-54.255-24.558-104.815-60.665-143.699z" fill="#ff9d21"/><g id="XMLID_919_"><g><g id="XMLID_539_"><path d="m105.045 179.601h30v30h-30z" fill="#ff9d21"/></g></g></g><g id="XMLID_917_"><g><g id="XMLID_534_"><path d="m75.045 239.601h30v30h-30z" fill="#ff9d21"/></g></g></g><path id="XMLID_580_" d="m394.718 410.991-121.31-23.887-61.623 49.514 9.396 11.693c55.43 68.983 156.114 79.111 225.807 24.566l-13.943-46.066z" fill="#ffcb00"/><path id="XMLID_618_" d="m475.006 244.368-9.396-11.693-60.29 48.441-10.602 129.875 52.27 61.887c.568-.445 1.138-.886 1.701-1.338 69.979-56.228 81.784-158.137 26.317-227.172z" fill="#ff9d21"/><path id="XMLID_678_" d="m333.657 338.696-60.248 48.408 8.949 12.525.859.864c17.316 17.419 39.975 26.317 62.496 26.317 17.236 0 34.39-5.223 49.005-15.82l-13.286-52.951z" fill="#ffe705"/><path id="XMLID_638_" d="m414.949 294.649-9.629-13.533-71.663 57.58 61.062 72.295c36.575-26.518 45.286-77.357 20.23-116.342z" fill="#ffcb00"/></g></svg>