<svg id="Capa_1" enable-background="new 0 0 512 512" height="512" viewBox="0 0 512 512" width="512" xmlns="http://www.w3.org/2000/svg"><g><g><g><path d="m298.931 417.562c1.227-5.885 2.695-11.773 4.395-17.649-9.952 11.435-18.439 23.566-25.326 36.126v38.317c6.646-22.002 18.657-43.503 35.259-62.982-4.844 1.906-9.622 3.968-14.328 6.188z" fill="#a2e62e"/><g><g><path d="m393.332 368.241c-.362-.414-.726-.828-1.092-1.24 35.296-6.25 70.705-21.649 72.051-55.308.108-32.297-2.582-64.97-8.107-97.69-89.111 52.29-143.493 129.43-158.634 205.327 24.619-11.87 52.042-19.726 81.01-22.697 15.927-1.538 25.392-15.728 14.772-28.392z" fill="#00c285"/></g><g><path d="m460.536 244.67c-1.174-10.212-2.625-20.438-4.352-30.669-89.111 52.29-143.493 129.43-158.634 205.327 10.816-5.215 22.175-9.654 33.967-13.245 20.005-59.367 63.736-117.347 129.019-161.413z" fill="#07b27b"/></g></g></g><g><path d="m213.069 417.562c-4.705-2.219-9.484-4.281-14.328-6.189 16.602 19.479 28.614 40.979 35.26 62.982v-38.317c-6.887-12.56-15.374-24.691-25.326-36.126 1.699 5.876 3.167 11.765 4.394 17.65z" fill="#bbec6c"/><g><g><path d="m118.668 368.241c.362-.414.726-.828 1.092-1.24-35.296-6.25-70.705-21.649-72.051-55.308-.108-32.297 2.582-64.97 8.107-97.69 89.111 52.29 143.493 129.43 158.634 205.327-24.619-11.87-52.042-19.726-81.01-22.697-15.927-1.538-25.392-15.728-14.772-28.392z" fill="#0ed290"/></g><g><path d="m156.058 374.013c-15.927-1.536-25.392-15.726-14.772-28.391.362-.414.726-.828 1.092-1.24-35.296-6.25-70.705-21.649-72.051-55.308-.071-21.168 1.068-42.498 3.412-63.897-5.814-3.834-11.777-7.569-17.923-11.176-5.525 32.72-8.215 65.394-8.107 97.69 1.346 33.659 36.755 49.059 72.051 55.308-.366.413-.73.826-1.092 1.24-10.62 12.665-1.155 26.854 14.772 28.39 28.967 2.971 56.39 10.828 81.01 22.697-2.355-11.805-5.662-23.64-9.899-35.407-15.486-4.821-31.728-8.186-48.493-9.906z" fill="#00c285"/></g></g></g></g><g><g><g><g><path d="m283.078 370.19c-.182-5.867-.142-11.784.104-17.733-10.905 20.49-18.128 41.826-21.413 63.031h12.231c1.087 0 2.071.439 2.793 1.145 3-18.509 9.254-37.167 18.607-55.203-4.2 2.799-8.313 5.715-12.322 8.76z" fill="#97d729"/><g><g><path d="m369.022 299.079c-.48-.347-.961-.693-1.445-1.038 35.15-14.02 68.136-37.458 61.144-72.307-7.94-33.184-18.884-66.152-32.788-98.557-79.638 72.883-116.963 163.8-113.787 244.988 22.645-17.49 49.206-31.463 78.591-40.754 16.182-5.008 22.487-21.616 8.285-32.332z" fill="#00c285"/></g><g><path d="m408.238 158.092c-3.805-10.354-7.906-20.663-12.305-30.916-79.638 72.883-116.963 163.8-113.787 244.988 10.895-8.415 22.706-16.006 35.293-22.663 5.599-64.397 35.586-132.485 90.799-191.409z" fill="#07b27b"/></g></g></g></g></g><g><g><g><path d="m228.922 370.19c-4.01-3.046-8.122-5.961-12.322-8.759 9.353 18.036 15.607 36.694 18.607 55.203.722-.706 1.706-1.145 2.793-1.145h12.231c-3.284-21.206-10.508-42.542-21.413-63.031.246 5.949.286 11.865.104 17.732z" fill="#97d729"/><g><g><path d="m142.978 299.079c.48-.347.961-.693 1.445-1.038-35.15-14.02-68.136-37.458-61.144-72.307 7.94-33.184 18.884-66.152 32.788-98.557 79.638 72.883 116.963 163.8 113.787 244.988-22.645-17.49-49.206-31.463-78.591-40.754-16.182-5.008-22.487-21.616-8.285-32.332z" fill="#0ed290"/></g><g><path d="m183.084 318.016c-16.181-5.008-22.487-21.616-8.284-32.332.48-.347.961-.693 1.445-1.038-35.15-14.02-68.136-37.458-61.144-72.307 5.335-22.298 12.034-44.499 20.068-66.497-6.074-6.337-12.436-12.566-19.102-18.666-13.904 32.405-24.848 65.374-32.788 98.557-6.992 34.849 25.994 58.288 61.144 72.307-.483.345-.965.691-1.445 1.038-14.203 10.716-7.897 27.324 8.284 32.332 29.385 9.29 55.946 23.264 78.591 40.754.447-11.425.092-23.042-1.07-34.775-14.261-7.74-29.551-14.268-45.699-19.373z" fill="#00c285"/></g></g></g></g></g></g><g><path d="m337.252 214.2c29.754-29.244 36.749-73.776 6.329-109.977l-87.581-104.223-87.581 104.223c-30.42 36.201-23.425 80.733 6.329 109.977l-2.027.8c-20.271 8.002-23.992 30.814-7.025 43.069l90.303 65.232 90.304-65.232c16.966-12.256 13.245-35.067-7.025-43.069z" fill="#0ed290"/></g><g><path d="m208.663 258.069c-16.966-12.256-13.245-35.068 7.025-43.069l2.027-.8c-29.754-29.244-36.749-73.776-6.329-109.977l66.097-78.657-21.483-25.566-87.581 104.223c-30.42 36.201-23.425 80.732 6.329 109.977l-2.027.8c-20.271 8.002-23.992 30.814-7.025 43.069l90.303 65.232 21.484-15.519z" fill="#00c285"/></g><path d="m306.053 191.38c-4.142 0-7.5 3.357-7.5 7.5 0 19.998-15.155 36.663-35.053 40.064v-56.828c21.538-4.392 38.012-27.35 38.012-54.941 0-4.143-3.358-7.5-7.5-7.5s-7.5 3.357-7.5 7.5c0 18.996-9.802 34.991-23.012 39.463v-81.344c0-4.143-3.358-7.5-7.5-7.5s-7.5 3.357-7.5 7.5v81.344c-13.209-4.472-23.012-20.467-23.012-39.463 0-4.143-3.358-7.5-7.5-7.5s-7.5 3.357-7.5 7.5c0 27.591 16.474 50.549 38.012 54.941v56.828c-19.898-3.401-35.053-20.066-35.053-40.064 0-4.143-3.358-7.5-7.5-7.5s-7.5 3.357-7.5 7.5c0 28.257 21.851 51.651 50.053 55.221v161.388h15v-161.388c28.202-3.571 50.053-26.964 50.053-55.221 0-4.143-3.358-7.5-7.5-7.5z" fill="#a2e62e"/><g><path d="m274 512h-36c-2.761 0-5-2.239-5-5v-87.511c0-2.761 2.239-5 5-5h36c2.761 0 5 2.239 5 5v87.511c0 2.761-2.239 5-5 5z" fill="#bbec6c"/></g><path d="m259 496c-2.761 0-5-2.239-5-5v-76.511h-16c-2.761 0-5 2.239-5 5v87.511c0 2.761 2.239 5 5 5h36c2.761 0 5-2.239 5-5v-11z" fill="#a2e62e"/></g></svg>