<svg id="Capa_1" enable-background="new 0 0 512 512" height="512" viewBox="0 0 512 512" width="512" xmlns="http://www.w3.org/2000/svg"><g><g><g fill="#00c285"><path d="m68.486 94.553h27.762c5.345 0 10.48.897 15.281 2.528 6.542-11.77 16.226-21.654 28.15-28.415-7.875-3.596-16.605-5.618-25.789-5.618-23.5 0-44.073 13.141-54.754 32.432 3.025-.605 6.151-.927 9.35-.927z"/><path d="m238.967 63.047c-9.209 0-17.961 2.033-25.854 5.648 8.787 5.018 16.579 11.813 22.689 19.934 2.042 2.714 3.869 5.542 5.502 8.459 4.807-1.635 9.951-2.536 15.305-2.536h27.763c3.2 0 6.325.322 9.349.926-10.681-19.291-31.254-32.431-54.754-32.431z"/></g><path d="m129.398 108.018c8.585-8.325 20.275-13.466 33.15-13.466h27.762c12.875 0 24.565 5.14 33.15 13.466 5.251-5.093 11.661-8.995 18.799-11.254-9.375-16.89-25.051-29.801-43.865-35.534-3.262-.994-4.786-4.787-2.95-7.66 8.857-13.856 24.368-23.064 41.998-23.064h10.102c2.845 0 5.151-2.306 5.151-5.151v-20.204c0-2.845-2.306-5.151-5.151-5.151h-10.102c-36.211 0-66.894 24.087-76.891 57.077-.509 1.679-1.846 2.987-3.541 3.439-19.939 5.313-36.611 18.609-46.407 36.251 7.136 2.258 13.545 6.16 18.795 11.251z" fill="#97d729"/><path d="m126.492 105.407c9.931-16.557 26.043-28.983 45.154-34.075 1.695-.452 3.032-1.76 3.541-3.439 9.997-32.99 40.68-57.077 76.891-57.077h.616v-5.665c0-2.845-2.306-5.151-5.151-5.151h-10.102c-36.211 0-66.894 24.086-76.891 57.077-.509 1.679-1.846 2.987-3.541 3.439-19.939 5.313-36.611 18.609-46.407 36.251 5.866 1.856 11.245 4.816 15.89 8.64z" fill="#8bc727"/><g><g fill="#00c285"><path d="m121.517 370.145h1.017c-.178 0-.353-.011-.531-.013-.165.002-.318.013-.486.013z"/><path d="m114.891 316.25v-174.04c0-13.75 5.86-26.15 15.205-34.857-8.775-8.525-20.722-13.8-33.847-13.8h-27.763c-26.761 0-48.657 21.896-48.657 48.657l23.135 133.356c1.462 8.427 2.683 16.899 3.495 25.414 3.667 38.488 36.199 68.879 75.544 69.152 7.808-.081 12.997-2.071 16.432-5.527-14.322-11.277-23.544-28.754-23.544-48.355z"/></g><g fill="#07b27b"><path d="m85.63 300.98c-.811-8.515-2.032-16.987-3.494-25.414l-23.136-133.356c0-24.833 18.857-45.463 42.956-48.309-1.873-.224-3.776-.348-5.708-.348h-27.762c-26.761 0-48.657 21.896-48.657 48.657l23.135 133.356c1.462 8.427 2.683 16.899 3.494 25.414 3.668 38.488 36.198 68.879 75.544 69.152 6.716-.07 11.491-1.554 14.882-4.167-27.746-9.602-48.378-34.8-51.254-64.985z"/><path d="m121.517 370.145h1.017c-.178 0-.353-.011-.531-.013-.165.002-.318.013-.486.013z"/></g><g><path d="m231.341 370.145c-.168 0-.32-.011-.486-.013-.178.001-.353.013-.531.013z" fill="#07b27b"/><g><path d="m237.967 142.21v66.142c10.17-7.089 22.379-11.094 35.066-11.094 8.37 0 16.546 1.706 24.3 5.071l.465.202.438-.255c5.737-3.347 11.852-5.898 18.174-7.584 2.008-.534 3.633-2.11 4.24-4.114 1.649-5.442 3.917-10.69 6.704-15.654l5.675-32.714c0-26.761-21.896-48.657-48.657-48.657h-27.762c-13.125 0-25.072 5.276-33.847 13.8 9.344 8.707 15.204 21.107 15.204 34.857z" fill="#07b27b"/></g></g></g><path d="m179.971 275.336c.04-22.983 16.486-42.652 39.135-46.788l.453-.082.232-.399c4.826-8.305 11.44-15.235 19.176-20.406v-65.45c0-26.761-21.896-48.657-48.657-48.657h-27.762c-26.761 0-48.657 21.896-48.657 48.657v174.04c0 34.396 28.142 62.538 62.538 62.538 7.308 0 14.329-1.282 20.863-3.613z" fill="#00c285"/><path d="m157.708 316.25v-174.04c0-24.027 17.654-44.121 40.63-47.978-2.614-.439-5.294-.679-8.028-.679h-27.762c-26.761 0-48.657 21.896-48.657 48.657v174.04c0 34.396 28.142 62.538 62.538 62.538 7.7 0 15.081-1.42 21.909-3.994-23.672-8.928-40.63-31.847-40.63-58.544z" fill="#07b27b"/></g><g><g><g><path d="m227.628 227.765h27.762c5.344 0 10.48.897 15.281 2.527 6.542-11.77 16.226-21.654 28.15-28.416-7.875-3.596-16.605-5.618-25.788-5.618-23.5 0-44.073 13.141-54.754 32.433 3.024-.604 6.15-.926 9.349-.926z" fill="#fedf30"/></g><g><path d="m398.109 196.258c-9.209 0-17.961 2.033-25.853 5.648 8.786 5.018 16.579 11.813 22.689 19.934 2.042 2.714 3.87 5.543 5.503 8.46 4.807-1.635 9.951-2.535 15.304-2.535h27.763c3.2 0 6.325.322 9.35.926-10.683-19.292-31.256-32.433-54.756-32.433z" fill="#fedf30"/></g></g><path d="m288.54 241.23c8.584-8.325 20.275-13.466 33.149-13.466h27.763c12.875 0 24.565 5.14 33.15 13.466 5.251-5.093 11.661-8.995 18.799-11.254-9.375-16.891-25.051-29.801-43.865-35.534-3.262-.994-4.786-4.787-2.95-7.66 8.857-13.856 24.368-23.064 41.998-23.064h10.102c2.845 0 5.151-2.306 5.151-5.151v-20.205c0-2.845-2.306-5.151-5.151-5.151h-10.102c-36.211 0-66.894 24.087-76.891 57.077-.509 1.679-1.846 2.987-3.541 3.439-19.939 5.313-36.611 18.61-46.407 36.251 7.136 2.259 13.545 6.161 18.795 11.252z" fill="#97d729"/><path d="m284.655 237.849c9.879-17.029 26.244-29.829 45.719-35.017 1.695-.452 3.032-1.76 3.541-3.439 9.997-32.99 40.68-57.077 76.891-57.077h1.032v-3.953c0-2.845-2.306-5.151-5.151-5.151h-10.102c-36.211 0-66.894 24.087-76.891 57.077-.509 1.679-1.846 2.987-3.541 3.439-19.939 5.313-36.611 18.61-46.407 36.251 5.46 1.728 10.491 4.422 14.909 7.87z" fill="#8bc727"/><g><g fill="#fedf30"><path d="m280.659 503.356h1.017c-.178 0-.353-.011-.531-.013-.165.002-.318.013-.486.013z"/><path d="m274.033 449.462v-174.04c0-13.75 5.86-26.15 15.205-34.857-8.775-8.525-20.722-13.801-33.848-13.801h-27.762c-26.761 0-48.657 21.896-48.657 48.657l23.135 133.356c1.462 8.428 2.683 16.899 3.495 25.414 3.667 38.488 36.199 68.879 75.544 69.152 7.808-.081 12.997-2.071 16.432-5.527-14.321-11.277-23.544-28.753-23.544-48.354z"/></g><g fill="#fed402"><g><path d="m280.659 503.357h1.017c-.178 0-.353-.012-.531-.013-.165.002-.318.013-.486.013z"/><path d="m249.103 434.192c-.811-8.515-2.032-16.987-3.494-25.414l-23.135-133.356c0-24.083 17.735-44.215 40.787-48.007-2.564-.422-5.191-.651-7.87-.651h-27.762c-26.761 0-48.657 21.896-48.657 48.657l23.135 133.356c1.462 8.428 2.683 16.899 3.495 25.414 3.667 38.488 36.198 68.879 75.544 69.152 7.618-.079 12.741-1.977 16.176-5.279-26.207-10.342-45.449-34.798-48.219-63.872z"/></g><g><path d="m390.483 503.356c-.168 0-.321-.011-.486-.013-.178.001-.353.013-.531.013z"/><path d="m443.514 226.765h-27.762c-13.125 0-25.072 5.276-33.847 13.8 9.345 8.707 15.205 21.107 15.205 34.857v174.04c0 19.601-9.223 37.078-23.544 48.355 3.435 3.456 8.624 5.446 16.432 5.527 39.346-.272 71.877-30.664 75.544-69.152.811-8.515 2.032-16.987 3.494-25.414l23.135-133.356c0-26.762-21.896-48.657-48.657-48.657z"/></g></g></g><path d="m335.571 512c-34.396 0-62.538-28.142-62.538-62.538v-174.04c0-26.761 21.896-48.657 48.657-48.657h27.762c26.761 0 48.657 21.896 48.657 48.657v174.04c0 34.396-28.142 62.538-62.538 62.538z" fill="#fedf30"/><path d="m325.022 449.462v-174.04c0-22.583 15.593-41.701 36.544-47.121-3.876-1.003-7.935-1.537-12.113-1.537h-27.763c-26.761 0-48.657 21.896-48.657 48.657v174.04c0 34.396 28.142 62.538 62.538 62.538 9.264 0 18.066-2.057 25.995-5.712-21.511-9.915-36.544-31.693-36.544-56.825z" fill="#fed402"/></g></g></svg>