<svg id="Layer_1" enable-background="new 0 0 510 510" height="512" viewBox="0 0 510 510" width="512" xmlns="http://www.w3.org/2000/svg"><g id="XMLID_1067_"><path id="XMLID_904_" d="m164.831 18.406-8.685 2.19-2.191 8.685c-1.525 6.047-14.076 59.901 14.534 88.512l.694.736 28.732-7.279 42.085-35.185 8.735-47.212c-29.432-23.253-78.169-11.894-83.904-10.447z" fill="#70d840"/><path id="XMLID_871_" d="m240 60v16.064l5.854 5.438 9.146-6.502 10-21.5-10-33.123c-9.325 10.578-15 24.446-15 39.623z" fill="#954c20"/><path id="XMLID_906_" d="m255 20.377v54.623l5.906 5.062 9.094-3.998v-16.064c0-16.542 13.458-30 30-30v-30c-17.908 0-33.997 7.896-45 20.377z" fill="#7e3e19"/><path id="XMLID_947_" d="m150.583 160.602-8.92 44.602c-3.384 16.919-12.849 31.938-26.651 42.289-25.055 18.789-40.012 48.703-40.012 80.021v17.486c0 90.982 74.019 165 165 165h15l15-210-15-225c-50.584 0-94.497 36-104.417 85.602z" fill="#ace233"/><path id="XMLID_949_" d="m394.989 247.492c-13.803-10.353-23.269-25.37-26.651-42.289l-8.92-44.602c-9.921-49.601-53.835-85.601-104.418-85.601v435h15c90.981 0 165-74.018 165-165v-17.486c0-31.317-14.957-61.232-40.011-80.022z" fill="#70d840"/></g></svg>