<svg id="Layer_1" enable-background="new 0 0 509.326 509.326" height="512" viewBox="0 0 509.326 509.326" width="512" xmlns="http://www.w3.org/2000/svg"><g id="XMLID_1746_"><g id="XMLID_1770_"><g><path id="XMLID_454_" d="m355.707 59.157-2.19-8.685-8.685-2.19c-5.876-1.483-56.915-13.381-86.057 12.233l-2.945 34.479 13.833 43.805 75.032 4.976c24.008-29.352 12.47-78.837 11.012-84.618z" fill="#ace233"/></g></g><path id="XMLID_1769_" d="m201.548 0-13.771 26.652c32.004 16.536 51.886 49.186 51.886 85.209v32.646l9.5 10.152 5.5-10.136 10-27.447-10-64.94c-11.787-21.908-30.044-40.216-53.115-52.136z" fill="#954c20"/><path id="XMLID_1761_" d="m269.663 111.861c0-21.323-5.321-41.737-15-59.725v92.388l6.892 6.452 8.108-12.178z" fill="#7e3e19"/><path id="XMLID_1757_" d="m247.66 148.07-29.664-.244-41.198-11.961c-30.112 5.206-57.725 23.552-79.117 52.964-24.516 33.709-38.018 78.278-38.018 125.497 0 45.458 22.576 94.546 61.94 134.678 36.497 37.208 81.734 60.322 118.06 60.322h15l10-176.167-10-188.636c-2.359 1.1-4.697 2.277-7.003 3.547z" fill="#ffe705"/><path id="XMLID_1753_" d="m403.427 187.919c-38.14-44.719-95.148-68.385-148.764-43.396v364.803h15c36.325 0 81.562-23.114 118.06-60.322 39.364-40.132 61.94-89.22 61.94-134.678 0-46.556-16.42-91.449-46.236-126.407z" fill="#ffcb00"/><path id="XMLID_1750_" d="m247.163 148.338c-21.801-12.154-46.037-16.679-70.365-12.473.244.167-.028-.02 62.017 42.513 5.597 3.75 10.889 8.165 15.849 13.142l10-18.694-10-19.955c-.001 0-7.336-4.625-7.501-4.533z" fill="#ffcb00"/><path id="XMLID_1747_" d="m309.505 219.381c-13.094-28.217-31.739-50.995-53.921-65.878l-.921-.632v38.649c27.795 27.893 45 73.739 45 122.806 0 4.655-.157 9.365-.467 14l29.934 2c.353-5.297.533-10.681.533-16 0-33.694-6.971-66.525-20.158-94.945z" fill="#ff9d21"/></g></svg>