<svg id="Capa_1" enable-background="new 0 0 512 512" height="512" viewBox="0 0 512 512" width="512" xmlns="http://www.w3.org/2000/svg"><g><g><g><path d="m245.805 106.871c3.354.248 6.754.382 10.195.382.405 0 .806-.012 1.209-.016 2.316-6.297 6.057-13.254 10.983-20.264.234-1.754.427-3.536.556-5.349 1.165-16.258-2.293-30.652-8.448-38.882-.728-.973-2.183-1.05-3.016-.165-7.337 7.8-12.866 21.952-14.034 38.258-.542 7.559-.073 14.705 1.19 21.026.535 1.708.99 3.38 1.365 5.01z" fill="#00c285"/><g fill="#0ed290"><path d="m222.176 102.943c7.775 2.064 16.057 3.427 24.659 3.996-1.525-6.803-4.44-14.445-8.763-22.332-8.42-15.361-20.044-27.818-30.55-33.854-1.169-.671-2.658.01-2.938 1.329-1.927 9.085 1.257 23.221 9.472 38.208 2.465 4.499 5.212 8.74 8.12 12.653z"/><path d="m280.099 105.109c4.226-4.202 8.333-8.898 12.112-13.98 10.546-14.182 16.044-27.885 15.74-37.054-.047-1.409-1.538-2.325-2.818-1.734-11.419 5.273-24.983 16.802-35.858 31.426-6.142 8.26-10.558 16.35-13.127 23.484 8.258-.009 16.292-.753 23.951-2.142z"/></g><path d="m208.038 119.858c14.561-6.404 30.819-9.993 47.962-9.993s33.401 3.589 47.962 9.993c24.761-10.405 41.177-28.628 41.177-49.372 0-1.559-.095-3.104-.28-4.632-.243-2.01-2.928-2.455-3.8-.627-11.343 23.776-45.13 41.027-85.059 41.027s-73.716-17.251-85.059-41.027c-.872-1.828-3.557-1.383-3.8.627-.185 1.528-.279 3.073-.279 4.632-.001 20.743 16.415 38.967 41.176 49.372z" fill="#00c285"/><ellipse cx="256" cy="214.754" fill="#fb2b3a" rx="113.667" ry="105.889"/><path d="m203.723 214.754c0-48.572 35.108-89.502 82.972-101.979-9.764-2.545-20.058-3.91-30.695-3.91-62.776 0-113.667 47.408-113.667 105.89s50.891 105.888 113.667 105.888c10.637 0 20.93-1.365 30.695-3.91-47.865-12.477-82.972-53.407-82.972-101.979z" fill="#e41f2d"/></g></g><g><g><path d="m103.472 258.861c3.354.248 6.754.382 10.195.382.405 0 .805-.012 1.209-.016 2.316-6.298 6.056-13.255 10.984-20.264.234-1.754.426-3.535.556-5.349 1.165-16.258-2.293-30.652-8.448-38.882-.728-.973-2.183-1.05-3.016-.165-7.337 7.8-12.866 21.952-14.034 38.258-.542 7.558-.073 14.703 1.19 21.023.534 1.709.989 3.382 1.364 5.013z" fill="#00c285"/><g fill="#0ed290"><path d="m79.843 254.933c7.775 2.064 16.057 3.427 24.659 3.996-1.525-6.803-4.44-14.446-8.763-22.333-8.42-15.361-20.044-27.818-30.55-33.854-1.169-.671-2.658.01-2.938 1.328-1.927 9.085 1.256 23.221 9.472 38.208 2.465 4.501 5.212 8.742 8.12 12.655z"/><path d="m137.765 257.099c4.226-4.202 8.333-8.898 12.113-13.98 10.546-14.182 16.044-27.885 15.74-37.054-.047-1.409-1.537-2.325-2.817-1.734-11.419 5.273-24.983 16.802-35.858 31.426-6.143 8.26-10.558 16.35-13.127 23.484 8.257-.009 16.29-.753 23.949-2.142z"/></g><path d="m62.808 270.573c15.287-7.231 32.57-11.312 50.859-11.312s35.572 4.082 50.859 11.312c23.134-10.579 38.279-28.175 38.279-48.097 0-1.559-.095-3.104-.279-4.632-.243-2.01-2.928-2.455-3.8-.627-11.343 23.776-45.13 41.027-85.059 41.027s-73.716-17.251-85.059-41.027c-.872-1.828-3.557-1.383-3.8.627-.185 1.528-.279 3.073-.279 4.632-.001 19.922 15.144 37.518 38.279 48.097z" fill="#00c285"/><ellipse cx="113.667" cy="364.15" fill="#fb2b3a" rx="113.667" ry="105.889"/><path d="m61.296 364.15c0-48.588 35.131-89.528 83.019-101.991-9.751-2.537-20.028-3.899-30.648-3.899-62.777.001-113.667 47.409-113.667 105.89s50.89 105.89 113.667 105.89c10.62 0 20.897-1.361 30.648-3.898-47.889-12.463-83.019-53.404-83.019-101.992z" fill="#e41f2d"/></g><g><path d="m388.143 255.771c3.352.247 6.751.382 10.19.382.406 0 .807-.012 1.211-.016 2.311-6.296 6.054-13.254 10.982-20.265.234-1.754.426-3.535.556-5.347 1.165-16.258-2.293-30.652-8.448-38.882-.728-.973-2.183-1.05-3.016-.165-7.337 7.8-12.866 21.952-14.034 38.258-.542 7.557-.073 14.7 1.189 21.02.535 1.708.993 3.383 1.37 5.015z" fill="#00c285"/><g fill="#0ed290"><path d="m364.509 251.843c7.775 2.064 16.057 3.426 24.658 3.996-1.525-6.803-4.44-14.446-8.763-22.332-8.42-15.361-20.044-27.818-30.55-33.854-1.169-.671-2.658.01-2.938 1.328-1.927 9.085 1.256 23.221 9.472 38.208 2.467 4.499 5.213 8.74 8.121 12.654z"/><path d="m422.432 254.009c4.226-4.202 8.333-8.898 12.112-13.98 10.546-14.182 16.044-27.885 15.74-37.054-.047-1.409-1.538-2.325-2.818-1.734-11.419 5.273-24.983 16.802-35.858 31.426-6.142 8.26-10.558 16.35-13.127 23.484 8.259-.009 16.292-.754 23.951-2.142z"/></g><path d="m350.959 268.998c14.41-6.243 30.461-9.737 47.374-9.737s32.964 3.494 47.374 9.737c25.088-10.362 41.765-28.707 41.765-49.613 0-1.559-.095-3.104-.279-4.632-.243-2.01-2.928-2.455-3.8-.627-11.343 23.775-45.13 41.027-85.059 41.027s-73.716-17.251-85.059-41.027c-.872-1.828-3.557-1.383-3.8.627-.185 1.528-.279 3.073-.279 4.632-.001 20.907 16.676 39.251 41.763 49.613z" fill="#00c285"/><ellipse cx="398.333" cy="364.15" fill="#fb2b3a" rx="113.667" ry="105.889"/><path d="m345.626 364.15c0-48.645 35.213-89.623 83.187-102.033-9.701-2.509-19.921-3.856-30.48-3.856-62.776 0-113.667 47.408-113.667 105.889s50.89 105.889 113.667 105.889c10.559 0 20.779-1.347 30.48-3.856-47.974-12.41-83.187-53.388-83.187-102.033z" fill="#e41f2d"/></g></g></g></svg>