<svg id="Layer_1" enable-background="new 0 0 510.011 510.011" height="512" viewBox="0 0 510.011 510.011" width="512" xmlns="http://www.w3.org/2000/svg"><g id="XMLID_677_"><path id="XMLID_784_" d="m473.451 145.391c-2.643-4.425-23.049-37.251-52.9-48.518-.794.756-14.762 8.585-15.539 9.363l-16.651 22.768 10.824 84.049c.46.012.919.027 1.378.027 40.484 0 69.691-46.955 72.889-52.309l4.592-7.691z" fill="#00cb75"/><path id="XMLID_793_" d="m352.702 18.451-7.69-4.592-7.69 4.592c-5.353 3.197-52.31 32.403-52.31 72.889 0 1.603.085 3.215.236 4.831l81.896 11.624 22.867-1.559c1.613-1.613 10.23-31.451 11.9-32.986-10.554-30.885-44.693-52.101-49.209-54.799z" fill="#70d840"/><path id="XMLID_455_" d="m396.979 77.96-29.835 29.835.948 9.758h10.602l30.317-24.066 46.661-52.912c-21.813 7.863-41.809 20.501-58.693 37.385z" fill="#954c20"/><path id="XMLID_498_" d="m380.761 131.986 7.599-2.982 29.832-29.831c24.526-24.525 57.134-38.032 91.819-38.032v-30c-18.821 0-37.145 3.234-54.339 9.434l-76.978 76.979z" fill="#7e3e19"/><path id="XMLID_20_" d="m251.376 117.504c-21.716 21.715-62.367 48.701-92.196 53.355-36.181 5.645-71.476 25.455-104.905 58.885-27.824 27.828-45.168 67.864-51.552 118.995-5.062 40.556-2.127 79.319 1.227 104.693 1.333 10.106 6.004 19.151 12.868 25.995l193.192-163.191 168.683-198.684c-35.496-35.497-92.409-34.958-127.317-.048z" fill="#ace233"/><path d="m378.695 117.553-361.876 361.875c6.833 6.812 15.839 11.445 25.896 12.772 15.534 2.054 36.093 3.953 59.017 3.952 53.318 0 111.108-10.158 152.706-43.56l72.015-121.452c6.75-28.229 30.982-65.142 52.195-86.364 35.138-35.139 35.196-92.021.047-127.223z" fill="#70d840"/><path id="XMLID_476_" d="m270.011 331.141h-60v15c0 82.71 67.289 150 150 150l15-29.904-15-30.096z" fill="#ace233"/><path id="XMLID_283_" d="m450.011 331.141-90 105v60c82.71 0 150-67.29 150-150v-15z" fill="#70d840"/><path id="XMLID_798_" d="m360.011 436.141 15-44.904-15-60.096h-90v15c0 49.625 40.374 90 90 90z" fill="#ffe705"/><path id="XMLID_639_" d="m450.011 346.141v-15h-90v105c49.626 0 90-40.375 90-90z" fill="#ffcb00"/></g></svg>