<svg id="Capa_1" enable-background="new 0 0 512 512" height="512" viewBox="0 0 512 512" width="512" xmlns="http://www.w3.org/2000/svg"><g><path d="m356.142 358.503h-38.87v15.391c0 3.514-.252 6.968-.694 10.364h39.564z" fill="#fef0ae"/><g><path d="m496.547 395.074h-136.255c-2.845 0-5.151-2.306-5.151-5.151v-32.966c0-2.845 2.306-5.151 5.151-5.151h136.255c8.534 0 15.453 6.918 15.453 15.453v12.362c0 8.535-6.918 15.453-15.453 15.453z" fill="#fe9901"/></g><g><path d="m399.06 374.335c-2.845 0-5.151-2.306-5.151-5.151v-17.378h-33.616c-2.845 0-5.151 2.306-5.151 5.151v32.966c0 2.845 2.306 5.151 5.151 5.151h136.255c8.534 0 15.453-6.918 15.453-15.453v-5.286z" fill="#fb8801"/></g><g><path d="m237.34 454.825h-156.408c-44.698 0-80.932-36.234-80.932-80.932v-18.996c0-1.707 1.384-3.091 3.091-3.091h312.09c1.707 0 3.091 1.384 3.091 3.091v18.996c0 44.698-36.235 80.932-80.932 80.932z" fill="#fb2b3a"/></g><g><path d="m61.296 373.893v-18.996c0-1.707 1.384-3.091 3.091-3.091h-61.296c-1.707 0-3.091 1.384-3.091 3.091v18.996c0 44.697 36.234 80.932 80.932 80.932h61.296c-44.698 0-80.932-36.234-80.932-80.932z" fill="#e41f2d"/></g><g><g><path d="m157.455 140.098c-2.722-3.32-5.998-6.281-9.712-8.79-.739-.499-.561-1.628.292-1.883 7.688-2.3 14.278-6.599 18.906-12.181.326-.393.326-.973 0-1.366-4.476-5.4-10.785-9.607-18.149-11.959-.756-.241-1.003-1.165-.464-1.748 10.537-11.394 15.333-25.848 14.034-38.992-.05-.505-.457-.912-.962-.962-13.145-1.3-27.598 3.496-38.992 14.034-.583.539-1.506.291-1.748-.465-2.352-7.364-6.559-13.673-11.959-18.149-.393-.326-.973-.325-1.366 0-5.582 4.628-9.881 11.219-12.181 18.906-.255.854-1.384 1.031-1.883.292-2.508-3.714-5.47-6.99-8.79-9.712-.393-.322-.968-.322-1.361 0-10.694 8.769-17.689 23.274-17.704 39.689 0 .035.001.07.004.105l3.84 47.424c.042.52.455.933.975.975l47.424 3.84c.035.003.07.004.105.004 16.415-.015 30.92-7.01 39.689-17.704.324-.389.324-.965.002-1.358z" fill="#00c285"/></g><g><g><path d="m100.939 110.04c-.003-.038-.005-.076-.005-.114.015-16.547 6.609-31.29 16.889-40.867-2.359-4.485-5.456-8.383-9.122-11.422-.393-.325-.973-.325-1.366 0-5.582 4.628-9.882 11.219-12.181 18.906-.256.854-1.384 1.031-1.883.292-2.508-3.714-5.47-6.99-8.79-9.712-.393-.322-.968-.322-1.361 0-10.694 8.769-17.689 23.274-17.704 39.689 0 .035.001.071.004.106l3.84 47.424c.042.52.455.933.975.975l34.596 2.802z" fill="#07b27b"/></g></g><path d="m122.272 102.308c-2.929-2.927-7.677-2.929-10.607 0l-43.126 43.125.722 8.911c.042.52.455.933.975.975l8.911.722 43.126-43.125c2.928-2.931 2.928-7.679-.001-10.608z" fill="#0ed290"/></g><g><path d="m216.109 168.181-18.922 18.922c-1.207 1.207-3.164 1.207-4.371 0l-13.841-13.84c-1.207-1.207-1.207-3.164 0-4.371l18.922-18.922c1.207-1.207 3.164-1.207 4.371 0l13.841 13.841c1.207 1.206 1.207 3.163 0 4.37z" fill="#a2e62e"/></g><g><path d="m196.328 173.262c-1.207-1.207-1.207-3.164 0-4.371l12.431-12.431-6.491-6.491c-1.207-1.207-3.164-1.207-4.371 0l-18.922 18.922c-1.207 1.207-1.207 3.164 0 4.371l13.841 13.841c1.207 1.207 3.164 1.207 4.371 0l6.491-6.491z" fill="#97d729"/></g><g><path d="m235.12 95.213-18.922-18.922c-1.207-1.207-1.207-3.164 0-4.371l13.841-13.841c1.207-1.207 3.164-1.207 4.371 0l18.922 18.922c1.207 1.207 1.207 3.164 0 4.371l-13.842 13.841c-1.207 1.207-3.163 1.207-4.37 0z" fill="#a2e62e"/></g><g><path d="m233.415 76.292c-1.207-1.207-1.207-3.164 0-4.371l7.418-7.418-6.423-6.423c-1.207-1.207-3.164-1.207-4.371 0l-13.841 13.841c-1.207 1.207-1.207 3.164 0 4.371l18.922 18.922c1.207 1.207 3.164 1.207 4.371 0l6.423-6.423z" fill="#97d729"/></g><g><path d="m273.97 281.676-18.922-18.922c-1.207-1.207-1.207-3.164 0-4.371l13.841-13.841c1.207-1.207 3.164-1.207 4.371 0l18.922 18.922c1.207 1.207 1.207 3.164 0 4.371l-13.84 13.84c-1.208 1.208-3.165 1.208-4.372.001z" fill="#a2e62e"/></g><g><path d="m261.62 269.325 7.269-7.269c1.207-1.207 3.164-1.207 4.371 0l12.351 12.35 6.571-6.571c1.207-1.207 1.207-3.164 0-4.371l-18.922-18.922c-1.207-1.207-3.164-1.207-4.371 0l-13.84 13.841c-1.207 1.207-1.207 3.164 0 4.371z" fill="#97d729"/></g><g><g><path d="m26.465 288.438c33.947 33.947 88.375 35.236 123.877 3.866 2.289-2.023 2.437-5.541.277-7.701l-120.319-120.319c-2.16-2.16-5.679-2.012-7.701.277-31.37 35.502-30.081 89.93 3.866 123.877z" fill="#fee97d"/></g><g><path d="m48.085 266.818c23.365 23.365 61.384 23.365 84.75 0l-84.75-84.75c-23.366 23.366-23.366 61.385 0 84.75z" fill="#fef0ae"/></g><g><path d="m69.705 245.198c11.445 11.445 30.065 11.445 41.51 0l-41.51-41.51c-11.445 11.445-11.445 30.066 0 41.51z" fill="#fee97d"/></g></g><g><path d="m315.659 182.588c1.331 1.331 3.521 1.203 4.706-.261 10.559-13.04 9.775-32.216-2.353-44.344s-31.304-12.913-44.344-2.353c-1.463 1.185-1.592 3.374-.261 4.706z" fill="#fb2b3a"/></g><g><path d="m326.629 155.496c.235.235.457.477.684.717-1.063-6.674-4.158-13.086-9.302-18.23-12.128-12.128-31.305-12.913-44.344-2.353-1.463 1.185-1.592 3.374-.261 4.705l11.138 11.138c12.919-8.76 30.639-7.423 42.085 4.023z" fill="#e41f2d"/></g><g><path d="m145.552 234.147c-17.671 17.671-20.361 43.63-6.009 57.982 2.198 2.198 4.668 3.996 7.339 5.401 6.203 3.264 13.832 1.969 18.788-2.988l9.507-9.507 14.175 14.175c1.223 1.223 3.206 1.223 4.43 0l16.833-16.833c1.223-1.223 1.223-3.206 0-4.43l-14.175-14.175 9.502-9.502c5.08-5.08 6.212-12.902 2.77-19.208-1.371-2.512-3.095-4.841-5.179-6.924-14.351-14.351-40.311-11.661-57.981 6.009z" fill="#f6a96c"/></g><g><g><path d="m165.468 292.129c-14.352-14.352-11.662-40.312 6.009-57.982 6.269-6.269 13.582-10.642 21.049-13.048-14.419-5.387-33.21-.716-46.974 13.048-17.671 17.671-20.361 43.63-6.009 57.982 2.198 2.198 4.668 3.995 7.339 5.401 6.203 3.264 13.832 1.969 18.788-2.988l1.155-1.155c-.46-.407-.918-.818-1.357-1.258z" fill="#ea9b58"/></g></g></g></svg>