<svg id="Capa_1" enable-background="new 0 0 512 512" height="512" viewBox="0 0 512 512" width="512" xmlns="http://www.w3.org/2000/svg"><g><path d="m460.739 278.126c-4.714 1.146-9.632 1.769-14.644 1.774l-16.345-1.322-.102.972c-.868 8.314-3.559 16.137-7.998 23.25l-.254.406.158.452c2.234 6.4 3.366 13.079 3.366 19.851 0 2.413-.156 4.841-.478 7.422l-.14 1.124h59.103c.425-2.78.646-5.626.646-8.525.001-18.709-9.199-35.259-23.312-45.404z" fill="#c53287"/><g><path d="m103.575 188.183-2.745-14.992c-3.249-17.74 1.806-35.617 13.868-49.046 1.022-1.138 2.104-2.213 3.231-3.236l-18.079-31.314c-2.452-3.533-5.304-6.67-8.485-9.307-.504-.418-1.247-.418-1.752 0-6.941 5.753-12.346 13.865-15.364 23.333-.304.954-1.497 1.241-2.233.562-14.627-13.527-33.182-19.684-50.057-18.015-.649.064-1.169.585-1.234 1.234-1.669 16.875 4.488 35.43 18.015 50.057.68.735.393 1.929-.562 2.233-9.469 3.018-17.581 8.423-23.334 15.364-.418.505-.418 1.247 0 1.752 5.943 7.169 14.407 12.689 24.28 15.641 1.1.329 1.318 1.773.367 2.416-4.767 3.22-8.973 7.022-12.467 11.283-.414.505-.414 1.241 0 1.746 8.339 10.17 20.725 17.722 35.149 20.968 9.774-12.246 24.661-20.224 41.402-20.679z" fill="#00c285"/><path d="m77.172 195.797c-6.64-6.939-12.32-15.247-16.579-24.72-11.567-25.725-9.799-53.588 2.41-73.984-12.826-8.539-27.476-12.267-41.043-10.925-.648.064-1.171.586-1.235 1.235-1.668 16.875 4.488 35.429 18.015 50.056.692.748.374 1.934-.596 2.243-9.454 3.02-17.553 8.421-23.298 15.353-.418.504-.418 1.25 0 1.753 5.941 7.166 14.402 12.685 24.271 15.638 1.096.328 1.324 1.777.375 2.417-4.767 3.22-8.973 7.022-12.468 11.284-.413.504-.413 1.243 0 1.747 8.339 10.17 20.724 17.721 35.148 20.967 4.159-5.21 9.24-9.648 15-13.064z" fill="#07b27b"/><path d="m101.657 177.707-.827-4.516c-1.106-6.041-1.227-12.093-.459-17.984l-16.069-16.069c-2.928-2.928-7.677-2.928-10.606 0-2.929 2.93-2.929 7.678 0 10.607z" fill="#0ed290"/></g><g><path d="m501.663 231.99c-5.057-6.102-12.186-10.855-20.507-13.513-.854-.273-1.134-1.317-.525-1.975 11.907-12.875 17.326-29.207 15.857-44.06-.056-.571-.516-1.03-1.087-1.087-14.853-1.469-31.185 3.95-44.06 15.857-.658.609-1.702.329-1.975-.525-2.658-8.321-7.412-15.45-13.513-20.507-.444-.368-1.1-.368-1.543 0-6.308 5.229-11.166 12.677-13.764 21.364-.289.965-1.564 1.165-2.128.33-2.834-4.196-6.181-7.898-9.932-10.974-.444-.364-1.094-.364-1.538 0-.045.037-.088.079-.133.116 7.087 9.247 11.312 20.798 11.312 33.322 0 8.451-1.923 16.46-5.349 23.618 10.564 10.011 17.174 24.157 17.174 39.826 0 1.956-.107 3.886-.307 5.79l16.332 1.323c.039.003.079.005.119.005 18.549-.017 34.938-7.921 44.847-20.004.364-.444.364-1.094 0-1.538-3.076-3.751-6.778-7.098-10.974-9.932-.835-.564-.634-1.839.33-2.128 8.687-2.599 16.134-7.457 21.363-13.764.369-.445.369-1.1.001-1.544z" fill="#0ed290"/><path d="m441.433 226.125c0-14.502 2.946-27.993 7.998-39.301-.021-.046-.047-.086-.063-.136-2.658-8.321-7.412-15.45-13.513-20.507-.444-.368-1.1-.368-1.543 0-6.308 5.229-11.166 12.677-13.764 21.363-.289.965-1.564 1.165-2.128.331-2.834-4.196-6.181-7.898-9.932-10.974-.444-.364-1.094-.364-1.538 0-.045.037-.088.079-.133.116 7.087 9.247 11.312 20.798 11.312 33.322 0 8.451-1.923 16.46-5.349 23.618 10.564 10.011 17.174 24.157 17.174 39.826 0 1.956-.107 3.886-.307 5.79l16.332 1.323c.04.003.079.005.119.005 4.04-.004 7.968-.402 11.758-1.116-10.08-13.203-16.423-32.349-16.423-53.66z" fill="#00c285"/><path d="m450.499 217.344c-2.929-2.928-7.678-2.928-10.606 0l-22.072 22.073c3.229 4.01 5.91 8.477 7.92 13.293l24.758-24.759c2.929-2.93 2.929-7.678 0-10.607z" fill="#07b27b"/></g><g><path d="m351.14 178.936c0 10.573-3.909 20.708-11.006 28.535l-.609.672.609.672c4.044 4.461 7.041 9.622 8.908 15.342l.361 1.105 1.04-.522c7.717-3.884 15.999-5.853 24.615-5.853 14.984 0 28.58 6.041 38.496 15.808 3.57-7.362 5.575-15.625 5.575-24.356 0-30.87-25.025-55.895-55.895-55.895-6.261 0-12.275 1.045-17.895 2.944 3.693 6.32 5.801 13.684 5.801 21.548z" fill="#98246a"/></g><g><path d="m89.536 241.804h23.857l-10-54.616c-30.086.896-54.205 25.549-54.205 55.852 0 5.238.736 10.3 2.083 15.107 9.982-10.431 23.669-16.343 38.265-16.343z" fill="#fedf30"/></g><path d="m351.14 237.352c0 .771-.027 1.538-.068 2.303l1.642 2.417c7.596 11.186 18.54 19.554 31.648 24.199 18.005 6.38 31.618 20.699 37.445 38.138 5.776-8.798 9.146-19.316 9.146-30.627 0-30.87-25.025-55.895-55.895-55.895-9.38 0-18.213 2.322-25.975 6.404 1.348 4.181 2.057 8.58 2.057 13.061z" fill="#e03d9c"/><g><path d="m206.347 332.054h126.28c11.756-7.788 19.513-21.128 19.513-36.286 0-11.242-4.266-21.487-11.265-29.208 7-7.721 11.265-17.966 11.265-29.208s-4.266-21.488-11.265-29.208c7-7.72 11.265-17.966 11.265-29.208 0-22.664-17.334-41.272-39.467-43.308.201-1.695.316-3.416.316-5.165 0-24.025-19.476-43.501-43.502-43.501-24.025 0-43.502 19.476-43.502 43.501 0 1.749.115 3.47.316 5.165-22.133 2.036-39.467 20.644-39.467 43.308 0 11.242 4.266 21.488 11.265 29.208-7 7.721-11.265 17.966-11.265 29.208s4.266 21.488 11.265 29.208c-7 7.721-11.265 17.966-11.265 29.208 0 15.157 7.757 28.498 19.513 36.286z" fill="#a2e62e"/><path d="m206.347 332.054h52.206c-11.756-7.788-19.513-21.128-19.513-36.286 0-9.815 3.251-18.87 8.734-26.148 1.363-1.809 1.363-4.31 0-6.119-5.483-7.279-8.734-16.334-8.734-26.149s3.251-18.87 8.734-26.149c1.363-1.809 1.363-4.31 0-6.119-5.483-7.279-8.734-16.333-8.734-26.148 0-21.104 15.031-38.691 34.97-42.656 2.469-.491 4.228-2.647 4.187-5.164-.003-.217-.005-.435-.005-.653 0-14.23 6.834-26.863 17.398-34.8-7.271-5.463-16.308-8.702-26.103-8.702-24.025 0-43.502 19.476-43.502 43.501 0 1.749.115 3.47.316 5.165-22.133 2.036-39.467 20.644-39.467 43.308 0 11.242 4.265 21.488 11.265 29.208-7 7.721-11.265 17.966-11.265 29.208s4.265 21.488 11.265 29.208c-7 7.721-11.265 17.966-11.265 29.208 0 15.158 7.757 28.499 19.513 36.287z" fill="#97d729"/><path d="m261.987 216.03v26.283l-19.314-21.105c-2.796-3.054-7.539-3.265-10.596-.47-3.056 2.797-3.266 7.541-.469 10.597l30.379 33.197v25.821l-9.558-10.641c-2.769-3.083-7.51-3.334-10.591-.568-3.082 2.769-3.336 7.511-.568 10.592l20.717 23.064v19.254h15v-67.522l30.38-33.197c2.796-3.056 2.586-7.8-.469-10.597-3.056-2.796-7.8-2.586-10.596.47l-19.314 21.105v-26.283l30.347-32.729c2.816-3.038 2.637-7.783-.4-10.6-3.037-2.815-7.783-2.637-10.599.4l-19.348 20.866v-37.033c0-4.143-3.358-7.5-7.5-7.5s-7.5 3.357-7.5 7.5v37.033l-19.347-20.866c-2.815-3.037-7.561-3.217-10.599-.4s-3.217 7.562-.4 10.6z" fill="#8bc727"/></g><g><g><g fill="#a2e62e"><path d="m138.541 110.059-41.966-72.689c-1.341-2.322-4.31-3.118-6.632-1.777l-12.614 7.283c-2.322 1.341-3.118 4.31-1.777 6.633l41.63 72.105c5.921-5.63 13.3-9.596 21.359-11.555z"/><path d="m236.738 42.876-12.614-7.283c-2.322-1.341-5.292-.545-6.632 1.777l-41.624 72.095c8.213 1.496 15.836 5.041 22.088 10.294l40.56-70.251c1.34-2.322.545-5.291-1.778-6.632z"/></g><path d="m135.643 110.852c4.653-1.44 9.571-2.204 14.597-2.204h16.73c3.953 0 7.837.482 11.581 1.383l11.993-77.133c.409-2.631-1.392-5.095-4.023-5.504l-14.461-2.249c-2.631-.409-5.095 1.392-5.504 4.023l-8.539 54.916c-.175 1.124-1.794 1.124-1.968 0l-8.539-54.916c-.409-2.631-2.873-4.432-5.504-4.023l-14.461 2.249c-2.631.409-4.432 2.873-4.023 5.504z" fill="#97d729"/></g><g><path d="m112.376 241.804h66.385c8.853 0 17.37 2.184 24.935 6.219l13.668-74.652c3.451-18.847-2.454-36.92-14.107-49.894-9.202-10.244-22.517-15.828-36.287-15.828h-16.73c-13.771 0-27.085 5.583-36.287 15.828-11.653 12.974-17.558 31.046-14.107 49.894z" fill="#fe9901"/></g><g><path d="m112.376 241.804h43.812l-12.53-68.434c-3.451-18.847 2.454-36.919 14.107-49.893 6.12-6.813 14.063-11.551 22.746-13.969-4.373-1.218-8.929-1.859-13.541-1.859h-16.73c-13.771 0-27.085 5.583-36.287 15.828-11.653 12.974-17.558 31.046-14.107 49.893z" fill="#fb8801"/></g><g fill="#fdb441"><path d="m168.146 164.5c0 4.143 3.358 7.5 7.5 7.5h41.928c.812-5.094.95-10.121.474-15h-42.402c-4.142 0-7.5 3.357-7.5 7.5z"/><path d="m180.797 188.936c-4.142 0-7.5 3.357-7.5 7.5s3.358 7.5 7.5 7.5h30.971l2.746-15z"/><path d="m185.948 220.871c-4.142 0-7.5 3.357-7.5 7.5s3.358 7.5 7.5 7.5h19.973l2.746-15z"/></g></g><g><g><path d="m425.312 332.054c.392-2.796.61-5.646.61-8.546 0-26.765-17.275-49.691-41.226-58.179-12.645-4.481-23.618-12.719-31.155-23.818l-3.379-4.976c-1.196-1.761-3.791-1.761-4.986 0l-3.379 4.976c-7.537 11.099-18.51 19.336-31.155 23.818-23.951 8.488-41.226 31.414-41.226 58.179 0 2.9.218 5.75.61 8.546z" fill="#fe9901"/><path d="m394.039 332.054c.234-2.796.364-5.646.364-8.545 0-26.765-10.317-49.691-24.621-58.179-7.552-4.481-14.105-12.719-18.607-23.818l-2.018-4.976c-.714-1.761-2.264-1.761-2.978 0l-2.018 4.976c-4.501 11.099-11.055 19.336-18.607 23.818-14.304 8.488-24.621 31.414-24.621 58.179 0 2.899.13 5.75.364 8.545z" fill="#fb8801"/><path d="m363.184 332.054c.078-2.796.122-5.646.122-8.545 0-26.765-3.452-49.691-8.238-58.179-2.527-4.482-4.72-12.719-6.226-23.818l-.675-4.976c-.239-1.761-.758-1.761-.996 0l-.675 4.976c-1.506 11.099-3.699 19.336-6.226 23.818-4.786 8.488-8.238 31.414-8.238 58.179 0 2.899.044 5.75.122 8.545z" fill="#fe9901"/></g></g><g><path d="m213.971 269.66c-9.632 8.579-22.057 13.368-35.209 13.368-7.93 0-15.569-1.72-22.706-5.111-.412-.195-.851-.295-1.305-.295-1.298 0-2.453.822-2.874 2.046-3.277 9.528-9.184 17.899-17.084 24.209-.18.144-.409.223-.645.223s-.465-.079-.645-.223c-7.9-6.31-13.808-14.681-17.084-24.209-.42-1.224-1.575-2.046-2.874-2.046-.454 0-.893.1-1.305.295-7.136 3.392-14.776 5.111-22.706 5.111-13.152 0-25.577-4.789-35.209-13.368-13.539 13.657-21.907 32.448-21.907 53.198 0 3.115.211 6.179.577 9.196h202.305c.366-3.016.577-6.081.577-9.196.001-20.75-8.367-39.541-21.906-53.198z" fill="#fb2b3a"/><path d="m87.117 282.96c-12.251-.55-23.752-5.25-32.791-13.301-13.539 13.656-21.907 32.448-21.907 53.198 0 3.115.211 6.179.577 9.196h43.299c-.366-3.016-.577-6.081-.577-9.196 0-14.65 4.181-28.318 11.399-39.897z" fill="#e41f2d"/><path d="m141.648 241.804v-20.004c0-4.143-3.358-7.5-7.5-7.5s-7.5 3.357-7.5 7.5v20.004z" fill="#0ed290"/><g><path d="m178.761 240.804h-89.225c-17.101 0-32.345 7.947-42.245 20.347-.588.736-.588 1.795 0 2.531 9.9 12.4 25.144 20.347 42.245 20.347 8.282 0 16.121-1.876 23.135-5.209 1.097-.521 2.408.025 2.803 1.173 3.37 9.8 9.471 18.329 17.405 24.665.738.589 1.801.589 2.538 0 7.934-6.337 14.035-14.866 17.405-24.665.395-1.148 1.707-1.694 2.803-1.173 7.014 3.333 14.853 5.209 23.135 5.209 17.101 0 32.345-7.947 42.245-20.347.588-.736.588-1.795 0-2.531-9.899-12.4-25.143-20.347-42.244-20.347z" fill="#00c285"/></g><g><g><path d="m89.551 263.682c-.588-.736-.588-1.795 0-2.531 9.9-12.4 25.144-20.347 42.245-20.347h-42.26c-17.101 0-32.345 7.946-42.245 20.347-.588.736-.588 1.795 0 2.531 9.9 12.4 25.144 20.347 42.245 20.347 7.491 0 14.613-1.547 21.096-4.306-8.297-3.537-15.53-9.088-21.081-16.041z" fill="#07b27b"/></g></g></g><g fill="#f6a96c"><path d="m498.585 383.663v-47.458c0-2.845-2.306-5.151-5.151-5.151h-474.868c-2.845 0-5.151 2.306-5.151 5.151v47.458z"/><path d="m13.415 434.304v47.458c0 2.845 2.306 5.151 5.151 5.151h474.868c2.845 0 5.151-2.306 5.151-5.151v-47.458z"/></g><g fill="#ea9b58"><path d="m78.809 383.663v-47.458c0-2.844 2.306-5.151 5.151-5.151h-65.394c-2.845 0-5.151 2.306-5.151 5.151v47.458z"/><path d="m78.809 481.762v-47.458h-65.394v47.458c0 2.845 2.306 5.151 5.151 5.151h65.394c-2.845 0-5.151-2.306-5.151-5.151z"/></g><g><path d="m508.909 435.304h-505.818c-1.707 0-3.091-1.384-3.091-3.091v-46.46c0-1.707 1.384-3.091 3.091-3.091h505.819c1.707 0 3.091 1.384 3.091 3.091v46.46c-.001 1.707-1.385 3.091-3.092 3.091z" fill="#ffbd86"/></g><g><path d="m66.447 432.213v-46.46c0-1.707 1.384-3.091 3.091-3.091h-66.447c-1.707 0-3.091 1.384-3.091 3.091v46.46c0 1.707 1.384 3.091 3.091 3.091h66.447c-1.708 0-3.091-1.384-3.091-3.091z" fill="#f6a96c"/></g><g><g><g><circle cx="42.753" cy="358.504" fill="#ffbd86" r="7.5"/></g><g><circle cx="469.247" cy="358.504" fill="#ffbd86" r="7.5"/></g></g><g><g><circle cx="42.753" cy="459.462" fill="#ffbd86" r="7.5"/></g><g><circle cx="469.247" cy="459.462" fill="#ffbd86" r="7.5"/></g></g></g></g></svg>