<svg id="Layer_1" enable-background="new 0 0 509.863 509.863" height="512" viewBox="0 0 509.863 509.863" width="512" xmlns="http://www.w3.org/2000/svg"><g id="XMLID_105_"><path id="XMLID_497_" d="m254.932 0c-72.737 0-131.881 85.556-134.862 194.909l74.861 15 60-15 15-75z" fill="#fff4f4"/><path id="XMLID_494_" d="m389.793 194.909c-2.981-109.353-62.125-194.909-134.861-194.909v194.909l60 15z" fill="#f3e2dd"/><path id="XMLID_393_" d="m87.58 224.909 1.609 18.831-26.365 48.078 26.365 48.079-4.689 54.878 44.697 32.616 21.549 51.658 56.684 5.179 47.502 25.635 15-149.954-15-135-75-15z" fill="#ff6326"/><path id="XMLID_477_" d="m447.039 291.818-26.365-48.08 1.609-18.829-92.351-15-75 15v284.954l47.502-25.635 56.682-5.178 21.55-51.658 44.697-32.617-4.689-54.878z" fill="#ff1f3d"/><path id="XMLID_412_" d="m239.932 269.909v30h15l10-15-10-15z" fill="#ff1f3d"/><path id="XMLID_468_" d="m254.932 269.909h15v30h-15z" fill="#e20059"/><path id="XMLID_469_" d="m239.932 359.909h15l10-15-10-15h-15z" fill="#ff1f3d"/><path id="XMLID_470_" d="m254.932 329.909h15v30h-15z" fill="#e20059"/><path id="XMLID_826_" d="m239.932 419.909h15l10-15-10-15h-15z" fill="#ff1f3d"/><path id="XMLID_828_" d="m254.932 389.909h15v30h-15z" fill="#e20059"/><g id="XMLID_823_"><g><path id="XMLID_485_" d="m164.932 359.909h30v30h-30z" fill="#ff1f3d"/></g></g><g id="XMLID_821_"><g><path id="XMLID_484_" d="m164.932 284.909h30v30h-30z" fill="#ff1f3d"/></g></g><g id="XMLID_782_"><g><path id="XMLID_513_" d="m314.932 284.909h30v30h-30z" fill="#e20059"/></g></g><g id="XMLID_780_"><g><path id="XMLID_520_" d="m314.932 359.909h30v30h-30z" fill="#e20059"/></g></g><path id="XMLID_356_" d="m254.932 195.625h-134.885c.006-.239.017-.477.023-.716h-35.053l2.563 30h167.352l15-15z" fill="#ff1f3d"/><path id="XMLID_358_" d="m254.932 195.625v29.284h167.352l2.562-30h-35.053c.006.239.018.477.023.716z" fill="#e20059"/></g></svg>