<svg id="Capa_1" enable-background="new 0 0 512 512" height="512" viewBox="0 0 512 512" width="512" xmlns="http://www.w3.org/2000/svg"><g><g><path d="m476.174 237.381c-22.543-22.625-34.707-53.586-34.707-85.525v-62.23c0-49.499-40.126-89.626-89.625-89.626-49.499 0-89.626 40.127-89.626 89.626v60.167c0 18.026-3.936 35.676-11.372 51.728v43.052c0 32.478 12.756 63.907 34.999 86.23 19.558 19.63 30.119 45.711 29.736 73.438-.035 2.515-.161 5.009-.376 7.478 1.378-.227 2.75-.471 4.109-.751 9.298 5.283 20.042 8.315 31.5 8.315 11.457 0 22.2-3.032 31.498-8.314 8.249 1.701 16.855 2.427 25.698 2.023 54.158-2.468 97.447-47.245 98.195-101.454.398-28.953-11.15-55.209-30.029-74.157z" fill="#fed402"/><path d="m457.93 255.558c-26.83-26.927-42.217-64.724-42.217-103.702v-62.23c0-35.218-28.652-63.871-63.871-63.871s-63.872 28.652-63.872 63.871v60.167c0 36.183-13.414 71.431-37.076 98.181.857 31.262 13.483 61.286 34.948 82.829 15.133 15.188 24.874 34.24 28.332 54.928l9.433-1.945 8.429 4.791c5.783 3.287 12.1 4.953 18.775 4.953 6.674 0 12.991-1.666 18.776-4.953l8.427-4.788 9.493 1.957c5.157 1.063 10.449 1.602 15.727 1.602 1.192 0 2.403-.027 3.6-.082 19.596-.894 37.988-9.24 51.79-23.505 13.804-14.267 21.555-32.939 21.826-52.576.29-21.005-7.708-40.76-22.52-55.627z" fill="#fe9901"/><g><path d="m351.842 25.754c-35.219 0-63.871 28.653-63.871 63.871v60.167c0 36.183-13.414 71.431-37.076 98.181.455 16.6 4.234 32.847 10.888 47.665 2.876-15.316 10.313-29.372 21.676-40.572 27.823-27.427 43.78-65.798 43.78-105.274v-60.166c0-28.369 18.597-52.466 44.237-60.77-6.19-2.005-12.785-3.102-19.634-3.102z" fill="#fb8801"/></g><path d="m463.243 250.265c-25.44-25.531-40.03-61.399-40.03-98.408v-62.23c0-39.354-32.017-71.371-71.371-71.371s-71.372 32.017-71.372 71.371v60.167c0 31.412-10.641 62.077-29.626 86.506v8.273c0 4.582.263 9.142.762 13.66 27.91-28.661 43.864-67.999 43.864-108.439v-60.168c0-31.083 25.288-56.371 56.372-56.371 31.083 0 56.371 25.288 56.371 56.371v62.23c0 40.947 16.185 80.675 44.404 108.996 13.374 13.423 20.595 31.262 20.333 50.229-.244 17.72-7.247 34.576-19.716 47.465-12.464 12.883-29.064 20.422-46.742 21.228-1.063.049-2.159.073-3.257.073-4.774 0-9.556-.487-14.213-1.447l-9.493-1.956c-1.78-.366-3.636-.073-5.218.824l-8.427 4.787c-4.641 2.638-9.712 3.975-15.071 3.975-5.361 0-10.431-1.337-15.069-3.974l-8.429-4.79c-1.137-.646-2.415-.979-3.706-.979-.505 0-1.013.051-1.514.154l-9.428 1.943c1.181 4.835 2.008 9.778 2.473 14.799.162-.032.324-.06.486-.093l6.731-1.388 5.973 3.396c6.926 3.937 14.49 5.933 22.481 5.933 7.989 0 15.553-1.996 22.481-5.932l5.973-3.394 6.728 1.387c5.651 1.165 11.452 1.756 17.241 1.756 1.326 0 2.652-.03 3.941-.089 21.516-.981 41.702-10.138 56.838-25.782 15.137-15.645 23.637-36.132 23.935-57.688.319-23.042-8.455-44.714-24.705-61.024z" fill="#fedf30"/><g><ellipse cx="350.811" cy="271.453" fill="#ea9b58" rx="59.519" ry="67.992"/></g><g><path d="m326.052 271.453c0-30.643 17.748-56.543 42.139-65.039-5.499-1.915-11.333-2.953-17.38-2.953-32.872 0-59.519 30.441-59.519 67.992s26.648 67.992 59.519 67.992c6.047 0 11.881-1.038 17.38-2.953-24.391-8.496-42.139-34.396-42.139-65.039z" fill="#d88a55"/></g><g><path d="m350.812 346.944c-36.955 0-67.02-33.865-67.02-75.491 0-41.627 30.065-75.492 67.02-75.492s67.019 33.865 67.019 75.492c0 41.626-30.065 75.491-67.019 75.491zm0-135.983c-28.684 0-52.02 27.137-52.02 60.492 0 33.354 23.336 60.491 52.02 60.491s52.019-27.137 52.019-60.491c0-33.355-23.336-60.492-52.019-60.492z" fill="#fdb441"/></g></g><g><path d="m162.219 93.716c10.088 0 19.786 1.698 28.828 4.817.006-.222.017-.443.017-.666 0-9.568-5.398-17.931-13.296-22.207-1.652-.894-2.671-2.629-2.671-4.507v-26.34c0-5.69-4.612-10.302-10.302-10.302h-7.211c-5.69 0-10.302 4.612-10.302 10.302v26.34c0 1.878-1.02 3.613-2.671 4.507-7.899 4.277-13.296 12.64-13.296 22.207 0 .469.015.934.041 1.396 9.614-3.583 20.013-5.547 30.863-5.547z" fill="#fee97d"/><path d="m148.45 94.787c1.018-8.259 6.059-15.317 13.096-19.127 1.652-.894 2.671-2.629 2.671-4.507v-26.34c0-3.931 2.202-7.345 5.439-9.082-1.449-.777-3.103-1.22-4.862-1.22h-7.211c-5.69 0-10.302 4.612-10.302 10.302v26.34c0 1.878-1.02 3.613-2.671 4.507-7.899 4.277-13.296 12.64-13.296 22.207 0 .469.015.934.041 1.396 5.465-2.036 11.184-3.55 17.095-4.476z" fill="#fedf30"/><g><path d="m286.551 330.097c-22.542-22.625-34.707-53.586-34.707-85.525v-62.23c0-49.499-40.127-89.626-89.626-89.626-49.499 0-89.626 40.127-89.626 89.626v60.167c0 32.625-12.871 64.028-36.105 86.931-19.088 18.816-30.868 45.024-30.697 73.985.329 55.552 45.345 101.25 100.887 102.373 7.901.16 15.6-.585 23.012-2.113 9.298 5.283 20.042 8.315 31.5 8.315 11.457 0 22.2-3.032 31.498-8.314 8.249 1.701 16.855 2.427 25.698 2.023 54.158-2.468 97.447-47.245 98.195-101.454.398-28.953-11.15-55.21-30.029-74.158z" fill="#fb8801"/></g><g><path d="m215.877 244.572v-62.23c0-49.414-24.124-89.485-53.914-89.622-.259.001-.517.007-.775.01-29.574.553-53.446 40.458-53.446 89.613v60.167c0 32.625-7.764 64.028-21.781 86.931-11.515 18.816-18.622 45.024-18.519 73.984.185 51.883 23.886 95.165 54.312 101.571 2.677-.339 5.324-.773 7.934-1.311 9.298 5.283 20.042 8.315 31.5 8.315 11.457 0 22.2-3.032 31.498-8.314 2.622.54 5.283.971 7.973 1.309 30.312-6.373 53.842-49.309 54.27-100.74.241-28.953-6.725-55.21-18.114-74.158-13.599-22.625-20.938-53.586-20.938-85.525z" fill="#fe9901"/></g><path d="m161.188 92.729c-29.574.553-53.446 40.458-53.446 89.613v60.167c0 32.625-7.764 64.029-21.781 86.931-11.515 18.816-18.622 45.024-18.519 73.984.185 51.883 23.886 95.165 54.312 101.572 2.677-.339 5.324-.773 7.934-1.312 9.298 5.283 20.042 8.315 31.5 8.315l.775-419.281c-.258.002-.516.008-.775.011z" fill="#fe9901"/><g><path d="m161.188 92.729c-2.547.047-5.05.394-7.5 1.006v417.819c2.461.289 4.961.446 7.5.446s5.039-.157 7.5-.446v-418.114c-2.203-.464-4.447-.71-6.725-.721-.258.001-.516.007-.775.01z" fill="#fdb441"/></g></g><g><g><circle cx="338.311" cy="231.791" fill="#ffbd86" r="7.5"/></g><g><circle cx="363.311" cy="231.791" fill="#ffbd86" r="7.5"/></g></g><g><g><circle cx="325.811" cy="254.455" fill="#ffbd86" r="7.5"/></g><g><circle cx="350.811" cy="254.455" fill="#ffbd86" r="7.5"/></g><g><circle cx="375.811" cy="254.455" fill="#ffbd86" r="7.5"/></g></g><g><g><circle cx="325.811" cy="302.873" fill="#ffbd86" r="7.5"/></g><g><circle cx="350.811" cy="302.873" fill="#ffbd86" r="7.5"/></g><g><circle cx="375.811" cy="302.873" fill="#ffbd86" r="7.5"/></g></g><g><g><g><circle cx="316.311" cy="279.179" fill="#ffbd86" r="7.5"/></g></g><g><g><circle cx="339.311" cy="279.179" fill="#ffbd86" r="7.5"/></g></g><g><g><circle cx="362.311" cy="279.179" fill="#ffbd86" r="7.5"/></g></g><g><g><circle cx="385.311" cy="279.179" fill="#ffbd86" r="7.5"/></g></g></g></g></svg>