<svg id="Layer_1" enable-background="new 0 0 510.063 510.063" height="512" viewBox="0 0 510.063 510.063" width="512" xmlns="http://www.w3.org/2000/svg"><g id="XMLID_1962_"><path id="XMLID_2010_" d="m432.485 141.703c-1.506-2.244-32.747-48.103-76.711-62.41l-25.743 12.77-8.356 24.069 36.182 104.002c42.874-15.036 73.227-59.621 74.629-61.71l5.612-8.36z" fill="#00cb75"/><path id="XMLID_2007_" d="m356.075 14.893-2.191-8.684-8.684-2.19c-5.087-1.283-50.554-11.964-80.341 7.862-11.412 7.621-18.68 18.48-22.752 31.872l79.567 72.379c10.225-4.007 18.975-10.266 25.387-19.239 21.386-29.681 10.343-76.734 9.014-82z" fill="#70d840"/><path id="XMLID_2004_" d="m135.766 36.899c-79.288 24.935-135.735 114.558-135.735 218.165 0 75.886 29.871 141.556 73.586 181.599l.414.391c18.434 16.789 39.589 29.154 61.74 36.163 3.847 20.935 22.23 36.847 44.26 36.847l15-255-15-254.999c-22.232-.001-40.475 16.057-44.265 36.834z" fill="#ffe705"/><path d="m224.296 36.899c-3.787-20.76-22.01-36.835-44.265-36.835v509.999c22.025 0 40.405-15.906 44.258-36.834 8.91-2.805 17.626-6.461 26.079-10.935l94.715-117.229c9.818-28.228 14.948-58.928 14.948-90.001 0-103.607-56.447-193.23-135.735-218.165z" fill="#ffcb00"/><path id="XMLID_1997_" d="m210.031 345.063v15c0 82.711 67.29 150 150 150l15-15-15-15-120-135z" fill="#ffe705"/><path id="XMLID_1994_" d="m360.031 480.063v30c82.71 0 150-67.289 150-150v-15h-30z" fill="#ffcb00"/><path id="XMLID_1982_" d="m357.675 345.063-42.644 30-40.713 68.896c21.797 22.266 52.168 36.104 85.713 36.104l15-75-15-60z" fill="#fff4f4"/><path id="XMLID_1979_" d="m362.388 345.063h-2.356v135c33.545 0 63.916-13.838 85.713-36.104l-32.78-53.896z" fill="#f3e2dd"/><path id="XMLID_1966_" d="m240.031 345.063.933 30c3.339 26.653 15.457 50.615 33.354 68.896l83.357-98.896z" fill="#f3e2dd"/><path id="XMLID_1963_" d="m479.099 375.063.933-30h-117.644l83.357 98.896c17.897-18.281 30.015-42.243 33.354-68.896z" fill="#e6d3ce"/></g></svg>