<svg id="Layer_1" enable-background="new 0 0 508.922 508.922" height="512" viewBox="0 0 508.922 508.922" width="512" xmlns="http://www.w3.org/2000/svg"><g id="XMLID_261_"><path id="XMLID_278_" d="m224.512 0-12.117 15.79c-.645.84-15.919 20.785-28.892 41.153-17.147 26.919-59.864 85.479-76.968 114.104-14.456 24.192-15.895 25.933-18.853 32.599-13.742 30.972-22.898 63.609-26.546 94.729l-.106.91.319 60.172.15 1.033c14.064 96.732 94.969 148.432 192.794 148.432l15-210-15-257.777c-11.594-16.77-19.537-27.295-29.781-41.145z" fill="#ff6326"/><path id="XMLID_318_" d="m447.452 298.375c-3.648-31.119-12.804-63.757-26.547-94.729-2.981-6.719-3.853-7.494-18.851-32.599-17.104-28.626-59.821-87.186-76.968-114.104-12.973-20.368-28.248-40.313-28.892-41.153l-12.117-15.79c-10.289 13.91-18.204 24.4-29.783 41.145v467.777c97.732 0 178.719-51.623 192.794-148.432l.15-1.033.32-60.172z" fill="#ff1f3d"/><path id="XMLID_612_" d="m89.411 306.613c11.716 11.715 8.181 27.175-3.535 38.891s-27.175 15.251-38.891 3.535-22.024-70.283-22.024-70.283 52.734 16.141 64.45 27.857z" fill="#ace233"/><path id="XMLID_607_" d="m135.603 153.779c11.716 11.716 8.181 27.176-3.535 38.891-11.716 11.717-27.175 15.252-38.891 3.536s-23.133-66.534-23.133-66.534 53.843 12.392 65.559 24.107z" fill="#ace233"/><path id="XMLID_600_" d="m416.011 305.613c-11.716 11.715-8.181 27.175 3.535 38.891s27.175 15.251 38.891 3.535 25.524-68.7 25.524-68.7-56.234 14.558-67.95 26.274z" fill="#70d840"/><path id="XMLID_581_" d="m370.177 155.946c-11.716 11.716-8.18 27.175 3.536 38.891s27.175 15.251 38.891 3.536c11.716-11.716 25.69-68.951 25.69-68.951s-56.401 14.808-68.117 26.524z" fill="#70d840"/><path id="XMLID_384_" d="m224.294 393.922c0 16.568 13.432 25 30 25l15-30-15-60s-30 48.431-30 65z" fill="#ace233"/><path id="XMLID_613_" d="m224.294 213.922c0 16.568 13.432 25 30 25l15-30-15-60s-30 48.432-30 65z" fill="#ace233"/><g fill="#70d840"><path id="XMLID_381_" d="m254.294 418.922c16.569 0 30-8.432 30-25s-30-65-30-65z"/><path id="XMLID_385_" d="m284.294 213.922c0-16.568-30-65-30-65v90c16.569 0 30-8.432 30-25z"/></g></g></svg>