<svg id="Capa_1" enable-background="new 0 0 512 512" height="512" viewBox="0 0 512 512" width="512" xmlns="http://www.w3.org/2000/svg"><g><g><path d="m388.962 4.603-5.763-3.327c-4.547-2.625-10.362-1.067-12.987 3.48l-12.154 21.052c-.867 1.501-2.482 2.417-4.215 2.369-8.286-.227-16.459 3.967-20.874 11.613-1.102 1.908-1.893 3.913-2.404 5.955 9.151.905 18.032 3.738 25.996 8.328 8.179 4.729 14.953 11.068 20.164 18.39 1.531-1.473 2.887-3.176 3.999-5.103 4.415-7.647 3.96-16.821-.38-23.884-.907-1.477-.922-3.334-.055-4.835l12.154-21.052c2.624-4.546 1.066-10.361-3.481-12.986z" fill="#d1f19e"/><g><path d="m362.125 36.713c1.733.047 3.348-.868 4.215-2.369l12.155-21.052c2.625-4.547 8.44-6.105 12.987-3.48l2.044 1.18c-.515-2.594-2.094-4.963-4.564-6.389l-5.763-3.327c-4.547-2.625-10.362-1.067-12.987 3.48l-12.154 21.052c-.867 1.501-2.482 2.417-4.215 2.369-8.286-.227-16.459 3.967-20.874 11.613-1.102 1.908-1.893 3.913-2.404 5.955 3.73.369 7.41 1.074 11.006 2.072 4.478-7.317 12.457-11.325 20.554-11.104z" fill="#bbec6c"/></g><path d="m217.965 416.868c0-2.533.67-5.032 1.937-7.227l16.838-29.165c1.267-2.194 3.097-4.023 5.29-5.289l15.985-9.229v-21.718c0-2.533.67-5.032 1.937-7.227l16.839-29.164c1.265-2.193 3.094-4.022 5.289-5.29l15.986-9.23v-21.717c0-2.533.67-5.032 1.937-7.227l16.838-29.164c1.267-2.194 3.096-4.023 5.29-5.29l18.093-10.446c13.989-26.132 28.086-52.453 42.401-79.151 16.381-30.99 4.59-69.69-25.566-87.128-30.179-17.398-69.591-8.258-88.238 21.423-68.551 110.561-133.176 214.322-201.726 324.882-18.631 29.65-7.155 79.928 31.128 102.011 38.266 22.114 87.546 6.912 103.908-24.048 5.308-9.9 10.579-19.734 15.833-29.541v-31.065z" fill="#0ed290"/><g><path d="m159.3 452.746c63.718-113.35 123.51-219.902 187.228-333.252 17.1-30.575 21.549-59.899 10.531-66.288-11.042-6.349-34.213 12.167-52.141 42.264-66.305 111.856-128.685 216.913-194.991 328.77-17.912 30.066-25.706 69.218-11.703 77.283 13.984 8.095 43.994-18.232 61.076-48.777z" fill="#00c285"/></g><g><path d="m126.552 440.962c66.305-111.856 128.685-216.913 194.991-328.77 13.319-22.358 29.527-38.314 41.51-42.444.218-8.119-1.718-14.063-5.994-16.542-11.042-6.349-34.213 12.168-52.141 42.264-66.305 111.856-128.685 216.913-194.991 328.77-17.911 30.066-25.706 69.218-11.703 77.283 2.659 1.539 5.901 1.828 9.52 1.086-.976-16.211 6.542-41.057 18.808-61.647z" fill="#07b27b"/></g></g><g><path d="m451.582 263.886-16.838-29.165c-1.356-2.349-3.307-4.3-5.656-5.656l-29.165-16.838c-2.349-1.356-5.014-2.07-7.726-2.07h-33.676c-2.713 0-5.377.714-7.726 2.07l-29.165 16.838c-2.349 1.356-4.3 3.307-5.656 5.656l-16.838 29.165c-1.356 2.349-2.07 5.014-2.07 7.726v22.295l14.179-8.187c2.193-1.267 4.692-1.936 7.227-1.936h33.676c2.534 0 5.033.669 7.227 1.936l29.165 16.839c2.194 1.268 4.024 3.097 5.29 5.29l16.838 29.164c1.267 2.194 1.937 4.693 1.937 7.227v13.114l16.486-9.518c2.349-1.356 4.3-3.307 5.656-5.656l16.838-29.165c1.356-2.349 2.07-5.014 2.07-7.726v-33.676c-.002-2.713-.716-5.378-2.073-7.727z" fill="#07b27b"/><path d="m425.828 270.788-9.937-17.212c-1.356-2.349-3.307-4.3-5.656-5.657l-17.212-9.937c-2.349-1.356-5.014-2.07-7.726-2.07h-19.874c-2.712 0-5.377.714-7.726 2.07l-17.212 9.937c-2.349 1.356-4.3 3.307-5.657 5.657l-9.937 17.212c-1.356 2.349-2.07 5.014-2.07 7.726v5.271h29.327c2.534 0 5.033.669 7.227 1.936l29.165 16.839c2.194 1.268 4.024 3.097 5.29 5.29l13.252 22.954 3.154-1.821c2.349-1.356 4.3-3.307 5.656-5.657l9.937-17.212c1.356-2.349 2.07-5.014 2.07-7.726v-19.874c-.001-2.713-.715-5.377-2.071-7.726z" fill="#dbf4b2"/><path d="m352.147 283.785c1.378 0 2.744.205 4.058.589.323-1.692.925-3.326 1.793-4.83l9.937-17.212c1.356-2.349 3.307-4.3 5.657-5.657l17.212-9.937c2.349-1.356 5.014-2.07 7.726-2.07h6.074l-11.582-6.687c-2.349-1.356-5.014-2.07-7.726-2.07h-19.874c-2.712 0-5.377.714-7.726 2.07l-17.212 9.937c-2.349 1.356-4.3 3.307-5.657 5.657l-9.937 17.212c-1.356 2.349-2.07 5.014-2.07 7.726v5.271h29.327z" fill="#d1f19e"/><path d="m432.323 267.037-9.938-17.212c-2.013-3.486-4.919-6.393-8.401-8.401l-17.212-9.938c-3.484-2.012-7.452-3.075-11.477-3.075h-19.874c-4.023 0-7.992 1.063-11.477 3.075l-17.21 9.937c-3.485 2.011-6.392 4.916-8.404 8.402l-9.937 17.212c-2.012 3.484-3.075 7.453-3.075 11.477v5.627c1.031-.23 2.088-.355 3.151-.355h11.849v-5.271c0-1.395.368-2.77 1.065-3.977l9.937-17.212c.697-1.208 1.703-2.214 2.912-2.911l17.212-9.938c1.207-.697 2.582-1.065 3.977-1.065h19.874c1.394 0 2.769.368 3.976 1.065l17.215 9.938c1.206.696 2.212 1.702 2.909 2.91l9.937 17.21c.697 1.21 1.066 2.585 1.066 3.979v19.874c0 1.394-.369 2.769-1.065 3.977l-9.938 17.212c-.697 1.208-1.703 2.214-2.911 2.911l-3.154 1.821 7.335 12.706c.055.095.102.194.155.29l3.161-1.825c3.484-2.01 6.391-4.916 8.403-8.402l9.938-17.214c2.012-3.486 3.074-7.454 3.074-11.475v-19.874c.002-4.022-1.06-7.99-3.073-11.478z" fill="#0ed290"/></g><g><path d="m411.532 336.514-16.838-29.165c-1.356-2.349-3.307-4.3-5.656-5.656l-29.165-16.838c-2.349-1.356-5.014-2.07-7.726-2.07h-33.677c-2.713 0-5.377.714-7.726 2.07l-29.165 16.838c-2.349 1.356-4.3 3.307-5.656 5.656l-16.838 29.165c-1.356 2.349-2.07 5.014-2.07 7.726v22.295l14.179-8.187c2.195-1.267 4.693-1.937 7.226-1.937h33.677c2.532 0 5.031.67 7.227 1.937l29.164 16.839c2.193 1.265 4.022 3.094 5.29 5.289l16.839 29.165c1.267 2.194 1.936 4.693 1.936 7.227v13.114l16.486-9.518c2.349-1.356 4.3-3.307 5.656-5.656l16.838-29.165c1.356-2.349 2.07-5.014 2.07-7.726v-33.677c0-2.712-.715-5.377-2.071-7.726z" fill="#00c285"/><path d="m385.778 343.415-9.937-17.212c-1.356-2.349-3.307-4.3-5.657-5.656l-17.212-9.937c-2.349-1.356-5.014-2.07-7.726-2.07h-19.874c-2.712 0-5.377.714-7.726 2.07l-17.212 9.937c-2.349 1.356-4.3 3.307-5.657 5.656l-9.937 17.212c-1.356 2.349-2.07 5.014-2.07 7.726v5.271h29.327c2.532 0 5.031.67 7.227 1.937l29.164 16.839c2.193 1.265 4.022 3.094 5.29 5.289l13.253 22.955 3.154-1.821c2.349-1.356 4.3-3.307 5.657-5.656l9.937-17.212c1.356-2.349 2.07-5.014 2.07-7.726v-19.874c-.001-2.714-.715-5.379-2.071-7.728z" fill="#dbf4b2"/><path d="m312.097 356.412c1.307 0 2.604.182 3.856.529.297-1.854.922-3.646 1.868-5.284l9.937-17.212c1.356-2.349 3.307-4.3 5.657-5.657l17.212-9.937c2.349-1.356 5.014-2.07 7.726-2.07h5.309l-10.69-6.172c-2.349-1.356-5.014-2.07-7.726-2.07h-19.874c-2.712 0-5.377.714-7.726 2.07l-17.212 9.937c-2.349 1.356-4.3 3.307-5.657 5.656l-9.937 17.212c-1.356 2.349-2.07 5.014-2.07 7.726v5.271h29.327z" fill="#d1f19e"/><path d="m392.273 339.665-9.937-17.212c-2.012-3.484-4.916-6.39-8.401-8.402l-17.212-9.936c-3.484-2.013-7.452-3.076-11.477-3.076h-19.875c-4.024 0-7.992 1.063-11.476 3.075l-17.214 9.937c-3.484 2.013-6.389 4.918-8.4 8.402l-9.937 17.212c-2.012 3.484-3.075 7.453-3.075 11.477v5.626c1.031-.231 2.087-.356 3.15-.356h11.85v-5.271c0-1.395.368-2.77 1.065-3.977l9.937-17.212c.697-1.208 1.704-2.215 2.911-2.912l17.214-9.938c1.206-.696 2.581-1.064 3.975-1.064h19.875c1.394 0 2.769.368 3.976 1.065l17.212 9.937c1.208.697 2.215 1.704 2.912 2.912l9.937 17.212c.697 1.207 1.065 2.582 1.065 3.977v19.874c0 1.394-.368 2.769-1.065 3.976l-9.937 17.213c-.697 1.207-1.704 2.214-2.911 2.911l-3.154 1.821 7.336 12.706c.055.095.102.194.155.291l3.164-1.827c3.484-2.013 6.39-4.918 8.4-8.401l9.936-17.212c2.013-3.484 3.076-7.452 3.076-11.477v-19.874c0-4.024-1.064-7.993-3.075-11.477z" fill="#0ed290"/></g><g><g><path d="m312.097 355.412h-33.677c-2.712 0-5.377.714-7.726 2.07l-29.165 16.838c-2.349 1.356-4.3 3.307-5.656 5.656l-16.838 29.165c-1.356 2.349-2.07 5.014-2.07 7.726v33.676c0 2.713.714 5.377 2.07 7.726l16.838 29.165c1.356 2.349 3.307 4.3 5.656 5.656l29.165 16.838c2.349 1.356 5.014 2.07 7.726 2.07h33.676c2.713 0 5.377-.714 7.726-2.07l29.165-16.838c2.349-1.356 4.3-3.307 5.656-5.656l16.838-29.165c1.356-2.349 2.07-5.014 2.07-7.726v-33.676c0-2.713-.714-5.377-2.07-7.726l-16.838-29.165c-1.356-2.349-3.307-4.3-5.656-5.656l-29.165-16.838c-2.348-1.356-5.013-2.07-7.725-2.07z" fill="#07b27b"/></g><g><path d="m277.595 484.175-17.212-9.937c-2.349-1.356-4.3-3.307-5.657-5.657l-9.937-17.212c-1.356-2.349-2.07-5.014-2.07-7.726v-19.874c0-2.712.714-5.377 2.07-7.726l9.937-17.212c1.356-2.349 3.307-4.3 5.657-5.657l17.212-9.937c2.349-1.356 5.014-2.07 7.726-2.07h19.874c2.712 0 5.377.714 7.726 2.07l17.212 9.937c2.349 1.356 4.3 3.307 5.657 5.657l9.937 17.212c1.356 2.349 2.07 5.014 2.07 7.726v19.874c0 2.712-.714 5.377-2.07 7.726l-9.937 17.212c-1.356 2.349-3.307 4.3-5.657 5.657l-17.212 9.937c-2.349 1.356-5.014 2.07-7.726 2.07h-19.874c-2.712 0-5.377-.713-7.726-2.07z" fill="#dbf4b2"/></g><g><path d="m311.48 484.175-17.212-9.937c-2.349-1.356-4.3-3.307-5.657-5.657l-9.937-17.212c-1.356-2.349-2.07-5.014-2.07-7.726v-19.874c0-2.712.714-5.377 2.07-7.726l9.937-17.212c1.356-2.349 3.307-4.3 5.657-5.657l17.212-9.937c.237-.136.478-.262.721-.385-2.167-1.103-4.566-1.685-7.005-1.685h-19.874c-2.712 0-5.377.714-7.726 2.07l-17.213 9.937c-2.349 1.356-4.3 3.307-5.657 5.657l-9.937 17.212c-1.356 2.349-2.07 5.014-2.07 7.726v19.874c0 2.712.714 5.377 2.07 7.726l9.937 17.212c1.356 2.349 3.307 4.3 5.657 5.657l17.213 9.937c2.349 1.356 5.014 2.07 7.726 2.07h19.874c2.439 0 4.838-.582 7.005-1.685-.243-.123-.485-.248-.721-.385z" fill="#d1f19e"/></g><g><path d="m305.195 493.745h-19.874c-4.022 0-7.99-1.062-11.475-3.073l-.001-.001-17.213-9.938c-3.483-2.011-6.389-4.916-8.4-8.4l-9.938-17.214c-2.012-3.483-3.075-7.451-3.075-11.476v-19.873c0-4.023 1.063-7.992 3.075-11.477l9.938-17.212c2.012-3.485 4.917-6.391 8.401-8.402l17.213-9.937c3.483-2.012 7.451-3.075 11.476-3.075h19.874c4.023 0 7.992 1.063 11.477 3.075l17.212 9.937c3.485 2.012 6.391 4.917 8.402 8.402l9.937 17.212c2.012 3.484 3.075 7.453 3.075 11.477v19.874c0 4.024-1.063 7.992-3.075 11.477l-9.937 17.212c-2.013 3.485-4.918 6.39-8.402 8.401l-17.212 9.938c-3.488 2.011-7.456 3.073-11.478 3.073zm-23.85-16.065c1.207.697 2.582 1.065 3.977 1.065h19.874c1.395 0 2.771-.368 3.979-1.065l17.21-9.937c1.208-.697 2.215-1.704 2.912-2.912l9.937-17.212c.697-1.207 1.065-2.582 1.065-3.976v-19.873c0-1.395-.368-2.77-1.065-3.977l-9.937-17.212c-.697-1.208-1.704-2.215-2.912-2.912l-17.212-9.937c-1.207-.697-2.582-1.065-3.977-1.065h-19.874c-1.394 0-2.769.368-3.975 1.064l-17.214 9.938c-1.207.697-2.214 1.704-2.911 2.912l-9.938 17.212c-.697 1.207-1.065 2.582-1.065 3.977v19.874c0 1.394.368 2.769 1.064 3.975l9.938 17.214c.697 1.207 1.704 2.214 2.911 2.911z" fill="#0ed290"/></g></g></g></svg>