<svg id="Layer_1" enable-background="new 0 0 509.99 509.99" height="512" viewBox="0 0 509.99 509.99" width="512" xmlns="http://www.w3.org/2000/svg"><g id="XMLID_2056_"><g id="XMLID_2081_"><g><g id="XMLID_508_"><path d="m119.665 193.995-22.093-14.003-33.919-119.997h-48.652v-30h71.348l42.4 150.002z" fill="#ff6326"/></g></g></g><path id="XMLID_2078_" d="m0 254.995v15c0 115.793 94.204 209.999 209.998 210l15.002-131-15.002-94-100.5-10z" fill="#954c20"/><path id="XMLID_2075_" d="m506.988 185.722-1.943-9.881-9.881-1.943c-1.918-.377-40.739-7.777-77.462 2.157l-18.242 78.94 10.836 78.157c6.987-.945 17.707-1.389 30.805-5.111 16.541-4.715 30.19-12.374 40.565-22.76 40.34-40.34 25.954-116.344 25.322-119.559z" fill="#00cb75"/><path id="XMLID_2072_" d="m418.381 179.995c-.202-1.502-.341-2.484-.341-2.484-10.732-48.264-62.409-83.444-64.68-84.969l-8.361-5.613-8.36 5.612c-2.478 1.663-55.667 37.922-65.182 87.454l115.874 14z" fill="#70d840"/><path id="XMLID_2069_" d="m209.998 479.995h.002c115.794 0 209.999-94.206 209.999-210v-15l-120-10-90.001 10z" fill="#7e3e19"/><path id="XMLID_2066_" d="m209.998 179.995h-209.998v75h209.998l10-37.5z" fill="#7e3e19"/><g fill="#6a3011"><path id="XMLID_2063_" d="m269.999 344.995h30v30h-30z"/><path id="XMLID_2060_" d="m210 374.995h30v30h-30z"/><path id="XMLID_2057_" d="m209.998 179.995h210.001v75h-210.001z"/></g></g></svg>