<svg id="Layer_1" enable-background="new 0 0 510.03 510.03" height="512" viewBox="0 0 510.03 510.03" width="512" xmlns="http://www.w3.org/2000/svg"><g id="XMLID_97_"><path id="XMLID_250_" d="m135.355 76.289c-28.625-28.624-82.479-16.073-88.525-14.548l-8.685 2.191-2.19 8.684c-1.525 6.047-14.076 59.901 14.548 88.526 17.323 17.322 44.919 20.273 69.497 17.729l15.916-101.991c-.189-.195-.368-.4-.561-.591z" fill="#ace233"/><path id="XMLID_254_" d="m297.964 97.572c-30.786-21.797-68.227-39.319-111.658-52.268 5.884-8.552 12.431-16.714 19.637-24.4l-21.886-20.518c-41.309 44.061-64.057 101.589-64.057 161.985v92.907l15 14.367 15-14.26v-93.015c0-31.69 7.181-62.473 20.73-90.349 41.674 11.741 77.393 27.729 106.514 47.676l21.414-1.397z" fill="#954c20"/><path id="XMLID_646_" d="m281.946 287.728c53.937 51.317 139.559 49.17 190.86-4.754l-78.474-93.589-106.805-81.608c-50.996 54.065-59.503 128.651-5.581 179.951z" fill="#ff6326"/><path id="XMLID_647_" d="m468.051 92.115c-54.084-51.458-128.814-39.155-180.523 15.662l185.278 175.197c51.425-54.05 49.311-139.424-4.755-190.859z" fill="#ff1f3d"/><path id="XMLID_629_" d="m0 374.644c0 74.44 60.56 135 135 135l10-117.259-10-137.74c-74.769 0-135 45.406-135 119.999z" fill="#ff6326"/><path id="XMLID_643_" d="m135 254.645v254.999c74.439 0 135-60.56 135-135 0-74.549-60.186-119.999-135-119.999z" fill="#ff1f3d"/><path id="XMLID_673_" d="m112.638 319.642-22.358 20.005c11.371 12.708 27.671 19.997 44.72 19.997l10-16.259-10-13.74c-8.524 0-16.675-3.645-22.362-10.003z" fill="#ff1f3d"/><path id="XMLID_648_" d="m157.36 319.642c-5.687 6.357-13.837 10.003-22.36 10.003v29.999c17.048 0 33.347-7.289 44.718-19.997z" fill="#e20059"/><path id="XMLID_253_" d="m342.008 159.293c-5.847 5.925-13.898 9.186-22.271 8.918l-.918 29.986c16.761.509 33.16-6.047 44.988-18.291l-4.794-15.188z" fill="#ff1f3d"/><path id="XMLID_246_" d="m380.467 133.399-29.903 2.411c.681 8.433-2.229 17.059-8.556 23.482l21.8 20.613c11.57-11.888 18.084-28.845 16.659-46.506z" fill="#e20059"/></g></svg>