<svg id="Layer_1" enable-background="new 0 0 510 510" height="512" viewBox="0 0 510 510" width="512" xmlns="http://www.w3.org/2000/svg"><g id="XMLID_2141_"><path id="XMLID_2270_" d="m312.904 57.705-2.19-8.685-8.686-2.19c-4.864-1.227-41.02-9.671-69.821 2.276l-10.629 72.625h-.006l78.805 22.351c25.988-29.086 14.016-80.478 12.527-86.377z" fill="#70d840"/><path id="XMLID_2267_" d="m138.429 121.73-10.323-73.229c-28.578-11.045-63.601-2.851-68.274-1.672l-8.685 2.191-2.191 8.684c-1.476 5.853-13.277 56.485 11.914 85.688l77.562-21.662z" fill="#ace233"/><path id="XMLID_2264_" d="m172.312 4.854c-4.505 2.689-44.215 27.281-51.246 62.336-4.09 20.264 4.025 38.742 17.362 54.541l19.351 9.47 22.221-9.471 10-46.996-10-74.468z" fill="#70d840"/><path id="XMLID_2261_" d="m239.296 69.207c-5.872-36.11-46.944-61.568-51.607-64.353l-7.689-4.588v121.464l18 10.001 23.578-10c12.687-15.042 20.992-33.039 17.718-52.524z" fill="#00cb75"/><path id="XMLID_2258_" d="m485.317 208.753c-22.276-39.161-59.393-59.019-110.317-59.019-17.588 0-36.447 2.347-56.163 6.977l-65.227 323.394c41.414 19.15 84.184 29.629 121.39 29.629 50.925 0 88.041-19.856 110.317-59.018 16.609-29.199 24.683-68.773 24.683-120.982s-8.074-91.782-24.683-120.981z" fill="#e20059"/><path id="XMLID_2255_" d="m59.018 144.417c-39.162 22.276-59.018 59.392-59.018 110.317 0 50.9 20.636 114.297 53.854 165.449 36.959 56.91 82.938 89.551 126.146 89.551l10-209-10-181c-52.211 0-91.783 8.075-120.982 24.683z" fill="#ff6326"/><path id="XMLID_2254_" d="m300.982 144.417c-29.198-16.608-68.772-24.683-120.982-24.683v390c43.209 0 89.188-32.641 126.147-89.551 33.217-51.152 53.853-114.548 53.853-165.449 0-50.925-19.856-88.041-59.018-110.317z" fill="#ff1f3d"/><g id="XMLID_2243_"><g><g id="XMLID_566_"><path d="m240 209.734h30v30h-30z" fill="#f3e2dd"/></g></g></g><g id="XMLID_2236_"><g><g id="XMLID_560_"><path d="m240 269.734h30v30h-30z" fill="#f3e2dd"/></g></g></g><g id="XMLID_2232_"><g><path id="XMLID_538_" d="m240 329.734h30v30h-30z" fill="#f3e2dd"/></g></g><g id="XMLID_2225_"><g><g id="XMLID_651_"><path d="m90 209.734h30v30h-30z" fill="#fff4f4"/></g></g></g><g id="XMLID_2211_"><g><g id="XMLID_565_"><path d="m90 269.734h30v30h-30z" fill="#fff4f4"/></g></g></g><g id="XMLID_2202_"><g><path id="XMLID_536_" d="m90 329.734h30v30h-30z" fill="#fff4f4"/></g></g><g fill="#fff4f4"><path id="XMLID_2194_" d="m165 209.734h15l10-13.999-10-16.001h-15z"/><path id="XMLID_2188_" d="m165 269.734h15l10-16.333-10-13.667h-15z"/><path id="XMLID_2184_" d="m165 329.734h15l10-15-10-15h-15z"/></g><path id="XMLID_2175_" d="m180 299.734h15v30h-15z" fill="#f3e2dd"/><path id="XMLID_2172_" d="m165 389.734h15l10-15-10-15h-15z" fill="#fff4f4"/><path id="XMLID_2169_" d="m180 359.734h15v30h-15z" fill="#f3e2dd"/><path id="XMLID_2166_" d="m165 449.734h15l10-17.333-10-12.667h-15z" fill="#fff4f4"/><path id="XMLID_2163_" d="m180 419.734h15v30h-15z" fill="#f3e2dd"/><path id="XMLID_2152_" d="m180 179.734h15v30h-15z" fill="#f3e2dd"/><path id="XMLID_2142_" d="m180 239.734h15v30h-15z" fill="#f3e2dd"/></g></svg>