<svg id="Capa_1" enable-background="new 0 0 512 512" height="512" viewBox="0 0 512 512" width="512" xmlns="http://www.w3.org/2000/svg"><g><g><g><g><g fill="#a2e62e"><path d="m140.058 105.011 15.232 20.84 5.031-5.031c3.586-3.586 7.58-6.62 11.87-9.091l-28.775-107.384c-.838-3.126-4.051-4.981-7.177-4.143l-16.98 4.55c-3.126.838-4.981 4.051-4.143 7.177z"/><path d="m120.82 160.319 5.031-5.031-20.838-15.23-93.086-24.942c-3.126-.838-6.339 1.018-7.177 4.143l-4.55 16.98c-.838 3.126 1.018 6.339 4.143 7.177l107.385 28.774c2.472-4.29 5.506-8.284 9.092-11.871z"/></g><path d="m156.005 125.135-71.495-97.821c-1.896-2.594-5.536-3.16-8.13-1.264l-14.26 10.422c-2.594 1.896-3.16 5.536-1.264 8.13l44.138 60.393-60.391-44.139c-2.594-1.896-6.234-1.33-8.13 1.264l-10.423 14.259c-1.896 2.594-1.33 6.234 1.264 8.13l97.821 71.495z" fill="#bbec6c"/></g><g><path d="m120.113 159.613 39.5-39.5c22.609-22.609 59.604-22.609 82.213 0l189.089 189.089c18.781 18.781 27.013 44.263 24.711 68.928-2.458 26.343 1.481 52.888 12.559 76.915l11.239 24.379-24.379-11.239c-24.027-11.077-50.572-15.017-76.915-12.559-24.665 2.302-50.147-5.93-68.928-24.711l-189.089-189.089c-22.609-22.609-22.609-59.605 0-82.213z" fill="#fff9e2"/></g><path d="m509.803 499.196-39.453-39.453-2.166-4.699c-5.355-11.615-9.027-23.822-11.129-36.307-15.112-3.149-30.706-3.942-46.235-2.493-24.664 2.302-50.147-5.93-68.928-24.711l-189.089-189.089c-16.869-16.869-21.144-41.746-12.84-62.681l-19.85 19.85c-22.609 22.609-22.609 59.604 0 82.213l189.089 189.089c18.781 18.781 44.263 27.012 68.928 24.711 26.343-2.458 52.888 1.481 76.915 12.558l4.698 2.166 39.454 39.454c1.464 1.464 3.384 2.196 5.303 2.196s3.839-.732 5.303-2.196c2.929-2.93 2.929-7.678 0-10.608z" fill="#fff5c6"/></g></g><g fill="#fee97d"><path d="m186.619 308.332 36.161-36.161c2.929-2.93 2.929-7.678 0-10.607-2.929-2.928-7.678-2.928-10.606 0l-36.161 36.161z"/><path d="m154.868 276.581 36.161-36.161c2.929-2.93 2.929-7.678 0-10.607-2.929-2.928-7.678-2.928-10.606 0l-36.161 36.161z"/><path d="m339.178 388.568-36.161 36.161 6.186 6.186c1.487 1.487 3.02 2.9 4.588 4.255l35.994-35.994c2.929-2.93 2.929-7.678 0-10.607-2.929-2.928-7.678-2.928-10.607-.001z"/><path d="m275.676 325.065-36.161 36.162 10.607 10.607 36.161-36.161c2.929-2.93 2.929-7.678 0-10.607-2.929-2.928-7.679-2.928-10.607-.001z"/><path d="m243.924 293.315-36.161 36.161 10.607 10.607 36.161-36.161c2.929-2.93 2.929-7.678 0-10.607-2.929-2.928-7.678-2.928-10.607 0z"/><path d="m318.033 367.424c2.929-2.93 2.929-7.678 0-10.607-2.929-2.928-7.678-2.928-10.606 0l-36.161 36.162 10.607 10.607z"/></g></g></svg>