<svg id="Capa_1" enable-background="new 0 0 512 512" height="512" viewBox="0 0 512 512" width="512" xmlns="http://www.w3.org/2000/svg"><g><g><path d="m76.196 172.464.88-.021.091-.875c1.283-12.331 7.097-23.759 16.37-32.179 9.338-8.479 21.384-13.149 33.919-13.149h27.765c4.339 0 8.668.564 12.867 1.677l1.214.321.042-1.255c.364-10.893 4.285-20.963 10.606-29.099-1.488-2.542-3.201-4.994-5.17-7.312-18.361-21.613-51.067-24.273-72.68-5.912l-21.16 17.976c-20.747 17.626-24.017 48.465-8.005 70.026 1.079-.098 2.166-.172 3.261-.198z" fill="#ea9b58"/><g><path d="m129.397 109.206c-2.125 0-4.235-.897-5.719-2.644-2.682-3.157-2.297-7.89.86-10.572l5.868-4.985c3.155-2.681 7.889-2.298 10.572.859 2.682 3.157 2.297 7.89-.86 10.572l-5.868 4.985c-1.41 1.199-3.136 1.785-4.853 1.785z" fill="#f6a96c"/></g></g><g><path d="m298.175 128.673c0 2.651-.208 5.255-.603 7.798.851-.043 1.708-.065 2.569-.065h27.765c22.925 0 42.324 15.342 48.499 36.293 3.243.327 6.406.962 9.458 1.882 11.896-19.805 9.337-46.035-7.693-63.065l-19.632-19.633c-20.053-20.053-52.867-20.053-72.92 0-.562.562-1.103 1.137-1.633 1.719 8.775 9.099 14.19 21.461 14.19 35.071z" fill="#f6a96c"/><path d="m298.175 128.673c0 2.651-.208 5.255-.603 7.798.851-.043 1.708-.065 2.569-.065h1.469c2.4-7.667 6.61-14.877 12.656-20.923 15.376-15.376 38.25-18.948 57.126-10.744l-12.856-12.855c-20.053-20.053-52.867-20.053-72.92 0-.562.562-1.103 1.137-1.633 1.719 8.777 9.098 14.192 21.46 14.192 35.07z" fill="#ea9b58"/><g><path d="m324.505 118.05c-1.919 0-3.839-.732-5.303-2.196l-5.444-5.444c-2.929-2.93-2.929-7.678 0-10.607 2.929-2.928 7.678-2.928 10.606 0l5.444 5.444c2.929 2.93 2.929 7.678 0 10.607-1.464 1.463-3.384 2.196-5.303 2.196z" fill="#ffbd86"/></g><g><path d="m368.837 153.049c-1.919 0-3.839-.732-5.303-2.196l-5.444-5.444c-2.929-2.93-2.929-7.678 0-10.607 2.929-2.928 7.678-2.928 10.606 0l5.444 5.444c2.929 2.93 2.929 7.678 0 10.607-1.464 1.463-3.384 2.196-5.303 2.196z" fill="#ffbd86"/></g></g><g fill="#ffbd86"><path d="m155.773 213.133c-4.638-23.681-25.612-41.697-50.599-41.697h-27.764c-24.987 0-45.961 18.016-50.599 41.697z"/><path d="m421.951 213.133c-4.638-23.681-25.612-41.697-50.599-41.697h-27.764c-24.987 0-45.961 18.016-50.599 41.697z"/></g><path d="m273.777 387.984c0-4.963.731-9.755 2.07-14.29h-155.643v42.27c0 2.845 2.306 5.151 5.151 5.151h160.838c-7.724-8.881-12.416-20.465-12.416-33.131z" fill="#fee97d"/><path d="m199.082 415.964v-42.27h-78.878v42.27c0 2.844 2.306 5.151 5.151 5.151h78.878c-2.844 0-5.151-2.306-5.151-5.151z" fill="#fedf30"/><g><path d="m202.085 157.854c6.128-2.644 12.876-4.116 19.963-4.116h27.764c3.846 0 7.587.446 11.189 1.263 8.973-10.966 22.453-18.095 37.584-18.556.388-2.537.59-5.132.59-7.772 0-28.359-23.203-51.562-51.562-51.562h-27.764c-28.122 0-51.161 22.82-51.544 50.855 15.373 4.122 27.871 15.326 33.78 29.888z" fill="#ffbd86"/><path d="m202.085 157.854c5.704-2.461 11.947-3.891 18.499-4.079-4.183-7.44-6.584-16.001-6.584-25.102 0-25.301 18.473-46.482 42.594-50.76-2.918-.523-5.918-.803-8.981-.803h-27.764c-28.122 0-51.161 22.82-51.544 50.855 15.373 4.123 27.871 15.327 33.78 29.889z" fill="#f6a96c"/><g><path d="m208.983 121.874h-7.7c-4.142 0-7.5-3.357-7.5-7.5s3.358-7.5 7.5-7.5h7.7c4.142 0 7.5 3.357 7.5 7.5s-3.358 7.5-7.5 7.5z" fill="#ea9b58"/></g><g><path d="m238.68 153.772h-7.699c-4.142 0-7.5-3.357-7.5-7.5s3.358-7.5 7.5-7.5h7.699c4.142 0 7.5 3.357 7.5 7.5s-3.358 7.5-7.5 7.5z" fill="#f6a96c"/></g><g><path d="m265.078 115.274h-7.699c-4.142 0-7.5-3.357-7.5-7.5s3.358-7.5 7.5-7.5h7.699c4.142 0 7.5 3.357 7.5 7.5s-3.358 7.5-7.5 7.5z" fill="#ea9b58"/></g></g><g><path d="m191.718 213.133c9.297-9.339 15.065-22.193 15.065-36.331 0-28.359-23.203-51.563-51.562-51.563h-27.764c-28.359 0-51.562 23.203-51.562 51.563 0 14.138 5.768 26.992 15.065 36.331z" fill="#ffbd86"/><path d="m135.041 213.133c-9.303-9.338-15.081-22.188-15.081-36.331 0-25.586 18.89-46.969 43.411-50.907-2.657-.427-5.378-.656-8.151-.656h-27.764c-28.359 0-51.562 23.203-51.562 51.562 0 14.138 5.768 26.992 15.065 36.331h44.082z" fill="#f6a96c"/><g><path d="m116.59 170.003h-7.699c-4.142 0-7.5-3.357-7.5-7.5s3.358-7.5 7.5-7.5h7.699c4.142 0 7.5 3.357 7.5 7.5s-3.358 7.5-7.5 7.5z" fill="#ea9b58"/></g><g><path d="m146.288 193.447h-7.7c-4.142 0-7.5-3.357-7.5-7.5s3.358-7.5 7.5-7.5h7.7c4.142 0 7.5 3.357 7.5 7.5s-3.358 7.5-7.5 7.5z" fill="#ea9b58"/></g><g><path d="m172.686 163.403h-7.699c-4.142 0-7.5-3.357-7.5-7.5s3.358-7.5 7.5-7.5h7.699c4.142 0 7.5 3.357 7.5 7.5s-3.358 7.5-7.5 7.5z" fill="#ea9b58"/></g></g><g><path d="m372.276 213.133c4.56-7.683 7.193-16.63 7.193-26.165 0-28.359-23.203-51.562-51.562-51.562h-27.765c-28.359 0-51.562 23.203-51.562 51.562 0 9.535 2.632 18.482 7.193 26.165z" fill="#ea9b58"/><g><path d="m346.471 194.478h-7.699c-4.142 0-7.5-3.357-7.5-7.5s3.358-7.5 7.5-7.5h7.699c4.142 0 7.5 3.357 7.5 7.5s-3.358 7.5-7.5 7.5z" fill="#f6a96c"/></g><g><path d="m316.774 171.503h-7.7c-4.142 0-7.5-3.357-7.5-7.5s3.358-7.5 7.5-7.5h7.7c4.142 0 7.5 3.357 7.5 7.5s-3.358 7.5-7.5 7.5z" fill="#f6a96c"/></g></g><g><path d="m300.597 213.133c.502-2.874.778-5.822.778-8.833 0-28.359-23.203-51.562-51.562-51.562h-27.764c-28.359 0-51.562 23.203-51.562 51.562 0 3.011.276 5.959.778 8.833z" fill="#f6a96c"/><path d="m214.535 213.133c-.501-2.873-.773-5.822-.773-8.833 0-25.725 19.092-47.205 43.806-50.974-2.531-.386-5.121-.588-7.756-.588h-27.764c-28.359 0-51.562 23.203-51.562 51.562 0 3.011.276 5.959.778 8.833z" fill="#ea9b58"/><g><path d="m211.183 197.501h-7.7c-4.142 0-7.5-3.357-7.5-7.5s3.358-7.5 7.5-7.5h7.7c4.142 0 7.5 3.357 7.5 7.5s-3.358 7.5-7.5 7.5z" fill="#ffbd86"/></g><g><path d="m267.278 190.901h-7.699c-4.142 0-7.5-3.357-7.5-7.5s3.358-7.5 7.5-7.5h7.699c4.142 0 7.5 3.357 7.5 7.5s-3.358 7.5-7.5 7.5z" fill="#ffbd86"/></g></g><g><path d="m324.34 337.422h6.668l-.15-1.131c-.294-2.227-.443-4.447-.443-6.602 0-27.88 22.682-50.562 50.562-50.562h27.765c13.156 0 25.151 5.055 34.155 13.319 3.802-11.654 5.865-24.093 5.865-37.016v-38.147c0-2.845-2.306-5.151-5.151-5.151h-438.46c-2.845 0-5.151 2.306-5.151 5.151v38.147c0 65.868 53.396 119.264 119.264 119.264h156.298c5.852-21.451 25.497-37.272 48.778-37.272z" fill="#fedf30"/></g><g><path d="m79.839 255.43v-38.147c0-2.845 2.306-5.151 5.151-5.151h-79.839c-2.845 0-5.151 2.306-5.151 5.151v38.147c0 65.868 53.397 119.264 119.264 119.264h79.839c-65.867 0-119.264-53.396-119.264-119.264z" fill="#fed402"/></g><g><path d="m352.104 337.422c16.427 0 31.043 7.878 40.285 20.05 9.242-12.171 23.858-20.05 40.285-20.05h27.046c.384-2.524.585-5.106.585-7.732 0-28.359-23.203-51.562-51.562-51.562h-27.764c-28.359 0-51.562 23.203-51.562 51.562 0 2.627.201 5.208.585 7.732z" fill="#f6a96c"/><path d="m352.104 337.422c9.816 0 18.982 2.821 26.746 7.682-1.539-4.873-2.375-10.05-2.375-15.414 0-25.063 18.127-46.086 41.915-50.638-3.129-.599-6.351-.925-9.648-.925h-27.764c-28.359 0-51.562 23.203-51.562 51.562 0 2.627.201 5.208.585 7.732h22.103z" fill="#ea9b58"/><g><path d="m370.112 322.891h-7.699c-4.142 0-7.5-3.357-7.5-7.5s3.358-7.5 7.5-7.5h7.699c4.142 0 7.5 3.357 7.5 7.5s-3.358 7.5-7.5 7.5z" fill="#ffbd86"/></g><g><path d="m426.207 316.291h-7.699c-4.142 0-7.5-3.357-7.5-7.5s3.358-7.5 7.5-7.5h7.699c4.142 0 7.5 3.357 7.5 7.5s-3.358 7.5-7.5 7.5z" fill="#ffbd86"/></g></g><g><path d="m382.111 387.984c0-11.809 4.08-22.676 10.89-31.292-9.446-12.299-24.282-20.271-40.897-20.271h-27.764c-28.359 0-51.562 23.203-51.562 51.562 0 28.359 23.203 51.562 51.562 51.562h27.765c16.615 0 31.451-7.971 40.897-20.271-6.811-8.613-10.891-19.481-10.891-31.29z" fill="#ffbd86"/><g><path d="m316.725 387.984c0-25.607 18.921-47.005 43.471-50.917-2.638-.421-5.34-.645-8.091-.645h-27.765c-28.359 0-51.562 23.203-51.562 51.562 0 28.359 23.203 51.562 51.562 51.562h27.764c2.752 0 5.453-.224 8.091-.645-24.55-3.912-43.47-25.309-43.47-50.917z" fill="#f6a96c"/></g><g><path d="m313.474 381.186h-7.699c-4.142 0-7.5-3.357-7.5-7.5s3.358-7.5 7.5-7.5h7.699c4.142 0 7.5 3.357 7.5 7.5s-3.358 7.5-7.5 7.5z" fill="#ea9b58"/></g><g><path d="m343.171 413.083h-7.699c-4.142 0-7.5-3.357-7.5-7.5s3.358-7.5 7.5-7.5h7.699c4.142 0 7.5 3.357 7.5 7.5s-3.358 7.5-7.5 7.5z" fill="#ea9b58"/></g><g><path d="m369.569 374.586h-7.699c-4.142 0-7.5-3.357-7.5-7.5s3.358-7.5 7.5-7.5h7.699c4.142 0 7.5 3.357 7.5 7.5s-3.358 7.5-7.5 7.5z" fill="#ea9b58"/></g></g><g><g><path d="m460.438 439.547h-27.764c-28.359 0-51.562-23.203-51.562-51.562 0-28.359 23.203-51.562 51.562-51.562h27.764c28.359 0 51.562 23.203 51.562 51.562 0 28.359-23.203 51.562-51.562 51.562z" fill="#f6a96c"/></g><g><path d="m424.894 387.984c0-25.636 18.963-47.055 43.553-50.932-2.612-.412-5.286-.63-8.009-.63h-27.764c-28.359 0-51.562 23.203-51.562 51.562 0 28.359 23.203 51.562 51.562 51.562h27.764c2.723 0 5.397-.218 8.009-.63-24.591-3.877-43.553-25.295-43.553-50.932z" fill="#ea9b58"/></g><g><path d="m421.808 381.186h-7.7c-4.142 0-7.5-3.357-7.5-7.5s3.358-7.5 7.5-7.5h7.7c4.142 0 7.5 3.357 7.5 7.5s-3.358 7.5-7.5 7.5z" fill="#ffbd86"/></g><g><path d="m451.505 413.083h-7.699c-4.142 0-7.5-3.357-7.5-7.5s3.358-7.5 7.5-7.5h7.699c4.142 0 7.5 3.357 7.5 7.5s-3.358 7.5-7.5 7.5z" fill="#ffbd86"/></g><g><path d="m477.903 374.586h-7.699c-4.142 0-7.5-3.357-7.5-7.5s3.358-7.5 7.5-7.5h7.699c4.142 0 7.5 3.357 7.5 7.5s-3.358 7.5-7.5 7.5z" fill="#ffbd86"/></g></g></g></svg>