<svg id="Capa_1" enable-background="new 0 0 512 512" height="512" viewBox="0 0 512 512" width="512" xmlns="http://www.w3.org/2000/svg"><g><path d="m369.987 296.93-4.563-1h-218.832l-4.579 1c-13.065 17.655-20.815 39.452-20.815 62.973 0 50.432 35.604 92.951 82.917 103.665 12.161 2.754 22.911 9.818 29.916 20.134l17.673 26.024c2.06 3.033 6.53 3.033 8.59 0l17.673-26.024c7.005-10.315 17.755-17.38 29.916-20.134 47.313-10.713 82.917-53.233 82.917-103.665.001-23.521-7.748-45.318-20.813-62.973z" fill="#e03d9c"/><g><path d="m204.803 219.304c5.359 1.95 10.687 3.476 15.887 4.594 4.09.88 7.621 3.427 9.713 7.051l13.677 23.689h23.841l13.677-23.689c2.092-3.623 5.623-6.171 9.713-7.051 5.199-1.118 10.528-2.643 15.886-4.594 33.703-12.267 55.793-36.583 49.341-54.311-4.186-11.5-19.36-17.395-38.702-16.775 3.499-2.784 6.95-5.849 10.294-9.194 25.361-25.361 35.105-56.734 21.765-70.075-11.788-11.788-37.653-5.542-61.011 13.566.825-5.592 1.276-11.481 1.276-17.574 0-35.866-15.294-64.941-34.16-64.941s-34.16 29.075-34.16 64.941c0 6.093.451 11.982 1.276 17.574-23.358-19.107-49.223-25.353-61.011-13.566-13.34 13.34-3.596 44.714 21.765 70.075 3.345 3.345 6.796 6.41 10.294 9.194-19.342-.62-34.516 5.275-38.702 16.775-6.452 17.728 15.638 42.044 49.341 54.311z" fill="#05e39c"/><path d="m204.803 219.304c5.359 1.95 10.687 3.476 15.887 4.594 4.09.88 7.621 3.427 9.713 7.05l13.677 23.689h23.841l5.427-9.401-8.25-14.288c-2.092-3.623-5.623-10.682-9.713-11.562-5.199-1.118-10.528-2.643-15.886-4.594-33.703-12.267-55.793-32.072-49.341-49.8 3.255-8.942 13.152-14.495 26.487-16.232 4.247-.553 5.958-5.779 2.896-8.774-.326-.319-.651-.64-.974-.964-25.361-25.361-35.106-56.735-21.765-70.075.538-.538 1.116-1.026 1.711-1.49-15.055-6.21-28.723-6.194-36.407 1.49-13.341 13.341-3.596 44.714 21.765 70.075 3.345 3.345 6.795 6.409 10.294 9.194-19.342-.62-34.516 5.274-38.702 16.775-6.453 17.73 15.637 42.046 49.34 54.313z" fill="#0ed290"/><path d="m217.87 173.699c-3.349-2.432-8.041-1.692-10.476 1.66-2.435 3.351-1.692 8.041 1.659 10.476l39.446 28.66v40.143h15v-40.143l39.446-28.66c3.352-2.435 4.094-7.125 1.659-10.476s-7.124-4.093-10.476-1.66l-30.63 22.254v-45.33l39.446-28.659c3.352-2.435 4.094-7.125 1.659-10.476s-7.124-4.093-10.476-1.66l-30.63 22.254v-130.492c-2.411-1.029-4.919-1.59-7.497-1.59s-5.085.561-7.5 1.589v130.492l-30.63-22.254c-3.349-2.432-8.041-1.692-10.476 1.66-2.435 3.351-1.692 8.041 1.659 10.476l39.446 28.659v45.33z" fill="#07b27b"/><g><g><path d="m265.049 454.811c-47.313-10.713-82.917-53.233-82.917-103.664 0-19.772 5.488-38.318 14.994-54.216h-55.113c-13.065 17.655-20.814 39.452-20.814 62.973 0 50.432 35.604 92.951 82.917 103.664 12.161 2.754 22.911 9.818 29.916 20.134l17.673 26.024c2.06 3.033 6.53 3.033 8.59 0l17.673-26.024c3.619-5.328 8.242-9.781 13.537-13.228-6.86-7.886-16.146-13.328-26.456-15.663z" fill="#c53287"/></g><g><path d="m142.013 296.93h227.973c-19.4-26.215-50.527-43.294-85.452-43.294h-57.069c-34.925.001-66.052 17.08-85.452 43.294z" fill="#fcd1e8"/></g><g><path d="m246.292 253.637h-18.826c-34.925 0-66.052 17.079-85.452 43.294h55.112c11.412-19.087 28.622-34.354 49.166-43.294z" fill="#f6c2e0"/></g><g fill="#98246a"><path d="m389.072 340.836c-.94-5.135-2.25-10.146-3.906-15h-75.049c-4.143 0-7.5 3.358-7.5 7.5s3.357 7.5 7.5 7.5z"/><path d="m309.927 365.807c0 4.142 3.357 7.5 7.5 7.5h72.516c.559-4.393.858-8.865.858-13.404 0-.533-.012-1.064-.02-1.596h-73.354c-4.143 0-7.5 3.358-7.5 7.5z"/><path d="m386.184 390.777h-61.448c-4.143 0-7.5 3.358-7.5 7.5s3.357 7.5 7.5 7.5h55.564c2.323-4.814 4.3-9.822 5.884-15z"/></g></g></g></g></svg>