<svg id="Capa_1" enable-background="new 0 0 512 512" height="512" viewBox="0 0 512 512" width="512" xmlns="http://www.w3.org/2000/svg"><g><g><path d="m459.47 252.007-.891-1.008-.709 1.143c-5.608 9.037-13.589 16.126-22.539 20.037-5.627-7.984-8.778-18.182-8.891-28.817l-.015-1.345-1.283.401c-4.331 1.352-8.754 2.038-13.147 2.038-1.518 0-3.01-.091-4.479-.251-8.938 52.923-36.679 107.122-81.911 151.595-67.747 66.61-156.648 93.656-229.658 77.242-2.559-.575-4.151 2.715-2.071 4.313 77.858 59.801 204.814 41.01 294.606-47.276 49.898-49.06 78.506-109.956 84.066-167.918-4.815-2.413-9.277-5.849-13.078-10.154z" fill="#00c285"/><path d="m426.44 243.361-.015-1.345-1.283.401c-4.331 1.352-8.754 2.038-13.147 2.038-1.518 0-3.01-.091-4.479-.251-8.938 52.923-36.679 107.122-81.91 151.595-67.747 66.61-156.648 93.656-229.658 77.242-2.559-.575-4.151 2.715-2.071 4.313 9.816 7.54 20.415 13.826 31.619 18.886 71.387 12.704 156.232-14.744 221.465-78.883 46.561-45.779 74.588-101.865 82.649-156.256-2.007-5.534-3.104-11.561-3.17-17.74z" fill="#07b27b"/><path d="m480.276 228.959c-4.435-7.873-10.695-13.929-17.696-17.806 1.08-21.981-11.164-43.435-32.427-52.966-6.729-3.017-14.63-.007-17.647 6.722s-.007 14.63 6.722 17.647c9.793 4.39 15.875 13.696 16.644 23.712-5.58.785-11.224 2.637-16.581 5.655-12.519 7.052-20.487 18.71-22.329 30.643 8.46 3.494 18.608 3.888 28.477.806.12 11.295 3.541 21.844 9.546 30.041 9.384-3.898 17.778-11.146 23.734-20.744 6.843 7.751 15.726 12.674 24.772 14.069 4.61-11.16 3.837-25.259-3.215-37.779z" fill="#a2e62e"/><path d="m415.663 245.292c2.958-4.168 6.364-8.221 10.208-12.065 11.237-11.238 24.261-18.755 36.71-22.112 1.064-21.968-11.178-43.402-32.428-52.928-6.729-3.017-14.63-.007-17.647 6.722s-.007 14.631 6.722 17.647c9.793 4.39 15.875 13.696 16.644 23.712-5.58.785-11.224 2.637-16.581 5.655-12.519 7.052-20.487 18.71-22.329 30.643 5.673 2.342 12.104 3.284 18.701 2.726z" fill="#97d729"/></g><g><path d="m273.019 74.379-1.218-.57-.195 1.33c-1.544 10.523-6.041 20.205-12.692 27.357-8.341-5.081-15.294-13.18-19.634-22.891l-.549-1.228-1.018.879c-4.666 4.03-9.95 6.969-15.453 8.668 12.881 52.101 9.024 112.862-14.749 171.668-35.607 88.083-106.378 148.303-179.884 162.33-2.576.492-2.726 4.144-.182 4.781 95.235 23.839 204.199-43.968 251.394-160.715 26.226-64.877 28.21-132.129 10.221-187.51-5.411-.298-10.913-1.699-16.041-4.099z" fill="#00c285"/><path d="m244.594 88.923c-2.041-2.883-3.833-6.003-5.314-9.317l-.549-1.228-1.018.879c-4.666 4.03-9.95 6.969-15.453 8.668 12.881 52.101 9.024 112.862-14.749 171.668-35.607 88.083-106.377 148.303-179.883 162.33-2.576.492-2.726 4.144-.182 4.781 17.577 4.4 35.621 5.668 53.659 4.093 63.394-22.055 121.609-77.848 152.816-155.044 25.685-63.539 28.137-129.368 11.328-184.08-.283-.923-.49-1.839-.655-2.75z" fill="#07b27b"/><path d="m282.923 44.951c-7.204-5.455-15.358-8.516-23.324-9.283-7.765-20.593-27.542-35.393-50.841-35.667-7.374-.087-13.422 5.822-13.509 13.196s5.822 13.422 13.195 13.509c10.732.126 20.017 6.239 24.712 15.12-4.806 2.943-9.245 6.89-12.957 11.792-8.674 11.455-11.339 25.322-8.275 37.001 9.151-.164 18.617-3.846 26.441-10.604 4.609 10.313 11.949 18.626 20.722 23.752 7.055-7.313 11.866-17.305 13.506-28.481 9.364 4.384 19.473 5.361 28.326 3.038-.215-12.074-6.54-24.699-17.996-33.373z" fill="#a2e62e"/><path d="m257.043 32.772c.293-.355.582-.718.88-1.064-8.691-18.504-27.388-31.452-49.164-31.707-7.374-.087-13.422 5.821-13.509 13.195s5.822 13.423 13.196 13.509c10.732.126 20.017 6.239 24.712 15.119-4.806 2.943-9.245 6.89-12.956 11.792-8.674 11.455-11.34 25.322-8.275 37.001 7.272-.131 14.738-2.489 21.426-6.84-.158-16.151 8.159-35.282 23.69-51.005z" fill="#97d729"/></g></g></svg>