<svg id="Capa_1" enable-background="new 0 0 512 512" height="512" viewBox="0 0 512 512" width="512" xmlns="http://www.w3.org/2000/svg"><g><g><path d="m446.247 24.716c-2.93-2.929-7.678-2.93-10.607 0l-23.484 23.484c1.956 1.588 3.844 3.279 5.648 5.083 1.762 1.762 3.418 3.602 4.974 5.508l23.469-23.469c2.929-2.928 2.929-7.676 0-10.606z" fill="#0ed290"/><g><path d="m208.58 296.907c20.852-20.852 48.52-32.468 78.036-32.809.334-28.298 11.266-56.492 32.81-78.036 21.168-21.168 49.356-32.825 79.375-32.825 7.309 0 14.508.697 21.526 2.048 26.923-28.906 26.33-74.562-1.815-102.708-28.77-28.77-75.848-28.77-104.618 0l-98.682 98.682c-3.631.093-7.234 1.512-10.004 4.283-2.771 2.771-4.189 6.374-4.283 10.004l-79.156 79.156c-3.631.093-7.233 1.512-10.004 4.283s-4.189 6.374-4.283 10.004l-85.903 85.904c-28.77 28.77-28.77 75.848 0 104.618 28.77 28.77 75.848 28.77 104.618 0l51.639-51.639c-6.893-35.436 3.354-73.575 30.744-100.965z" fill="#00c285"/><g><path d="m365.917 52.576c7.689-7.689 16.692-13.302 26.297-16.881-26.336-9.813-57.24-4.2-78.321 16.881l-98.682 98.682c-3.631.093-7.234 1.512-10.004 4.283s-4.189 6.374-4.283 10.004l-79.156 79.156c-3.631.093-7.234 1.512-10.004 4.282-2.771 2.771-4.189 6.374-4.282 10.004l-85.904 85.904c-28.77 28.77-28.77 75.848 0 104.618 21.081 21.081 51.986 26.694 78.321 16.881-9.605-3.579-18.608-9.192-26.297-16.881-28.77-28.77-28.77-75.848 0-104.618z" fill="#07b27b"/></g><g><path d="m297.852 180.611c-1.919 0-3.839-.732-5.304-2.197-2.929-2.929-2.929-7.678 0-10.606l92.645-92.645c2.93-2.929 7.678-2.929 10.607 0s2.929 7.678 0 10.606l-92.645 92.645c-1.465 1.465-3.384 2.197-5.303 2.197z" fill="#0ed290"/></g><g><path d="m49.468 428.994c-1.919 0-3.839-.732-5.304-2.197-2.929-2.929-2.929-7.678 0-10.606l226.021-226.021c2.93-2.929 7.678-2.929 10.607 0s2.929 7.678 0 10.606l-226.021 226.021c-1.464 1.465-3.384 2.197-5.303 2.197z" fill="#0ed290"/></g><g><g><path d="m111.364 311.192c-1.92 0-3.839-.732-5.304-2.197-2.929-2.929-2.929-7.678 0-10.606l233.21-233.208c2.93-2.93 7.678-2.928 10.607 0 2.929 2.929 2.929 7.678 0 10.606l-233.209 233.208c-1.465 1.465-3.385 2.197-5.304 2.197z" fill="#0ed290"/></g><g fill="#07b27b"><path d="m242.775 273.487c9.359-4.107 19.281-6.911 29.541-8.328l15.375-15.376c1.414-10.125 4.207-20.091 8.379-29.593z"/><path d="m383.161 154.314 22.621-22.621c2.929-2.929 2.929-7.678 0-10.606s-7.677-2.93-10.607 0l-41.555 41.555c9.358-4.107 19.281-6.911 29.541-8.328z"/><path d="m185.226 331.036-23.259 23.259c-2.929 2.929-2.929 7.678 0 10.606 1.465 1.464 3.385 2.197 5.304 2.197s3.839-.732 5.304-2.197l4.273-4.273c1.413-10.124 4.206-20.09 8.378-29.592z"/></g></g><g><g><path d="m33.895 388.662c-1.919 0-3.839-.732-5.304-2.197-2.929-2.929-2.929-7.678 0-10.606l55.906-55.906c2.93-2.929 7.678-2.929 10.607 0s2.929 7.678 0 10.606l-55.906 55.906c-1.465 1.465-3.385 2.197-5.303 2.197z" fill="#0ed290"/></g><g><path d="m89.801 444.568c-1.919 0-3.839-.732-5.304-2.197-2.929-2.929-2.929-7.678 0-10.606l55.906-55.906c2.93-2.929 7.678-2.929 10.607 0s2.929 7.678 0 10.606l-55.906 55.906c-1.464 1.465-3.384 2.197-5.303 2.197z" fill="#07b27b"/></g></g></g></g><g><g><path d="m478.882 185.354c-44.157-44.157-116.006-44.157-160.164.001-21.742 21.742-32.771 50.197-33.102 78.755.779-.016 1.558-.028 2.34-.028 30.018 0 58.207 11.657 79.374 32.825 22.477 22.477 33.407 52.194 32.797 81.714 28.557-.332 57.012-11.36 78.754-33.102 44.158-44.159 44.159-116.008.001-160.165z" fill="#05e39c"/><path d="m460.642 203.594c-34.154-34.154-89.529-34.154-123.683 0-17.351 17.351-25.868 40.178-25.59 62.918 21.07 4.434 40.412 14.844 55.961 30.394 15.906 15.906 26.026 35.439 30.37 55.961 22.748.284 45.585-8.232 62.942-25.589 34.154-34.155 34.154-89.529 0-123.684z" fill="#dbf4b2"/><g><path d="m358.025 288.579c-8.013-29.306-.533-61.963 22.488-84.984 11.49-11.49 25.386-19.097 40.064-22.856-28.951-7.414-60.955.193-83.619 22.856-17.351 17.351-25.868 40.178-25.59 62.917 17.05 3.588 32.965 11.093 46.657 22.067z" fill="#d1f19e"/></g><path d="m465.945 198.291c-17.936-17.935-41.781-27.812-67.146-27.812-25.363 0-49.209 9.877-67.145 27.812-17.877 17.878-27.746 41.629-27.809 66.902 5.129.72 10.173 1.789 15.104 3.193-.785-21.447 6.975-43.152 23.312-59.488 15.102-15.102 35.181-23.419 56.537-23.419 21.357 0 41.437 8.317 56.538 23.419 15.103 15.102 23.419 35.181 23.419 56.539 0 21.357-8.316 41.436-23.419 56.538-16.344 16.345-38.063 24.105-59.522 23.31 1.419 4.969 2.494 10.017 3.216 15.106 25.277-.06 49.032-9.93 66.913-27.81 17.935-17.935 27.812-41.781 27.812-67.145.002-25.364-9.875-49.21-27.81-67.145z" fill="#bbec6c"/><g><g><g><path d="m364.306 238.441c-1.919 0-3.839-.732-5.303-2.196l-6.418-6.417c-2.93-2.929-2.93-7.678-.001-10.607 2.93-2.929 7.679-2.929 10.606 0l6.418 6.417c2.93 2.929 2.93 7.678.001 10.607-1.464 1.464-3.384 2.196-5.303 2.196z" fill="#fff9e2"/></g><g><path d="m439.713 313.848c-1.919 0-3.839-.732-5.303-2.196l-6.418-6.417c-2.93-2.929-2.93-7.678-.001-10.607 2.93-2.929 7.679-2.929 10.606 0l6.418 6.417c2.93 2.929 2.93 7.678.001 10.607-1.464 1.464-3.384 2.196-5.303 2.196z" fill="#fff9e2"/></g></g><g><g><path d="m433.295 238.441c-1.92 0-3.839-.732-5.304-2.197-2.929-2.929-2.929-7.678.001-10.607l6.418-6.417c2.929-2.928 7.678-2.928 10.606 0 2.929 2.929 2.929 7.678-.001 10.607l-6.418 6.417c-1.463 1.465-3.383 2.197-5.302 2.197z" fill="#fff9e2"/></g></g><g><g><path d="m351.685 260.312c-.643 0-1.296-.083-1.946-.257l-8.767-2.349c-4.001-1.072-6.375-5.185-5.303-9.186 1.071-4.001 5.184-6.373 9.186-5.303l8.767 2.349c4.001 1.072 6.375 5.185 5.303 9.186-.899 3.35-3.929 5.56-7.24 5.56z" fill="#fff9e2"/></g><g><path d="m454.692 287.913c-.643 0-1.296-.083-1.945-.257l-8.767-2.349c-4.001-1.072-6.376-5.185-5.304-9.186 1.071-4 5.189-6.376 9.185-5.304l8.767 2.349c4.001 1.072 6.376 5.185 5.304 9.186-.898 3.35-3.928 5.561-7.24 5.561z" fill="#fff9e2"/></g></g><g><path d="m388.779 326.923c1.068-.943 1.894-2.18 2.29-3.659l2.349-8.767c1.072-4.001-1.303-8.114-5.304-9.186-3.971-1.068-8.061 1.276-9.162 5.234 3.781 5.229 7.058 10.709 9.827 16.378z" fill="#fff9e2"/><g><path d="m411.431 225.817c-.644 0-1.296-.083-1.946-.258-4.001-1.072-6.375-5.185-5.303-9.186l2.35-8.767c1.072-4.002 5.189-6.375 9.186-5.303 4.001 1.072 6.375 5.185 5.303 9.186l-2.35 8.767c-.899 3.351-3.93 5.561-7.24 5.561z" fill="#fff9e2"/></g></g><g><path d="m353.7 285.281c3.951-1.106 6.289-5.186 5.224-9.16-1.071-4.001-5.188-6.374-9.185-5.304l-8.767 2.349c-1.471.394-2.72 1.202-3.661 2.262 5.713 2.795 11.193 6.087 16.389 9.853z" fill="#fff9e2"/><g><path d="m445.916 260.312c-3.312 0-6.342-2.21-7.239-5.561-1.072-4.001 1.302-8.114 5.303-9.186l8.767-2.349c4.001-1.069 8.113 1.302 9.186 5.303s-1.302 8.114-5.303 9.186l-8.767 2.349c-.651.175-1.304.258-1.947.258z" fill="#fff9e2"/></g></g><g><g><path d="m413.771 328.825c-3.312 0-6.342-2.209-7.239-5.561l-2.35-8.767c-1.072-4 1.302-8.113 5.303-9.186 4.002-1.072 8.114 1.301 9.186 5.303l2.35 8.767c1.072 4-1.302 8.113-5.303 9.186-.652.175-1.305.258-1.947.258z" fill="#fff9e2"/></g><g><path d="m386.169 225.817c-3.312 0-6.342-2.21-7.239-5.561l-2.349-8.767c-1.072-4.001 1.302-8.114 5.304-9.186 3.995-1.071 8.113 1.303 9.185 5.304l2.349 8.767c1.072 4.001-1.303 8.114-5.304 9.186-.65.173-1.303.257-1.946.257z" fill="#fff9e2"/></g></g></g></g><g><g><ellipse cx="287.955" cy="376.281" fill="#0ed290" rx="113.253" ry="113.252" transform="matrix(.383 -.924 .924 .383 -169.879 498.321)"/></g><g><circle cx="287.955" cy="376.281" fill="#dbf4b2" r="87.457"/></g><g><path d="m269.47 438.123c-34.154-34.154-34.154-89.529 0-123.683 11.516-11.516 25.449-19.133 40.163-22.883-28.925-7.371-60.882.245-83.52 22.883-34.154 34.154-34.154 89.529 0 123.683 22.638 22.638 54.595 30.254 83.52 22.883-14.714-3.751-28.647-11.367-40.163-22.883z" fill="#d1f19e"/></g><g><path d="m287.955 471.193c-24.316 0-48.633-9.256-67.146-27.768-37.022-37.024-37.022-97.266 0-134.29 17.936-17.935 41.781-27.812 67.146-27.812s49.21 9.877 67.146 27.812c17.935 17.935 27.812 41.781 27.812 67.145s-9.877 49.21-27.812 67.145c-18.513 18.513-42.83 27.768-67.146 27.768zm0-174.869c-21.357 0-41.437 8.317-56.538 23.419-31.175 31.175-31.175 81.901 0 113.077 15.585 15.585 36.065 23.379 56.538 23.381 20.478.001 40.949-7.792 56.538-23.381 15.103-15.102 23.419-35.181 23.419-56.539s-8.316-41.436-23.419-56.538c-15.101-15.102-35.181-23.419-56.538-23.419z" fill="#bbec6c"/></g><g><g><g><path d="m253.461 349.286c-1.919 0-3.839-.732-5.303-2.196l-6.418-6.417c-2.93-2.929-2.93-7.678-.001-10.607 2.93-2.929 7.679-2.929 10.606 0l6.418 6.417c2.93 2.929 2.93 7.678.001 10.607-1.464 1.464-3.384 2.196-5.303 2.196z" fill="#fff9e2"/></g><g><path d="m328.867 424.693c-1.92 0-3.839-.732-5.304-2.197l-6.417-6.418c-2.929-2.929-2.929-7.678.001-10.606 2.929-2.929 7.678-2.928 10.606.001l6.417 6.418c2.929 2.929 2.929 7.678-.001 10.606-1.463 1.464-3.383 2.196-5.302 2.196z" fill="#fff9e2"/></g></g><g><g><path d="m247.043 424.693c-1.919 0-3.839-.732-5.304-2.197-2.929-2.929-2.929-7.678 0-10.606l6.418-6.418c2.93-2.929 7.678-2.929 10.607 0s2.929 7.678 0 10.606l-6.418 6.418c-1.464 1.465-3.384 2.197-5.303 2.197z" fill="#fff9e2"/></g><g><path d="m322.45 349.286c-1.919 0-3.839-.732-5.303-2.196-2.93-2.929-2.93-7.678-.001-10.607l6.417-6.417c2.93-2.929 7.679-2.929 10.606 0 2.93 2.929 2.93 7.678.001 10.607l-6.417 6.417c-1.464 1.464-3.384 2.196-5.303 2.196z" fill="#fff9e2"/></g></g><g><g><path d="m240.84 371.157c-.643 0-1.296-.083-1.946-.257l-8.767-2.349c-4.001-1.072-6.375-5.185-5.303-9.186 1.071-4 5.184-6.373 9.186-5.303l8.767 2.349c4.001 1.072 6.375 5.185 5.303 9.186-.898 3.35-3.929 5.56-7.24 5.56z" fill="#fff9e2"/></g><g><path d="m343.848 398.758c-.643 0-1.296-.083-1.946-.257l-8.767-2.349c-4.001-1.072-6.375-5.185-5.303-9.186 1.071-4 5.185-6.374 9.186-5.303l8.767 2.349c4.001 1.072 6.375 5.185 5.303 9.186-.899 3.35-3.929 5.56-7.24 5.56z" fill="#fff9e2"/></g></g><g><g><path d="m272.985 439.67c-.643 0-1.296-.083-1.945-.257-4.001-1.072-6.376-5.185-5.304-9.186l2.349-8.767c1.071-4.001 5.187-6.375 9.185-5.304 4.002 1.072 6.376 5.185 5.304 9.186l-2.349 8.767c-.898 3.351-3.928 5.561-7.24 5.561z" fill="#fff9e2"/></g><g><path d="m300.586 336.662c-.644 0-1.296-.083-1.946-.258-4.001-1.072-6.375-5.185-5.303-9.186l2.35-8.767c1.071-4.002 5.188-6.374 9.186-5.303 4.001 1.072 6.375 5.185 5.303 9.186l-2.35 8.767c-.898 3.351-3.93 5.561-7.24 5.561z" fill="#fff9e2"/></g></g><g><g><path d="m232.063 398.758c-3.312 0-6.342-2.21-7.239-5.561-1.072-4.001 1.302-8.114 5.303-9.186l8.767-2.349c4.002-1.07 8.114 1.303 9.186 5.303 1.072 4.001-1.302 8.114-5.303 9.186l-8.767 2.349c-.651.174-1.304.258-1.947.258z" fill="#fff9e2"/></g><g><path d="m335.071 371.157c-3.312 0-6.342-2.21-7.239-5.561-1.072-4.001 1.302-8.114 5.303-9.186l8.767-2.349c4.002-1.07 8.114 1.303 9.186 5.303 1.072 4.001-1.302 8.114-5.303 9.186l-8.767 2.349c-.651.174-1.304.258-1.947.258z" fill="#fff9e2"/></g></g><g><g><path d="m302.926 439.67c-3.312 0-6.342-2.209-7.239-5.561l-2.35-8.767c-1.072-4 1.302-8.113 5.303-9.186 4.003-1.072 8.114 1.301 9.186 5.303l2.35 8.767c1.072 4-1.302 8.113-5.303 9.186-.651.174-1.305.258-1.947.258z" fill="#fff9e2"/></g><g><path d="m275.324 336.662c-3.312 0-6.342-2.21-7.239-5.561l-2.349-8.767c-1.072-4.001 1.303-8.114 5.304-9.186 3.996-1.069 8.113 1.302 9.185 5.304l2.349 8.767c1.072 4.001-1.302 8.114-5.304 9.186-.65.174-1.303.257-1.946.257z" fill="#fff9e2"/></g></g></g></g></g></g></svg>