<svg id="Capa_1" enable-background="new 0 0 512 512" height="512" viewBox="0 0 512 512" width="512" xmlns="http://www.w3.org/2000/svg"><g><g><g fill="#0ed290"><path d="m130.918 364.641 44.626-25.765-86.706-35.272h-70.863c-4.142 0-7.5 3.358-7.5 7.5s3.358 7.5 7.5 7.5h9.777c3.66 25.981 26.027 46.037 53.001 46.037z"/><path d="m472.067 303.604h-117.357l-45.137 26.06 85.981 34.977h13.735c26.974 0 49.341-20.056 53.001-46.037h9.777c4.142 0 7.5-3.358 7.5-7.5s-3.358-7.5-7.5-7.5z"/></g><g fill="#00c285"><path d="m130.918 364.641 36.373-21h-54.106c-24.856 0-45.787-17.035-51.786-40.037h-43.424c-4.142 0-7.5 3.358-7.5 7.5s3.358 7.5 7.5 7.5h9.777c3.66 25.981 26.027 46.037 53.001 46.037z"/><path d="m343.932 343.641 51.622 21h13.735c17.792 0 33.576-8.729 43.313-22.125-3.515.729-7.151 1.125-10.88 1.125z"/></g></g><g><g><g fill="#05e39c"><path d="m505.798 244.486-56.622-9.963c-4.07 11.435-12.039 21.491-23.147 27.904l-39.822 22.991 47.186 8.302c3.134.551 6.274.824 9.392.824 10.891 0 21.504-3.327 30.609-9.707 9.637-6.753 16.628-16.266 20.185-27.271l9.62 1.693c.44.077.877.115 1.309.115 3.572 0 6.737-2.562 7.378-6.202.717-4.079-2.008-7.968-6.088-8.686z"/><path d="m170.805 185.544-82.871 14.581c-3.05.537-6.151.809-9.218.809-3.657 0-7.269-.39-10.797-1.137 1.629 5.28 4.079 10.334 7.341 14.99 8.207 11.711 20.483 19.525 34.566 22.003l185.886 32.707 82.271-47.499z"/></g><g fill="#0ed290"><path d="m141.274 216.205c-13.132-2.311-24.689-9.264-32.844-19.686l-20.496 3.606c-3.05.537-6.151.809-9.218.809-3.657 0-7.269-.39-10.797-1.137 1.629 5.28 4.079 10.334 7.341 14.99 8.207 11.711 20.483 19.525 34.566 22.003l185.886 32.707 34.671-20.017z"/><path d="m474.232 273.961c-3.118 0-6.257-.272-9.392-.824l-43.962-7.735-34.671 20.017 47.186 8.302c3.134.551 6.274.824 9.392.824 10.891 0 21.504-3.327 30.609-9.707 4.864-3.408 9.051-7.521 12.465-12.172-3.801.855-7.696 1.295-11.627 1.295z"/></g></g></g><g><path d="m471.611 79.273c-.718-4.079-4.603-6.803-8.687-6.087l-447.222 78.689c-4.079.718-6.805 4.607-6.087 8.687.641 3.64 3.805 6.202 7.378 6.202.431 0 .869-.038 1.309-.115l9.62-1.693c3.558 11.005 10.548 20.518 20.185 27.271 9.105 6.381 19.717 9.707 30.609 9.707 3.117 0 6.258-.272 9.392-.824l323.566-56.932c14.083-2.478 26.36-10.292 34.566-22.003 6.753-9.638 10.077-20.965 9.664-32.523l9.62-1.693c4.079-.717 6.805-4.606 6.087-8.686z" fill="#0ed290"/><path d="m441.173 115.107-323.566 56.932c-3.133.551-6.275.824-9.392.824-10.892 0-21.504-3.326-30.609-9.707-7.194-5.042-12.911-11.622-16.828-19.211l-45.075 7.931c-4.079.718-6.805 4.607-6.087 8.687.641 3.64 3.805 6.202 7.378 6.202.431 0 .869-.038 1.309-.115l9.62-1.693c3.558 11.005 10.548 20.518 20.185 27.271 9.105 6.381 19.717 9.707 30.609 9.707 3.117 0 6.258-.272 9.392-.824l323.566-56.932c14.083-2.478 26.36-10.292 34.566-22.003 2.238-3.194 4.091-6.577 5.564-10.089-3.395 1.35-6.949 2.372-10.632 3.02z" fill="#00c285"/></g><g fill="#00c285"><path d="m174.371 338.399-70.135 40.492h122.073l19.676-11.36z"/><path d="m460.623 181.791c-2.071-3.588-6.658-4.816-10.245-2.745l-211.245 121.963 71.614 29.133 115.783-66.847c23.36-13.487 32.703-42.04 22.882-66.37l8.467-4.888c3.586-2.072 4.815-6.659 2.744-10.246z"/></g><g fill="#07b27b"><path d="m174.371 338.399-70.135 40.492h46.042l51.103-29.504z"/><path d="m460.623 181.791c-2.071-3.588-6.658-4.816-10.245-2.745l-211.245 121.963 27.011 10.988 185.734-107.234c-.616-2.644-1.427-5.266-2.466-7.838l8.467-4.888c3.586-2.072 4.815-6.659 2.744-10.246z"/></g><g><path d="m472.067 377.891h-43.941l2.446.995c3.32 1.351 4.922 5.15 3.572 8.47-1.002 2.462-3.366 4.053-6.023 4.053-.839 0-1.662-.162-2.447-.481l-9.857-4.011-.437.751c-9.36 16.112-26.785 26.121-45.475 26.121-6.773 0-13.411-1.303-19.729-3.874l-78.724-32.025h-253.477c-4.142 0-7.5 3.358-7.5 7.5s3.358 7.5 7.5 7.5h9.777c3.66 25.98 26.027 46.037 53.001 46.037h328.537c26.974 0 49.341-20.056 53.001-46.037h9.777c4.142 0 7.5-3.358 7.5-7.5s-3.359-7.499-7.501-7.499z" fill="#05e39c"/><path d="m441.722 418.928h-328.536c-25.216 0-46.401-17.528-52.047-41.037h-43.164c-4.142 0-7.5 3.358-7.5 7.5s3.358 7.5 7.5 7.5h9.777c3.66 25.981 26.027 46.037 53.001 46.037h328.537c17.258 0 32.619-8.217 42.413-20.935-3.235.612-6.571.935-9.981.935z" fill="#0ed290"/></g><g><path d="m430.949 377.96-405.12-164.803-15.501-6.306c-3.836-1.559-8.212.284-9.773 4.121s.284 8.212 4.121 9.773l9.056 3.684c-6.4 25.445 6.761 52.451 31.746 62.615l304.32 123.797c6.586 2.679 13.399 3.947 20.106 3.947 18.74 0 36.633-9.911 46.339-26.618l9.053 3.683c.926.376 1.882.555 2.824.555 2.96 0 5.765-1.765 6.95-4.676 1.56-3.836-.284-8.211-4.121-9.772z" fill="#0ed290"/><path d="m383.798 402.546-304.319-123.798c-23.191-9.434-36.183-33.378-32.814-57.115l-20.836-8.476-15.501-6.306c-3.836-1.559-8.212.284-9.773 4.121s.284 8.212 4.121 9.773l9.056 3.684c-6.4 25.445 6.761 52.451 31.746 62.615l304.32 123.797c6.586 2.679 13.399 3.947 20.106 3.947 10.339 0 20.417-3.022 29.008-8.533-5.071-.477-10.157-1.693-15.114-3.709z" fill="#00c285"/></g></g></svg>