<svg id="Capa_1" enable-background="new 0 0 512 512" height="512" viewBox="0 0 512 512" width="512" xmlns="http://www.w3.org/2000/svg"><g><g><g><path d="m110.096 127.454h37.526c7.16 0 14.044 1.185 20.488 3.34 8.832-15.781 21.839-29.04 37.826-38.158-10.543-4.749-22.205-7.417-34.467-7.417-31.605 0-59.288 17.588-73.786 43.45 4.054-.793 8.195-1.215 12.413-1.215z" fill="#fe646f"/></g><g><path d="m340.532 85.219c-12.294 0-23.985 2.682-34.55 7.454 11.827 6.794 22.317 15.965 30.553 26.912 2.71 3.602 5.143 7.353 7.322 11.219 6.453-2.162 13.349-3.351 20.521-3.351h37.525c4.218 0 8.359.422 12.414 1.216-14.498-25.862-42.18-43.45-73.785-43.45z" fill="#fe646f"/></g></g><path d="m189.207 142.618c9.769-9.38 23.017-15.164 37.598-15.164h58.39c14.581 0 27.828 5.784 37.597 15.164 6.406-5.379 13.861-9.544 22.014-12.135-12.692-22.677-33.803-40.004-59.117-47.718-4.409-1.344-6.47-6.471-3.987-10.354 11.972-18.729 32.938-31.176 56.767-31.176h13.655c3.845 0 6.962-3.117 6.962-6.962v-27.311c0-3.845-3.117-6.962-6.962-6.962h-13.654c-48.945 0-90.419 32.557-103.932 77.149-.688 2.269-2.495 4.038-4.786 4.648-26.834 7.15-49.289 24.997-62.553 48.688 8.151 2.59 15.604 6.755 22.008 12.133z" fill="#0ed290"/><path d="m189.207 142.618c9.769-9.38 23.017-15.164 37.598-15.164h14.491c-1.816-23.815 9.119-51.798 31.306-73.985 26.217-26.217 60.525-36.728 86.485-29.04v-17.467c0-3.845-3.117-6.962-6.962-6.962h-13.655c-48.945 0-90.419 32.557-103.932 77.149-.688 2.269-2.495 4.037-4.786 4.648-26.834 7.15-49.289 24.997-62.553 48.688 8.151 2.59 15.604 6.755 22.008 12.133z" fill="#00c285"/><g><path d="m172.468 427.543 7.438-49.605c6.619-44.141 6.963-88.952 1.024-133.188l-8.462-63.026c.019-15.697 6.735-29.849 17.431-39.766-11.454-9.658-26.213-15.505-42.278-15.505h-37.526c-10.55 0-20.541 2.518-29.402 6.982-25.559 12.88-39.288 41.365-34.553 69.593l34.183 203.801c4.957 52.023 30.857 93.103 84.04 93.471 14.444-.15 25.256-5.131 33-13.411-15.34-15.139-24.874-36.147-24.895-59.346z" fill="#fb2b3a"/><g fill="#e41f2d"><path d="m134.653 406.828-34.183-203.8c-4.735-28.228 8.994-56.713 34.555-69.592 6.463-3.257 13.533-5.462 20.978-6.426-2.748-.354-5.541-.556-8.381-.556h-37.526c-10.55 0-20.541 2.518-29.402 6.982-25.56 12.879-39.289 41.364-34.554 69.592l34.183 203.801c4.957 52.023 30.857 93.103 84.04 93.471 9.189-.095 16.897-2.159 23.292-5.77-32.469-13.087-49.129-47.053-53.002-87.702z"/><path d="m431.305 133.436c-8.86-4.464-18.851-6.982-29.402-6.982h-37.526c-16.064 0-30.823 5.847-42.277 15.505 10.695 9.917 17.412 24.069 17.431 39.766l-8.461 63.026c-5.939 44.237-5.595 89.048 1.023 133.188l7.438 49.605c-.021 23.199-9.555 44.206-24.894 59.346 7.744 8.28 18.556 13.261 33 13.411 53.183-.369 79.082-41.448 84.04-93.471l34.183-203.801c4.735-28.229-8.994-56.714-34.555-69.593z"/></g></g><path d="m256 512c-46.492 0-84.532-38.039-84.532-84.531l7.449-49.679c6.602-44.033 6.946-88.777 1.022-132.906l-8.47-63.093c0-30.435 24.902-55.337 55.337-55.337h58.39c30.435 0 55.337 24.902 55.337 55.337l-8.47 63.093c-5.924 44.129-5.58 88.874 1.022 132.906l7.449 49.679c-.002 46.492-38.042 84.531-84.534 84.531z" fill="#fb2b3a"/><path d="m225.459 427.469 7.449-49.679c6.602-44.033 6.946-88.777 1.022-132.906l-8.47-63.093c0-30.435 24.901-55.337 55.337-55.337h-53.991c-30.435 0-55.337 24.902-55.337 55.337l8.47 63.093c5.924 44.129 5.58 88.874-1.022 132.906l-7.449 49.679c.001 46.492 38.04 84.531 84.532 84.531 9.432 0 18.506-1.589 26.995-4.473-33.355-11.333-57.536-42.998-57.536-80.058z" fill="#e41f2d"/></g></svg>