<svg id="Capa_1" enable-background="new 0 0 512 512" height="512" viewBox="0 0 512 512" width="512" xmlns="http://www.w3.org/2000/svg"><g><g><g><path d="m5.035 132.983c-7.883 7.883-6.287 21.052 3.227 26.864 34.763 21.235 80.78 16.815 110.857-13.262s34.498-76.094 13.262-110.857c-5.812-9.514-18.981-11.11-26.864-3.227z" fill="#fff9e2"/></g></g><g><path d="m51.736 159.847c-9.514-5.812-11.11-18.981-3.227-26.864l88.537-88.537c-1.39-2.969-2.933-5.885-4.664-8.719-5.812-9.514-18.981-11.11-26.864-3.227l-100.483 100.483c-7.883 7.883-6.287 21.052 3.227 26.864 20.831 12.725 45.701 16.226 68.763 10.526-8.8-2.173-17.34-5.671-25.289-10.526z" fill="#fff5c6"/></g><g><g fill="#fef0ae"><path d="m353.715 292.313-129.615-104.871 69.99 143.674c16.108 33.066 14.084 71.426-5.415 102.613-6.716 10.742-15.106 19.992-24.721 27.505 19.677 6.099 41.699 6.036 63.445-2.322 69.972-26.893 84.592-119.448 26.316-166.599z"/><path d="m108.919 433.729c-19.498-31.187-21.522-69.546-5.414-102.612l69.991-143.675-129.616 104.871c-58.276 47.151-43.656 139.706 26.316 166.599 21.746 8.358 43.768 8.421 63.445 2.322-9.616-7.513-18.006-16.763-24.722-27.505z"/></g><g><path d="m294.989 330.678-71.876-147.546c-4.192-8.605-6.37-18.051-6.37-27.623v-42.042c0-.975-.474-1.889-1.27-2.451l-29.89-21.099c-1.987-1.403-4.73.018-4.73 2.451v63.141c0 9.572-2.178 19.018-6.37 27.623l-71.876 147.546c-34.623 71.073 17.134 153.857 96.191 153.857h.001c79.056 0 130.813-82.784 96.19-153.857z" fill="#fff9e2"/></g><g><path d="m146.409 330.678 71.876-147.547c.905-1.858 1.698-3.763 2.413-5.692-2.599-7.005-3.957-14.426-3.957-21.931v-42.042c0-.975-.474-1.889-1.27-2.451l-29.89-21.099c-1.987-1.403-4.73.018-4.73 2.451v63.141c0 9.572-2.178 19.018-6.37 27.623l-71.876 147.546c-34.623 71.073 17.134 153.857 96.191 153.857h.001c7.569 0 14.885-.765 21.901-2.199-66.271-13.55-105.596-87.388-74.289-151.657z" fill="#fff5c6"/></g><path d="m246.729 356.698c-4.143 0-7.5 3.358-7.5 7.5 0 57.33-16.139 99.53-32.931 109.514v-212.561c0-4.142-3.357-7.5-7.5-7.5s-7.5 3.358-7.5 7.5v212.561c-16.793-9.984-32.932-52.184-32.932-109.515 0-4.142-3.357-7.5-7.5-7.5s-7.5 3.358-7.5 7.5c0 32.796 5.178 63.744 14.58 87.141 5.632 14.017 12.541 24.572 20.281 31.255 6.61 1.264 13.478 1.941 20.57 1.941h.001c7.092 0 13.96-.677 20.571-1.941 7.739-6.683 14.648-17.238 20.28-31.255 9.402-23.397 14.58-54.345 14.58-87.141 0-4.141-3.358-7.499-7.5-7.499z" fill="#fef0ae"/><g><path d="m73.619 311.294c-3.403-2.36-8.076-1.517-10.438 1.886-31.633 45.585-25.029 106.895 12.475 147.643 9.308 2.986 18.626 4.497 27.75 4.684-47.023-34.056-59.625-98.061-27.901-143.775 2.361-3.403 1.516-8.077-1.886-10.438z" fill="#fff5c6"/><path d="m349.976 402.558c7.729-32.037 2.203-63.779-15.562-89.378-2.361-3.401-7.034-4.248-10.438-1.886-3.402 2.361-4.247 7.035-1.886 10.438 15.291 22.035 20.017 49.49 13.305 77.309-6.251 25.911-21.709 49.276-43.825 66.491 8.499.06 17.184-1.02 25.89-3.373 15.919-17.009 27.175-37.463 32.516-59.601z" fill="#fff9e2"/></g></g><g><path d="m505.407 361.18c10.323 10.323 8.232 27.567-4.225 35.177-45.52 27.806-105.777 22.018-145.161-17.366s-45.173-99.641-17.366-145.161c7.61-12.458 24.854-14.548 35.177-4.225z" fill="#fff9e2"/></g><g><path d="m399.803 369.742c-36.902-36.902-44.308-92.128-22.222-136.388l-3.751-3.751c-10.322-10.322-27.567-8.232-35.177 4.225-27.806 45.52-22.018 105.777 17.366 145.161 35.022 35.022 86.542 43.454 129.535 25.344-30.969.562-62.118-10.958-85.751-34.591z" fill="#fff5c6"/></g></g></svg>