<svg xmlns="http://www.w3.org/2000/svg" xmlns:xlink="http://www.w3.org/1999/xlink" viewBox="0 0 165.65 368.62"><defs><style>.cls-1{fill:url(#linear-gradient);}.cls-2{fill:url(#linear-gradient-2);}.cls-3{fill:url(#linear-gradient-3);}.cls-4{fill:url(#linear-gradient-4);}.cls-5{fill:url(#linear-gradient-5);}.cls-6{fill:url(#linear-gradient-6);}.cls-7{fill:url(#linear-gradient-7);}.cls-8{fill:url(#linear-gradient-8);}.cls-9{fill:url(#linear-gradient-9);}.cls-10{fill:url(#linear-gradient-10);}.cls-11{fill:url(#linear-gradient-11);}.cls-12{fill:url(#linear-gradient-12);}.cls-13{fill:url(#linear-gradient-13);}.cls-14{fill:url(#linear-gradient-14);}.cls-15{fill:url(#linear-gradient-15);}.cls-16{fill:url(#linear-gradient-16);}.cls-17{fill:url(#linear-gradient-17);}.cls-18{fill:url(#linear-gradient-18);}.cls-19{fill:url(#linear-gradient-19);}.cls-20{fill:url(#linear-gradient-20);}.cls-21{fill:url(#linear-gradient-21);}.cls-22{fill:url(#linear-gradient-22);}.cls-23{fill:url(#linear-gradient-23);}.cls-24{fill:url(#linear-gradient-24);}.cls-25{fill:url(#linear-gradient-25);}.cls-26{fill:url(#linear-gradient-26);}.cls-27{fill:url(#linear-gradient-27);}.cls-28{fill:url(#linear-gradient-28);}.cls-29{fill:url(#linear-gradient-29);}.cls-30{fill:url(#linear-gradient-30);}.cls-31{fill:url(#linear-gradient-31);}.cls-32{fill:url(#linear-gradient-32);}.cls-33{fill:url(#linear-gradient-33);}.cls-34{fill:url(#linear-gradient-34);}.cls-35{fill:url(#linear-gradient-35);}.cls-36{fill:url(#linear-gradient-36);}.cls-37{fill:url(#linear-gradient-37);}.cls-38{fill:url(#linear-gradient-38);}.cls-39{fill:url(#linear-gradient-39);}.cls-40{fill:url(#linear-gradient-40);}.cls-41{fill:url(#linear-gradient-41);}.cls-42{fill:url(#linear-gradient-42);}.cls-43{fill:url(#linear-gradient-43);}.cls-44{fill:url(#linear-gradient-44);}.cls-45{fill:url(#linear-gradient-45);}.cls-46{fill:url(#linear-gradient-46);}.cls-47{fill:url(#linear-gradient-47);}.cls-48{fill:url(#linear-gradient-48);}.cls-49{fill:url(#linear-gradient-49);}.cls-50{fill:url(#linear-gradient-50);}.cls-51{fill:url(#linear-gradient-51);}.cls-52{fill:url(#linear-gradient-52);}.cls-53{fill:url(#linear-gradient-53);}.cls-54{fill:url(#linear-gradient-54);}.cls-55{fill:url(#linear-gradient-55);}.cls-56{fill:url(#linear-gradient-56);}.cls-57{fill:url(#linear-gradient-57);}.cls-58{fill:url(#linear-gradient-58);}.cls-59{fill:url(#linear-gradient-59);}.cls-60{fill:url(#linear-gradient-60);}.cls-61{fill:url(#linear-gradient-61);}.cls-62{fill:url(#linear-gradient-62);}.cls-63{fill:url(#linear-gradient-63);}.cls-64{fill:url(#linear-gradient-64);}.cls-65{fill:url(#linear-gradient-65);}.cls-66{fill:url(#linear-gradient-66);}.cls-67{fill:url(#linear-gradient-67);}.cls-68{fill:url(#linear-gradient-68);}.cls-69{fill:url(#linear-gradient-69);}.cls-70{fill:url(#linear-gradient-70);}.cls-71{fill:url(#linear-gradient-71);}.cls-72{fill:url(#linear-gradient-72);}.cls-73{fill:url(#linear-gradient-73);}.cls-74{fill:url(#linear-gradient-74);}.cls-75{fill:url(#linear-gradient-75);}.cls-76{fill:url(#linear-gradient-76);}.cls-77{fill:url(#linear-gradient-77);}.cls-78{fill:url(#linear-gradient-78);}.cls-79{fill:url(#linear-gradient-79);}.cls-80{fill:url(#linear-gradient-80);}.cls-81{fill:url(#linear-gradient-81);}.cls-82{fill:url(#linear-gradient-82);}.cls-83{fill:url(#linear-gradient-83);}.cls-84{fill:url(#linear-gradient-84);}.cls-85{fill:url(#linear-gradient-85);}.cls-86{fill:url(#linear-gradient-86);}.cls-87{fill:url(#linear-gradient-87);}.cls-88{fill:url(#linear-gradient-88);}.cls-89{fill:url(#linear-gradient-89);}.cls-90{fill:url(#linear-gradient-90);}.cls-91{fill:url(#linear-gradient-91);}.cls-92{fill:url(#linear-gradient-92);}.cls-93{fill:url(#linear-gradient-93);}.cls-94{fill:url(#linear-gradient-94);}.cls-95{fill:url(#linear-gradient-95);}.cls-96{fill:url(#linear-gradient-96);}.cls-97{fill:url(#linear-gradient-97);}.cls-98{fill:url(#linear-gradient-98);}.cls-99{fill:url(#linear-gradient-99);}.cls-100{fill:url(#linear-gradient-100);}.cls-101{fill:url(#linear-gradient-101);}.cls-102{fill:url(#linear-gradient-102);}.cls-103{fill:url(#linear-gradient-103);}.cls-104{fill:url(#linear-gradient-104);}.cls-105{fill:url(#linear-gradient-105);}.cls-106{fill:url(#linear-gradient-106);}.cls-107{fill:url(#linear-gradient-107);}.cls-108{fill:url(#linear-gradient-108);}.cls-109{fill:url(#linear-gradient-109);}.cls-110{fill:url(#linear-gradient-110);}.cls-111{fill:url(#linear-gradient-111);}.cls-112{fill:url(#linear-gradient-112);}.cls-113{fill:url(#linear-gradient-113);}.cls-114{fill:url(#linear-gradient-114);}.cls-115{fill:url(#linear-gradient-115);}.cls-116{fill:url(#linear-gradient-116);}.cls-117{fill:url(#linear-gradient-117);}.cls-118{fill:url(#linear-gradient-118);}.cls-119{fill:url(#linear-gradient-119);}.cls-120{fill:url(#linear-gradient-120);}</style><linearGradient id="linear-gradient" x1="654.53" y1="446.4" x2="661.56" y2="446.4" gradientTransform="matrix(-0.25, -0.97, 0.97, -0.25, -150.62, 753.91)" gradientUnits="userSpaceOnUse"><stop offset="0" stop-color="#c1822b"/><stop offset="0.42" stop-color="#ffde7f"/><stop offset="0.51" stop-color="#f5cf72"/><stop offset="0.84" stop-color="#d0983f"/><stop offset="0.99" stop-color="#c1822b"/></linearGradient><linearGradient id="linear-gradient-2" x1="296.01" y1="-230.82" x2="304.57" y2="-230.82" gradientTransform="matrix(-0.88, -0.47, -0.47, 0.88, 262.91, 350.8)" xlink:href="#linear-gradient"/><linearGradient id="linear-gradient-3" x1="291.51" y1="-233.88" x2="303.44" y2="-233.88" gradientTransform="matrix(-0.88, -0.47, -0.47, 0.88, 262.91, 350.8)" xlink:href="#linear-gradient"/><linearGradient id="linear-gradient-4" x1="290.35" y1="-234.09" x2="301.27" y2="-234.09" gradientTransform="matrix(-0.88, -0.47, -0.47, 0.88, 262.91, 350.8)" xlink:href="#linear-gradient"/><linearGradient id="linear-gradient-5" x1="957.84" y1="-31.11" x2="961.8" y2="-31.11" gradientTransform="matrix(0.9, -0.43, -0.43, -0.9, -767.15, 393.58)" xlink:href="#linear-gradient"/><linearGradient id="linear-gradient-6" x1="483.82" y1="293.01" x2="495.99" y2="293.01" gradientTransform="matrix(-0.93, -0.36, 0.36, -0.93, 473.15, 455.77)" xlink:href="#linear-gradient"/><linearGradient id="linear-gradient-7" x1="531.07" y1="-21.97" x2="539.63" y2="-21.97" gradientTransform="matrix(0.58, 0.82, -0.82, 0.58, -196.82, -414.36)" xlink:href="#linear-gradient"/><linearGradient id="linear-gradient-8" x1="1016.23" y1="-139.48" x2="1020.17" y2="-139.48" gradientTransform="matrix(0.52, -0.85, -0.85, -0.52, -538.18, 807.27)" xlink:href="#linear-gradient"/><linearGradient id="linear-gradient-9" x1="477.38" y1="288.63" x2="494.35" y2="288.63" gradientTransform="matrix(-0.93, -0.36, 0.36, -0.93, 473.15, 455.77)" xlink:href="#linear-gradient"/><linearGradient id="linear-gradient-10" x1="475.74" y1="288.27" x2="491.24" y2="288.27" gradientTransform="matrix(-0.93, -0.36, 0.36, -0.93, 473.15, 455.77)" xlink:href="#linear-gradient"/><linearGradient id="linear-gradient-11" x1="318.05" y1="-366.32" x2="334.95" y2="-366.32" gradientTransform="matrix(-0.99, 0.16, 0.16, 0.99, 523.43, 323.18)" xlink:href="#linear-gradient"/><linearGradient id="linear-gradient-12" x1="393.4" y1="-419.79" x2="399" y2="-419.79" gradientTransform="translate(-393.69 -228.51) rotate(70.24)" xlink:href="#linear-gradient"/><linearGradient id="linear-gradient-13" x1="549.43" y1="-508.43" x2="555.05" y2="-508.43" gradientTransform="matrix(0.61, 0.79, -0.79, 0.61, -607.07, -120.16)" xlink:href="#linear-gradient"/><linearGradient id="linear-gradient-14" x1="309.22" y1="-372.45" x2="332.75" y2="-372.45" gradientTransform="matrix(-0.99, 0.16, 0.16, 0.99, 523.43, 323.18)" xlink:href="#linear-gradient"/><linearGradient id="linear-gradient-15" x1="306.91" y1="-374.11" x2="328.48" y2="-374.11" gradientTransform="matrix(-0.99, 0.16, 0.16, 0.99, 523.43, 323.18)" xlink:href="#linear-gradient"/><linearGradient id="linear-gradient-16" x1="583.99" y1="487.72" x2="591.02" y2="487.72" gradientTransform="matrix(0.97, 0.25, 0.25, -0.97, -530.46, 374.08)" xlink:href="#linear-gradient"/><linearGradient id="linear-gradient-17" x1="217.85" y1="-206.87" x2="226.41" y2="-206.87" gradientTransform="translate(-127.34 -39.45) rotate(62.03)" xlink:href="#linear-gradient"/><linearGradient id="linear-gradient-18" x1="213.35" y1="-209.93" x2="225.28" y2="-209.93" gradientTransform="translate(-127.34 -39.45) rotate(62.03)" xlink:href="#linear-gradient"/><linearGradient id="linear-gradient-19" x1="212.19" y1="-210.14" x2="223.1" y2="-210.14" gradientTransform="translate(-127.34 -39.45) rotate(62.03)" xlink:href="#linear-gradient"/><linearGradient id="linear-gradient-20" x1="985.17" y1="-108.17" x2="989.13" y2="-108.17" gradientTransform="translate(-170.12 990.61) rotate(-64.54)" xlink:href="#linear-gradient"/><linearGradient id="linear-gradient-21" x1="409.13" y1="259.77" x2="421.3" y2="259.77" gradientTransform="matrix(0.36, 0.93, 0.93, -0.36, -232.31, -249.69)" xlink:href="#linear-gradient"/><linearGradient id="linear-gradient-22" x1="611.63" y1="-35.87" x2="620.19" y2="-35.87" gradientTransform="matrix(-0.82, -0.58, -0.58, 0.82, 637.82, 420.28)" xlink:href="#linear-gradient"/><linearGradient id="linear-gradient-23" x1="997.28" y1="-219.01" x2="1001.23" y2="-219.01" gradientTransform="translate(-583.81 761.64) rotate(-31.61)" xlink:href="#linear-gradient"/><linearGradient id="linear-gradient-24" x1="402.69" y1="255.39" x2="419.67" y2="255.39" gradientTransform="matrix(0.36, 0.93, 0.93, -0.36, -232.31, -249.69)" xlink:href="#linear-gradient"/><linearGradient id="linear-gradient-25" x1="401.05" y1="255.02" x2="416.55" y2="255.02" gradientTransform="matrix(0.36, 0.93, 0.93, -0.36, -232.31, -249.69)" xlink:href="#linear-gradient"/><linearGradient id="linear-gradient-26" x1="270.2" y1="-300.04" x2="287.1" y2="-300.04" gradientTransform="translate(-99.72 -299.97) rotate(99.17)" xlink:href="#linear-gradient"/><linearGradient id="linear-gradient-27" x1="467.35" y1="-454.64" x2="472.94" y2="-454.64" gradientTransform="matrix(-0.94, -0.34, -0.34, 0.94, 451.97, 617.15)" xlink:href="#linear-gradient"/><linearGradient id="linear-gradient-28" x1="630.52" y1="-518.8" x2="636.14" y2="-518.8" gradientTransform="matrix(-0.79, -0.61, -0.61, 0.79, 343.62, 830.53)" xlink:href="#linear-gradient"/><linearGradient id="linear-gradient-29" x1="261.37" y1="-306.17" x2="284.9" y2="-306.17" gradientTransform="translate(-99.72 -299.97) rotate(99.17)" xlink:href="#linear-gradient"/><linearGradient id="linear-gradient-30" x1="259.06" y1="-307.83" x2="280.63" y2="-307.83" gradientTransform="translate(-99.72 -299.97) rotate(99.17)" xlink:href="#linear-gradient"/><linearGradient id="linear-gradient-31" x1="469.72" y1="1153.98" x2="476.75" y2="1153.98" gradientTransform="matrix(0.25, -0.97, -0.97, -0.25, 1047.55, 753.91)" xlink:href="#linear-gradient"/><linearGradient id="linear-gradient-32" x1="-349.85" y1="-573.79" x2="-341.29" y2="-573.79" gradientTransform="translate(634.01 350.8) rotate(-27.97)" xlink:href="#linear-gradient"/><linearGradient id="linear-gradient-33" x1="-354.35" y1="-576.85" x2="-342.42" y2="-576.85" gradientTransform="translate(634.01 350.8) rotate(-27.97)" xlink:href="#linear-gradient"/><linearGradient id="linear-gradient-34" x1="-355.52" y1="-577.06" x2="-344.6" y2="-577.06" gradientTransform="translate(634.01 350.8) rotate(-27.97)" xlink:href="#linear-gradient"/><linearGradient id="linear-gradient-35" x1="1618.13" y1="-345.54" x2="1622.09" y2="-345.54" gradientTransform="translate(1664.08 393.58) rotate(-154.54)" xlink:href="#linear-gradient"/><linearGradient id="linear-gradient-36" x1="-198.82" y1="555.24" x2="-186.65" y2="555.24" gradientTransform="matrix(0.93, -0.36, -0.36, -0.93, 423.78, 455.77)" xlink:href="#linear-gradient"/><linearGradient id="linear-gradient-37" x1="952.67" y1="-619.43" x2="961.24" y2="-619.43" gradientTransform="matrix(-0.58, 0.82, 0.82, 0.58, 1093.75, -414.36)" xlink:href="#linear-gradient"/><linearGradient id="linear-gradient-38" x1="1399.47" y1="-762.27" x2="1403.41" y2="-762.27" gradientTransform="translate(1435.11 807.27) rotate(-121.61)" xlink:href="#linear-gradient"/><linearGradient id="linear-gradient-39" x1="-205.26" y1="550.87" x2="-188.29" y2="550.87" gradientTransform="matrix(0.93, -0.36, -0.36, -0.93, 423.78, 455.77)" xlink:href="#linear-gradient"/><linearGradient id="linear-gradient-40" x1="-206.9" y1="550.5" x2="-191.4" y2="550.5" gradientTransform="matrix(0.93, -0.36, -0.36, -0.93, 423.78, 455.77)" xlink:href="#linear-gradient"/><linearGradient id="linear-gradient-41" x1="-403.84" y1="-249.84" x2="-386.94" y2="-249.84" gradientTransform="translate(373.5 323.18) rotate(9.17)" xlink:href="#linear-gradient"/><linearGradient id="linear-gradient-42" x1="640.61" y1="-1107.96" x2="646.2" y2="-1107.96" gradientTransform="matrix(-0.34, 0.94, 0.94, 0.34, 1290.62, -228.51)" xlink:href="#linear-gradient"/><linearGradient id="linear-gradient-43" x1="996.66" y1="-1086.99" x2="1002.28" y2="-1086.99" gradientTransform="matrix(-0.61, 0.79, 0.79, 0.61, 1504, -120.16)" xlink:href="#linear-gradient"/><linearGradient id="linear-gradient-44" x1="-412.67" y1="-255.97" x2="-389.15" y2="-255.97" gradientTransform="translate(373.5 323.18) rotate(9.17)" xlink:href="#linear-gradient"/><linearGradient id="linear-gradient-45" x1="-414.98" y1="-257.63" x2="-393.42" y2="-257.63" gradientTransform="translate(373.5 323.18) rotate(9.17)" xlink:href="#linear-gradient"/><linearGradient id="linear-gradient-46" x1="1291.56" y1="672.53" x2="1298.59" y2="672.53" gradientTransform="matrix(-0.97, 0.25, -0.25, -0.97, 1427.38, 374.08)" xlink:href="#linear-gradient"/><linearGradient id="linear-gradient-47" x1="560.82" y1="-852.74" x2="569.38" y2="-852.74" gradientTransform="matrix(-0.47, 0.88, 0.88, 0.47, 1024.27, -39.45)" xlink:href="#linear-gradient"/><linearGradient id="linear-gradient-48" x1="556.32" y1="-855.8" x2="568.25" y2="-855.8" gradientTransform="matrix(-0.47, 0.88, 0.88, 0.47, 1024.27, -39.45)" xlink:href="#linear-gradient"/><linearGradient id="linear-gradient-49" x1="555.16" y1="-856.01" x2="566.07" y2="-856.01" gradientTransform="matrix(-0.47, 0.88, 0.88, 0.47, 1024.27, -39.45)" xlink:href="#linear-gradient"/><linearGradient id="linear-gradient-50" x1="1299.59" y1="552.12" x2="1303.56" y2="552.12" gradientTransform="matrix(-0.43, -0.9, -0.9, 0.43, 1067.05, 990.61)" xlink:href="#linear-gradient"/><linearGradient id="linear-gradient-51" x1="671.37" y1="942.41" x2="683.54" y2="942.41" gradientTransform="matrix(-0.36, 0.93, -0.93, -0.36, 1129.24, -249.69)" xlink:href="#linear-gradient"/><linearGradient id="linear-gradient-52" x1="14.17" y1="-457.47" x2="22.73" y2="-457.47" gradientTransform="matrix(0.82, -0.58, 0.58, 0.82, 259.11, 420.28)" xlink:href="#linear-gradient"/><linearGradient id="linear-gradient-53" x1="1620.07" y1="164.23" x2="1624.01" y2="164.23" gradientTransform="matrix(-0.85, -0.52, -0.52, 0.85, 1480.74, 761.64)" xlink:href="#linear-gradient"/><linearGradient id="linear-gradient-54" x1="664.92" y1="938.03" x2="681.9" y2="938.03" gradientTransform="matrix(-0.36, 0.93, -0.93, -0.36, 1129.24, -249.69)" xlink:href="#linear-gradient"/><linearGradient id="linear-gradient-55" x1="663.29" y1="937.67" x2="678.79" y2="937.67" gradientTransform="matrix(-0.36, 0.93, -0.93, -0.36, 1129.24, -249.69)" xlink:href="#linear-gradient"/><linearGradient id="linear-gradient-56" x1="153.72" y1="-1021.93" x2="170.62" y2="-1021.93" gradientTransform="matrix(0.16, 0.99, 0.99, -0.16, 996.65, -299.97)" xlink:href="#linear-gradient"/><linearGradient id="linear-gradient-57" x1="-220.82" y1="-701.85" x2="-215.23" y2="-701.85" gradientTransform="translate(444.95 617.15) rotate(-19.76)" xlink:href="#linear-gradient"/><linearGradient id="linear-gradient-58" x1="51.96" y1="-966.03" x2="57.58" y2="-966.03" gradientTransform="matrix(0.79, -0.61, 0.61, 0.79, 553.31, 830.53)" xlink:href="#linear-gradient"/><linearGradient id="linear-gradient-59" x1="144.89" y1="-1028.07" x2="168.42" y2="-1028.07" gradientTransform="matrix(0.16, 0.99, 0.99, -0.16, 996.65, -299.97)" xlink:href="#linear-gradient"/><linearGradient id="linear-gradient-60" x1="142.58" y1="-1029.73" x2="164.15" y2="-1029.73" gradientTransform="matrix(0.16, 0.99, 0.99, -0.16, 996.65, -299.97)" xlink:href="#linear-gradient"/><linearGradient id="linear-gradient-61" x1="313.62" y1="357.36" x2="320.64" y2="357.36" gradientTransform="matrix(-0.25, 0.97, 0.97, 0.25, -150.62, -32.95)" xlink:href="#linear-gradient"/><linearGradient id="linear-gradient-62" x1="130.77" y1="80.36" x2="139.33" y2="80.36" gradientTransform="translate(262.91 370.17) rotate(152.03)" xlink:href="#linear-gradient"/><linearGradient id="linear-gradient-63" x1="126.26" y1="77.3" x2="138.19" y2="77.3" gradientTransform="translate(262.91 370.17) rotate(152.03)" xlink:href="#linear-gradient"/><linearGradient id="linear-gradient-64" x1="125.1" y1="77.09" x2="136.02" y2="77.09" gradientTransform="translate(262.91 370.17) rotate(152.03)" xlink:href="#linear-gradient"/><linearGradient id="linear-gradient-65" x1="806.34" y1="-349.25" x2="810.31" y2="-349.25" gradientTransform="translate(-767.15 327.39) rotate(25.46)" xlink:href="#linear-gradient"/><linearGradient id="linear-gradient-66" x1="357.47" y1="-35.9" x2="369.64" y2="-35.9" gradientTransform="matrix(-0.93, 0.36, 0.36, 0.93, 473.15, 265.2)" xlink:href="#linear-gradient"/><linearGradient id="linear-gradient-67" x1="818.93" y1="181.16" x2="827.5" y2="181.16" gradientTransform="matrix(0.58, -0.82, -0.82, -0.58, -196.82, 1135.33)" xlink:href="#linear-gradient"/><linearGradient id="linear-gradient-68" x1="716.16" y1="-324.13" x2="720.1" y2="-324.13" gradientTransform="translate(-538.18 -86.31) rotate(58.39)" xlink:href="#linear-gradient"/><linearGradient id="linear-gradient-69" x1="351.03" y1="-40.27" x2="368.01" y2="-40.27" gradientTransform="matrix(-0.93, 0.36, 0.36, 0.93, 473.15, 265.2)" xlink:href="#linear-gradient"/><linearGradient id="linear-gradient-70" x1="349.39" y1="-40.64" x2="364.9" y2="-40.64" gradientTransform="matrix(-0.93, 0.36, 0.36, 0.93, 473.15, 265.2)" xlink:href="#linear-gradient"/><linearGradient id="linear-gradient-71" x1="374.17" y1="-18.5" x2="391.07" y2="-18.5" gradientTransform="translate(523.43 397.79) rotate(-170.83)" xlink:href="#linear-gradient"/><linearGradient id="linear-gradient-72" x1="724.97" y1="-300.68" x2="730.56" y2="-300.68" gradientTransform="matrix(0.34, -0.94, -0.94, -0.34, -393.69, 949.48)" xlink:href="#linear-gradient"/><linearGradient id="linear-gradient-73" x1="828.19" y1="-292.95" x2="833.81" y2="-292.95" gradientTransform="matrix(0.61, -0.79, -0.79, -0.61, -607.07, 841.12)" xlink:href="#linear-gradient"/><linearGradient id="linear-gradient-74" x1="365.34" y1="-24.63" x2="388.87" y2="-24.63" gradientTransform="translate(523.43 397.79) rotate(-170.83)" xlink:href="#linear-gradient"/><linearGradient id="linear-gradient-75" x1="363.03" y1="-26.29" x2="384.6" y2="-26.29" gradientTransform="translate(523.43 397.79) rotate(-170.83)" xlink:href="#linear-gradient"/><linearGradient id="linear-gradient-76" x1="673.03" y1="146.8" x2="680.06" y2="146.8" gradientTransform="matrix(0.97, -0.25, 0.25, 0.97, -530.46, 346.88)" xlink:href="#linear-gradient"/><linearGradient id="linear-gradient-77" x1="529.03" y1="-41.62" x2="537.6" y2="-41.62" gradientTransform="matrix(0.47, -0.88, -0.88, -0.47, -127.34, 760.42)" xlink:href="#linear-gradient"/><linearGradient id="linear-gradient-78" x1="524.53" y1="-44.68" x2="536.46" y2="-44.68" gradientTransform="matrix(0.47, -0.88, -0.88, -0.47, -127.34, 760.42)" xlink:href="#linear-gradient"/><linearGradient id="linear-gradient-79" x1="523.37" y1="-44.89" x2="534.29" y2="-44.89" gradientTransform="matrix(0.47, -0.88, -0.88, -0.47, -127.34, 760.42)" xlink:href="#linear-gradient"/><linearGradient id="linear-gradient-80" x1="667.03" y1="43.32" x2="671" y2="43.32" gradientTransform="matrix(0.43, 0.9, 0.9, -0.43, -170.12, -269.65)" xlink:href="#linear-gradient"/><linearGradient id="linear-gradient-81" x1="738.04" y1="133.42" x2="750.21" y2="133.42" gradientTransform="matrix(0.36, -0.93, 0.93, 0.36, -232.31, 970.66)" xlink:href="#linear-gradient"/><linearGradient id="linear-gradient-82" x1="408.49" y1="252" x2="417.06" y2="252" gradientTransform="matrix(-0.82, 0.58, -0.58, -0.82, 637.82, 300.69)" xlink:href="#linear-gradient"/><linearGradient id="linear-gradient-83" x1="812.64" y1="81.06" x2="816.58" y2="81.06" gradientTransform="matrix(0.85, 0.52, 0.52, -0.85, -583.81, -40.68)" xlink:href="#linear-gradient"/><linearGradient id="linear-gradient-84" x1="731.59" y1="129.05" x2="748.57" y2="129.05" gradientTransform="matrix(0.36, -0.93, 0.93, 0.36, -232.31, 970.66)" xlink:href="#linear-gradient"/><linearGradient id="linear-gradient-85" x1="729.96" y1="128.68" x2="745.46" y2="128.68" gradientTransform="matrix(0.36, -0.93, 0.93, 0.36, -232.31, 970.66)" xlink:href="#linear-gradient"/><linearGradient id="linear-gradient-86" x1="618.02" y1="-356.16" x2="634.92" y2="-356.16" gradientTransform="matrix(-0.16, -0.99, -0.99, 0.16, -99.72, 1020.93)" xlink:href="#linear-gradient"/><linearGradient id="linear-gradient-87" x1="348.24" y1="-123.07" x2="353.83" y2="-123.07" gradientTransform="translate(451.97 103.82) rotate(160.24)" xlink:href="#linear-gradient"/><linearGradient id="linear-gradient-88" x1="415.04" y1="-240.04" x2="420.66" y2="-240.04" gradientTransform="matrix(-0.79, 0.61, -0.61, -0.79, 343.62, -109.57)" xlink:href="#linear-gradient"/><linearGradient id="linear-gradient-89" x1="609.19" y1="-362.29" x2="632.72" y2="-362.29" gradientTransform="matrix(-0.16, -0.99, -0.99, 0.16, -99.72, 1020.93)" xlink:href="#linear-gradient"/><linearGradient id="linear-gradient-90" x1="606.88" y1="-363.95" x2="628.45" y2="-363.95" gradientTransform="matrix(-0.16, -0.99, -0.99, 0.16, -99.72, 1020.93)" xlink:href="#linear-gradient"/><linearGradient id="linear-gradient-91" x1="128.81" y1="1064.93" x2="135.83" y2="1064.93" gradientTransform="matrix(0.25, 0.97, -0.97, 0.25, 1047.55, -32.95)" xlink:href="#linear-gradient"/><linearGradient id="linear-gradient-92" x1="-515.1" y1="-262.61" x2="-506.54" y2="-262.61" gradientTransform="matrix(0.88, 0.47, 0.47, -0.88, 634.01, 370.17)" xlink:href="#linear-gradient"/><linearGradient id="linear-gradient-93" x1="-519.6" y1="-265.67" x2="-507.67" y2="-265.67" gradientTransform="matrix(0.88, 0.47, 0.47, -0.88, 634.01, 370.17)" xlink:href="#linear-gradient"/><linearGradient id="linear-gradient-94" x1="-520.76" y1="-265.88" x2="-509.85" y2="-265.88" gradientTransform="matrix(0.88, 0.47, 0.47, -0.88, 634.01, 370.17)" xlink:href="#linear-gradient"/><linearGradient id="linear-gradient-95" x1="1466.64" y1="-663.67" x2="1470.6" y2="-663.67" gradientTransform="matrix(-0.9, 0.43, 0.43, 0.9, 1664.08, 327.39)" xlink:href="#linear-gradient"/><linearGradient id="linear-gradient-96" x1="-325.17" y1="226.34" x2="-313" y2="226.34" gradientTransform="matrix(0.93, 0.36, -0.36, 0.93, 423.78, 265.2)" xlink:href="#linear-gradient"/><linearGradient id="linear-gradient-97" x1="1240.54" y1="-416.3" x2="1249.11" y2="-416.3" gradientTransform="matrix(-0.58, -0.82, 0.82, -0.58, 1093.75, 1135.33)" xlink:href="#linear-gradient"/><linearGradient id="linear-gradient-98" x1="1099.4" y1="-946.92" x2="1103.34" y2="-946.92" gradientTransform="matrix(-0.52, 0.85, 0.85, 0.52, 1435.11, -86.31)" xlink:href="#linear-gradient"/><linearGradient id="linear-gradient-99" x1="-331.61" y1="221.96" x2="-314.63" y2="221.96" gradientTransform="matrix(0.93, 0.36, -0.36, 0.93, 423.78, 265.2)" xlink:href="#linear-gradient"/><linearGradient id="linear-gradient-100" x1="-333.25" y1="221.59" x2="-317.74" y2="221.59" gradientTransform="matrix(0.93, 0.36, -0.36, 0.93, 423.78, 265.2)" xlink:href="#linear-gradient"/><linearGradient id="linear-gradient-101" x1="-347.72" y1="97.98" x2="-330.82" y2="97.98" gradientTransform="matrix(0.99, -0.16, -0.16, -0.99, 373.5, 397.79)" xlink:href="#linear-gradient"/><linearGradient id="linear-gradient-102" x1="972.18" y1="-988.85" x2="977.77" y2="-988.85" gradientTransform="translate(1290.62 949.48) rotate(-109.76)" xlink:href="#linear-gradient"/><linearGradient id="linear-gradient-103" x1="1275.42" y1="-871.51" x2="1281.03" y2="-871.51" gradientTransform="matrix(-0.61, -0.79, 0.79, -0.61, 1504, 841.12)" xlink:href="#linear-gradient"/><linearGradient id="linear-gradient-104" x1="-356.55" y1="91.84" x2="-333.03" y2="91.84" gradientTransform="matrix(0.99, -0.16, -0.16, -0.99, 373.5, 397.79)" xlink:href="#linear-gradient"/><linearGradient id="linear-gradient-105" x1="-358.86" y1="90.18" x2="-337.3" y2="90.18" gradientTransform="matrix(0.99, -0.16, -0.16, -0.99, 373.5, 397.79)" xlink:href="#linear-gradient"/><linearGradient id="linear-gradient-106" x1="1380.61" y1="331.61" x2="1387.63" y2="331.61" gradientTransform="matrix(-0.97, -0.25, -0.25, 0.97, 1427.38, 346.88)" xlink:href="#linear-gradient"/><linearGradient id="linear-gradient-107" x1="872.01" y1="-687.49" x2="880.57" y2="-687.49" gradientTransform="translate(1024.27 760.42) rotate(-117.97)" xlink:href="#linear-gradient"/><linearGradient id="linear-gradient-108" x1="867.5" y1="-690.55" x2="879.43" y2="-690.55" gradientTransform="translate(1024.27 760.42) rotate(-117.97)" xlink:href="#linear-gradient"/><linearGradient id="linear-gradient-109" x1="866.34" y1="-690.76" x2="877.26" y2="-690.76" gradientTransform="translate(1024.27 760.42) rotate(-117.97)" xlink:href="#linear-gradient"/><linearGradient id="linear-gradient-110" x1="981.45" y1="703.62" x2="985.42" y2="703.62" gradientTransform="translate(1067.05 -269.65) rotate(115.46)" xlink:href="#linear-gradient"/><linearGradient id="linear-gradient-111" x1="1000.27" y1="816.06" x2="1012.44" y2="816.06" gradientTransform="matrix(-0.36, -0.93, -0.93, 0.36, 1129.24, 970.66)" xlink:href="#linear-gradient"/><linearGradient id="linear-gradient-112" x1="-188.97" y1="-169.61" x2="-180.4" y2="-169.61" gradientTransform="matrix(0.82, 0.58, 0.58, -0.82, 259.11, 300.69)" xlink:href="#linear-gradient"/><linearGradient id="linear-gradient-113" x1="1435.42" y1="464.3" x2="1439.37" y2="464.3" gradientTransform="translate(1480.74 -40.68) rotate(148.39)" xlink:href="#linear-gradient"/><linearGradient id="linear-gradient-114" x1="993.83" y1="811.69" x2="1010.8" y2="811.69" gradientTransform="matrix(-0.36, -0.93, -0.93, 0.36, 1129.24, 970.66)" xlink:href="#linear-gradient"/><linearGradient id="linear-gradient-115" x1="992.19" y1="811.32" x2="1007.69" y2="811.32" gradientTransform="matrix(-0.36, -0.93, -0.93, 0.36, 1129.24, 970.66)" xlink:href="#linear-gradient"/><linearGradient id="linear-gradient-116" x1="501.54" y1="-1078.05" x2="518.44" y2="-1078.05" gradientTransform="translate(996.65 1020.93) rotate(-80.83)" xlink:href="#linear-gradient"/><linearGradient id="linear-gradient-117" x1="-339.92" y1="-370.28" x2="-334.33" y2="-370.28" gradientTransform="matrix(0.94, 0.34, 0.34, -0.94, 444.95, 103.82)" xlink:href="#linear-gradient"/><linearGradient id="linear-gradient-118" x1="-163.52" y1="-687.27" x2="-157.9" y2="-687.27" gradientTransform="matrix(0.79, 0.61, 0.61, -0.79, 553.31, -109.57)" xlink:href="#linear-gradient"/><linearGradient id="linear-gradient-119" x1="492.71" y1="-1084.19" x2="516.24" y2="-1084.19" gradientTransform="translate(996.65 1020.93) rotate(-80.83)" xlink:href="#linear-gradient"/><linearGradient id="linear-gradient-120" x1="490.4" y1="-1085.85" x2="511.97" y2="-1085.85" gradientTransform="translate(996.65 1020.93) rotate(-80.83)" xlink:href="#linear-gradient"/></defs><title>gold2</title><g id="Calque_2" data-name="Calque 2"><g id="OBJECTS"><path class="cls-1" d="M116.12,2.08c-.15.11-.67,0-.67,0a.71.71,0,0,1-.26.82s0-.84-.66-1-1.58.7-1,2.15c0,.09-.18.38-.14.47l-.59-.77a2.35,2.35,0,0,1,.35-2,2.62,2.62,0,0,1,3-.72,2.06,2.06,0,0,1-.77.37A1.51,1.51,0,0,1,116.12,2.08Z"/><path class="cls-2" d="M107.71,7.29s-.62.91-1.8-.06.42-2.92,2-2.1a2.93,2.93,0,0,1,1.29,3.92c-.6,1.4-3.16,2.4-5.44.91A4.4,4.4,0,0,1,102,4.45,5.61,5.61,0,0,1,105.79,1,5.66,5.66,0,0,0,103,5.19c-.22,2.86,1.81,3.89,3,3.73S107.86,7.64,107.71,7.29Z"/><path class="cls-3" d="M107.21,4.36s-1.4-.38-1.37-1.47,2.05-2.48,4.29-1,4.62,6.32,4.62,6.32a9.11,9.11,0,0,0-1.62-4.74A7.25,7.25,0,0,0,106.36.7c-1.89.49-2.75,2.77-2.55,4.51a3.48,3.48,0,0,0,.93-1.13,2.55,2.55,0,0,0,.77,1.51c.24-.2.21-1.13.21-1.13A1.25,1.25,0,0,0,107.21,4.36Z"/><path class="cls-4" d="M115.08,10.11s-.87-4.46-4.07-6.7-4.12-.56-3.79.23c-1.07-.28-.37-3,2.15-2.21S114.85,6.34,115.08,10.11Z"/><path class="cls-5" d="M112,7.37a2.1,2.1,0,0,1,2.58.92A3,3,0,0,1,115,10l-.22-.17A2.52,2.52,0,0,0,114,8.46c-1-.9-2-.44-2.23.05s0,1.07.15,1.11c0,0-.18-.49.51-.66s1,1,.24,1.36a1.39,1.39,0,0,1-1.84-.64A1.74,1.74,0,0,1,112,7.37Z"/><path class="cls-6" d="M123.81,7.37s.39-1.52-1.75-1.91-2.71,3.19-.34,4.16a4.09,4.09,0,0,0,5.38-2.27c.92-2-.41-5.68-4.11-6.76a6.16,6.16,0,0,0-7.53,3.25,8.12,8.12,0,0,0-.18,7.38,8.13,8.13,0,0,1,1.9-7C120,1.33,123,2.56,123.95,4S124.32,7.22,123.81,7.37Z"/><path class="cls-7" d="M128.41,8.82s-.83.73.28,1.78,2.86-.78,1.83-2.27a3,3,0,0,0-4.07-.78c-1.31.77-2,3.44-.23,5.5A4.44,4.44,0,0,0,132,14.11a5.6,5.6,0,0,0,3-4.19,5.67,5.67,0,0,1-3.87,3.29c-2.82.57-4.11-1.3-4.1-2.49S128,8.71,128.41,8.82Z"/><path class="cls-8" d="M113.65,13.95s-.42-.32.07-.84,1.37.31.94,1a1.36,1.36,0,0,1-1.88.45,1.78,1.78,0,0,1-.31-2.57,2,2,0,0,1,2.64-.61,2.77,2.77,0,0,1,1.57,1.9,2.8,2.8,0,0,0-1.94-1.46c-1.34-.21-1.87.69-1.82,1.25S113.49,14,113.65,13.95Z"/><path class="cls-9" d="M120.23,9.58s-1.71-1.16-2.84-.11-.72,4.55,3,5.58,11-.89,11-.89a12.68,12.68,0,0,1-6.56,2.67c-3.88.35-8.07-2.23-9.31-4.75s.38-5.57,2.42-7a5,5,0,0,1-.33,2.07,3.55,3.55,0,0,1,2.32-.58c0,.46-1,1.28-1,1.28A1.81,1.81,0,0,1,120.23,9.58Z"/><path class="cls-10" d="M133.69,12.75s-5.56,3.22-10.93,1.84-4.46-4-3.3-4.34c-1.3-.89-3.49,2.36-.34,4.4S129.48,16,133.69,12.75Z"/><path class="cls-11" d="M146.9,13.36s.14,2.21-2.89,2.07-2.87-5.2.63-5.79,6,1.81,6.76,4.77-2.05,7.65-7.4,8a8.93,8.93,0,0,1-9.45-6.78c-.94-3.76-.57-7.28,1.7-10.14,0,0-2.35,5.28.76,10.14s7.53,4.1,9.18,2.44S147.57,13.73,146.9,13.36Z"/><path class="cls-12" d="M134.75,1.22s-.66.31-.13,1.17,2,0,1.56-1.11a2,2,0,0,0-2.45-1.2,2.44,2.44,0,0,0-1.11,3.42,2.94,2.94,0,0,0,3.45,1.66A3.69,3.69,0,0,0,138.72,3a3.75,3.75,0,0,1-3,1.39c-1.89-.13-2.38-1.53-2.16-2.27S134.54,1.09,134.75,1.22Z"/><path class="cls-13" d="M132,4.82s-.52.5.24,1.16,1.84-.59,1.13-1.54a1.93,1.93,0,0,0-2.69-.4,2.46,2.46,0,0,0,0,3.61,2.91,2.91,0,0,0,3.78.53,3.68,3.68,0,0,0,1.84-2.83,3.72,3.72,0,0,1-2.44,2.26c-1.83.46-2.72-.74-2.75-1.51S131.74,4.76,132,4.82Z"/><path class="cls-14" d="M142.59,9.23s-2.64,1.06-3.91-.73.22-6.44,5.52-6.71,14.87,4.64,14.87,4.64A18.51,18.51,0,0,0,150.81.75c-5.21-1.68-11.62.55-14,3.6s-1,7.73,1.46,10.31a7,7,0,0,0,.1-2.94,5.12,5.12,0,0,0,3,1.52c.13-.62-1-2.06-1-2.06A2.43,2.43,0,0,0,142.59,9.23Z"/><path class="cls-15" d="M141.73,8.07c-1.48-.89-2.06-4.69,5.65-4.91,4.59-.13,8.84,2,11.53,3.73l.27-.36C154,2.41,146.51.42,142.43,1.95,137.57,3.76,139.71,8.89,141.73,8.07Z"/><path class="cls-16" d="M163.57,49.54c-.11.15,0,.67,0,.67a.71.71,0,0,0-.82.26s.84,0,1,.66-.69,1.58-2.15,1c-.09,0-.38.18-.47.14l.77.59a2.35,2.35,0,0,0,2-.35,2.62,2.62,0,0,0,.72-3,2.07,2.07,0,0,0-.37.77A1.5,1.5,0,0,0,163.57,49.54Z"/><path class="cls-17" d="M158.35,58s-.91.62.06,1.8,2.92-.42,2.1-2a2.93,2.93,0,0,0-3.92-1.29c-1.39.6-2.4,3.16-.91,5.44a4.41,4.41,0,0,0,5.53,1.77,5.61,5.61,0,0,0,3.49-3.78,5.65,5.65,0,0,1-4.23,2.78c-2.86.22-3.89-1.81-3.73-3S158,57.8,158.35,58Z"/><path class="cls-18" d="M161.28,58.44s.38,1.4,1.47,1.37,2.48-2.05,1-4.29-6.32-4.62-6.32-4.62a9.12,9.12,0,0,1,4.74,1.62,7.25,7.25,0,0,1,2.79,6.77c-.49,1.89-2.77,2.75-4.52,2.55a3.47,3.47,0,0,1,1.13-.94,2.55,2.55,0,0,1-1.51-.77c.2-.24,1.13-.21,1.13-.21A1.25,1.25,0,0,1,161.28,58.44Z"/><path class="cls-19" d="M155.54,50.58s4.46.87,6.7,4.07.56,4.12-.23,3.79c.28,1.07,3,.37,2.21-2.15S159.3,50.81,155.54,50.58Z"/><path class="cls-20" d="M158.27,53.66a2.1,2.1,0,0,0-.92-2.58,3,3,0,0,0-1.7-.45l.17.22a2.5,2.5,0,0,1,1.37.79c.9,1,.44,2-.05,2.23s-1.07,0-1.11-.15c0,0,.49.18.66-.51s-1-1-1.36-.24A1.39,1.39,0,0,0,156,54.8,1.74,1.74,0,0,0,158.27,53.66Z"/><path class="cls-21" d="M158.27,41.85s1.52-.39,1.91,1.75-3.19,2.71-4.15.34a4.09,4.09,0,0,1,2.26-5.38c2-.92,5.68.41,6.76,4.11a6.16,6.16,0,0,1-3.25,7.53,8.12,8.12,0,0,1-7.37.18,8.12,8.12,0,0,0,7-1.91c2.91-2.83,1.68-5.83.25-6.76S158.43,41.34,158.27,41.85Z"/><path class="cls-22" d="M156.82,37.25s-.73.83-1.78-.28.78-2.86,2.27-1.83a3,3,0,0,1,.78,4.07c-.77,1.31-3.44,2-5.5.22a4.44,4.44,0,0,1-1.05-5.73,5.6,5.6,0,0,1,4.19-3,5.67,5.67,0,0,0-3.29,3.87c-.58,2.82,1.3,4.11,2.49,4.1S156.94,37.62,156.82,37.25Z"/><path class="cls-23" d="M151.69,52s.32.42.84-.07-.31-1.36-1-.94a1.36,1.36,0,0,0-.45,1.88,1.78,1.78,0,0,0,2.57.32,2,2,0,0,0,.61-2.64,2.76,2.76,0,0,0-1.9-1.56,2.8,2.8,0,0,1,1.46,1.94c.21,1.34-.69,1.87-1.25,1.82S151.64,52.17,151.69,52Z"/><path class="cls-24" d="M156.07,45.43s1.16,1.71.11,2.84-4.55.71-5.58-3,.89-11,.89-11a12.68,12.68,0,0,0-2.67,6.56c-.35,3.88,2.23,8.07,4.74,9.31s5.57-.37,7-2.42a5,5,0,0,0-2.07.33,3.55,3.55,0,0,0,.58-2.32c-.46,0-1.28,1-1.28,1A1.81,1.81,0,0,0,156.07,45.43Z"/><path class="cls-25" d="M152.89,32s-3.22,5.56-1.84,10.93,4,4.46,4.34,3.3c.89,1.3-2.36,3.49-4.4.34S149.62,36.18,152.89,32Z"/><path class="cls-26" d="M152.28,18.76s-2.2-.14-2.07,2.89,5.2,2.87,5.79-.63-1.81-6-4.77-6.76-7.65,2.05-8,7.4A8.93,8.93,0,0,0,150,31.1c3.76.94,7.28.57,10.14-1.69,0,0-5.28,2.35-10.14-.77s-4.1-7.53-2.44-9.18S151.91,18.09,152.28,18.76Z"/><path class="cls-27" d="M164.43,30.91s-.31.66-1.17.13,0-1.95,1.1-1.56a2,2,0,0,1,1.2,2.45A2.44,2.44,0,0,1,162.15,33a2.94,2.94,0,0,1-1.66-3.45,3.7,3.7,0,0,1,2.11-2.64,3.75,3.75,0,0,0-1.4,3c.13,1.89,1.53,2.38,2.28,2.16S164.56,31.12,164.43,30.91Z"/><path class="cls-28" d="M160.82,33.68s-.5.52-1.16-.24.59-1.84,1.54-1.13a1.93,1.93,0,0,1,.4,2.69A2.46,2.46,0,0,1,158,35a2.91,2.91,0,0,1-.53-3.78,3.67,3.67,0,0,1,2.83-1.84A3.71,3.71,0,0,0,158,31.8c-.45,1.83.74,2.72,1.51,2.75S160.89,33.92,160.82,33.68Z"/><path class="cls-29" d="M156.41,23.06s-1.06,2.64.73,3.91,6.44-.22,6.71-5.52S159.2,6.58,159.2,6.58a18.51,18.51,0,0,1,5.69,8.27c1.68,5.21-.55,11.62-3.6,14s-7.74,1-10.31-1.46a7.06,7.06,0,0,1,2.94-.1,5.12,5.12,0,0,1-1.52-3c.62-.14,2.06,1,2.06,1A2.43,2.43,0,0,1,156.41,23.06Z"/><path class="cls-30" d="M157.57,23.93c.89,1.48,4.69,2.06,4.91-5.65.13-4.59-2-8.84-3.73-11.53l.37-.27c4.11,5.19,6.1,12.67,4.58,16.76C161.88,28.08,156.75,25.95,157.57,23.93Z"/><path class="cls-31" d="M49.53,2.08c.15.11.67,0,.67,0a.71.71,0,0,0,.26.82s0-.84.66-1,1.57.7,1,2.15c0,.09.19.38.14.47l.59-.77a2.35,2.35,0,0,0-.35-2,2.62,2.62,0,0,0-3-.72,2,2,0,0,0,.77.37A1.5,1.5,0,0,0,49.53,2.08Z"/><path class="cls-32" d="M57.94,7.29s.62.91,1.8-.06-.42-2.92-2-2.1a2.93,2.93,0,0,0-1.29,3.92c.6,1.4,3.16,2.4,5.44.91a4.41,4.41,0,0,0,1.77-5.53A5.61,5.61,0,0,0,59.86,1a5.66,5.66,0,0,1,2.78,4.23c.22,2.86-1.81,3.89-3,3.73S57.78,7.64,57.94,7.29Z"/><path class="cls-33" d="M58.43,4.36S59.83,4,59.8,2.9s-2.05-2.48-4.29-1-4.62,6.32-4.62,6.32a9.12,9.12,0,0,1,1.62-4.74A7.25,7.25,0,0,1,59.28.7c1.89.49,2.75,2.77,2.55,4.51a3.47,3.47,0,0,1-.93-1.13,2.55,2.55,0,0,1-.77,1.51c-.24-.2-.21-1.13-.21-1.13A1.25,1.25,0,0,1,58.43,4.36Z"/><path class="cls-34" d="M50.57,10.11s.87-4.46,4.07-6.7,4.12-.56,3.79.23c1.07-.28.37-3-2.15-2.21S50.79,6.34,50.57,10.11Z"/><path class="cls-35" d="M53.65,7.37a2.09,2.09,0,0,0-2.58.92,3,3,0,0,0-.45,1.7l.22-.17a2.51,2.51,0,0,1,.79-1.37c1-.9,2-.44,2.23.05s0,1.07-.15,1.11c0,0,.18-.49-.51-.66s-1,1-.24,1.36a1.39,1.39,0,0,0,1.84-.64A1.74,1.74,0,0,0,53.65,7.37Z"/><path class="cls-36" d="M41.84,7.37s-.39-1.52,1.75-1.91,2.71,3.19.34,4.16a4.09,4.09,0,0,1-5.38-2.27c-.92-2,.41-5.68,4.11-6.76a6.16,6.16,0,0,1,7.53,3.25,8.12,8.12,0,0,1,.18,7.38,8.13,8.13,0,0,0-1.9-7C45.63,1.33,42.63,2.56,41.7,4S41.32,7.22,41.84,7.37Z"/><path class="cls-37" d="M37.24,8.82s.83.73-.28,1.78-2.85-.78-1.83-2.27a3,3,0,0,1,4.07-.78c1.31.77,2,3.44.23,5.5a4.44,4.44,0,0,1-5.73,1.06,5.61,5.61,0,0,1-3-4.19,5.67,5.67,0,0,0,3.87,3.29c2.82.57,4.11-1.3,4.1-2.49S37.6,8.71,37.24,8.82Z"/><path class="cls-38" d="M52,13.95s.41-.32-.07-.84-1.36.31-.94,1a1.36,1.36,0,0,0,1.88.45A1.78,1.78,0,0,0,53.17,12a2.05,2.05,0,0,0-2.64-.61A2.77,2.77,0,0,0,49,13.3a2.8,2.8,0,0,1,1.94-1.46c1.34-.21,1.87.69,1.82,1.25S52.16,14,52,13.95Z"/><path class="cls-39" d="M45.42,9.58s1.71-1.16,2.83-.11S49,14,45.29,15s-11-.89-11-.89a12.67,12.67,0,0,0,6.56,2.67c3.88.35,8.07-2.23,9.31-4.75s-.37-5.57-2.42-7A5,5,0,0,0,48,7.16a3.55,3.55,0,0,0-2.32-.58c0,.46,1,1.28,1,1.28A1.81,1.81,0,0,0,45.42,9.58Z"/><path class="cls-40" d="M31.95,12.75S37.51,16,42.88,14.59s4.46-4,3.3-4.34c1.3-.89,3.49,2.36.34,4.4S36.16,16,31.95,12.75Z"/><path class="cls-41" d="M18.74,13.36s-.14,2.21,2.89,2.07,2.87-5.2-.63-5.79-6,1.81-6.76,4.77,2,7.65,7.4,8a8.93,8.93,0,0,0,9.45-6.78c.94-3.76.57-7.28-1.7-10.14,0,0,2.35,5.28-.76,10.14S21.1,19.7,19.44,18,18.08,13.73,18.74,13.36Z"/><path class="cls-42" d="M30.89,1.22s.66.31.13,1.17-1.95,0-1.56-1.11A2,2,0,0,1,31.91.08,2.44,2.44,0,0,1,33,3.5a2.94,2.94,0,0,1-3.45,1.66A3.7,3.7,0,0,1,26.93,3a3.75,3.75,0,0,0,3,1.39c1.89-.13,2.38-1.53,2.16-2.27S31.1,1.09,30.89,1.22Z"/><path class="cls-43" d="M33.67,4.82s.52.5-.24,1.16-1.84-.59-1.13-1.54A1.93,1.93,0,0,1,35,4a2.47,2.47,0,0,1,0,3.61,2.91,2.91,0,0,1-3.78.53,3.68,3.68,0,0,1-1.84-2.83,3.71,3.71,0,0,0,2.43,2.26c1.83.46,2.72-.74,2.75-1.51S33.91,4.76,33.67,4.82Z"/><path class="cls-44" d="M23.05,9.23s2.64,1.06,3.91-.73-.22-6.44-5.52-6.71S6.57,6.44,6.57,6.44A18.51,18.51,0,0,1,14.84.75c5.21-1.68,11.61.55,14,3.6s1,7.73-1.46,10.31a7,7,0,0,1-.1-2.94,5.12,5.12,0,0,1-3,1.52c-.13-.62,1-2.06,1-2.06A2.43,2.43,0,0,1,23.05,9.23Z"/><path class="cls-45" d="M23.92,8.07C25.4,7.19,26,3.39,18.27,3.17,13.68,3,9.42,5.15,6.73,6.89l-.28-.36C11.65,2.41,19.14.42,23.22,1.95,28.07,3.76,25.93,8.89,23.92,8.07Z"/><path class="cls-46" d="M2.08,49.54c.11.15,0,.67,0,.67a.71.71,0,0,1,.82.26s-.83,0-1,.66.7,1.58,2.15,1c.09,0,.38.18.47.14l-.77.59a2.35,2.35,0,0,1-2-.35,2.62,2.62,0,0,1-.72-3,2.05,2.05,0,0,1,.37.77A1.51,1.51,0,0,1,2.08,49.54Z"/><path class="cls-47" d="M7.29,58s.91.62-.06,1.8-2.92-.42-2.09-2a2.93,2.93,0,0,1,3.92-1.29c1.4.6,2.4,3.16.91,5.44a4.41,4.41,0,0,1-5.53,1.77A5.61,5.61,0,0,1,1,59.87a5.66,5.66,0,0,0,4.23,2.78c2.86.22,3.89-1.81,3.73-3S7.64,57.8,7.29,58Z"/><path class="cls-48" d="M4.36,58.44S4,59.84,2.89,59.81s-2.48-2.05-1-4.29S8.23,50.9,8.23,50.9a9.12,9.12,0,0,0-4.74,1.62A7.26,7.26,0,0,0,.7,59.29c.49,1.89,2.77,2.75,4.52,2.55a3.48,3.48,0,0,0-1.13-.94,2.54,2.54,0,0,0,1.51-.77c-.2-.24-1.12-.21-1.12-.21A1.25,1.25,0,0,0,4.36,58.44Z"/><path class="cls-49" d="M10.11,50.58s-4.46.87-6.7,4.07-.56,4.12.23,3.79c-.28,1.07-3,.37-2.21-2.15S6.34,50.81,10.11,50.58Z"/><path class="cls-50" d="M7.37,53.66a2.1,2.1,0,0,1,.92-2.58A3,3,0,0,1,10,50.63l-.17.22a2.5,2.5,0,0,0-1.37.79c-.9,1-.44,2,0,2.23s1.07,0,1.11-.15c0,0-.49.18-.66-.51s1-1,1.36-.24a1.39,1.39,0,0,1-.64,1.84A1.74,1.74,0,0,1,7.37,53.66Z"/><path class="cls-51" d="M7.37,41.85s-1.52-.39-1.91,1.75,3.18,2.71,4.16.34a4.09,4.09,0,0,0-2.27-5.38c-2-.92-5.68.41-6.76,4.11A6.16,6.16,0,0,0,3.84,50.2a8.12,8.12,0,0,0,7.37.18,8.12,8.12,0,0,1-7-1.91C1.33,45.64,2.56,42.65,4,41.71S7.22,41.34,7.37,41.85Z"/><path class="cls-52" d="M8.82,37.25s.73.83,1.78-.28-.78-2.86-2.27-1.83a3,3,0,0,0-.78,4.07c.77,1.31,3.44,2,5.5.22a4.44,4.44,0,0,0,1.06-5.73,5.6,5.6,0,0,0-4.19-3,5.67,5.67,0,0,1,3.29,3.87c.57,2.82-1.3,4.11-2.49,4.1S8.71,37.62,8.82,37.25Z"/><path class="cls-53" d="M13.95,52s-.32.42-.84-.07.31-1.36,1-.94a1.36,1.36,0,0,1,.45,1.88,1.78,1.78,0,0,1-2.57.32,2,2,0,0,1-.61-2.64A2.76,2.76,0,0,1,13.3,49a2.8,2.8,0,0,0-1.46,1.94c-.21,1.34.69,1.87,1.25,1.82S14,52.17,13.95,52Z"/><path class="cls-54" d="M9.58,45.43s-1.16,1.71-.11,2.84S14,49,15,45.3s-.89-11-.89-11a12.69,12.69,0,0,1,2.67,6.56c.35,3.88-2.23,8.07-4.75,9.31s-5.57-.37-7-2.42A5,5,0,0,1,7.16,48a3.56,3.56,0,0,1-.58-2.32c.46,0,1.28,1,1.28,1A1.81,1.81,0,0,1,9.58,45.43Z"/><path class="cls-55" d="M12.75,32S16,37.52,14.59,42.89s-3.95,4.46-4.34,3.3c-.89,1.3,2.36,3.49,4.4.34S16,36.18,12.75,32Z"/><path class="cls-56" d="M13.36,18.76s2.21-.14,2.07,2.89-5.2,2.87-5.79-.63,1.81-6,4.77-6.76,7.65,2.05,8,7.4A8.93,8.93,0,0,1,15.6,31.1c-3.76.94-7.28.57-10.14-1.69,0,0,5.28,2.35,10.13-.77s4.1-7.53,2.44-9.18S13.73,18.09,13.36,18.76Z"/><path class="cls-57" d="M1.22,30.91s.31.66,1.17.13,0-1.95-1.1-1.56a2,2,0,0,0-1.2,2.45A2.44,2.44,0,0,0,3.5,33a2.93,2.93,0,0,0,1.66-3.45A3.69,3.69,0,0,0,3,26.94a3.75,3.75,0,0,1,1.39,3c-.13,1.89-1.53,2.38-2.27,2.16S1.08,31.12,1.22,30.91Z"/><path class="cls-58" d="M4.82,33.68s.5.52,1.16-.24-.6-1.84-1.54-1.13A1.93,1.93,0,0,0,4,35a2.46,2.46,0,0,0,3.61,0,2.91,2.91,0,0,0,.53-3.78,3.67,3.67,0,0,0-2.83-1.84A3.71,3.71,0,0,1,7.62,31.8c.46,1.83-.73,2.72-1.51,2.75S4.76,33.92,4.82,33.68Z"/><path class="cls-59" d="M9.23,23.06s1.06,2.64-.73,3.91-6.44-.22-6.71-5.52S6.44,6.58,6.44,6.58A18.51,18.51,0,0,0,.75,14.85c-1.68,5.21.55,11.62,3.6,14s7.73,1,10.31-1.46a7.05,7.05,0,0,0-2.94-.1,5.12,5.12,0,0,0,1.52-3c-.62-.14-2.06,1-2.06,1A2.43,2.43,0,0,0,9.23,23.06Z"/><path class="cls-60" d="M8.07,23.93C7.19,25.41,3.39,26,3.17,18.28,3,13.69,5.16,9.44,6.89,6.75l-.36-.27C2.41,11.67.42,19.15,1.95,23.23,3.77,28.08,8.89,25.95,8.07,23.93Z"/><path class="cls-61" d="M116.12,366.55c-.15-.11-.67,0-.67,0a.71.71,0,0,0-.26-.82s0,.84-.66,1-1.58-.7-1-2.15c0-.09-.18-.38-.14-.47l-.59.77a2.35,2.35,0,0,0,.35,2,2.62,2.62,0,0,0,3,.72,2.07,2.07,0,0,0-.77-.37A1.51,1.51,0,0,0,116.12,366.55Z"/><path class="cls-62" d="M107.71,361.33s-.62-.91-1.8.06.42,2.92,2,2.1a2.93,2.93,0,0,0,1.29-3.92c-.6-1.39-3.16-2.4-5.44-.91a4.4,4.4,0,0,0-1.77,5.53,5.61,5.61,0,0,0,3.78,3.49,5.65,5.65,0,0,1-2.78-4.23c-.22-2.85,1.81-3.89,3-3.73S107.86,361,107.71,361.33Z"/><path class="cls-63" d="M107.21,364.26s-1.4.38-1.37,1.46,2.05,2.48,4.29,1,4.62-6.32,4.62-6.32a9.11,9.11,0,0,1-1.62,4.74c-1.6,2.24-4.88,3.29-6.77,2.8s-2.75-2.77-2.55-4.52a3.49,3.49,0,0,1,.93,1.13,2.55,2.55,0,0,1,.77-1.51c.24.2.21,1.13.21,1.13A1.25,1.25,0,0,1,107.21,364.26Z"/><path class="cls-64" d="M115.08,358.52s-.87,4.46-4.07,6.7-4.12.57-3.79-.23c-1.07.28-.37,3,2.15,2.21S114.85,362.28,115.08,358.52Z"/><path class="cls-65" d="M112,361.25a2.09,2.09,0,0,0,2.58-.92,3,3,0,0,0,.45-1.71l-.22.17a2.52,2.52,0,0,1-.79,1.38c-1,.9-2,.44-2.23-.05s0-1.07.15-1.11c0,0-.18.49.51.66s1-1,.24-1.36a1.39,1.39,0,0,0-1.84.64A1.74,1.74,0,0,0,112,361.25Z"/><path class="cls-66" d="M123.81,361.25s.39,1.52-1.75,1.91-2.71-3.18-.34-4.15a4.09,4.09,0,0,1,5.38,2.27c.92,2-.41,5.68-4.11,6.76a6.15,6.15,0,0,1-7.53-3.24,8.12,8.12,0,0,1-.18-7.37,8.13,8.13,0,0,0,1.9,7c2.83,2.91,5.83,1.68,6.76.25S124.32,361.41,123.81,361.25Z"/><path class="cls-67" d="M128.41,359.8s-.83-.72.28-1.78,2.86.78,1.83,2.27a3,3,0,0,1-4.07.78c-1.31-.77-2-3.44-.23-5.5a4.44,4.44,0,0,1,5.73-1.06,5.6,5.6,0,0,1,3,4.19,5.67,5.67,0,0,0-3.87-3.29c-2.82-.57-4.11,1.3-4.1,2.49S128,359.91,128.41,359.8Z"/><path class="cls-68" d="M113.65,354.67s-.42.32.07.84,1.37-.31.94-1a1.36,1.36,0,0,0-1.88-.45,1.78,1.78,0,0,0-.31,2.57,2,2,0,0,0,2.64.61,2.76,2.76,0,0,0,1.57-1.9,2.81,2.81,0,0,1-1.94,1.46c-1.34.21-1.87-.7-1.82-1.25S113.49,354.61,113.65,354.67Z"/><path class="cls-69" d="M120.23,359s-1.71,1.16-2.84.11-.72-4.55,3-5.58,11,.89,11,.89a12.69,12.69,0,0,0-6.56-2.67c-3.88-.35-8.07,2.23-9.31,4.75s.38,5.57,2.42,7a5.05,5.05,0,0,0-.33-2.08,3.55,3.55,0,0,0,2.32.58c0-.46-1-1.28-1-1.28A1.82,1.82,0,0,0,120.23,359Z"/><path class="cls-70" d="M133.69,355.87s-5.56-3.22-10.93-1.84-4.46,4-3.3,4.34c-1.3.89-3.49-2.36-.34-4.4S129.48,352.6,133.69,355.87Z"/><path class="cls-71" d="M146.9,355.26s.14-2.21-2.89-2.07-2.87,5.2.63,5.79,6-1.81,6.76-4.77-2.05-7.65-7.4-8a8.93,8.93,0,0,0-9.45,6.78c-.94,3.76-.57,7.28,1.7,10.14,0,0-2.35-5.28.76-10.14s7.53-4.1,9.18-2.43S147.57,354.89,146.9,355.26Z"/><path class="cls-72" d="M134.75,367.41s-.66-.31-.13-1.17,2,0,1.56,1.1a2,2,0,0,1-2.45,1.2,2.44,2.44,0,0,1-1.11-3.42,2.94,2.94,0,0,1,3.45-1.66,3.69,3.69,0,0,1,2.64,2.11,3.74,3.74,0,0,0-3-1.39c-1.89.13-2.38,1.53-2.16,2.27S134.54,367.54,134.75,367.41Z"/><path class="cls-73" d="M132,363.8s-.52-.5.24-1.16,1.84.59,1.13,1.54a1.93,1.93,0,0,1-2.69.4,2.47,2.47,0,0,1,0-3.61,2.9,2.9,0,0,1,3.78-.53,3.67,3.67,0,0,1,1.84,2.83,3.71,3.71,0,0,0-2.44-2.26c-1.83-.46-2.72.73-2.75,1.51S131.74,363.86,132,363.8Z"/><path class="cls-74" d="M142.59,359.39s-2.64-1.06-3.91.72.22,6.45,5.52,6.71,14.87-4.64,14.87-4.64a18.51,18.51,0,0,1-8.27,5.69c-5.21,1.68-11.62-.55-14-3.6s-1-7.73,1.46-10.31a7.06,7.06,0,0,1,.1,2.94,5.11,5.11,0,0,1,3-1.52c.13.62-1,2.06-1,2.06A2.43,2.43,0,0,1,142.59,359.39Z"/><path class="cls-75" d="M141.73,360.55c-1.48.89-2.06,4.69,5.65,4.91,4.59.13,8.84-2,11.53-3.73l.27.36c-5.19,4.12-12.67,6.11-16.76,4.58C137.57,364.86,139.71,359.73,141.73,360.55Z"/><path class="cls-76" d="M163.57,319.08c-.11-.15,0-.67,0-.67a.71.71,0,0,1-.82-.26s.84,0,1-.66-.69-1.57-2.15-1c-.09,0-.38-.19-.47-.14l.77-.59a2.36,2.36,0,0,1,2,.35,2.62,2.62,0,0,1,.72,3,2.08,2.08,0,0,1-.37-.78A1.51,1.51,0,0,1,163.57,319.08Z"/><path class="cls-77" d="M158.35,310.67s-.91-.62.06-1.8,2.92.42,2.1,2a2.93,2.93,0,0,1-3.92,1.29c-1.39-.6-2.4-3.16-.91-5.44a4.41,4.41,0,0,1,5.53-1.77,5.61,5.61,0,0,1,3.49,3.78,5.65,5.65,0,0,0-4.23-2.78c-2.86-.22-3.89,1.8-3.73,3S158,310.83,158.35,310.67Z"/><path class="cls-78" d="M161.28,310.18s.38-1.39,1.47-1.36,2.48,2.05,1,4.29-6.32,4.62-6.32,4.62a9.13,9.13,0,0,0,4.74-1.62,7.25,7.25,0,0,0,2.79-6.77c-.49-1.89-2.77-2.75-4.52-2.55a3.47,3.47,0,0,0,1.13.94,2.54,2.54,0,0,0-1.51.76c.2.24,1.13.21,1.13.21A1.25,1.25,0,0,0,161.28,310.18Z"/><path class="cls-79" d="M155.54,318s4.46-.87,6.7-4.07.56-4.12-.23-3.79c.28-1.07,3-.37,2.21,2.15S159.3,317.82,155.54,318Z"/><path class="cls-80" d="M158.27,315a2.09,2.09,0,0,1-.92,2.58,3,3,0,0,1-1.7.46l.17-.22a2.49,2.49,0,0,0,1.37-.79c.9-1,.44-2-.05-2.23s-1.07,0-1.11.15c0,0,.49-.18.66.51s-1,1-1.36.24a1.39,1.39,0,0,1,.64-1.84A1.74,1.74,0,0,1,158.27,315Z"/><path class="cls-81" d="M158.27,326.77s1.52.39,1.91-1.75-3.19-2.71-4.15-.34a4.09,4.09,0,0,0,2.26,5.38c2,.92,5.68-.41,6.76-4.11a6.16,6.16,0,0,0-3.25-7.53,8.12,8.12,0,0,0-7.37-.18,8.12,8.12,0,0,1,7,1.9c2.91,2.84,1.68,5.83.25,6.76S158.43,327.29,158.27,326.77Z"/><path class="cls-82" d="M156.82,331.37s-.73-.83-1.78.29.78,2.85,2.27,1.83a3,3,0,0,0,.78-4.07c-.77-1.31-3.44-2-5.5-.22a4.44,4.44,0,0,0-1.05,5.73,5.61,5.61,0,0,0,4.19,3,5.67,5.67,0,0,1-3.29-3.87c-.58-2.82,1.3-4.11,2.49-4.1S156.94,331,156.82,331.37Z"/><path class="cls-83" d="M151.69,316.62s.32-.42.84.07-.31,1.37-1,.95a1.36,1.36,0,0,1-.45-1.87,1.78,1.78,0,0,1,2.57-.32,2.05,2.05,0,0,1,.61,2.64,2.77,2.77,0,0,1-1.9,1.56,2.8,2.8,0,0,0,1.46-1.94c.21-1.34-.69-1.87-1.25-1.82S151.64,316.46,151.69,316.62Z"/><path class="cls-84" d="M156.07,323.2s1.16-1.71.11-2.84-4.55-.71-5.58,3,.89,11.05.89,11.05a12.68,12.68,0,0,1-2.67-6.56c-.35-3.88,2.23-8.06,4.74-9.31s5.57.37,7,2.42a5,5,0,0,1-2.07-.33,3.55,3.55,0,0,1,.58,2.32c-.46,0-1.28-1-1.28-1A1.81,1.81,0,0,1,156.07,323.2Z"/><path class="cls-85" d="M152.89,336.66s-3.22-5.56-1.84-10.93,4-4.46,4.34-3.3c.89-1.3-2.36-3.49-4.4-.34S149.62,332.45,152.89,336.66Z"/><path class="cls-86" d="M152.28,349.87s-2.2.14-2.07-2.89,5.2-2.87,5.79.63-1.81,6-4.77,6.76-7.65-2.05-8-7.4a8.93,8.93,0,0,1,6.78-9.45c3.76-.94,7.28-.57,10.14,1.7,0,0-5.28-2.35-10.14.77s-4.1,7.53-2.44,9.18S151.91,350.53,152.28,349.87Z"/><path class="cls-87" d="M164.43,337.72s-.31-.66-1.17-.13,0,1.95,1.1,1.56a2,2,0,0,0,1.2-2.45,2.44,2.44,0,0,0-3.42-1.11,2.94,2.94,0,0,0-1.66,3.45,3.7,3.7,0,0,0,2.11,2.64,3.75,3.75,0,0,1-1.4-3c.13-1.89,1.53-2.38,2.28-2.16S164.56,337.51,164.43,337.72Z"/><path class="cls-88" d="M160.82,334.94s-.5-.52-1.16.24.59,1.84,1.54,1.13a1.93,1.93,0,0,0,.4-2.69,2.47,2.47,0,0,0-3.61,0,2.91,2.91,0,0,0-.53,3.78,3.68,3.68,0,0,0,2.83,1.84,3.71,3.71,0,0,1-2.26-2.43c-.45-1.83.74-2.72,1.51-2.75S160.89,334.7,160.82,334.94Z"/><path class="cls-89" d="M156.41,345.56s-1.06-2.64.73-3.91,6.44.22,6.71,5.52S159.2,362,159.2,362a18.51,18.51,0,0,0,5.69-8.27c1.68-5.21-.55-11.61-3.6-14s-7.74-1-10.31,1.46a7.05,7.05,0,0,0,2.94.1,5.12,5.12,0,0,0-1.52,3c.62.13,2.06-1,2.06-1A2.43,2.43,0,0,0,156.41,345.56Z"/><path class="cls-90" d="M157.57,344.69c.89-1.48,4.69-2.06,4.91,5.65.13,4.59-2,8.84-3.73,11.53l.37.28c4.11-5.19,6.1-12.68,4.58-16.76C161.88,340.54,156.75,342.68,157.57,344.69Z"/><path class="cls-91" d="M49.53,366.55c.15-.11.67,0,.67,0a.71.71,0,0,1,.26-.82s0,.84.66,1,1.57-.7,1-2.15c0-.09.19-.38.14-.47l.59.77a2.36,2.36,0,0,1-.35,2,2.62,2.62,0,0,1-3,.72,2.06,2.06,0,0,1,.77-.37A1.51,1.51,0,0,1,49.53,366.55Z"/><path class="cls-92" d="M57.94,361.33s.62-.91,1.8.06-.42,2.92-2,2.1a2.93,2.93,0,0,1-1.29-3.92c.6-1.39,3.16-2.4,5.44-.91a4.4,4.4,0,0,1,1.77,5.53,5.61,5.61,0,0,1-3.78,3.49,5.66,5.66,0,0,0,2.78-4.23c.22-2.85-1.81-3.89-3-3.73S57.78,361,57.94,361.33Z"/><path class="cls-93" d="M58.43,364.26s1.4.38,1.37,1.46-2.05,2.48-4.29,1-4.62-6.32-4.62-6.32a9.11,9.11,0,0,0,1.62,4.74c1.6,2.24,4.88,3.29,6.77,2.8s2.75-2.77,2.55-4.52a3.49,3.49,0,0,0-.93,1.13,2.54,2.54,0,0,0-.77-1.51c-.24.2-.21,1.13-.21,1.13A1.25,1.25,0,0,0,58.43,364.26Z"/><path class="cls-94" d="M50.57,358.52s.87,4.46,4.07,6.7,4.12.57,3.79-.23c1.07.28.37,3-2.15,2.21S50.79,362.28,50.57,358.52Z"/><path class="cls-95" d="M53.65,361.25a2.09,2.09,0,0,1-2.58-.92,3,3,0,0,1-.45-1.71l.22.17a2.51,2.51,0,0,0,.79,1.38c1,.9,2,.44,2.23-.05s0-1.07-.15-1.11c0,0,.18.49-.51.66s-1-1-.24-1.36a1.39,1.39,0,0,1,1.84.64A1.74,1.74,0,0,1,53.65,361.25Z"/><path class="cls-96" d="M41.84,361.25s-.39,1.52,1.75,1.91,2.71-3.18.34-4.15a4.09,4.09,0,0,0-5.38,2.27c-.92,2,.41,5.68,4.11,6.76a6.15,6.15,0,0,0,7.53-3.24,8.12,8.12,0,0,0,.18-7.37,8.13,8.13,0,0,1-1.9,7c-2.83,2.91-5.83,1.68-6.76.25S41.32,361.41,41.84,361.25Z"/><path class="cls-97" d="M37.24,359.8s.83-.72-.28-1.78-2.85.78-1.83,2.27a3,3,0,0,0,4.07.78c1.31-.77,2-3.44.23-5.5a4.44,4.44,0,0,0-5.73-1.06,5.61,5.61,0,0,0-3,4.19,5.67,5.67,0,0,1,3.87-3.29c2.82-.57,4.11,1.3,4.1,2.49S37.6,359.91,37.24,359.8Z"/><path class="cls-98" d="M52,354.67s.41.32-.07.84-1.36-.31-.94-1a1.36,1.36,0,0,1,1.88-.45,1.78,1.78,0,0,1,.32,2.57,2,2,0,0,1-2.64.61,2.77,2.77,0,0,1-1.57-1.9,2.8,2.8,0,0,0,1.94,1.46c1.34.21,1.87-.7,1.82-1.25S52.16,354.61,52,354.67Z"/><path class="cls-99" d="M45.42,359s1.71,1.16,2.83.11.72-4.55-3-5.58-11,.89-11,.89a12.69,12.69,0,0,1,6.56-2.67c3.88-.35,8.07,2.23,9.31,4.75s-.37,5.57-2.42,7a5,5,0,0,1,.33-2.08,3.54,3.54,0,0,1-2.32.58c0-.46,1-1.28,1-1.28A1.81,1.81,0,0,1,45.42,359Z"/><path class="cls-100" d="M31.95,355.87s5.56-3.22,10.93-1.84,4.46,4,3.3,4.34c1.3.89,3.49-2.36.34-4.4S36.16,352.6,31.95,355.87Z"/><path class="cls-101" d="M18.74,355.26s-.14-2.21,2.89-2.07,2.87,5.2-.63,5.79-6-1.81-6.76-4.77,2-7.65,7.4-8A8.93,8.93,0,0,1,31.09,353c.94,3.76.57,7.28-1.7,10.14,0,0,2.35-5.28-.76-10.14s-7.53-4.1-9.19-2.43S18.08,354.89,18.74,355.26Z"/><path class="cls-102" d="M30.89,367.41s.66-.31.13-1.17-1.95,0-1.56,1.1a2,2,0,0,0,2.45,1.2A2.44,2.44,0,0,0,33,365.13a2.94,2.94,0,0,0-3.45-1.66,3.7,3.7,0,0,0-2.64,2.11,3.75,3.75,0,0,1,3-1.39c1.89.13,2.38,1.53,2.16,2.27S31.1,367.54,30.89,367.41Z"/><path class="cls-103" d="M33.67,363.8s.52-.5-.24-1.16-1.84.59-1.13,1.54a1.93,1.93,0,0,0,2.69.4A2.47,2.47,0,0,0,35,361a2.9,2.9,0,0,0-3.78-.53,3.68,3.68,0,0,0-1.84,2.83A3.71,3.71,0,0,1,31.79,361c1.83-.46,2.72.73,2.75,1.51S33.91,363.86,33.67,363.8Z"/><path class="cls-104" d="M23.05,359.39s2.64-1.06,3.91.72-.22,6.45-5.52,6.71-14.87-4.64-14.87-4.64a18.51,18.51,0,0,0,8.27,5.69c5.21,1.68,11.61-.55,14-3.6s1-7.73-1.46-10.31a7.05,7.05,0,0,0-.1,2.94,5.12,5.12,0,0,0-3-1.52c-.13.62,1,2.06,1,2.06A2.43,2.43,0,0,0,23.05,359.39Z"/><path class="cls-105" d="M23.92,360.55c1.48.89,2.06,4.69-5.65,4.91-4.59.13-8.84-2-11.53-3.73l-.28.36c5.19,4.12,12.68,6.11,16.76,4.58C28.07,364.86,25.93,359.73,23.92,360.55Z"/><path class="cls-106" d="M2.08,319.08c.11-.15,0-.67,0-.67a.71.71,0,0,0,.82-.26s-.83,0-1-.66.7-1.57,2.15-1c.09,0,.38-.19.47-.14l-.77-.59a2.37,2.37,0,0,0-2,.35,2.62,2.62,0,0,0-.72,3,2.06,2.06,0,0,0,.37-.78A1.51,1.51,0,0,0,2.08,319.08Z"/><path class="cls-107" d="M7.29,310.67s.91-.62-.06-1.8-2.92.42-2.09,2a2.93,2.93,0,0,0,3.92,1.29c1.4-.6,2.4-3.16.91-5.44A4.41,4.41,0,0,0,4.45,305,5.61,5.61,0,0,0,1,308.75,5.65,5.65,0,0,1,5.19,306c2.86-.22,3.89,1.8,3.73,3S7.64,310.83,7.29,310.67Z"/><path class="cls-108" d="M4.36,310.18s-.38-1.39-1.47-1.36-2.48,2.05-1,4.29,6.32,4.62,6.32,4.62a9.12,9.12,0,0,1-4.74-1.62A7.25,7.25,0,0,1,.7,309.33c.49-1.89,2.77-2.75,4.52-2.55a3.48,3.48,0,0,1-1.13.94,2.53,2.53,0,0,1,1.51.76c-.2.24-1.12.21-1.12.21A1.25,1.25,0,0,1,4.36,310.18Z"/><path class="cls-109" d="M10.11,318s-4.46-.87-6.7-4.07-.56-4.12.23-3.79c-.28-1.07-3-.37-2.21,2.15S6.34,317.82,10.11,318Z"/><path class="cls-110" d="M7.37,315a2.09,2.09,0,0,0,.92,2.58A3,3,0,0,0,10,318l-.17-.22A2.49,2.49,0,0,1,8.46,317c-.9-1-.44-2,0-2.23s1.07,0,1.11.15c0,0-.49-.18-.66.51s1,1,1.36.24a1.39,1.39,0,0,0-.64-1.84A1.74,1.74,0,0,0,7.37,315Z"/><path class="cls-111" d="M7.37,326.77s-1.52.39-1.91-1.75,3.18-2.71,4.16-.34a4.09,4.09,0,0,1-2.27,5.38c-2,.92-5.68-.41-6.76-4.11a6.16,6.16,0,0,1,3.25-7.53,8.12,8.12,0,0,1,7.37-.18,8.12,8.12,0,0,0-7,1.9C1.33,323,2.56,326,4,326.91S7.22,327.29,7.37,326.77Z"/><path class="cls-112" d="M8.82,331.37s.73-.83,1.78.29-.78,2.85-2.27,1.83a3,3,0,0,1-.78-4.07c.77-1.31,3.44-2,5.5-.22a4.44,4.44,0,0,1,1.06,5.73,5.61,5.61,0,0,1-4.19,3,5.67,5.67,0,0,0,3.29-3.87c.57-2.82-1.3-4.11-2.49-4.1S8.71,331,8.82,331.37Z"/><path class="cls-113" d="M13.95,316.62s-.32-.42-.84.07.31,1.37,1,.95a1.36,1.36,0,0,0,.45-1.87,1.78,1.78,0,0,0-2.57-.32,2.05,2.05,0,0,0-.61,2.64,2.77,2.77,0,0,0,1.9,1.56,2.8,2.8,0,0,1-1.46-1.94c-.21-1.34.69-1.87,1.25-1.82S14,316.46,13.95,316.62Z"/><path class="cls-114" d="M9.58,323.2s-1.16-1.71-.11-2.84,4.55-.71,5.58,3-.89,11.05-.89,11.05a12.68,12.68,0,0,0,2.67-6.56c.35-3.88-2.23-8.06-4.75-9.31s-5.57.37-7,2.42a5,5,0,0,0,2.07-.33,3.56,3.56,0,0,0-.58,2.32c.46,0,1.28-1,1.28-1A1.81,1.81,0,0,0,9.58,323.2Z"/><path class="cls-115" d="M12.75,336.66s3.22-5.56,1.84-10.93-3.95-4.46-4.34-3.3c-.89-1.3,2.36-3.49,4.4-.34S16,332.45,12.75,336.66Z"/><path class="cls-116" d="M13.36,349.87s2.21.14,2.07-2.89-5.2-2.87-5.79.63,1.81,6,4.77,6.76,7.65-2.05,8-7.4a8.93,8.93,0,0,0-6.78-9.45c-3.76-.94-7.28-.57-10.14,1.7,0,0,5.28-2.35,10.13.77s4.1,7.53,2.44,9.18S13.73,350.53,13.36,349.87Z"/><path class="cls-117" d="M1.22,337.72s.31-.66,1.17-.13,0,1.95-1.1,1.56a2,2,0,0,1-1.2-2.45,2.44,2.44,0,0,1,3.42-1.11A2.93,2.93,0,0,1,5.15,339,3.69,3.69,0,0,1,3,341.69a3.75,3.75,0,0,0,1.39-3c-.13-1.89-1.53-2.38-2.27-2.16S1.08,337.51,1.22,337.72Z"/><path class="cls-118" d="M4.82,334.94s.5-.52,1.16.24-.6,1.84-1.54,1.13a1.93,1.93,0,0,1-.4-2.69,2.47,2.47,0,0,1,3.61,0,2.91,2.91,0,0,1,.53,3.78,3.67,3.67,0,0,1-2.83,1.84,3.71,3.71,0,0,0,2.26-2.43c.46-1.83-.73-2.72-1.51-2.75S4.76,334.7,4.82,334.94Z"/><path class="cls-119" d="M9.23,345.56s1.06-2.64-.73-3.91-6.44.22-6.71,5.52S6.44,362,6.44,362a18.51,18.51,0,0,1-5.69-8.27c-1.68-5.21.55-11.61,3.6-14s7.73-1,10.31,1.46a7,7,0,0,1-2.94.1,5.12,5.12,0,0,1,1.52,3c-.62.13-2.06-1-2.06-1A2.43,2.43,0,0,1,9.23,345.56Z"/><path class="cls-120" d="M8.07,344.69c-.89-1.48-4.69-2.06-4.91,5.65-.13,4.59,2,8.84,3.72,11.53l-.36.28C2.41,357,.42,349.48,1.95,345.39,3.77,340.54,8.89,342.68,8.07,344.69Z"/></g></g></svg>